<?xml version="1.0" encoding="utf-8" standalone="no"?>
<!DOCTYPE svg PUBLIC "-//W3C//DTD SVG 1.1//EN"
  "http://www.w3.org/Graphics/SVG/1.1/DTD/svg11.dtd">
<svg xmlns:xlink="http://www.w3.org/1999/xlink" width="611.84375pt" height="313.770489pt" viewBox="0 0 611.84375 313.770489" xmlns="http://www.w3.org/2000/svg" version="1.1">
 <metadata>
  <rdf:RDF xmlns:dc="http://purl.org/dc/elements/1.1/" xmlns:cc="http://creativecommons.org/ns#" xmlns:rdf="http://www.w3.org/1999/02/22-rdf-syntax-ns#">
   <cc:Work>
    <dc:type rdf:resource="http://purl.org/dc/dcmitype/StillImage"/>
    <dc:date>2024-11-19T16:18:28.848068</dc:date>
    <dc:format>image/svg+xml</dc:format>
    <dc:creator>
     <cc:Agent>
      <dc:title>Matplotlib v3.9.2, https://matplotlib.org/</dc:title>
     </cc:Agent>
    </dc:creator>
   </cc:Work>
  </rdf:RDF>
 </metadata>
 <defs>
  <style type="text/css">*{stroke-linejoin: round; stroke-linecap: butt}</style>
 </defs>
 <g id="figure_1">
  <g id="patch_1">
   <path d="M 0 313.770489 
L 611.84375 313.770489 
L 611.84375 0 
L 0 0 
z
" style="fill: #ffffff"/>
  </g>
  <g id="axes_1">
   <g id="patch_2">
    <path d="M 46.64375 143.636625 
L 604.64375 143.636625 
L 604.64375 42.836625 
L 46.64375 42.836625 
z
" style="fill: #ffffff"/>
   </g>
   <g id="matplotlib.axis_1">
    <g id="xtick_1">
     <g id="line2d_1">
      <defs>
       <path id="m8c6678f234" d="M 0 0 
L 0 -3.5 
" style="stroke: #000000; stroke-width: 0.8"/>
      </defs>
      <g>
       <use xlink:href="#m8c6678f234" x="94.65349" y="143.636625" style="stroke: #000000; stroke-width: 0.8"/>
      </g>
     </g>
    </g>
    <g id="xtick_2">
     <g id="line2d_2">
      <g>
       <use xlink:href="#m8c6678f234" x="158.062581" y="143.636625" style="stroke: #000000; stroke-width: 0.8"/>
      </g>
     </g>
    </g>
    <g id="xtick_3">
     <g id="line2d_3">
      <g>
       <use xlink:href="#m8c6678f234" x="221.471672" y="143.636625" style="stroke: #000000; stroke-width: 0.8"/>
      </g>
     </g>
    </g>
    <g id="xtick_4">
     <g id="line2d_4">
      <g>
       <use xlink:href="#m8c6678f234" x="302.997646" y="143.636625" style="stroke: #000000; stroke-width: 0.8"/>
      </g>
     </g>
    </g>
    <g id="xtick_5">
     <g id="line2d_5">
      <g>
       <use xlink:href="#m8c6678f234" x="366.406737" y="143.636625" style="stroke: #000000; stroke-width: 0.8"/>
      </g>
     </g>
    </g>
    <g id="xtick_6">
     <g id="line2d_6">
      <g>
       <use xlink:href="#m8c6678f234" x="429.815828" y="143.636625" style="stroke: #000000; stroke-width: 0.8"/>
      </g>
     </g>
    </g>
    <g id="xtick_7">
     <g id="line2d_7">
      <g>
       <use xlink:href="#m8c6678f234" x="493.224919" y="143.636625" style="stroke: #000000; stroke-width: 0.8"/>
      </g>
     </g>
    </g>
    <g id="xtick_8">
     <g id="line2d_8">
      <g>
       <use xlink:href="#m8c6678f234" x="556.63401" y="143.636625" style="stroke: #000000; stroke-width: 0.8"/>
      </g>
     </g>
    </g>
   </g>
   <g id="matplotlib.axis_2">
    <g id="ytick_1">
     <g id="line2d_9">
      <path d="M 46.64375 128.700345 
L 604.64375 128.700345 
" clip-path="url(#p962ea08634)" style="fill: none; stroke-dasharray: 2.96,1.28; stroke-dashoffset: 0; stroke: #b0b0b0; stroke-opacity: 0.5; stroke-width: 0.8"/>
     </g>
     <g id="line2d_10">
      <defs>
       <path id="mf75faee8b7" d="M 0 0 
L 3.5 0 
" style="stroke: #000000; stroke-width: 0.8"/>
      </defs>
      <g>
       <use xlink:href="#mf75faee8b7" x="46.64375" y="128.700345" style="stroke: #000000; stroke-width: 0.8"/>
      </g>
     </g>
     <g id="text_1">
      <!-- $\mathdefault{10^{3}}$ -->
      <g transform="translate(25.54375 132.499563) scale(0.1 -0.1)">
       <defs>
        <path id="DejaVuSerif-31" d="M 909 0 
L 909 331 
L 1722 331 
L 1722 4213 
L 781 3603 
L 781 4013 
L 1919 4750 
L 2350 4750 
L 2350 331 
L 3163 331 
L 3163 0 
L 909 0 
z
" transform="scale(0.015625)"/>
        <path id="DejaVuSerif-30" d="M 2034 219 
Q 2513 219 2750 744 
Q 2988 1269 2988 2328 
Q 2988 3391 2750 3916 
Q 2513 4441 2034 4441 
Q 1556 4441 1318 3916 
Q 1081 3391 1081 2328 
Q 1081 1269 1318 744 
Q 1556 219 2034 219 
z
M 2034 -91 
Q 1275 -91 848 546 
Q 422 1184 422 2328 
Q 422 3475 848 4112 
Q 1275 4750 2034 4750 
Q 2797 4750 3222 4112 
Q 3647 3475 3647 2328 
Q 3647 1184 3222 546 
Q 2797 -91 2034 -91 
z
" transform="scale(0.015625)"/>
        <path id="DejaVuSerif-33" d="M 622 4469 
Q 988 4606 1323 4678 
Q 1659 4750 1953 4750 
Q 2638 4750 3022 4454 
Q 3406 4159 3406 3634 
Q 3406 3213 3140 2930 
Q 2875 2647 2388 2547 
Q 2963 2466 3280 2130 
Q 3597 1794 3597 1259 
Q 3597 606 3158 257 
Q 2719 -91 1894 -91 
Q 1528 -91 1179 -12 
Q 831 66 488 225 
L 488 1131 
L 838 1131 
Q 869 681 1141 450 
Q 1413 219 1906 219 
Q 2384 219 2661 495 
Q 2938 772 2938 1253 
Q 2938 1803 2653 2086 
Q 2369 2369 1819 2369 
L 1522 2369 
L 1522 2688 
L 1678 2688 
Q 2225 2688 2498 2914 
Q 2772 3141 2772 3597 
Q 2772 4006 2547 4223 
Q 2322 4441 1900 4441 
Q 1478 4441 1245 4241 
Q 1013 4041 972 3647 
L 622 3647 
L 622 4469 
z
" transform="scale(0.015625)"/>
       </defs>
       <use xlink:href="#DejaVuSerif-31" transform="translate(0 0.7125)"/>
       <use xlink:href="#DejaVuSerif-30" transform="translate(63.623047 0.7125)"/>
       <use xlink:href="#DejaVuSerif-33" transform="translate(128.154453 37.046875) scale(0.7)"/>
      </g>
     </g>
    </g>
    <g id="ytick_2">
     <g id="line2d_11">
      <path d="M 46.64375 102.56408 
L 604.64375 102.56408 
" clip-path="url(#p962ea08634)" style="fill: none; stroke-dasharray: 2.96,1.28; stroke-dashoffset: 0; stroke: #b0b0b0; stroke-opacity: 0.5; stroke-width: 0.8"/>
     </g>
     <g id="line2d_12">
      <g>
       <use xlink:href="#mf75faee8b7" x="46.64375" y="102.56408" style="stroke: #000000; stroke-width: 0.8"/>
      </g>
     </g>
     <g id="text_2">
      <!-- $\mathdefault{10^{4}}$ -->
      <g transform="translate(25.54375 106.363299) scale(0.1 -0.1)">
       <defs>
        <path id="DejaVuSerif-34" d="M 2234 1581 
L 2234 4063 
L 641 1581 
L 2234 1581 
z
M 3609 0 
L 1484 0 
L 1484 331 
L 2234 331 
L 2234 1247 
L 197 1247 
L 197 1588 
L 2241 4750 
L 2859 4750 
L 2859 1581 
L 3750 1581 
L 3750 1247 
L 2859 1247 
L 2859 331 
L 3609 331 
L 3609 0 
z
" transform="scale(0.015625)"/>
       </defs>
       <use xlink:href="#DejaVuSerif-31" transform="translate(0 0.7125)"/>
       <use xlink:href="#DejaVuSerif-30" transform="translate(63.623047 0.7125)"/>
       <use xlink:href="#DejaVuSerif-34" transform="translate(128.154453 37.046875) scale(0.7)"/>
      </g>
     </g>
    </g>
    <g id="ytick_3">
     <g id="line2d_13">
      <path d="M 46.64375 76.427815 
L 604.64375 76.427815 
" clip-path="url(#p962ea08634)" style="fill: none; stroke-dasharray: 2.96,1.28; stroke-dashoffset: 0; stroke: #b0b0b0; stroke-opacity: 0.5; stroke-width: 0.8"/>
     </g>
     <g id="line2d_14">
      <g>
       <use xlink:href="#mf75faee8b7" x="46.64375" y="76.427815" style="stroke: #000000; stroke-width: 0.8"/>
      </g>
     </g>
     <g id="text_3">
      <!-- $\mathdefault{10^{5}}$ -->
      <g transform="translate(25.54375 80.227034) scale(0.1 -0.1)">
       <defs>
        <path id="DejaVuSerif-35" d="M 3219 4666 
L 3219 4153 
L 1081 4153 
L 1081 2816 
Q 1244 2928 1461 2984 
Q 1678 3041 1947 3041 
Q 2703 3041 3140 2622 
Q 3578 2203 3578 1478 
Q 3578 738 3136 323 
Q 2694 -91 1894 -91 
Q 1572 -91 1234 -12 
Q 897 66 544 225 
L 544 1131 
L 897 1131 
Q 925 688 1179 453 
Q 1434 219 1894 219 
Q 2388 219 2653 544 
Q 2919 869 2919 1478 
Q 2919 2084 2655 2407 
Q 2391 2731 1894 2731 
Q 1613 2731 1398 2631 
Q 1184 2531 1019 2322 
L 750 2322 
L 750 4666 
L 3219 4666 
z
" transform="scale(0.015625)"/>
       </defs>
       <use xlink:href="#DejaVuSerif-31" transform="translate(0 0.63125)"/>
       <use xlink:href="#DejaVuSerif-30" transform="translate(63.623047 0.63125)"/>
       <use xlink:href="#DejaVuSerif-35" transform="translate(128.154453 36.965625) scale(0.7)"/>
      </g>
     </g>
    </g>
    <g id="ytick_4">
     <g id="line2d_15">
      <path d="M 46.64375 50.291551 
L 604.64375 50.291551 
" clip-path="url(#p962ea08634)" style="fill: none; stroke-dasharray: 2.96,1.28; stroke-dashoffset: 0; stroke: #b0b0b0; stroke-opacity: 0.5; stroke-width: 0.8"/>
     </g>
     <g id="line2d_16">
      <g>
       <use xlink:href="#mf75faee8b7" x="46.64375" y="50.291551" style="stroke: #000000; stroke-width: 0.8"/>
      </g>
     </g>
     <g id="text_4">
      <!-- $\mathdefault{10^{6}}$ -->
      <g transform="translate(25.54375 54.090769) scale(0.1 -0.1)">
       <defs>
        <path id="DejaVuSerif-36" d="M 2094 219 
Q 2534 219 2771 542 
Q 3009 866 3009 1472 
Q 3009 2078 2771 2401 
Q 2534 2725 2094 2725 
Q 1647 2725 1412 2412 
Q 1178 2100 1178 1509 
Q 1178 888 1415 553 
Q 1653 219 2094 219 
z
M 1075 2569 
Q 1288 2803 1556 2918 
Q 1825 3034 2163 3034 
Q 2859 3034 3264 2615 
Q 3669 2197 3669 1472 
Q 3669 763 3233 336 
Q 2797 -91 2069 -91 
Q 1278 -91 853 498 
Q 428 1088 428 2181 
Q 428 3406 931 4078 
Q 1434 4750 2350 4750 
Q 2597 4750 2869 4703 
Q 3141 4656 3425 4563 
L 3425 3794 
L 3072 3794 
Q 3034 4109 2831 4275 
Q 2628 4441 2284 4441 
Q 1678 4441 1381 3981 
Q 1084 3522 1075 2569 
z
" transform="scale(0.015625)"/>
       </defs>
       <use xlink:href="#DejaVuSerif-31" transform="translate(0 0.7125)"/>
       <use xlink:href="#DejaVuSerif-30" transform="translate(63.623047 0.7125)"/>
       <use xlink:href="#DejaVuSerif-36" transform="translate(128.154453 37.046875) scale(0.7)"/>
      </g>
     </g>
    </g>
    <g id="ytick_5">
     <g id="line2d_17">
      <defs>
       <path id="m46e9134752" d="M 0 0 
L 2 0 
" style="stroke: #000000; stroke-width: 0.6"/>
      </defs>
      <g>
       <use xlink:href="#m46e9134752" x="46.64375" y="142.366442" style="stroke: #000000; stroke-width: 0.6"/>
      </g>
     </g>
    </g>
    <g id="ytick_6">
     <g id="line2d_18">
      <g>
       <use xlink:href="#m46e9134752" x="46.64375" y="139.10101" style="stroke: #000000; stroke-width: 0.6"/>
      </g>
     </g>
    </g>
    <g id="ytick_7">
     <g id="line2d_19">
      <g>
       <use xlink:href="#m46e9134752" x="46.64375" y="136.568144" style="stroke: #000000; stroke-width: 0.6"/>
      </g>
     </g>
    </g>
    <g id="ytick_8">
     <g id="line2d_20">
      <g>
       <use xlink:href="#m46e9134752" x="46.64375" y="134.498642" style="stroke: #000000; stroke-width: 0.6"/>
      </g>
     </g>
    </g>
    <g id="ytick_9">
     <g id="line2d_21">
      <g>
       <use xlink:href="#m46e9134752" x="46.64375" y="132.748903" style="stroke: #000000; stroke-width: 0.6"/>
      </g>
     </g>
    </g>
    <g id="ytick_10">
     <g id="line2d_22">
      <g>
       <use xlink:href="#m46e9134752" x="46.64375" y="131.23321" style="stroke: #000000; stroke-width: 0.6"/>
      </g>
     </g>
    </g>
    <g id="ytick_11">
     <g id="line2d_23">
      <g>
       <use xlink:href="#m46e9134752" x="46.64375" y="129.896274" style="stroke: #000000; stroke-width: 0.6"/>
      </g>
     </g>
    </g>
    <g id="ytick_12">
     <g id="line2d_24">
      <g>
       <use xlink:href="#m46e9134752" x="46.64375" y="120.832545" style="stroke: #000000; stroke-width: 0.6"/>
      </g>
     </g>
    </g>
    <g id="ytick_13">
     <g id="line2d_25">
      <g>
       <use xlink:href="#m46e9134752" x="46.64375" y="116.230177" style="stroke: #000000; stroke-width: 0.6"/>
      </g>
     </g>
    </g>
    <g id="ytick_14">
     <g id="line2d_26">
      <g>
       <use xlink:href="#m46e9134752" x="46.64375" y="112.964745" style="stroke: #000000; stroke-width: 0.6"/>
      </g>
     </g>
    </g>
    <g id="ytick_15">
     <g id="line2d_27">
      <g>
       <use xlink:href="#m46e9134752" x="46.64375" y="110.43188" style="stroke: #000000; stroke-width: 0.6"/>
      </g>
     </g>
    </g>
    <g id="ytick_16">
     <g id="line2d_28">
      <g>
       <use xlink:href="#m46e9134752" x="46.64375" y="108.362378" style="stroke: #000000; stroke-width: 0.6"/>
      </g>
     </g>
    </g>
    <g id="ytick_17">
     <g id="line2d_29">
      <g>
       <use xlink:href="#m46e9134752" x="46.64375" y="106.612639" style="stroke: #000000; stroke-width: 0.6"/>
      </g>
     </g>
    </g>
    <g id="ytick_18">
     <g id="line2d_30">
      <g>
       <use xlink:href="#m46e9134752" x="46.64375" y="105.096946" style="stroke: #000000; stroke-width: 0.6"/>
      </g>
     </g>
    </g>
    <g id="ytick_19">
     <g id="line2d_31">
      <g>
       <use xlink:href="#m46e9134752" x="46.64375" y="103.76001" style="stroke: #000000; stroke-width: 0.6"/>
      </g>
     </g>
    </g>
    <g id="ytick_20">
     <g id="line2d_32">
      <g>
       <use xlink:href="#m46e9134752" x="46.64375" y="94.69628" style="stroke: #000000; stroke-width: 0.6"/>
      </g>
     </g>
    </g>
    <g id="ytick_21">
     <g id="line2d_33">
      <g>
       <use xlink:href="#m46e9134752" x="46.64375" y="90.093913" style="stroke: #000000; stroke-width: 0.6"/>
      </g>
     </g>
    </g>
    <g id="ytick_22">
     <g id="line2d_34">
      <g>
       <use xlink:href="#m46e9134752" x="46.64375" y="86.828481" style="stroke: #000000; stroke-width: 0.6"/>
      </g>
     </g>
    </g>
    <g id="ytick_23">
     <g id="line2d_35">
      <g>
       <use xlink:href="#m46e9134752" x="46.64375" y="84.295615" style="stroke: #000000; stroke-width: 0.6"/>
      </g>
     </g>
    </g>
    <g id="ytick_24">
     <g id="line2d_36">
      <g>
       <use xlink:href="#m46e9134752" x="46.64375" y="82.226113" style="stroke: #000000; stroke-width: 0.6"/>
      </g>
     </g>
    </g>
    <g id="ytick_25">
     <g id="line2d_37">
      <g>
       <use xlink:href="#m46e9134752" x="46.64375" y="80.476374" style="stroke: #000000; stroke-width: 0.6"/>
      </g>
     </g>
    </g>
    <g id="ytick_26">
     <g id="line2d_38">
      <g>
       <use xlink:href="#m46e9134752" x="46.64375" y="78.960681" style="stroke: #000000; stroke-width: 0.6"/>
      </g>
     </g>
    </g>
    <g id="ytick_27">
     <g id="line2d_39">
      <g>
       <use xlink:href="#m46e9134752" x="46.64375" y="77.623745" style="stroke: #000000; stroke-width: 0.6"/>
      </g>
     </g>
    </g>
    <g id="ytick_28">
     <g id="line2d_40">
      <g>
       <use xlink:href="#m46e9134752" x="46.64375" y="68.560016" style="stroke: #000000; stroke-width: 0.6"/>
      </g>
     </g>
    </g>
    <g id="ytick_29">
     <g id="line2d_41">
      <g>
       <use xlink:href="#m46e9134752" x="46.64375" y="63.957648" style="stroke: #000000; stroke-width: 0.6"/>
      </g>
     </g>
    </g>
    <g id="ytick_30">
     <g id="line2d_42">
      <g>
       <use xlink:href="#m46e9134752" x="46.64375" y="60.692216" style="stroke: #000000; stroke-width: 0.6"/>
      </g>
     </g>
    </g>
    <g id="ytick_31">
     <g id="line2d_43">
      <g>
       <use xlink:href="#m46e9134752" x="46.64375" y="58.15935" style="stroke: #000000; stroke-width: 0.6"/>
      </g>
     </g>
    </g>
    <g id="ytick_32">
     <g id="line2d_44">
      <g>
       <use xlink:href="#m46e9134752" x="46.64375" y="56.089848" style="stroke: #000000; stroke-width: 0.6"/>
      </g>
     </g>
    </g>
    <g id="ytick_33">
     <g id="line2d_45">
      <g>
       <use xlink:href="#m46e9134752" x="46.64375" y="54.340109" style="stroke: #000000; stroke-width: 0.6"/>
      </g>
     </g>
    </g>
    <g id="ytick_34">
     <g id="line2d_46">
      <g>
       <use xlink:href="#m46e9134752" x="46.64375" y="52.824416" style="stroke: #000000; stroke-width: 0.6"/>
      </g>
     </g>
    </g>
    <g id="ytick_35">
     <g id="line2d_47">
      <g>
       <use xlink:href="#m46e9134752" x="46.64375" y="51.48748" style="stroke: #000000; stroke-width: 0.6"/>
      </g>
     </g>
    </g>
    <g id="text_5">
     <!-- Runtime ($\mu$s) -->
     <g transform="translate(19.44375 126.036625) rotate(-90) scale(0.1 -0.1)">
      <defs>
       <path id="DejaVuSerif-52" d="M 3066 2316 
Q 3284 2256 3442 2114 
Q 3600 1972 3725 1716 
L 4403 331 
L 4972 331 
L 4972 0 
L 3872 0 
L 3144 1484 
Q 2934 1916 2759 2042 
Q 2584 2169 2278 2169 
L 1581 2169 
L 1581 331 
L 2241 331 
L 2241 0 
L 353 0 
L 353 331 
L 947 331 
L 947 4331 
L 353 4331 
L 353 4666 
L 2719 4666 
Q 3400 4666 3770 4341 
Q 4141 4016 4141 3419 
Q 4141 2938 3870 2661 
Q 3600 2384 3066 2316 
z
M 1581 2503 
L 2503 2503 
Q 2975 2503 3200 2726 
Q 3425 2950 3425 3419 
Q 3425 3888 3200 4109 
Q 2975 4331 2503 4331 
L 1581 4331 
L 1581 2503 
z
" transform="scale(0.015625)"/>
       <path id="DejaVuSerif-75" d="M 2266 3322 
L 3341 3322 
L 3341 331 
L 3884 331 
L 3884 0 
L 2766 0 
L 2766 588 
Q 2606 256 2353 82 
Q 2100 -91 1766 -91 
Q 1213 -91 952 223 
Q 691 538 691 1209 
L 691 2988 
L 172 2988 
L 172 3322 
L 1269 3322 
L 1269 1388 
Q 1269 781 1417 556 
Q 1566 331 1947 331 
Q 2347 331 2556 625 
Q 2766 919 2766 1478 
L 2766 2988 
L 2266 2988 
L 2266 3322 
z
" transform="scale(0.015625)"/>
       <path id="DejaVuSerif-6e" d="M 263 0 
L 263 331 
L 781 331 
L 781 2988 
L 231 2988 
L 231 3322 
L 1356 3322 
L 1356 2731 
Q 1516 3069 1770 3241 
Q 2025 3413 2363 3413 
Q 2913 3413 3172 3097 
Q 3431 2781 3431 2113 
L 3431 331 
L 3944 331 
L 3944 0 
L 2356 0 
L 2356 331 
L 2853 331 
L 2853 1931 
Q 2853 2541 2703 2767 
Q 2553 2994 2175 2994 
Q 1775 2994 1565 2701 
Q 1356 2409 1356 1850 
L 1356 331 
L 1856 331 
L 1856 0 
L 263 0 
z
" transform="scale(0.015625)"/>
       <path id="DejaVuSerif-74" d="M 691 2988 
L 184 2988 
L 184 3322 
L 691 3322 
L 691 4353 
L 1269 4353 
L 1269 3322 
L 2350 3322 
L 2350 2988 
L 1269 2988 
L 1269 878 
Q 1269 456 1350 337 
Q 1431 219 1650 219 
Q 1875 219 1978 351 
Q 2081 484 2088 781 
L 2522 781 
Q 2497 328 2275 118 
Q 2053 -91 1600 -91 
Q 1103 -91 897 129 
Q 691 350 691 878 
L 691 2988 
z
" transform="scale(0.015625)"/>
       <path id="DejaVuSerif-69" d="M 622 4353 
Q 622 4497 726 4603 
Q 831 4709 978 4709 
Q 1122 4709 1226 4603 
Q 1331 4497 1331 4353 
Q 1331 4206 1228 4103 
Q 1125 4000 978 4000 
Q 831 4000 726 4103 
Q 622 4206 622 4353 
z
M 1356 331 
L 1900 331 
L 1900 0 
L 231 0 
L 231 331 
L 781 331 
L 781 2988 
L 231 2988 
L 231 3322 
L 1356 3322 
L 1356 331 
z
" transform="scale(0.015625)"/>
       <path id="DejaVuSerif-6d" d="M 3316 2675 
Q 3481 3041 3739 3227 
Q 3997 3413 4341 3413 
Q 4863 3413 5119 3089 
Q 5375 2766 5375 2113 
L 5375 331 
L 5894 331 
L 5894 0 
L 4300 0 
L 4300 331 
L 4800 331 
L 4800 2047 
Q 4800 2556 4650 2772 
Q 4500 2988 4153 2988 
Q 3769 2988 3567 2697 
Q 3366 2406 3366 1850 
L 3366 331 
L 3866 331 
L 3866 0 
L 2291 0 
L 2291 331 
L 2791 331 
L 2791 2069 
Q 2791 2566 2641 2777 
Q 2491 2988 2144 2988 
Q 1759 2988 1557 2697 
Q 1356 2406 1356 1850 
L 1356 331 
L 1856 331 
L 1856 0 
L 263 0 
L 263 331 
L 781 331 
L 781 2994 
L 231 2994 
L 231 3322 
L 1356 3322 
L 1356 2731 
Q 1516 3063 1762 3238 
Q 2009 3413 2322 3413 
Q 2709 3413 2968 3220 
Q 3228 3028 3316 2675 
z
" transform="scale(0.015625)"/>
       <path id="DejaVuSerif-65" d="M 3469 1600 
L 991 1600 
L 991 1575 
Q 991 903 1244 561 
Q 1497 219 1991 219 
Q 2369 219 2611 417 
Q 2853 616 2950 1006 
L 3413 1006 
Q 3275 459 2904 184 
Q 2534 -91 1931 -91 
Q 1203 -91 761 389 
Q 319 869 319 1663 
Q 319 2450 753 2931 
Q 1188 3413 1894 3413 
Q 2647 3413 3050 2948 
Q 3453 2484 3469 1600 
z
M 2791 1931 
Q 2772 2513 2545 2808 
Q 2319 3103 1894 3103 
Q 1497 3103 1269 2806 
Q 1041 2509 991 1931 
L 2791 1931 
z
" transform="scale(0.015625)"/>
       <path id="DejaVuSerif-20" transform="scale(0.015625)"/>
       <path id="DejaVuSerif-28" d="M 2041 -997 
Q 1281 -656 893 83 
Q 506 822 506 1931 
Q 506 3044 893 3783 
Q 1281 4522 2041 4863 
L 2041 4556 
Q 1559 4225 1350 3623 
Q 1141 3022 1141 1931 
Q 1141 844 1350 242 
Q 1559 -359 2041 -691 
L 2041 -997 
z
" transform="scale(0.015625)"/>
       <path id="DejaVuSans-Oblique-3bc" d="M -84 -1331 
L 856 3500 
L 1434 3500 
L 1009 1322 
Q 997 1256 987 1175 
Q 978 1094 978 1013 
Q 978 722 1161 565 
Q 1344 409 1684 409 
Q 2147 409 2431 671 
Q 2716 934 2816 1459 
L 3213 3500 
L 3788 3500 
L 3266 809 
Q 3253 750 3248 706 
Q 3244 663 3244 628 
Q 3244 531 3283 486 
Q 3322 441 3406 441 
Q 3438 441 3492 456 
Q 3547 472 3647 513 
L 3559 50 
Q 3422 -19 3297 -55 
Q 3172 -91 3053 -91 
Q 2847 -91 2730 40 
Q 2613 172 2613 403 
Q 2438 153 2195 31 
Q 1953 -91 1625 -91 
Q 1334 -91 1117 43 
Q 900 178 831 397 
L 494 -1331 
L -84 -1331 
z
" transform="scale(0.015625)"/>
       <path id="DejaVuSerif-73" d="M 359 184 
L 359 959 
L 691 959 
Q 703 588 923 403 
Q 1144 219 1575 219 
Q 1963 219 2166 364 
Q 2369 509 2369 788 
Q 2369 1006 2220 1140 
Q 2072 1275 1594 1428 
L 1178 1569 
Q 750 1706 558 1912 
Q 366 2119 366 2438 
Q 366 2894 700 3153 
Q 1034 3413 1625 3413 
Q 1888 3413 2178 3344 
Q 2469 3275 2778 3144 
L 2778 2419 
L 2447 2419 
Q 2434 2741 2221 2922 
Q 2009 3103 1644 3103 
Q 1281 3103 1095 2975 
Q 909 2847 909 2591 
Q 909 2381 1050 2254 
Q 1191 2128 1613 1997 
L 2069 1856 
Q 2541 1709 2748 1489 
Q 2956 1269 2956 922 
Q 2956 450 2595 179 
Q 2234 -91 1600 -91 
Q 1278 -91 972 -22 
Q 666 47 359 184 
z
" transform="scale(0.015625)"/>
       <path id="DejaVuSerif-29" d="M 453 -997 
L 453 -691 
Q 934 -359 1145 242 
Q 1356 844 1356 1931 
Q 1356 3022 1145 3623 
Q 934 4225 453 4556 
L 453 4863 
Q 1216 4522 1603 3783 
Q 1991 3044 1991 1931 
Q 1991 822 1603 83 
Q 1216 -656 453 -997 
z
" transform="scale(0.015625)"/>
      </defs>
      <use xlink:href="#DejaVuSerif-52" transform="translate(0 0.015625)"/>
      <use xlink:href="#DejaVuSerif-75" transform="translate(75.292969 0.015625)"/>
      <use xlink:href="#DejaVuSerif-6e" transform="translate(139.697266 0.015625)"/>
      <use xlink:href="#DejaVuSerif-74" transform="translate(204.101562 0.015625)"/>
      <use xlink:href="#DejaVuSerif-69" transform="translate(244.287109 0.015625)"/>
      <use xlink:href="#DejaVuSerif-6d" transform="translate(276.269531 0.015625)"/>
      <use xlink:href="#DejaVuSerif-65" transform="translate(371.09375 0.015625)"/>
      <use xlink:href="#DejaVuSerif-20" transform="translate(430.273438 0.015625)"/>
      <use xlink:href="#DejaVuSerif-28" transform="translate(462.060547 0.015625)"/>
      <use xlink:href="#DejaVuSans-Oblique-3bc" transform="translate(501.074219 0.015625)"/>
      <use xlink:href="#DejaVuSerif-73" transform="translate(564.697266 0.015625)"/>
      <use xlink:href="#DejaVuSerif-29" transform="translate(616.015625 0.015625)"/>
     </g>
    </g>
   </g>
   <g id="line2d_48">
    <path d="M 262.234659 143.636625 
L 262.234659 42.836625 
" clip-path="url(#p962ea08634)" style="fill: none; stroke: #000000; stroke-linecap: square"/>
   </g>
   <g id="patch_3">
    <path d="M 46.64375 143.636625 
L 46.64375 42.836625 
" style="fill: none; stroke: #000000; stroke-width: 0.8; stroke-linejoin: miter; stroke-linecap: square"/>
   </g>
   <g id="patch_4">
    <path d="M 604.64375 143.636625 
L 604.64375 42.836625 
" style="fill: none; stroke: #000000; stroke-width: 0.8; stroke-linejoin: miter; stroke-linecap: square"/>
   </g>
   <g id="patch_5">
    <path d="M 46.64375 143.636625 
L 604.64375 143.636625 
" style="fill: none; stroke: #000000; stroke-width: 0.8; stroke-linejoin: miter; stroke-linecap: square"/>
   </g>
   <g id="patch_6">
    <path d="M 46.64375 42.836625 
L 604.64375 42.836625 
" style="fill: none; stroke: #000000; stroke-width: 0.8; stroke-linejoin: miter; stroke-linecap: square"/>
   </g>
   <g id="text_6">
    <!-- Relative performance -->
    <g transform="translate(489.44375 14.038594) scale(0.09 -0.09)">
     <defs>
      <path id="DejaVuSerif-6c" d="M 1313 331 
L 1856 331 
L 1856 0 
L 184 0 
L 184 331 
L 738 331 
L 738 4531 
L 184 4531 
L 184 4863 
L 1313 4863 
L 1313 331 
z
" transform="scale(0.015625)"/>
      <path id="DejaVuSerif-61" d="M 2547 1044 
L 2547 1747 
L 1806 1747 
Q 1378 1747 1168 1562 
Q 959 1378 959 997 
Q 959 650 1171 447 
Q 1384 244 1747 244 
Q 2106 244 2326 466 
Q 2547 688 2547 1044 
z
M 3122 2075 
L 3122 331 
L 3634 331 
L 3634 0 
L 2547 0 
L 2547 359 
Q 2356 128 2106 18 
Q 1856 -91 1522 -91 
Q 969 -91 644 203 
Q 319 497 319 997 
Q 319 1513 691 1797 
Q 1063 2081 1741 2081 
L 2547 2081 
L 2547 2309 
Q 2547 2688 2317 2895 
Q 2088 3103 1672 3103 
Q 1328 3103 1125 2947 
Q 922 2791 872 2484 
L 575 2484 
L 575 3156 
Q 875 3284 1158 3348 
Q 1441 3413 1709 3413 
Q 2400 3413 2761 3070 
Q 3122 2728 3122 2075 
z
" transform="scale(0.015625)"/>
      <path id="DejaVuSerif-76" d="M 1581 0 
L 359 2988 
L -19 2988 
L -19 3322 
L 1509 3322 
L 1509 2988 
L 978 2988 
L 1913 703 
L 2847 2988 
L 2350 2988 
L 2350 3322 
L 3597 3322 
L 3597 2988 
L 3225 2988 
L 2003 0 
L 1581 0 
z
" transform="scale(0.015625)"/>
      <path id="DejaVuSerif-70" d="M 1313 1825 
L 1313 1497 
Q 1313 897 1542 583 
Q 1772 269 2209 269 
Q 2650 269 2876 622 
Q 3103 975 3103 1663 
Q 3103 2353 2876 2703 
Q 2650 3053 2209 3053 
Q 1772 3053 1542 2737 
Q 1313 2422 1313 1825 
z
M 738 2988 
L 184 2988 
L 184 3322 
L 1313 3322 
L 1313 2803 
Q 1481 3116 1742 3264 
Q 2003 3413 2388 3413 
Q 3000 3413 3387 2928 
Q 3775 2444 3775 1663 
Q 3775 881 3387 395 
Q 3000 -91 2388 -91 
Q 2003 -91 1742 57 
Q 1481 206 1313 519 
L 1313 -997 
L 1856 -997 
L 1856 -1331 
L 184 -1331 
L 184 -997 
L 738 -997 
L 738 2988 
z
" transform="scale(0.015625)"/>
      <path id="DejaVuSerif-72" d="M 3059 3328 
L 3059 2497 
L 2728 2497 
Q 2713 2744 2591 2866 
Q 2469 2988 2234 2988 
Q 1809 2988 1582 2694 
Q 1356 2400 1356 1850 
L 1356 331 
L 2022 331 
L 2022 0 
L 263 0 
L 263 331 
L 781 331 
L 781 2994 
L 231 2994 
L 231 3322 
L 1356 3322 
L 1356 2731 
Q 1525 3078 1790 3245 
Q 2056 3413 2438 3413 
Q 2578 3413 2733 3391 
Q 2888 3369 3059 3328 
z
" transform="scale(0.015625)"/>
      <path id="DejaVuSerif-66" d="M 2753 4078 
L 2450 4078 
Q 2447 4313 2317 4434 
Q 2188 4556 1941 4556 
Q 1619 4556 1487 4379 
Q 1356 4203 1356 3750 
L 1356 3322 
L 2284 3322 
L 2284 2988 
L 1356 2988 
L 1356 331 
L 2094 331 
L 2094 0 
L 231 0 
L 231 331 
L 781 331 
L 781 2988 
L 231 2988 
L 231 3322 
L 781 3322 
L 781 3738 
Q 781 4294 1070 4578 
Q 1359 4863 1919 4863 
Q 2128 4863 2337 4825 
Q 2547 4788 2753 4709 
L 2753 4078 
z
" transform="scale(0.015625)"/>
      <path id="DejaVuSerif-6f" d="M 1925 219 
Q 2388 219 2623 584 
Q 2859 950 2859 1663 
Q 2859 2375 2623 2739 
Q 2388 3103 1925 3103 
Q 1463 3103 1227 2739 
Q 991 2375 991 1663 
Q 991 950 1228 584 
Q 1466 219 1925 219 
z
M 1925 -91 
Q 1200 -91 759 389 
Q 319 869 319 1663 
Q 319 2456 758 2934 
Q 1197 3413 1925 3413 
Q 2653 3413 3092 2934 
Q 3531 2456 3531 1663 
Q 3531 869 3092 389 
Q 2653 -91 1925 -91 
z
" transform="scale(0.015625)"/>
      <path id="DejaVuSerif-63" d="M 3291 997 
Q 3169 466 2822 187 
Q 2475 -91 1925 -91 
Q 1200 -91 759 389 
Q 319 869 319 1663 
Q 319 2459 759 2936 
Q 1200 3413 1925 3413 
Q 2241 3413 2553 3339 
Q 2866 3266 3181 3116 
L 3181 2266 
L 2847 2266 
Q 2781 2703 2561 2903 
Q 2341 3103 1931 3103 
Q 1466 3103 1228 2742 
Q 991 2381 991 1663 
Q 991 944 1227 581 
Q 1463 219 1931 219 
Q 2303 219 2525 412 
Q 2747 606 2828 997 
L 3291 997 
z
" transform="scale(0.015625)"/>
     </defs>
     <use xlink:href="#DejaVuSerif-52"/>
     <use xlink:href="#DejaVuSerif-65" x="75.292969"/>
     <use xlink:href="#DejaVuSerif-6c" x="134.472656"/>
     <use xlink:href="#DejaVuSerif-61" x="166.455078"/>
     <use xlink:href="#DejaVuSerif-74" x="226.074219"/>
     <use xlink:href="#DejaVuSerif-69" x="266.259766"/>
     <use xlink:href="#DejaVuSerif-76" x="298.242188"/>
     <use xlink:href="#DejaVuSerif-65" x="354.736328"/>
     <use xlink:href="#DejaVuSerif-20" x="413.916016"/>
     <use xlink:href="#DejaVuSerif-70" x="445.703125"/>
     <use xlink:href="#DejaVuSerif-65" x="509.716797"/>
     <use xlink:href="#DejaVuSerif-72" x="568.896484"/>
     <use xlink:href="#DejaVuSerif-66" x="616.699219"/>
     <use xlink:href="#DejaVuSerif-6f" x="653.710938"/>
     <use xlink:href="#DejaVuSerif-72" x="713.916016"/>
     <use xlink:href="#DejaVuSerif-6d" x="761.71875"/>
     <use xlink:href="#DejaVuSerif-61" x="856.542969"/>
     <use xlink:href="#DejaVuSerif-6e" x="916.162109"/>
     <use xlink:href="#DejaVuSerif-63" x="980.566406"/>
     <use xlink:href="#DejaVuSerif-65" x="1036.572266"/>
    </g>
    <!-- with limited processors -->
    <g transform="translate(489.44375 24.116625) scale(0.09 -0.09)">
     <defs>
      <path id="DejaVuSerif-77" d="M 3072 3322 
L 3922 728 
L 4672 2988 
L 4191 2988 
L 4191 3322 
L 5394 3322 
L 5394 2988 
L 5025 2988 
L 4038 0 
L 3559 0 
L 2741 2484 
L 1919 0 
L 1459 0 
L 475 2988 
L 103 2988 
L 103 3322 
L 1606 3322 
L 1606 2988 
L 1069 2988 
L 1813 728 
L 2669 3322 
L 3072 3322 
z
" transform="scale(0.015625)"/>
      <path id="DejaVuSerif-68" d="M 263 0 
L 263 331 
L 781 331 
L 781 4531 
L 231 4531 
L 231 4863 
L 1356 4863 
L 1356 2731 
Q 1516 3069 1770 3241 
Q 2025 3413 2363 3413 
Q 2913 3413 3172 3097 
Q 3431 2781 3431 2113 
L 3431 331 
L 3944 331 
L 3944 0 
L 2356 0 
L 2356 331 
L 2853 331 
L 2853 1931 
Q 2853 2541 2704 2764 
Q 2556 2988 2175 2988 
Q 1775 2988 1565 2697 
Q 1356 2406 1356 1850 
L 1356 331 
L 1856 331 
L 1856 0 
L 263 0 
z
" transform="scale(0.015625)"/>
      <path id="DejaVuSerif-64" d="M 3359 331 
L 3909 331 
L 3909 0 
L 2784 0 
L 2784 519 
Q 2616 206 2355 57 
Q 2094 -91 1709 -91 
Q 1097 -91 708 395 
Q 319 881 319 1663 
Q 319 2444 706 2928 
Q 1094 3413 1709 3413 
Q 2094 3413 2355 3264 
Q 2616 3116 2784 2803 
L 2784 4531 
L 2241 4531 
L 2241 4863 
L 3359 4863 
L 3359 331 
z
M 2784 1497 
L 2784 1825 
Q 2784 2422 2554 2737 
Q 2325 3053 1888 3053 
Q 1444 3053 1217 2703 
Q 991 2353 991 1663 
Q 991 975 1217 622 
Q 1444 269 1888 269 
Q 2325 269 2554 583 
Q 2784 897 2784 1497 
z
" transform="scale(0.015625)"/>
     </defs>
     <use xlink:href="#DejaVuSerif-77"/>
     <use xlink:href="#DejaVuSerif-69" x="85.595703"/>
     <use xlink:href="#DejaVuSerif-74" x="117.578125"/>
     <use xlink:href="#DejaVuSerif-68" x="157.763672"/>
     <use xlink:href="#DejaVuSerif-20" x="222.167969"/>
     <use xlink:href="#DejaVuSerif-6c" x="253.955078"/>
     <use xlink:href="#DejaVuSerif-69" x="285.9375"/>
     <use xlink:href="#DejaVuSerif-6d" x="317.919922"/>
     <use xlink:href="#DejaVuSerif-69" x="412.744141"/>
     <use xlink:href="#DejaVuSerif-74" x="444.726562"/>
     <use xlink:href="#DejaVuSerif-65" x="484.912109"/>
     <use xlink:href="#DejaVuSerif-64" x="544.091797"/>
     <use xlink:href="#DejaVuSerif-20" x="608.105469"/>
     <use xlink:href="#DejaVuSerif-70" x="639.892578"/>
     <use xlink:href="#DejaVuSerif-72" x="703.90625"/>
     <use xlink:href="#DejaVuSerif-6f" x="751.708984"/>
     <use xlink:href="#DejaVuSerif-63" x="811.914062"/>
     <use xlink:href="#DejaVuSerif-65" x="867.919922"/>
     <use xlink:href="#DejaVuSerif-73" x="927.099609"/>
     <use xlink:href="#DejaVuSerif-73" x="978.417969"/>
     <use xlink:href="#DejaVuSerif-6f" x="1029.736328"/>
     <use xlink:href="#DejaVuSerif-72" x="1089.941406"/>
     <use xlink:href="#DejaVuSerif-73" x="1137.744141"/>
    </g>
   </g>
   <g id="patch_7">
    <path d="M 72.007386 26343.373829 
L 81.065828 26343.373829 
L 81.065828 129.97728 
L 72.007386 129.97728 
z
" clip-path="url(#p962ea08634)" style="fill: #cc79a7"/>
   </g>
   <g id="patch_8">
    <path d="M 81.065828 26343.373829 
L 90.124269 26343.373829 
L 90.124269 130.11273 
L 81.065828 130.11273 
z
" clip-path="url(#p962ea08634)" style="fill: url(#h6efdd45c23)"/>
   </g>
   <g id="patch_9">
    <path d="M 90.124269 26343.373829 
L 99.182711 26343.373829 
L 99.182711 133.151621 
L 90.124269 133.151621 
z
" clip-path="url(#p962ea08634)" style="fill: #0072b2"/>
   </g>
   <g id="patch_10">
    <path d="M 99.182711 26343.373829 
L 108.241153 26343.373829 
L 108.241153 133.059589 
L 99.182711 133.059589 
z
" clip-path="url(#p962ea08634)" style="fill: url(#ha37da5ee54)"/>
   </g>
   <g id="patch_11">
    <path d="M 108.241153 26343.373829 
L 117.299594 26343.373829 
L 117.299594 136.088084 
L 108.241153 136.088084 
z
" clip-path="url(#p962ea08634)" style="fill: url(#h8645ee8f12)"/>
   </g>
   <g id="patch_12">
    <path d="M 135.416477 26343.373829 
L 144.474919 26343.373829 
L 144.474919 118.010099 
L 135.416477 118.010099 
z
" clip-path="url(#p962ea08634)" style="fill: #cc79a7"/>
   </g>
   <g id="patch_13">
    <path d="M 144.474919 26343.373829 
L 153.53336 26343.373829 
L 153.53336 118.966811 
L 144.474919 118.966811 
z
" clip-path="url(#p962ea08634)" style="fill: url(#h6efdd45c23)"/>
   </g>
   <g id="patch_14">
    <path d="M 153.53336 26343.373829 
L 162.591802 26343.373829 
L 162.591802 121.843955 
L 153.53336 121.843955 
z
" clip-path="url(#p962ea08634)" style="fill: #0072b2"/>
   </g>
   <g id="patch_15">
    <path d="M 162.591802 26343.373829 
L 171.650244 26343.373829 
L 171.650244 123.41518 
L 162.591802 123.41518 
z
" clip-path="url(#p962ea08634)" style="fill: url(#ha37da5ee54)"/>
   </g>
   <g id="patch_16">
    <path d="M 171.650244 26343.373829 
L 180.708685 26343.373829 
L 180.708685 123.865043 
L 171.650244 123.865043 
z
" clip-path="url(#p962ea08634)" style="fill: url(#h8645ee8f12)"/>
   </g>
   <g id="patch_17">
    <path d="M 198.825568 26343.373829 
L 207.88401 26343.373829 
L 207.88401 85.35475 
L 198.825568 85.35475 
z
" clip-path="url(#p962ea08634)" style="fill: #cc79a7"/>
   </g>
   <g id="patch_18">
    <path d="M 207.88401 26343.373829 
L 216.942451 26343.373829 
L 216.942451 85.59727 
L 207.88401 85.59727 
z
" clip-path="url(#p962ea08634)" style="fill: url(#h6efdd45c23)"/>
   </g>
   <g id="patch_19">
    <path d="M 216.942451 26343.373829 
L 226.000893 26343.373829 
L 226.000893 90.129762 
L 216.942451 90.129762 
z
" clip-path="url(#p962ea08634)" style="fill: #0072b2"/>
   </g>
   <g id="patch_20">
    <path d="M 226.000893 26343.373829 
L 235.059334 26343.373829 
L 235.059334 91.301788 
L 226.000893 91.301788 
z
" clip-path="url(#p962ea08634)" style="fill: url(#ha37da5ee54)"/>
   </g>
   <g id="patch_21">
    <path d="M 235.059334 26343.373829 
L 244.117776 26343.373829 
L 244.117776 91.513284 
L 235.059334 91.513284 
z
" clip-path="url(#p962ea08634)" style="fill: url(#h8645ee8f12)"/>
   </g>
   <g id="patch_22">
    <path d="M 280.351542 26343.373829 
L 289.409984 26343.373829 
L 289.409984 105.643528 
L 280.351542 105.643528 
z
" clip-path="url(#p962ea08634)" style="fill: #cc79a7"/>
   </g>
   <g id="patch_23">
    <path d="M 289.409984 26343.373829 
L 298.468425 26343.373829 
L 298.468425 105.820132 
L 289.409984 105.820132 
z
" clip-path="url(#p962ea08634)" style="fill: url(#h6efdd45c23)"/>
   </g>
   <g id="patch_24">
    <path d="M 298.468425 26343.373829 
L 307.526867 26343.373829 
L 307.526867 108.44478 
L 298.468425 108.44478 
z
" clip-path="url(#p962ea08634)" style="fill: #0072b2"/>
   </g>
   <g id="patch_25">
    <path d="M 307.526867 26343.373829 
L 316.585308 26343.373829 
L 316.585308 109.169854 
L 307.526867 109.169854 
z
" clip-path="url(#p962ea08634)" style="fill: url(#ha37da5ee54)"/>
   </g>
   <g id="patch_26">
    <path d="M 316.585308 26343.373829 
L 325.64375 26343.373829 
L 325.64375 109.65817 
L 316.585308 109.65817 
z
" clip-path="url(#p962ea08634)" style="fill: url(#h8645ee8f12)"/>
   </g>
   <g id="patch_27">
    <path d="M 343.760633 26343.373829 
L 352.819075 26343.373829 
L 352.819075 91.136926 
L 343.760633 91.136926 
z
" clip-path="url(#p962ea08634)" style="fill: #cc79a7"/>
   </g>
   <g id="patch_28">
    <path d="M 352.819075 26343.373829 
L 361.877516 26343.373829 
L 361.877516 91.104165 
L 352.819075 91.104165 
z
" clip-path="url(#p962ea08634)" style="fill: url(#h6efdd45c23)"/>
   </g>
   <g id="patch_29">
    <path d="M 361.877516 26343.373829 
L 370.935958 26343.373829 
L 370.935958 95.998203 
L 361.877516 95.998203 
z
" clip-path="url(#p962ea08634)" style="fill: #0072b2"/>
   </g>
   <g id="patch_30">
    <path d="M 370.935958 26343.373829 
L 379.994399 26343.373829 
L 379.994399 96.073434 
L 370.935958 96.073434 
z
" clip-path="url(#p962ea08634)" style="fill: url(#ha37da5ee54)"/>
   </g>
   <g id="patch_31">
    <path d="M 379.994399 26343.373829 
L 389.052841 26343.373829 
L 389.052841 97.486513 
L 379.994399 97.486513 
z
" clip-path="url(#p962ea08634)" style="fill: url(#h8645ee8f12)"/>
   </g>
   <g id="patch_32">
    <path d="M 407.169724 26343.373829 
L 416.228166 26343.373829 
L 416.228166 81.486437 
L 407.169724 81.486437 
z
" clip-path="url(#p962ea08634)" style="fill: #cc79a7"/>
   </g>
   <g id="patch_33">
    <path d="M 416.228166 26343.373829 
L 425.286607 26343.373829 
L 425.286607 81.56407 
L 416.228166 81.56407 
z
" clip-path="url(#p962ea08634)" style="fill: url(#h6efdd45c23)"/>
   </g>
   <g id="patch_34">
    <path d="M 425.286607 26343.373829 
L 434.345049 26343.373829 
L 434.345049 85.305338 
L 425.286607 85.305338 
z
" clip-path="url(#p962ea08634)" style="fill: #0072b2"/>
   </g>
   <g id="patch_35">
    <path d="M 434.345049 26343.373829 
L 443.40349 26343.373829 
L 443.40349 85.661561 
L 434.345049 85.661561 
z
" clip-path="url(#p962ea08634)" style="fill: url(#ha37da5ee54)"/>
   </g>
   <g id="patch_36">
    <path d="M 443.40349 26343.373829 
L 452.461932 26343.373829 
L 452.461932 86.509451 
L 443.40349 86.509451 
z
" clip-path="url(#p962ea08634)" style="fill: url(#h8645ee8f12)"/>
   </g>
   <g id="patch_37">
    <path d="M 470.578815 26343.373829 
L 479.637256 26343.373829 
L 479.637256 49.765866 
L 470.578815 49.765866 
z
" clip-path="url(#p962ea08634)" style="fill: #cc79a7"/>
   </g>
   <g id="patch_38">
    <path d="M 479.637256 26343.373829 
L 488.695698 26343.373829 
L 488.695698 50.164535 
L 479.637256 50.164535 
z
" clip-path="url(#p962ea08634)" style="fill: url(#h6efdd45c23)"/>
   </g>
   <g id="patch_39">
    <path d="M 488.695698 26343.373829 
L 497.75414 26343.373829 
L 497.75414 54.847833 
L 488.695698 54.847833 
z
" clip-path="url(#p962ea08634)" style="fill: #0072b2"/>
   </g>
   <g id="patch_40">
    <path d="M 497.75414 26343.373829 
L 506.812581 26343.373829 
L 506.812581 55.264762 
L 497.75414 55.264762 
z
" clip-path="url(#p962ea08634)" style="fill: url(#ha37da5ee54)"/>
   </g>
   <g id="patch_41">
    <path d="M 506.812581 26343.373829 
L 515.871023 26343.373829 
L 515.871023 56.694778 
L 506.812581 56.694778 
z
" clip-path="url(#p962ea08634)" style="fill: url(#h8645ee8f12)"/>
   </g>
   <g id="patch_42">
    <path d="M 533.987906 26343.373829 
L 543.046347 26343.373829 
L 543.046347 47.418443 
L 533.987906 47.418443 
z
" clip-path="url(#p962ea08634)" style="fill: #cc79a7"/>
   </g>
   <g id="patch_43">
    <path d="M 543.046347 26343.373829 
L 552.104789 26343.373829 
L 552.104789 48.362319 
L 543.046347 48.362319 
z
" clip-path="url(#p962ea08634)" style="fill: url(#h6efdd45c23)"/>
   </g>
   <g id="patch_44">
    <path d="M 552.104789 26343.373829 
L 561.163231 26343.373829 
L 561.163231 52.456683 
L 552.104789 52.456683 
z
" clip-path="url(#p962ea08634)" style="fill: #0072b2"/>
   </g>
   <g id="patch_45">
    <path d="M 561.163231 26343.373829 
L 570.221672 26343.373829 
L 570.221672 53.302362 
L 561.163231 53.302362 
z
" clip-path="url(#p962ea08634)" style="fill: url(#ha37da5ee54)"/>
   </g>
   <g id="patch_46">
    <path d="M 570.221672 26343.373829 
L 579.280114 26343.373829 
L 579.280114 53.699471 
L 570.221672 53.699471 
z
" clip-path="url(#p962ea08634)" style="fill: url(#h8645ee8f12)"/>
   </g>
   <g id="legend_1">
    <g id="patch_47">
     <path d="M 54.74375 19.526625 
L 72.74375 19.526625 
L 72.74375 13.226625 
L 54.74375 13.226625 
z
" style="fill: #cc79a7"/>
    </g>
    <g id="text_7">
     <!-- Default parallel -->
     <g transform="translate(79.94375 19.526625) scale(0.09 -0.09)">
      <defs>
       <path id="DejaVuSerif-44" d="M 1581 331 
L 2163 331 
Q 3072 331 3558 850 
Q 4044 1369 4044 2338 
Q 4044 3306 3559 3818 
Q 3075 4331 2163 4331 
L 1581 4331 
L 1581 331 
z
M 353 0 
L 353 331 
L 947 331 
L 947 4331 
L 353 4331 
L 353 4666 
L 2209 4666 
Q 3416 4666 4089 4050 
Q 4763 3434 4763 2338 
Q 4763 1238 4088 619 
Q 3413 0 2209 0 
L 353 0 
z
" transform="scale(0.015625)"/>
      </defs>
      <use xlink:href="#DejaVuSerif-44"/>
      <use xlink:href="#DejaVuSerif-65" x="80.175781"/>
      <use xlink:href="#DejaVuSerif-66" x="139.355469"/>
      <use xlink:href="#DejaVuSerif-61" x="176.367188"/>
      <use xlink:href="#DejaVuSerif-75" x="235.986328"/>
      <use xlink:href="#DejaVuSerif-6c" x="300.390625"/>
      <use xlink:href="#DejaVuSerif-74" x="332.373047"/>
      <use xlink:href="#DejaVuSerif-20" x="372.558594"/>
      <use xlink:href="#DejaVuSerif-70" x="404.345703"/>
      <use xlink:href="#DejaVuSerif-61" x="468.359375"/>
      <use xlink:href="#DejaVuSerif-72" x="527.978516"/>
      <use xlink:href="#DejaVuSerif-61" x="575.78125"/>
      <use xlink:href="#DejaVuSerif-6c" x="635.400391"/>
      <use xlink:href="#DejaVuSerif-6c" x="667.382812"/>
      <use xlink:href="#DejaVuSerif-65" x="699.365234"/>
      <use xlink:href="#DejaVuSerif-6c" x="758.544922"/>
     </g>
    </g>
    <g id="patch_48">
     <path d="M 54.74375 32.736937 
L 72.74375 32.736937 
L 72.74375 26.436937 
L 54.74375 26.436937 
z
" style="fill: url(#h6efdd45c23)"/>
    </g>
    <g id="text_8">
     <!-- Default aligned -->
     <g transform="translate(79.94375 32.736937) scale(0.09 -0.09)">
      <defs>
       <path id="DejaVuSerif-67" d="M 3359 2988 
L 3359 72 
Q 3359 -644 2965 -1033 
Q 2572 -1422 1844 -1422 
Q 1516 -1422 1216 -1362 
Q 916 -1303 641 -1184 
L 641 -488 
L 941 -488 
Q 997 -813 1206 -963 
Q 1416 -1113 1806 -1113 
Q 2313 -1113 2548 -827 
Q 2784 -541 2784 72 
L 2784 519 
Q 2616 206 2355 57 
Q 2094 -91 1709 -91 
Q 1097 -91 708 395 
Q 319 881 319 1663 
Q 319 2444 706 2928 
Q 1094 3413 1709 3413 
Q 2094 3413 2355 3264 
Q 2616 3116 2784 2803 
L 2784 3322 
L 3909 3322 
L 3909 2988 
L 3359 2988 
z
M 2784 1825 
Q 2784 2422 2554 2737 
Q 2325 3053 1888 3053 
Q 1444 3053 1217 2703 
Q 991 2353 991 1663 
Q 991 975 1217 622 
Q 1444 269 1888 269 
Q 2325 269 2554 583 
Q 2784 897 2784 1497 
L 2784 1825 
z
" transform="scale(0.015625)"/>
      </defs>
      <use xlink:href="#DejaVuSerif-44"/>
      <use xlink:href="#DejaVuSerif-65" x="80.175781"/>
      <use xlink:href="#DejaVuSerif-66" x="139.355469"/>
      <use xlink:href="#DejaVuSerif-61" x="176.367188"/>
      <use xlink:href="#DejaVuSerif-75" x="235.986328"/>
      <use xlink:href="#DejaVuSerif-6c" x="300.390625"/>
      <use xlink:href="#DejaVuSerif-74" x="332.373047"/>
      <use xlink:href="#DejaVuSerif-20" x="372.558594"/>
      <use xlink:href="#DejaVuSerif-61" x="404.345703"/>
      <use xlink:href="#DejaVuSerif-6c" x="463.964844"/>
      <use xlink:href="#DejaVuSerif-69" x="495.947266"/>
      <use xlink:href="#DejaVuSerif-67" x="527.929688"/>
      <use xlink:href="#DejaVuSerif-6e" x="591.943359"/>
      <use xlink:href="#DejaVuSerif-65" x="656.347656"/>
      <use xlink:href="#DejaVuSerif-64" x="715.527344"/>
     </g>
    </g>
    <g id="patch_49">
     <path d="M 169.094375 19.526625 
L 187.094375 19.526625 
L 187.094375 13.226625 
L 169.094375 13.226625 
z
" style="fill: #0072b2"/>
    </g>
    <g id="text_9">
     <!-- SWIPER parallel -->
     <g transform="translate(194.294375 19.526625) scale(0.09 -0.09)">
      <defs>
       <path id="DejaVuSerif-53" d="M 594 225 
L 594 1288 
L 953 1284 
Q 969 753 1261 498 
Q 1553 244 2150 244 
Q 2706 244 2998 464 
Q 3291 684 3291 1106 
Q 3291 1444 3114 1625 
Q 2938 1806 2369 1978 
L 1753 2163 
Q 1084 2366 811 2669 
Q 538 2972 538 3500 
Q 538 4094 959 4422 
Q 1381 4750 2144 4750 
Q 2469 4750 2856 4679 
Q 3244 4609 3681 4475 
L 3681 3481 
L 3328 3481 
Q 3275 3975 2998 4195 
Q 2722 4416 2156 4416 
Q 1663 4416 1405 4214 
Q 1147 4013 1147 3628 
Q 1147 3294 1340 3103 
Q 1534 2913 2163 2725 
L 2741 2553 
Q 3375 2363 3645 2067 
Q 3916 1772 3916 1275 
Q 3916 597 3481 253 
Q 3047 -91 2188 -91 
Q 1803 -91 1404 -12 
Q 1006 66 594 225 
z
" transform="scale(0.015625)"/>
       <path id="DejaVuSerif-57" d="M 4878 0 
L 4366 0 
L 3297 3794 
L 2228 0 
L 1716 0 
L 494 4331 
L 31 4331 
L 31 4666 
L 1734 4666 
L 1734 4331 
L 1153 4331 
L 2125 884 
L 3188 4666 
L 3694 4666 
L 4775 844 
L 5753 4331 
L 5216 4331 
L 5216 4666 
L 6559 4666 
L 6559 4331 
L 6100 4331 
L 4878 0 
z
" transform="scale(0.015625)"/>
       <path id="DejaVuSerif-49" d="M 1581 331 
L 2175 331 
L 2175 0 
L 353 0 
L 353 331 
L 947 331 
L 947 4331 
L 353 4331 
L 353 4666 
L 2175 4666 
L 2175 4331 
L 1581 4331 
L 1581 331 
z
" transform="scale(0.015625)"/>
       <path id="DejaVuSerif-50" d="M 1581 2375 
L 2406 2375 
Q 2872 2375 3115 2626 
Q 3359 2878 3359 3353 
Q 3359 3831 3115 4081 
Q 2872 4331 2406 4331 
L 1581 4331 
L 1581 2375 
z
M 353 0 
L 353 331 
L 947 331 
L 947 4331 
L 353 4331 
L 353 4666 
L 2559 4666 
Q 3259 4666 3668 4311 
Q 4078 3956 4078 3353 
Q 4078 2753 3668 2397 
Q 3259 2041 2559 2041 
L 1581 2041 
L 1581 331 
L 2303 331 
L 2303 0 
L 353 0 
z
" transform="scale(0.015625)"/>
       <path id="DejaVuSerif-45" d="M 353 0 
L 353 331 
L 947 331 
L 947 4331 
L 353 4331 
L 353 4666 
L 4109 4666 
L 4109 3628 
L 3725 3628 
L 3725 4281 
L 1581 4281 
L 1581 2719 
L 3109 2719 
L 3109 3303 
L 3494 3303 
L 3494 1753 
L 3109 1753 
L 3109 2338 
L 1581 2338 
L 1581 384 
L 3775 384 
L 3775 1038 
L 4159 1038 
L 4159 0 
L 353 0 
z
" transform="scale(0.015625)"/>
      </defs>
      <use xlink:href="#DejaVuSerif-53"/>
      <use xlink:href="#DejaVuSerif-57" x="68.505859"/>
      <use xlink:href="#DejaVuSerif-49" x="171.289062"/>
      <use xlink:href="#DejaVuSerif-50" x="210.791016"/>
      <use xlink:href="#DejaVuSerif-45" x="278.076172"/>
      <use xlink:href="#DejaVuSerif-52" x="351.074219"/>
      <use xlink:href="#DejaVuSerif-20" x="426.367188"/>
      <use xlink:href="#DejaVuSerif-70" x="458.154297"/>
      <use xlink:href="#DejaVuSerif-61" x="522.167969"/>
      <use xlink:href="#DejaVuSerif-72" x="581.787109"/>
      <use xlink:href="#DejaVuSerif-61" x="629.589844"/>
      <use xlink:href="#DejaVuSerif-6c" x="689.208984"/>
      <use xlink:href="#DejaVuSerif-6c" x="721.191406"/>
      <use xlink:href="#DejaVuSerif-65" x="753.173828"/>
      <use xlink:href="#DejaVuSerif-6c" x="812.353516"/>
     </g>
    </g>
    <g id="patch_50">
     <path d="M 169.094375 32.736937 
L 187.094375 32.736937 
L 187.094375 26.436937 
L 169.094375 26.436937 
z
" style="fill: url(#ha37da5ee54)"/>
    </g>
    <g id="text_10">
     <!-- SWIPER aligned -->
     <g transform="translate(194.294375 32.736937) scale(0.09 -0.09)">
      <use xlink:href="#DejaVuSerif-53"/>
      <use xlink:href="#DejaVuSerif-57" x="68.505859"/>
      <use xlink:href="#DejaVuSerif-49" x="171.289062"/>
      <use xlink:href="#DejaVuSerif-50" x="210.791016"/>
      <use xlink:href="#DejaVuSerif-45" x="278.076172"/>
      <use xlink:href="#DejaVuSerif-52" x="351.074219"/>
      <use xlink:href="#DejaVuSerif-20" x="426.367188"/>
      <use xlink:href="#DejaVuSerif-61" x="458.154297"/>
      <use xlink:href="#DejaVuSerif-6c" x="517.773438"/>
      <use xlink:href="#DejaVuSerif-69" x="549.755859"/>
      <use xlink:href="#DejaVuSerif-67" x="581.738281"/>
      <use xlink:href="#DejaVuSerif-6e" x="645.751953"/>
      <use xlink:href="#DejaVuSerif-65" x="710.15625"/>
      <use xlink:href="#DejaVuSerif-64" x="769.335938"/>
     </g>
    </g>
    <g id="patch_51">
     <path d="M 288.285313 19.526625 
L 306.285313 19.526625 
L 306.285313 13.226625 
L 288.285313 13.226625 
z
" style="fill: url(#h8645ee8f12)"/>
    </g>
    <g id="text_11">
     <!-- SWIPER sliding -->
     <g transform="translate(313.485313 19.526625) scale(0.09 -0.09)">
      <use xlink:href="#DejaVuSerif-53"/>
      <use xlink:href="#DejaVuSerif-57" x="68.505859"/>
      <use xlink:href="#DejaVuSerif-49" x="171.289062"/>
      <use xlink:href="#DejaVuSerif-50" x="210.791016"/>
      <use xlink:href="#DejaVuSerif-45" x="278.076172"/>
      <use xlink:href="#DejaVuSerif-52" x="351.074219"/>
      <use xlink:href="#DejaVuSerif-20" x="426.367188"/>
      <use xlink:href="#DejaVuSerif-73" x="458.154297"/>
      <use xlink:href="#DejaVuSerif-6c" x="509.472656"/>
      <use xlink:href="#DejaVuSerif-69" x="541.455078"/>
      <use xlink:href="#DejaVuSerif-64" x="573.4375"/>
      <use xlink:href="#DejaVuSerif-69" x="637.451172"/>
      <use xlink:href="#DejaVuSerif-6e" x="669.433594"/>
      <use xlink:href="#DejaVuSerif-67" x="733.837891"/>
     </g>
    </g>
   </g>
   <g id="LineCollection_1">
    <path d="M 76.536607 130.918106 
L 76.536607 129.108501 
" clip-path="url(#p962ea08634)" style="fill: none; stroke: #000000; stroke-width: 1.5"/>
   </g>
   <g id="LineCollection_2">
    <path d="M 85.595049 130.835339 
L 85.595049 129.433383 
" clip-path="url(#p962ea08634)" style="fill: none; stroke: #000000; stroke-width: 1.5"/>
   </g>
   <g id="LineCollection_3">
    <path d="M 94.65349 135.34486 
L 94.65349 131.314317 
" clip-path="url(#p962ea08634)" style="fill: none; stroke: #000000; stroke-width: 1.5"/>
   </g>
   <g id="LineCollection_4">
    <path d="M 103.711932 134.89755 
L 103.711932 131.478177 
" clip-path="url(#p962ea08634)" style="fill: none; stroke: #000000; stroke-width: 1.5"/>
   </g>
   <g id="LineCollection_5">
    <path d="M 112.770373 139.054807 
L 112.770373 133.738292 
" clip-path="url(#p962ea08634)" style="fill: none; stroke: #000000; stroke-width: 1.5"/>
   </g>
   <g id="LineCollection_6">
    <path d="M 139.945698 118.431983 
L 139.945698 117.603335 
" clip-path="url(#p962ea08634)" style="fill: none; stroke: #000000; stroke-width: 1.5"/>
   </g>
   <g id="LineCollection_7">
    <path d="M 149.00414 119.70941 
L 149.00414 118.269826 
" clip-path="url(#p962ea08634)" style="fill: none; stroke: #000000; stroke-width: 1.5"/>
   </g>
   <g id="LineCollection_8">
    <path d="M 158.062581 122.555979 
L 158.062581 121.173972 
" clip-path="url(#p962ea08634)" style="fill: none; stroke: #000000; stroke-width: 1.5"/>
   </g>
   <g id="LineCollection_9">
    <path d="M 167.121023 124.029224 
L 167.121023 122.832655 
" clip-path="url(#p962ea08634)" style="fill: none; stroke: #000000; stroke-width: 1.5"/>
   </g>
   <g id="LineCollection_10">
    <path d="M 176.179464 125.284906 
L 176.179464 122.603204 
" clip-path="url(#p962ea08634)" style="fill: none; stroke: #000000; stroke-width: 1.5"/>
   </g>
   <g id="LineCollection_11">
    <path d="M 203.354789 85.430959 
L 203.354789 85.279048 
" clip-path="url(#p962ea08634)" style="fill: none; stroke: #000000; stroke-width: 1.5"/>
   </g>
   <g id="LineCollection_12">
    <path d="M 212.413231 85.716115 
L 212.413231 85.479657 
" clip-path="url(#p962ea08634)" style="fill: none; stroke: #000000; stroke-width: 1.5"/>
   </g>
   <g id="LineCollection_13">
    <path d="M 221.471672 90.386347 
L 221.471672 89.878849 
" clip-path="url(#p962ea08634)" style="fill: none; stroke: #000000; stroke-width: 1.5"/>
   </g>
   <g id="LineCollection_14">
    <path d="M 230.530114 91.58461 
L 230.530114 91.025842 
" clip-path="url(#p962ea08634)" style="fill: none; stroke: #000000; stroke-width: 1.5"/>
   </g>
   <g id="LineCollection_15">
    <path d="M 239.588555 91.695791 
L 239.588555 91.333666 
" clip-path="url(#p962ea08634)" style="fill: none; stroke: #000000; stroke-width: 1.5"/>
   </g>
   <g id="LineCollection_16">
    <path d="M 284.880763 105.873662 
L 284.880763 105.417967 
" clip-path="url(#p962ea08634)" style="fill: none; stroke: #000000; stroke-width: 1.5"/>
   </g>
   <g id="LineCollection_17">
    <path d="M 293.939205 106.10154 
L 293.939205 105.545533 
" clip-path="url(#p962ea08634)" style="fill: none; stroke: #000000; stroke-width: 1.5"/>
   </g>
   <g id="LineCollection_18">
    <path d="M 302.997646 108.936692 
L 302.997646 107.973304 
" clip-path="url(#p962ea08634)" style="fill: none; stroke: #000000; stroke-width: 1.5"/>
   </g>
   <g id="LineCollection_19">
    <path d="M 312.056088 109.606419 
L 312.056088 108.749459 
" clip-path="url(#p962ea08634)" style="fill: none; stroke: #000000; stroke-width: 1.5"/>
   </g>
   <g id="LineCollection_20">
    <path d="M 321.114529 109.987374 
L 321.114529 109.338246 
" clip-path="url(#p962ea08634)" style="fill: none; stroke: #000000; stroke-width: 1.5"/>
   </g>
   <g id="LineCollection_21">
    <path d="M 348.289854 91.485432 
L 348.289854 90.798802 
" clip-path="url(#p962ea08634)" style="fill: none; stroke: #000000; stroke-width: 1.5"/>
   </g>
   <g id="LineCollection_22">
    <path d="M 357.348295 91.399068 
L 357.348295 90.816729 
" clip-path="url(#p962ea08634)" style="fill: none; stroke: #000000; stroke-width: 1.5"/>
   </g>
   <g id="LineCollection_23">
    <path d="M 366.406737 96.265174 
L 366.406737 95.737368 
" clip-path="url(#p962ea08634)" style="fill: none; stroke: #000000; stroke-width: 1.5"/>
   </g>
   <g id="LineCollection_24">
    <path d="M 375.465179 96.452766 
L 375.465179 95.70637 
" clip-path="url(#p962ea08634)" style="fill: none; stroke: #000000; stroke-width: 1.5"/>
   </g>
   <g id="LineCollection_25">
    <path d="M 384.52362 97.863565 
L 384.52362 97.121585 
" clip-path="url(#p962ea08634)" style="fill: none; stroke: #000000; stroke-width: 1.5"/>
   </g>
   <g id="LineCollection_26">
    <path d="M 411.698945 81.591884 
L 411.698945 81.38196 
" clip-path="url(#p962ea08634)" style="fill: none; stroke: #000000; stroke-width: 1.5"/>
   </g>
   <g id="LineCollection_27">
    <path d="M 420.757386 81.697853 
L 420.757386 81.431845 
" clip-path="url(#p962ea08634)" style="fill: none; stroke: #000000; stroke-width: 1.5"/>
   </g>
   <g id="LineCollection_28">
    <path d="M 429.815828 85.550273 
L 429.815828 85.065576 
" clip-path="url(#p962ea08634)" style="fill: none; stroke: #000000; stroke-width: 1.5"/>
   </g>
   <g id="LineCollection_29">
    <path d="M 438.874269 85.825463 
L 438.874269 85.499992 
" clip-path="url(#p962ea08634)" style="fill: none; stroke: #000000; stroke-width: 1.5"/>
   </g>
   <g id="LineCollection_30">
    <path d="M 447.932711 86.624252 
L 447.932711 86.395799 
" clip-path="url(#p962ea08634)" style="fill: none; stroke: #000000; stroke-width: 1.5"/>
   </g>
   <g id="LineCollection_31">
    <path d="M 475.108036 49.794441 
L 475.108036 49.737363 
" clip-path="url(#p962ea08634)" style="fill: none; stroke: #000000; stroke-width: 1.5"/>
   </g>
   <g id="LineCollection_32">
    <path d="M 484.166477 50.205618 
L 484.166477 50.123601 
" clip-path="url(#p962ea08634)" style="fill: none; stroke: #000000; stroke-width: 1.5"/>
   </g>
   <g id="LineCollection_33">
    <path d="M 493.224919 54.893018 
L 493.224919 54.802827 
" clip-path="url(#p962ea08634)" style="fill: none; stroke: #000000; stroke-width: 1.5"/>
   </g>
   <g id="LineCollection_34">
    <path d="M 502.28336 55.303288 
L 502.28336 55.226367 
" clip-path="url(#p962ea08634)" style="fill: none; stroke: #000000; stroke-width: 1.5"/>
   </g>
   <g id="LineCollection_35">
    <path d="M 511.341802 56.75753 
L 511.341802 56.632371 
" clip-path="url(#p962ea08634)" style="fill: none; stroke: #000000; stroke-width: 1.5"/>
   </g>
   <g id="LineCollection_36">
    <path d="M 538.517127 47.418443 
L 538.517127 47.418443 
" clip-path="url(#p962ea08634)" style="fill: none; stroke: #000000; stroke-width: 1.5"/>
   </g>
   <g id="LineCollection_37">
    <path d="M 547.575568 48.362319 
L 547.575568 48.362319 
" clip-path="url(#p962ea08634)" style="fill: none; stroke: #000000; stroke-width: 1.5"/>
   </g>
   <g id="LineCollection_38">
    <path d="M 556.63401 52.456683 
L 556.63401 52.456683 
" clip-path="url(#p962ea08634)" style="fill: none; stroke: #000000; stroke-width: 1.5"/>
   </g>
   <g id="LineCollection_39">
    <path d="M 565.692451 53.302362 
L 565.692451 53.302362 
" clip-path="url(#p962ea08634)" style="fill: none; stroke: #000000; stroke-width: 1.5"/>
   </g>
   <g id="LineCollection_40">
    <path d="M 574.750893 53.699471 
L 574.750893 53.699471 
" clip-path="url(#p962ea08634)" style="fill: none; stroke: #000000; stroke-width: 1.5"/>
   </g>
  </g>
  <g id="axes_2">
   <g id="patch_52">
    <path d="M 46.64375 264.596625 
L 604.64375 264.596625 
L 604.64375 163.796625 
L 46.64375 163.796625 
z
" style="fill: #ffffff"/>
   </g>
   <g id="matplotlib.axis_3">
    <g id="xtick_9">
     <g id="line2d_49">
      <g>
       <use xlink:href="#m8c6678f234" x="94.65349" y="264.596625" style="stroke: #000000; stroke-width: 0.8"/>
      </g>
     </g>
     <g id="text_12">
      <!-- msd_15to1 -->
      <g transform="translate(47.292677 291.496566) rotate(-20) scale(0.09 -0.09)">
       <defs>
        <path id="DejaVuSerif-5f" d="M 3200 -1259 
L 3200 -1509 
L 0 -1509 
L 0 -1259 
L 3200 -1259 
z
" transform="scale(0.015625)"/>
       </defs>
       <use xlink:href="#DejaVuSerif-6d"/>
       <use xlink:href="#DejaVuSerif-73" x="94.824219"/>
       <use xlink:href="#DejaVuSerif-64" x="146.142578"/>
       <use xlink:href="#DejaVuSerif-5f" x="210.15625"/>
       <use xlink:href="#DejaVuSerif-31" x="260.15625"/>
       <use xlink:href="#DejaVuSerif-35" x="323.779297"/>
       <use xlink:href="#DejaVuSerif-74" x="387.402344"/>
       <use xlink:href="#DejaVuSerif-6f" x="427.587891"/>
       <use xlink:href="#DejaVuSerif-31" x="487.792969"/>
      </g>
     </g>
    </g>
    <g id="xtick_10">
     <g id="line2d_50">
      <g>
       <use xlink:href="#m8c6678f234" x="158.062581" y="264.596625" style="stroke: #000000; stroke-width: 0.8"/>
      </g>
     </g>
     <g id="text_13">
      <!-- toffoli -->
      <g transform="translate(132.169645 283.714058) rotate(-20) scale(0.09 -0.09)">
       <use xlink:href="#DejaVuSerif-74"/>
       <use xlink:href="#DejaVuSerif-6f" x="40.185547"/>
       <use xlink:href="#DejaVuSerif-66" x="100.390625"/>
       <use xlink:href="#DejaVuSerif-66" x="137.402344"/>
       <use xlink:href="#DejaVuSerif-6f" x="174.414062"/>
       <use xlink:href="#DejaVuSerif-6c" x="234.619141"/>
       <use xlink:href="#DejaVuSerif-69" x="266.601562"/>
      </g>
     </g>
    </g>
    <g id="xtick_11">
     <g id="line2d_51">
      <g>
       <use xlink:href="#m8c6678f234" x="221.471672" y="264.596625" style="stroke: #000000; stroke-width: 0.8"/>
      </g>
     </g>
     <g id="text_14">
      <!-- rz_1e-10 -->
      <g transform="translate(184.012429 287.743366) rotate(-20) scale(0.09 -0.09)">
       <defs>
        <path id="DejaVuSerif-7a" d="M 256 0 
L 256 269 
L 2338 2988 
L 691 2988 
L 691 2413 
L 359 2413 
L 359 3322 
L 3078 3322 
L 3078 3053 
L 997 331 
L 2803 331 
L 2803 934 
L 3138 934 
L 3138 0 
L 256 0 
z
" transform="scale(0.015625)"/>
        <path id="DejaVuSerif-2d" d="M 281 1959 
L 1881 1959 
L 1881 1472 
L 281 1472 
L 281 1959 
z
" transform="scale(0.015625)"/>
       </defs>
       <use xlink:href="#DejaVuSerif-72"/>
       <use xlink:href="#DejaVuSerif-7a" x="47.802734"/>
       <use xlink:href="#DejaVuSerif-5f" x="100.488281"/>
       <use xlink:href="#DejaVuSerif-31" x="150.488281"/>
       <use xlink:href="#DejaVuSerif-65" x="214.111328"/>
       <use xlink:href="#DejaVuSerif-2d" x="273.291016"/>
       <use xlink:href="#DejaVuSerif-31" x="307.080078"/>
       <use xlink:href="#DejaVuSerif-30" x="370.703125"/>
      </g>
     </g>
    </g>
    <g id="xtick_12">
     <g id="line2d_52">
      <g>
       <use xlink:href="#m8c6678f234" x="302.997646" y="264.596625" style="stroke: #000000; stroke-width: 0.8"/>
      </g>
     </g>
     <g id="text_15">
      <!-- qrom_15_15 -->
      <g transform="translate(249.723376 293.499565) rotate(-20) scale(0.09 -0.09)">
       <defs>
        <path id="DejaVuSerif-71" d="M 3359 2988 
L 3359 -997 
L 3909 -997 
L 3909 -1331 
L 2241 -1331 
L 2241 -997 
L 2784 -997 
L 2784 519 
Q 2616 206 2355 57 
Q 2094 -91 1709 -91 
Q 1097 -91 708 395 
Q 319 881 319 1663 
Q 319 2444 706 2928 
Q 1094 3413 1709 3413 
Q 2094 3413 2355 3264 
Q 2616 3116 2784 2803 
L 2784 3322 
L 3909 3322 
L 3909 2988 
L 3359 2988 
z
M 2784 1825 
Q 2784 2422 2554 2737 
Q 2325 3053 1888 3053 
Q 1444 3053 1217 2703 
Q 991 2353 991 1663 
Q 991 975 1217 622 
Q 1444 269 1888 269 
Q 2325 269 2554 583 
Q 2784 897 2784 1497 
L 2784 1825 
z
" transform="scale(0.015625)"/>
       </defs>
       <use xlink:href="#DejaVuSerif-71"/>
       <use xlink:href="#DejaVuSerif-72" x="64.013672"/>
       <use xlink:href="#DejaVuSerif-6f" x="111.816406"/>
       <use xlink:href="#DejaVuSerif-6d" x="172.021484"/>
       <use xlink:href="#DejaVuSerif-5f" x="266.845703"/>
       <use xlink:href="#DejaVuSerif-31" x="316.845703"/>
       <use xlink:href="#DejaVuSerif-35" x="380.46875"/>
       <use xlink:href="#DejaVuSerif-5f" x="444.091797"/>
       <use xlink:href="#DejaVuSerif-31" x="494.091797"/>
       <use xlink:href="#DejaVuSerif-35" x="557.714844"/>
      </g>
     </g>
    </g>
    <g id="xtick_13">
     <g id="line2d_53">
      <g>
       <use xlink:href="#m8c6678f234" x="366.406737" y="264.596625" style="stroke: #000000; stroke-width: 0.8"/>
      </g>
     </g>
     <g id="text_16">
      <!-- adder_n18 -->
      <g transform="translate(320.32508 291.030991) rotate(-20) scale(0.09 -0.09)">
       <defs>
        <path id="DejaVuSerif-38" d="M 2981 1275 
Q 2981 1775 2732 2051 
Q 2484 2328 2034 2328 
Q 1584 2328 1336 2051 
Q 1088 1775 1088 1275 
Q 1088 772 1336 495 
Q 1584 219 2034 219 
Q 2484 219 2732 495 
Q 2981 772 2981 1275 
z
M 2853 3541 
Q 2853 3966 2637 4203 
Q 2422 4441 2034 4441 
Q 1650 4441 1433 4203 
Q 1216 3966 1216 3541 
Q 1216 3113 1433 2875 
Q 1650 2638 2034 2638 
Q 2422 2638 2637 2875 
Q 2853 3113 2853 3541 
z
M 2516 2484 
Q 3047 2413 3344 2092 
Q 3641 1772 3641 1275 
Q 3641 619 3225 264 
Q 2809 -91 2034 -91 
Q 1263 -91 845 264 
Q 428 619 428 1275 
Q 428 1772 725 2092 
Q 1022 2413 1556 2484 
Q 1084 2569 832 2842 
Q 581 3116 581 3541 
Q 581 4103 968 4426 
Q 1356 4750 2034 4750 
Q 2713 4750 3100 4426 
Q 3488 4103 3488 3541 
Q 3488 3116 3236 2842 
Q 2984 2569 2516 2484 
z
" transform="scale(0.015625)"/>
       </defs>
       <use xlink:href="#DejaVuSerif-61"/>
       <use xlink:href="#DejaVuSerif-64" x="59.619141"/>
       <use xlink:href="#DejaVuSerif-64" x="123.632812"/>
       <use xlink:href="#DejaVuSerif-65" x="187.646484"/>
       <use xlink:href="#DejaVuSerif-72" x="246.826172"/>
       <use xlink:href="#DejaVuSerif-5f" x="294.628906"/>
       <use xlink:href="#DejaVuSerif-6e" x="344.628906"/>
       <use xlink:href="#DejaVuSerif-31" x="409.033203"/>
       <use xlink:href="#DejaVuSerif-38" x="472.65625"/>
      </g>
     </g>
    </g>
    <g id="xtick_14">
     <g id="line2d_54">
      <g>
       <use xlink:href="#m8c6678f234" x="429.815828" y="264.596625" style="stroke: #000000; stroke-width: 0.8"/>
      </g>
     </g>
     <g id="text_17">
      <!-- carleman_2_4 -->
      <g transform="translate(369.82995 296.091714) rotate(-20) scale(0.09 -0.09)">
       <defs>
        <path id="DejaVuSerif-32" d="M 819 3553 
L 469 3553 
L 469 4384 
Q 803 4563 1142 4656 
Q 1481 4750 1806 4750 
Q 2534 4750 2956 4397 
Q 3378 4044 3378 3438 
Q 3378 2753 2422 1800 
Q 2347 1728 2309 1691 
L 1131 513 
L 3078 513 
L 3078 1088 
L 3444 1088 
L 3444 0 
L 434 0 
L 434 341 
L 1850 1753 
Q 2319 2222 2519 2614 
Q 2719 3006 2719 3438 
Q 2719 3909 2473 4175 
Q 2228 4441 1797 4441 
Q 1350 4441 1106 4219 
Q 863 3997 819 3553 
z
" transform="scale(0.015625)"/>
       </defs>
       <use xlink:href="#DejaVuSerif-63"/>
       <use xlink:href="#DejaVuSerif-61" x="56.005859"/>
       <use xlink:href="#DejaVuSerif-72" x="115.625"/>
       <use xlink:href="#DejaVuSerif-6c" x="163.427734"/>
       <use xlink:href="#DejaVuSerif-65" x="195.410156"/>
       <use xlink:href="#DejaVuSerif-6d" x="254.589844"/>
       <use xlink:href="#DejaVuSerif-61" x="349.414062"/>
       <use xlink:href="#DejaVuSerif-6e" x="409.033203"/>
       <use xlink:href="#DejaVuSerif-5f" x="473.4375"/>
       <use xlink:href="#DejaVuSerif-32" x="523.4375"/>
       <use xlink:href="#DejaVuSerif-5f" x="587.060547"/>
       <use xlink:href="#DejaVuSerif-34" x="637.060547"/>
      </g>
     </g>
    </g>
    <g id="xtick_15">
     <g id="line2d_55">
      <g>
       <use xlink:href="#m8c6678f234" x="493.224919" y="264.596625" style="stroke: #000000; stroke-width: 0.8"/>
      </g>
     </g>
     <g id="text_18">
      <!-- H2 -->
      <g transform="translate(479.828866 279.165564) rotate(-20) scale(0.09 -0.09)">
       <defs>
        <path id="DejaVuSerif-48" d="M 353 0 
L 353 331 
L 947 331 
L 947 4331 
L 353 4331 
L 353 4666 
L 2175 4666 
L 2175 4331 
L 1581 4331 
L 1581 2719 
L 4000 2719 
L 4000 4331 
L 3406 4331 
L 3406 4666 
L 5228 4666 
L 5228 4331 
L 4634 4331 
L 4634 331 
L 5228 331 
L 5228 0 
L 3406 0 
L 3406 331 
L 4000 331 
L 4000 2338 
L 1581 2338 
L 1581 331 
L 2175 331 
L 2175 0 
L 353 0 
z
" transform="scale(0.015625)"/>
       </defs>
       <use xlink:href="#DejaVuSerif-48"/>
       <use xlink:href="#DejaVuSerif-32" x="87.207031"/>
      </g>
     </g>
    </g>
    <g id="xtick_16">
     <g id="line2d_56">
      <g>
       <use xlink:href="#m8c6678f234" x="556.63401" y="264.596625" style="stroke: #000000; stroke-width: 0.8"/>
      </g>
     </g>
     <g id="text_19">
      <!-- fermi_hubbard_4_4 -->
      <g transform="translate(473.336561 304.576432) rotate(-20) scale(0.09 -0.09)">
       <defs>
        <path id="DejaVuSerif-62" d="M 738 331 
L 738 4531 
L 184 4531 
L 184 4863 
L 1313 4863 
L 1313 2803 
Q 1481 3116 1742 3264 
Q 2003 3413 2388 3413 
Q 3000 3413 3387 2928 
Q 3775 2444 3775 1663 
Q 3775 881 3387 395 
Q 3000 -91 2388 -91 
Q 2003 -91 1742 57 
Q 1481 206 1313 519 
L 1313 0 
L 184 0 
L 184 331 
L 738 331 
z
M 1313 1497 
Q 1313 897 1542 583 
Q 1772 269 2209 269 
Q 2650 269 2876 622 
Q 3103 975 3103 1663 
Q 3103 2353 2876 2703 
Q 2650 3053 2209 3053 
Q 1772 3053 1542 2737 
Q 1313 2422 1313 1825 
L 1313 1497 
z
" transform="scale(0.015625)"/>
       </defs>
       <use xlink:href="#DejaVuSerif-66"/>
       <use xlink:href="#DejaVuSerif-65" x="37.011719"/>
       <use xlink:href="#DejaVuSerif-72" x="96.191406"/>
       <use xlink:href="#DejaVuSerif-6d" x="143.994141"/>
       <use xlink:href="#DejaVuSerif-69" x="238.818359"/>
       <use xlink:href="#DejaVuSerif-5f" x="270.800781"/>
       <use xlink:href="#DejaVuSerif-68" x="320.800781"/>
       <use xlink:href="#DejaVuSerif-75" x="385.205078"/>
       <use xlink:href="#DejaVuSerif-62" x="449.609375"/>
       <use xlink:href="#DejaVuSerif-62" x="513.623047"/>
       <use xlink:href="#DejaVuSerif-61" x="577.636719"/>
       <use xlink:href="#DejaVuSerif-72" x="637.255859"/>
       <use xlink:href="#DejaVuSerif-64" x="685.058594"/>
       <use xlink:href="#DejaVuSerif-5f" x="749.072266"/>
       <use xlink:href="#DejaVuSerif-34" x="799.072266"/>
       <use xlink:href="#DejaVuSerif-5f" x="862.695312"/>
       <use xlink:href="#DejaVuSerif-34" x="912.695312"/>
      </g>
     </g>
    </g>
   </g>
   <g id="matplotlib.axis_4">
    <g id="ytick_36">
     <g id="line2d_57">
      <path d="M 46.64375 264.596625 
L 604.64375 264.596625 
" clip-path="url(#p1578059a81)" style="fill: none; stroke-dasharray: 2.96,1.28; stroke-dashoffset: 0; stroke: #b0b0b0; stroke-opacity: 0.5; stroke-width: 0.8"/>
     </g>
     <g id="line2d_58">
      <g>
       <use xlink:href="#mf75faee8b7" x="46.64375" y="264.596625" style="stroke: #000000; stroke-width: 0.8"/>
      </g>
     </g>
     <g id="text_20">
      <!-- 0.00 -->
      <g transform="translate(20.878125 268.395844) scale(0.1 -0.1)">
       <defs>
        <path id="DejaVuSerif-2e" d="M 603 325 
Q 603 500 722 622 
Q 841 744 1019 744 
Q 1191 744 1312 622 
Q 1434 500 1434 325 
Q 1434 153 1312 31 
Q 1191 -91 1019 -91 
Q 841 -91 722 29 
Q 603 150 603 325 
z
" transform="scale(0.015625)"/>
       </defs>
       <use xlink:href="#DejaVuSerif-30"/>
       <use xlink:href="#DejaVuSerif-2e" x="63.623047"/>
       <use xlink:href="#DejaVuSerif-30" x="95.410156"/>
       <use xlink:href="#DejaVuSerif-30" x="159.033203"/>
      </g>
     </g>
    </g>
    <g id="ytick_37">
     <g id="line2d_59">
      <path d="M 46.64375 242.365016 
L 604.64375 242.365016 
" clip-path="url(#p1578059a81)" style="fill: none; stroke-dasharray: 2.96,1.28; stroke-dashoffset: 0; stroke: #b0b0b0; stroke-opacity: 0.5; stroke-width: 0.8"/>
     </g>
     <g id="line2d_60">
      <g>
       <use xlink:href="#mf75faee8b7" x="46.64375" y="242.365016" style="stroke: #000000; stroke-width: 0.8"/>
      </g>
     </g>
     <g id="text_21">
      <!-- 0.25 -->
      <g transform="translate(20.878125 246.164235) scale(0.1 -0.1)">
       <use xlink:href="#DejaVuSerif-30"/>
       <use xlink:href="#DejaVuSerif-2e" x="63.623047"/>
       <use xlink:href="#DejaVuSerif-32" x="95.410156"/>
       <use xlink:href="#DejaVuSerif-35" x="159.033203"/>
      </g>
     </g>
    </g>
    <g id="ytick_38">
     <g id="line2d_61">
      <path d="M 46.64375 220.133407 
L 604.64375 220.133407 
" clip-path="url(#p1578059a81)" style="fill: none; stroke-dasharray: 2.96,1.28; stroke-dashoffset: 0; stroke: #b0b0b0; stroke-opacity: 0.5; stroke-width: 0.8"/>
     </g>
     <g id="line2d_62">
      <g>
       <use xlink:href="#mf75faee8b7" x="46.64375" y="220.133407" style="stroke: #000000; stroke-width: 0.8"/>
      </g>
     </g>
     <g id="text_22">
      <!-- 0.50 -->
      <g transform="translate(20.878125 223.932626) scale(0.1 -0.1)">
       <use xlink:href="#DejaVuSerif-30"/>
       <use xlink:href="#DejaVuSerif-2e" x="63.623047"/>
       <use xlink:href="#DejaVuSerif-35" x="95.410156"/>
       <use xlink:href="#DejaVuSerif-30" x="159.033203"/>
      </g>
     </g>
    </g>
    <g id="ytick_39">
     <g id="line2d_63">
      <path d="M 46.64375 197.901798 
L 604.64375 197.901798 
" clip-path="url(#p1578059a81)" style="fill: none; stroke-dasharray: 2.96,1.28; stroke-dashoffset: 0; stroke: #b0b0b0; stroke-opacity: 0.5; stroke-width: 0.8"/>
     </g>
     <g id="line2d_64">
      <g>
       <use xlink:href="#mf75faee8b7" x="46.64375" y="197.901798" style="stroke: #000000; stroke-width: 0.8"/>
      </g>
     </g>
     <g id="text_23">
      <!-- 0.75 -->
      <g transform="translate(20.878125 201.701017) scale(0.1 -0.1)">
       <defs>
        <path id="DejaVuSerif-37" d="M 3609 4347 
L 1784 0 
L 1319 0 
L 3059 4153 
L 903 4153 
L 903 3578 
L 538 3578 
L 538 4666 
L 3609 4666 
L 3609 4347 
z
" transform="scale(0.015625)"/>
       </defs>
       <use xlink:href="#DejaVuSerif-30"/>
       <use xlink:href="#DejaVuSerif-2e" x="63.623047"/>
       <use xlink:href="#DejaVuSerif-37" x="95.410156"/>
       <use xlink:href="#DejaVuSerif-35" x="159.033203"/>
      </g>
     </g>
    </g>
    <g id="ytick_40">
     <g id="line2d_65">
      <path d="M 46.64375 175.670189 
L 604.64375 175.670189 
" clip-path="url(#p1578059a81)" style="fill: none; stroke-dasharray: 2.96,1.28; stroke-dashoffset: 0; stroke: #b0b0b0; stroke-opacity: 0.5; stroke-width: 0.8"/>
     </g>
     <g id="line2d_66">
      <g>
       <use xlink:href="#mf75faee8b7" x="46.64375" y="175.670189" style="stroke: #000000; stroke-width: 0.8"/>
      </g>
     </g>
     <g id="text_24">
      <!-- 1.00 -->
      <g transform="translate(20.878125 179.469408) scale(0.1 -0.1)">
       <use xlink:href="#DejaVuSerif-31"/>
       <use xlink:href="#DejaVuSerif-2e" x="63.623047"/>
       <use xlink:href="#DejaVuSerif-30" x="95.410156"/>
       <use xlink:href="#DejaVuSerif-30" x="159.033203"/>
      </g>
     </g>
    </g>
    <g id="text_25">
     <!-- Relative runtime -->
     <g transform="translate(14.798438 256.623187) rotate(-90) scale(0.1 -0.1)">
      <use xlink:href="#DejaVuSerif-52"/>
      <use xlink:href="#DejaVuSerif-65" x="75.292969"/>
      <use xlink:href="#DejaVuSerif-6c" x="134.472656"/>
      <use xlink:href="#DejaVuSerif-61" x="166.455078"/>
      <use xlink:href="#DejaVuSerif-74" x="226.074219"/>
      <use xlink:href="#DejaVuSerif-69" x="266.259766"/>
      <use xlink:href="#DejaVuSerif-76" x="298.242188"/>
      <use xlink:href="#DejaVuSerif-65" x="354.736328"/>
      <use xlink:href="#DejaVuSerif-20" x="413.916016"/>
      <use xlink:href="#DejaVuSerif-72" x="445.703125"/>
      <use xlink:href="#DejaVuSerif-75" x="493.505859"/>
      <use xlink:href="#DejaVuSerif-6e" x="557.910156"/>
      <use xlink:href="#DejaVuSerif-74" x="622.314453"/>
      <use xlink:href="#DejaVuSerif-69" x="662.5"/>
      <use xlink:href="#DejaVuSerif-6d" x="694.482422"/>
      <use xlink:href="#DejaVuSerif-65" x="789.306641"/>
     </g>
    </g>
   </g>
   <g id="line2d_67">
    <path d="M 262.234659 264.596625 
L 262.234659 163.796625 
" clip-path="url(#p1578059a81)" style="fill: none; stroke: #000000; stroke-linecap: square"/>
   </g>
   <g id="patch_53">
    <path d="M 46.64375 264.596625 
L 46.64375 163.796625 
" style="fill: none; stroke: #000000; stroke-width: 0.8; stroke-linejoin: miter; stroke-linecap: square"/>
   </g>
   <g id="patch_54">
    <path d="M 604.64375 264.596625 
L 604.64375 163.796625 
" style="fill: none; stroke: #000000; stroke-width: 0.8; stroke-linejoin: miter; stroke-linecap: square"/>
   </g>
   <g id="patch_55">
    <path d="M 46.64375 264.596625 
L 604.64375 264.596625 
" style="fill: none; stroke: #000000; stroke-width: 0.8; stroke-linejoin: miter; stroke-linecap: square"/>
   </g>
   <g id="patch_56">
    <path d="M 46.64375 163.796625 
L 604.64375 163.796625 
" style="fill: none; stroke: #000000; stroke-width: 0.8; stroke-linejoin: miter; stroke-linecap: square"/>
   </g>
   <g id="patch_57">
    <path d="M 72.007386 264.596625 
L 81.065828 264.596625 
L 81.065828 175.670189 
L 72.007386 175.670189 
z
" clip-path="url(#p1578059a81)" style="fill: #cc79a7"/>
   </g>
   <g id="patch_58">
    <path d="M 81.065828 264.596625 
L 90.124269 264.596625 
L 90.124269 176.725046 
L 81.065828 176.725046 
z
" clip-path="url(#p1578059a81)" style="fill: url(#h6efdd45c23)"/>
   </g>
   <g id="patch_59">
    <path d="M 90.124269 264.596625 
L 99.182711 264.596625 
L 99.182711 197.364418 
L 90.124269 197.364418 
z
" clip-path="url(#p1578059a81)" style="fill: #0072b2"/>
   </g>
   <g id="patch_60">
    <path d="M 99.182711 264.596625 
L 108.241153 264.596625 
L 108.241153 196.817087 
L 99.182711 196.817087 
z
" clip-path="url(#p1578059a81)" style="fill: url(#ha37da5ee54)"/>
   </g>
   <g id="patch_61">
    <path d="M 108.241153 264.596625 
L 117.299594 264.596625 
L 117.299594 212.689699 
L 108.241153 212.689699 
z
" clip-path="url(#p1578059a81)" style="fill: url(#h8645ee8f12)"/>
   </g>
   <g id="patch_62">
    <path d="M 135.416477 264.596625 
L 144.474919 264.596625 
L 144.474919 175.670189 
L 135.416477 175.670189 
z
" clip-path="url(#p1578059a81)" style="fill: #cc79a7"/>
   </g>
   <g id="patch_63">
    <path d="M 144.474919 264.596625 
L 153.53336 264.596625 
L 153.53336 182.85823 
L 144.474919 182.85823 
z
" clip-path="url(#p1578059a81)" style="fill: url(#h6efdd45c23)"/>
   </g>
   <g id="patch_64">
    <path d="M 153.53336 264.596625 
L 162.591802 264.596625 
L 162.591802 201.159475 
L 153.53336 201.159475 
z
" clip-path="url(#p1578059a81)" style="fill: #0072b2"/>
   </g>
   <g id="patch_65">
    <path d="M 162.591802 264.596625 
L 171.650244 264.596625 
L 171.650244 209.360014 
L 162.591802 209.360014 
z
" clip-path="url(#p1578059a81)" style="fill: url(#ha37da5ee54)"/>
   </g>
   <g id="patch_66">
    <path d="M 171.650244 264.596625 
L 180.708685 264.596625 
L 180.708685 211.506371 
L 171.650244 211.506371 
z
" clip-path="url(#p1578059a81)" style="fill: url(#h8645ee8f12)"/>
   </g>
   <g id="patch_67">
    <path d="M 198.825568 264.596625 
L 207.88401 264.596625 
L 207.88401 175.670189 
L 198.825568 175.670189 
z
" clip-path="url(#p1578059a81)" style="fill: #cc79a7"/>
   </g>
   <g id="patch_68">
    <path d="M 207.88401 264.596625 
L 216.942451 264.596625 
L 216.942451 177.550028 
L 207.88401 177.550028 
z
" clip-path="url(#p1578059a81)" style="fill: url(#h6efdd45c23)"/>
   </g>
   <g id="patch_69">
    <path d="M 216.942451 264.596625 
L 226.000893 264.596625 
L 226.000893 206.207217 
L 216.942451 206.207217 
z
" clip-path="url(#p1578059a81)" style="fill: #0072b2"/>
   </g>
   <g id="patch_70">
    <path d="M 226.000893 264.596625 
L 235.059334 264.596625 
L 235.059334 211.935374 
L 226.000893 211.935374 
z
" clip-path="url(#p1578059a81)" style="fill: url(#ha37da5ee54)"/>
   </g>
   <g id="patch_71">
    <path d="M 235.059334 264.596625 
L 244.117776 264.596625 
L 244.117776 212.907509 
L 235.059334 212.907509 
z
" clip-path="url(#p1578059a81)" style="fill: url(#h8645ee8f12)"/>
   </g>
   <g id="patch_72">
    <path d="M 280.351542 264.596625 
L 289.409984 264.596625 
L 289.409984 175.670189 
L 280.351542 175.670189 
z
" clip-path="url(#p1578059a81)" style="fill: #cc79a7"/>
   </g>
   <g id="patch_73">
    <path d="M 289.409984 264.596625 
L 298.468425 264.596625 
L 298.468425 177.043062 
L 289.409984 177.043062 
z
" clip-path="url(#p1578059a81)" style="fill: url(#h6efdd45c23)"/>
   </g>
   <g id="patch_74">
    <path d="M 298.468425 264.596625 
L 307.526867 264.596625 
L 307.526867 195.117853 
L 298.468425 195.117853 
z
" clip-path="url(#p1578059a81)" style="fill: #0072b2"/>
   </g>
   <g id="patch_75">
    <path d="M 307.526867 264.596625 
L 316.585308 264.596625 
L 316.585308 199.417265 
L 307.526867 199.417265 
z
" clip-path="url(#p1578059a81)" style="fill: url(#ha37da5ee54)"/>
   </g>
   <g id="patch_76">
    <path d="M 316.585308 264.596625 
L 325.64375 264.596625 
L 325.64375 202.161843 
L 316.585308 202.161843 
z
" clip-path="url(#p1578059a81)" style="fill: url(#h8645ee8f12)"/>
   </g>
   <g id="patch_77">
    <path d="M 343.760633 264.596625 
L 352.819075 264.596625 
L 352.819075 175.670189 
L 343.760633 175.670189 
z
" clip-path="url(#p1578059a81)" style="fill: #cc79a7"/>
   </g>
   <g id="patch_78">
    <path d="M 352.819075 264.596625 
L 361.877516 264.596625 
L 361.877516 175.413154 
L 352.819075 175.413154 
z
" clip-path="url(#p1578059a81)" style="fill: url(#h6efdd45c23)"/>
   </g>
   <g id="patch_79">
    <path d="M 361.877516 264.596625 
L 370.935958 264.596625 
L 370.935958 206.649287 
L 361.877516 206.649287 
z
" clip-path="url(#p1578059a81)" style="fill: #0072b2"/>
   </g>
   <g id="patch_80">
    <path d="M 370.935958 264.596625 
L 379.994399 264.596625 
L 379.994399 207.032078 
L 370.935958 207.032078 
z
" clip-path="url(#p1578059a81)" style="fill: url(#ha37da5ee54)"/>
   </g>
   <g id="patch_81">
    <path d="M 379.994399 264.596625 
L 389.052841 264.596625 
L 389.052841 213.770239 
L 379.994399 213.770239 
z
" clip-path="url(#p1578059a81)" style="fill: url(#h8645ee8f12)"/>
   </g>
   <g id="patch_82">
    <path d="M 407.169724 264.596625 
L 416.228166 264.596625 
L 416.228166 175.670189 
L 407.169724 175.670189 
z
" clip-path="url(#p1578059a81)" style="fill: #cc79a7"/>
   </g>
   <g id="patch_83">
    <path d="M 416.228166 264.596625 
L 425.286607 264.596625 
L 425.286607 176.276316 
L 416.228166 176.276316 
z
" clip-path="url(#p1578059a81)" style="fill: url(#h6efdd45c23)"/>
   </g>
   <g id="patch_84">
    <path d="M 425.286607 264.596625 
L 434.345049 264.596625 
L 434.345049 201.075838 
L 425.286607 201.075838 
z
" clip-path="url(#p1578059a81)" style="fill: #0072b2"/>
   </g>
   <g id="patch_85">
    <path d="M 434.345049 264.596625 
L 443.40349 264.596625 
L 443.40349 203.038354 
L 434.345049 203.038354 
z
" clip-path="url(#p1578059a81)" style="fill: url(#ha37da5ee54)"/>
   </g>
   <g id="patch_86">
    <path d="M 443.40349 264.596625 
L 452.461932 264.596625 
L 452.461932 207.469117 
L 443.40349 207.469117 
z
" clip-path="url(#p1578059a81)" style="fill: url(#h8645ee8f12)"/>
   </g>
   <g id="patch_87">
    <path d="M 470.578815 264.596625 
L 479.637256 264.596625 
L 479.637256 175.670189 
L 470.578815 175.670189 
z
" clip-path="url(#p1578059a81)" style="fill: #cc79a7"/>
   </g>
   <g id="patch_88">
    <path d="M 479.637256 264.596625 
L 488.695698 264.596625 
L 488.695698 178.739293 
L 479.637256 178.739293 
z
" clip-path="url(#p1578059a81)" style="fill: url(#h6efdd45c23)"/>
   </g>
   <g id="patch_89">
    <path d="M 488.695698 264.596625 
L 497.75414 264.596625 
L 497.75414 207.765053 
L 488.695698 207.765053 
z
" clip-path="url(#p1578059a81)" style="fill: #0072b2"/>
   </g>
   <g id="patch_90">
    <path d="M 497.75414 264.596625 
L 506.812581 264.596625 
L 506.812581 209.814671 
L 497.75414 209.814671 
z
" clip-path="url(#p1578059a81)" style="fill: url(#ha37da5ee54)"/>
   </g>
   <g id="patch_91">
    <path d="M 506.812581 264.596625 
L 515.871023 264.596625 
L 515.871023 216.299235 
L 506.812581 216.299235 
z
" clip-path="url(#p1578059a81)" style="fill: url(#h8645ee8f12)"/>
   </g>
   <g id="patch_92">
    <path d="M 533.987906 264.596625 
L 543.046347 264.596625 
L 543.046347 175.670189 
L 533.987906 175.670189 
z
" clip-path="url(#p1578059a81)" style="fill: #cc79a7"/>
   </g>
   <g id="patch_93">
    <path d="M 543.046347 264.596625 
L 552.104789 264.596625 
L 552.104789 182.765741 
L 543.046347 182.765741 
z
" clip-path="url(#p1578059a81)" style="fill: url(#h6efdd45c23)"/>
   </g>
   <g id="patch_94">
    <path d="M 552.104789 264.596625 
L 561.163231 264.596625 
L 561.163231 207.545697 
L 552.104789 207.545697 
z
" clip-path="url(#p1578059a81)" style="fill: #0072b2"/>
   </g>
   <g id="patch_95">
    <path d="M 561.163231 264.596625 
L 570.221672 264.596625 
L 570.221672 211.641722 
L 561.163231 211.641722 
z
" clip-path="url(#p1578059a81)" style="fill: url(#ha37da5ee54)"/>
   </g>
   <g id="patch_96">
    <path d="M 570.221672 264.596625 
L 579.280114 264.596625 
L 579.280114 213.462316 
L 570.221672 213.462316 
z
" clip-path="url(#p1578059a81)" style="fill: url(#h8645ee8f12)"/>
   </g>
   <g id="LineCollection_41">
    <path d="M 76.536607 182.743754 
L 76.536607 168.596625 
" clip-path="url(#p1578059a81)" style="fill: none; stroke: #000000; stroke-width: 1.5"/>
   </g>
   <g id="LineCollection_42">
    <path d="M 85.595049 182.144722 
L 85.595049 171.305371 
" clip-path="url(#p1578059a81)" style="fill: none; stroke: #000000; stroke-width: 1.5"/>
   </g>
   <g id="LineCollection_43">
    <path d="M 94.65349 209.177225 
L 94.65349 185.551612 
" clip-path="url(#p1578059a81)" style="fill: none; stroke: #000000; stroke-width: 1.5"/>
   </g>
   <g id="LineCollection_44">
    <path d="M 103.711932 206.949674 
L 103.711932 186.6845 
" clip-path="url(#p1578059a81)" style="fill: none; stroke: #000000; stroke-width: 1.5"/>
   </g>
   <g id="LineCollection_45">
    <path d="M 112.770373 224.628342 
L 112.770373 200.751057 
" clip-path="url(#p1578059a81)" style="fill: none; stroke: #000000; stroke-width: 1.5"/>
   </g>
   <g id="LineCollection_46">
    <path d="M 139.945698 178.914708 
L 139.945698 172.425671 
" clip-path="url(#p1578059a81)" style="fill: none; stroke: #000000; stroke-width: 1.5"/>
   </g>
   <g id="LineCollection_47">
    <path d="M 149.00414 188.034579 
L 149.00414 177.681882 
" clip-path="url(#p1578059a81)" style="fill: none; stroke: #000000; stroke-width: 1.5"/>
   </g>
   <g id="LineCollection_48">
    <path d="M 158.062581 205.016569 
L 158.062581 197.302382 
" clip-path="url(#p1578059a81)" style="fill: none; stroke: #000000; stroke-width: 1.5"/>
   </g>
   <g id="LineCollection_49">
    <path d="M 167.121023 212.268755 
L 167.121023 206.451273 
" clip-path="url(#p1578059a81)" style="fill: none; stroke: #000000; stroke-width: 1.5"/>
   </g>
   <g id="LineCollection_50">
    <path d="M 176.179464 217.748806 
L 176.179464 205.263936 
" clip-path="url(#p1578059a81)" style="fill: none; stroke: #000000; stroke-width: 1.5"/>
   </g>
   <g id="LineCollection_51">
    <path d="M 203.354789 176.265243 
L 203.354789 175.075136 
" clip-path="url(#p1578059a81)" style="fill: none; stroke: #000000; stroke-width: 1.5"/>
   </g>
   <g id="LineCollection_52">
    <path d="M 212.413231 178.456663 
L 212.413231 176.643393 
" clip-path="url(#p1578059a81)" style="fill: none; stroke: #000000; stroke-width: 1.5"/>
   </g>
   <g id="LineCollection_53">
    <path d="M 221.471672 207.5123 
L 221.471672 204.902134 
" clip-path="url(#p1578059a81)" style="fill: none; stroke: #000000; stroke-width: 1.5"/>
   </g>
   <g id="LineCollection_54">
    <path d="M 230.530114 213.231293 
L 230.530114 210.639456 
" clip-path="url(#p1578059a81)" style="fill: none; stroke: #000000; stroke-width: 1.5"/>
   </g>
   <g id="LineCollection_55">
    <path d="M 239.588555 213.731959 
L 239.588555 212.08306 
" clip-path="url(#p1578059a81)" style="fill: none; stroke: #000000; stroke-width: 1.5"/>
   </g>
   <g id="LineCollection_56">
    <path d="M 284.880763 177.454986 
L 284.880763 173.885393 
" clip-path="url(#p1578059a81)" style="fill: none; stroke: #000000; stroke-width: 1.5"/>
   </g>
   <g id="LineCollection_57">
    <path d="M 293.939205 179.186984 
L 293.939205 174.89914 
" clip-path="url(#p1578059a81)" style="fill: none; stroke: #000000; stroke-width: 1.5"/>
   </g>
   <g id="LineCollection_58">
    <path d="M 302.997646 198.064547 
L 302.997646 192.17116 
" clip-path="url(#p1578059a81)" style="fill: none; stroke: #000000; stroke-width: 1.5"/>
   </g>
   <g id="LineCollection_59">
    <path d="M 312.056088 201.876535 
L 312.056088 196.957995 
" clip-path="url(#p1578059a81)" style="fill: none; stroke: #000000; stroke-width: 1.5"/>
   </g>
   <g id="LineCollection_60">
    <path d="M 321.114529 203.946606 
L 321.114529 200.377081 
" clip-path="url(#p1578059a81)" style="fill: none; stroke: #000000; stroke-width: 1.5"/>
   </g>
   <g id="LineCollection_61">
    <path d="M 348.289854 178.359021 
L 348.289854 172.981357 
" clip-path="url(#p1578059a81)" style="fill: none; stroke: #000000; stroke-width: 1.5"/>
   </g>
   <g id="LineCollection_62">
    <path d="M 357.348295 177.700368 
L 357.348295 173.12594 
" clip-path="url(#p1578059a81)" style="fill: none; stroke: #000000; stroke-width: 1.5"/>
   </g>
   <g id="LineCollection_63">
    <path d="M 366.406737 207.996299 
L 366.406737 205.302274 
" clip-path="url(#p1578059a81)" style="fill: none; stroke: #000000; stroke-width: 1.5"/>
   </g>
   <g id="LineCollection_64">
    <path d="M 375.465179 208.924029 
L 375.465179 205.140126 
" clip-path="url(#p1578059a81)" style="fill: none; stroke: #000000; stroke-width: 1.5"/>
   </g>
   <g id="LineCollection_65">
    <path d="M 384.52362 215.430854 
L 384.52362 212.109623 
" clip-path="url(#p1578059a81)" style="fill: none; stroke: #000000; stroke-width: 1.5"/>
   </g>
   <g id="LineCollection_66">
    <path d="M 411.698945 176.492475 
L 411.698945 174.847904 
" clip-path="url(#p1578059a81)" style="fill: none; stroke: #000000; stroke-width: 1.5"/>
   </g>
   <g id="LineCollection_67">
    <path d="M 420.757386 177.311167 
L 420.757386 175.241464 
" clip-path="url(#p1578059a81)" style="fill: none; stroke: #000000; stroke-width: 1.5"/>
   </g>
   <g id="LineCollection_68">
    <path d="M 429.815828 202.431846 
L 429.815828 199.71983 
" clip-path="url(#p1578059a81)" style="fill: none; stroke: #000000; stroke-width: 1.5"/>
   </g>
   <g id="LineCollection_69">
    <path d="M 438.874269 203.920847 
L 438.874269 202.155862 
" clip-path="url(#p1578059a81)" style="fill: none; stroke: #000000; stroke-width: 1.5"/>
   </g>
   <g id="LineCollection_70">
    <path d="M 447.932711 208.043989 
L 447.932711 206.894245 
" clip-path="url(#p1578059a81)" style="fill: none; stroke: #000000; stroke-width: 1.5"/>
   </g>
   <g id="LineCollection_71">
    <path d="M 475.108036 175.893774 
L 475.108036 175.446604 
" clip-path="url(#p1578059a81)" style="fill: none; stroke: #000000; stroke-width: 1.5"/>
   </g>
   <g id="LineCollection_72">
    <path d="M 484.166477 179.049479 
L 484.166477 178.429106 
" clip-path="url(#p1578059a81)" style="fill: none; stroke: #000000; stroke-width: 1.5"/>
   </g>
   <g id="LineCollection_73">
    <path d="M 493.224919 207.990838 
L 493.224919 207.539267 
" clip-path="url(#p1578059a81)" style="fill: none; stroke: #000000; stroke-width: 1.5"/>
   </g>
   <g id="LineCollection_74">
    <path d="M 502.28336 210.00029 
L 502.28336 209.629052 
" clip-path="url(#p1578059a81)" style="fill: none; stroke: #000000; stroke-width: 1.5"/>
   </g>
   <g id="LineCollection_75">
    <path d="M 511.341802 216.565506 
L 511.341802 216.032964 
" clip-path="url(#p1578059a81)" style="fill: none; stroke: #000000; stroke-width: 1.5"/>
   </g>
   <g id="LineCollection_76">
    <path d="M 538.517127 175.670189 
L 538.517127 175.670189 
" clip-path="url(#p1578059a81)" style="fill: none; stroke: #000000; stroke-width: 1.5"/>
   </g>
   <g id="LineCollection_77">
    <path d="M 547.575568 182.765741 
L 547.575568 182.765741 
" clip-path="url(#p1578059a81)" style="fill: none; stroke: #000000; stroke-width: 1.5"/>
   </g>
   <g id="LineCollection_78">
    <path d="M 556.63401 207.545697 
L 556.63401 207.545697 
" clip-path="url(#p1578059a81)" style="fill: none; stroke: #000000; stroke-width: 1.5"/>
   </g>
   <g id="LineCollection_79">
    <path d="M 565.692451 211.641722 
L 565.692451 211.641722 
" clip-path="url(#p1578059a81)" style="fill: none; stroke: #000000; stroke-width: 1.5"/>
   </g>
   <g id="LineCollection_80">
    <path d="M 574.750893 213.462316 
L 574.750893 213.462316 
" clip-path="url(#p1578059a81)" style="fill: none; stroke: #000000; stroke-width: 1.5"/>
   </g>
  </g>
  <g id="axes_3">
   <g id="patch_97">
    <path d="M 410.24375 28.436625 
L 482.24375 28.436625 
L 482.24375 8.276625 
L 410.24375 8.276625 
z
" style="fill: #ffffff"/>
   </g>
   <g id="patch_98">
    <path d="M 419.722425 28.436625 
L 422.284105 28.436625 
L 422.284105 27.750911 
L 419.722425 27.750911 
z
" clip-path="url(#pde2be83286)" style="fill: #009e73"/>
   </g>
   <g id="patch_99">
    <path d="M 422.284105 28.436625 
L 424.845784 28.436625 
L 424.845784 28.436625 
L 422.284105 28.436625 
z
" clip-path="url(#pde2be83286)" style="fill: #009e73"/>
   </g>
   <g id="patch_100">
    <path d="M 424.845784 28.436625 
L 427.407464 28.436625 
L 427.407464 27.750911 
L 424.845784 27.750911 
z
" clip-path="url(#pde2be83286)" style="fill: #009e73"/>
   </g>
   <g id="patch_101">
    <path d="M 427.407464 28.436625 
L 429.969144 28.436625 
L 429.969144 28.436625 
L 427.407464 28.436625 
z
" clip-path="url(#pde2be83286)" style="fill: #009e73"/>
   </g>
   <g id="patch_102">
    <path d="M 429.969144 28.436625 
L 432.530823 28.436625 
L 432.530823 27.750911 
L 429.969144 27.750911 
z
" clip-path="url(#pde2be83286)" style="fill: #009e73"/>
   </g>
   <g id="patch_103">
    <path d="M 432.530823 28.436625 
L 435.092503 28.436625 
L 435.092503 25.693768 
L 432.530823 25.693768 
z
" clip-path="url(#pde2be83286)" style="fill: #009e73"/>
   </g>
   <g id="patch_104">
    <path d="M 435.092503 28.436625 
L 437.654183 28.436625 
L 437.654183 23.636625 
L 435.092503 23.636625 
z
" clip-path="url(#pde2be83286)" style="fill: #009e73"/>
   </g>
   <g id="patch_105">
    <path d="M 437.654183 28.436625 
L 440.215862 28.436625 
L 440.215862 25.693768 
L 437.654183 25.693768 
z
" clip-path="url(#pde2be83286)" style="fill: #009e73"/>
   </g>
   <g id="patch_106">
    <path d="M 440.215862 28.436625 
L 442.777542 28.436625 
L 442.777542 22.265196 
L 440.215862 22.265196 
z
" clip-path="url(#pde2be83286)" style="fill: #009e73"/>
   </g>
   <g id="patch_107">
    <path d="M 442.777542 28.436625 
L 445.339222 28.436625 
L 445.339222 15.408054 
L 442.777542 15.408054 
z
" clip-path="url(#pde2be83286)" style="fill: #009e73"/>
   </g>
   <g id="patch_108">
    <path d="M 445.339222 28.436625 
L 447.900901 28.436625 
L 447.900901 9.236625 
L 445.339222 9.236625 
z
" clip-path="url(#pde2be83286)" style="fill: #009e73"/>
   </g>
   <g id="patch_109">
    <path d="M 447.900901 28.436625 
L 450.462581 28.436625 
L 450.462581 17.465196 
L 447.900901 17.465196 
z
" clip-path="url(#pde2be83286)" style="fill: #009e73"/>
   </g>
   <g id="patch_110">
    <path d="M 450.462581 28.436625 
L 453.024261 28.436625 
L 453.024261 18.836625 
L 450.462581 18.836625 
z
" clip-path="url(#pde2be83286)" style="fill: #009e73"/>
   </g>
   <g id="patch_111">
    <path d="M 453.024261 28.436625 
L 455.58594 28.436625 
L 455.58594 25.008054 
L 453.024261 25.008054 
z
" clip-path="url(#pde2be83286)" style="fill: #009e73"/>
   </g>
   <g id="patch_112">
    <path d="M 455.58594 28.436625 
L 458.14762 28.436625 
L 458.14762 27.065196 
L 455.58594 27.065196 
z
" clip-path="url(#pde2be83286)" style="fill: #009e73"/>
   </g>
   <g id="patch_113">
    <path d="M 458.14762 28.436625 
L 460.7093 28.436625 
L 460.7093 25.693768 
L 458.14762 25.693768 
z
" clip-path="url(#pde2be83286)" style="fill: #009e73"/>
   </g>
   <g id="patch_114">
    <path d="M 460.7093 28.436625 
L 463.270979 28.436625 
L 463.270979 27.750911 
L 460.7093 27.750911 
z
" clip-path="url(#pde2be83286)" style="fill: #009e73"/>
   </g>
   <g id="patch_115">
    <path d="M 463.270979 28.436625 
L 465.832659 28.436625 
L 465.832659 27.065196 
L 463.270979 27.065196 
z
" clip-path="url(#pde2be83286)" style="fill: #009e73"/>
   </g>
   <g id="patch_116">
    <path d="M 465.832659 28.436625 
L 468.394339 28.436625 
L 468.394339 28.436625 
L 465.832659 28.436625 
z
" clip-path="url(#pde2be83286)" style="fill: #009e73"/>
   </g>
   <g id="patch_117">
    <path d="M 468.394339 28.436625 
L 470.956018 28.436625 
L 470.956018 27.065196 
L 468.394339 27.065196 
z
" clip-path="url(#pde2be83286)" style="fill: #009e73"/>
   </g>
   <g id="matplotlib.axis_5">
    <g id="xtick_17">
     <g id="line2d_68">
      <g>
       <use xlink:href="#m8c6678f234" x="428.24375" y="28.436625" style="stroke: #000000; stroke-width: 0.8"/>
      </g>
     </g>
     <g id="text_26">
      <!-- -5% -->
      <g transform="translate(420.54625 38.015375) scale(0.08 -0.08)">
       <defs>
        <path id="DejaVuSerif-25" d="M 1434 4459 
Q 1159 4459 1004 4200 
Q 850 3941 850 3475 
Q 850 3016 1008 2753 
Q 1166 2491 1434 2491 
Q 1700 2491 1854 2752 
Q 2009 3013 2009 3475 
Q 2009 3938 1854 4198 
Q 1700 4459 1434 4459 
z
M 4653 2169 
Q 4381 2169 4226 1906 
Q 4072 1644 4072 1178 
Q 4072 719 4228 458 
Q 4384 197 4653 197 
Q 4922 197 5075 458 
Q 5228 719 5228 1178 
Q 5228 1641 5073 1905 
Q 4919 2169 4653 2169 
z
M 4653 2450 
Q 5147 2450 5437 2106 
Q 5728 1763 5728 1178 
Q 5728 594 5436 251 
Q 5144 -91 4653 -91 
Q 4153 -91 3862 251 
Q 3572 594 3572 1178 
Q 3572 1766 3864 2108 
Q 4156 2450 4653 2450 
z
M 4263 4750 
L 4738 4750 
L 1819 -91 
L 1344 -91 
L 4263 4750 
z
M 1428 4750 
Q 1922 4750 2215 4408 
Q 2509 4066 2509 3481 
Q 2509 2891 2217 2550 
Q 1925 2209 1428 2209 
Q 931 2209 642 2551 
Q 353 2894 353 3481 
Q 353 4063 643 4406 
Q 934 4750 1428 4750 
z
" transform="scale(0.015625)"/>
       </defs>
       <use xlink:href="#DejaVuSerif-2d"/>
       <use xlink:href="#DejaVuSerif-35" x="33.789062"/>
       <use xlink:href="#DejaVuSerif-25" x="97.412109"/>
      </g>
     </g>
    </g>
    <g id="xtick_18">
     <g id="line2d_69">
      <g>
       <use xlink:href="#m8c6678f234" x="446.24375" y="28.436625" style="stroke: #000000; stroke-width: 0.8"/>
      </g>
     </g>
     <g id="text_27">
      <!-- 0 -->
      <g transform="translate(443.69875 38.015375) scale(0.08 -0.08)">
       <use xlink:href="#DejaVuSerif-30"/>
      </g>
     </g>
    </g>
    <g id="xtick_19">
     <g id="line2d_70">
      <g>
       <use xlink:href="#m8c6678f234" x="464.24375" y="28.436625" style="stroke: #000000; stroke-width: 0.8"/>
      </g>
     </g>
     <g id="text_28">
      <!-- 5% -->
      <g transform="translate(457.898125 38.015375) scale(0.08 -0.08)">
       <use xlink:href="#DejaVuSerif-35"/>
       <use xlink:href="#DejaVuSerif-25" x="63.623047"/>
      </g>
     </g>
    </g>
   </g>
   <g id="matplotlib.axis_6"/>
   <g id="patch_118">
    <path d="M 410.24375 28.436625 
L 410.24375 8.276625 
" style="fill: none; stroke: #000000; stroke-width: 0.8; stroke-linejoin: miter; stroke-linecap: square"/>
   </g>
   <g id="patch_119">
    <path d="M 482.24375 28.436625 
L 482.24375 8.276625 
" style="fill: none; stroke: #000000; stroke-width: 0.8; stroke-linejoin: miter; stroke-linecap: square"/>
   </g>
   <g id="patch_120">
    <path d="M 410.24375 28.436625 
L 482.24375 28.436625 
" style="fill: none; stroke: #000000; stroke-width: 0.8; stroke-linejoin: miter; stroke-linecap: square"/>
   </g>
   <g id="patch_121">
    <path d="M 410.24375 8.276625 
L 482.24375 8.276625 
" style="fill: none; stroke: #000000; stroke-width: 0.8; stroke-linejoin: miter; stroke-linecap: square"/>
   </g>
  </g>
 </g>
 <defs>
  <clipPath id="p962ea08634">
   <rect x="46.64375" y="42.836625" width="558" height="100.8"/>
  </clipPath>
  <clipPath id="p1578059a81">
   <rect x="46.64375" y="163.796625" width="558" height="100.8"/>
  </clipPath>
  <clipPath id="pde2be83286">
   <rect x="410.24375" y="8.276625" width="72" height="20.16"/>
  </clipPath>
 </defs>
 <defs>
  <pattern id="h6efdd45c23" patternUnits="userSpaceOnUse" x="0" y="0" width="72" height="72">
   <rect x="0" y="0" width="73" height="73" fill="#dda6c4"/>
   <path d="M -36 36 
L 36 -36 
M -30 42 
L 42 -30 
M -24 48 
L 48 -24 
M -18 54 
L 54 -18 
M -12 60 
L 60 -12 
M -6 66 
L 66 -6 
M 0 72 
L 72 0 
M 6 78 
L 78 6 
M 12 84 
L 84 12 
M 18 90 
L 90 18 
M 24 96 
L 96 24 
M 30 102 
L 102 30 
M 36 108 
L 108 36 
" style="fill: #000000; stroke: #000000; stroke-width: 1.0; stroke-linecap: butt; stroke-linejoin: miter"/>
  </pattern>
  <pattern id="ha37da5ee54" patternUnits="userSpaceOnUse" x="0" y="0" width="72" height="72">
   <rect x="0" y="0" width="73" height="73" fill="#55a1cc"/>
   <path d="M -36 36 
L 36 -36 
M -30 42 
L 42 -30 
M -24 48 
L 48 -24 
M -18 54 
L 54 -18 
M -12 60 
L 60 -12 
M -6 66 
L 66 -6 
M 0 72 
L 72 0 
M 6 78 
L 78 6 
M 12 84 
L 84 12 
M 18 90 
L 90 18 
M 24 96 
L 96 24 
M 30 102 
L 102 30 
M 36 108 
L 108 36 
" style="fill: #000000; stroke: #000000; stroke-width: 1.0; stroke-linecap: butt; stroke-linejoin: miter"/>
  </pattern>
  <pattern id="h8645ee8f12" patternUnits="userSpaceOnUse" x="0" y="0" width="72" height="72">
   <rect x="0" y="0" width="73" height="73" fill="#aad0e5"/>
   <path d="M -36 36 
L 36 -36 
M -33.6 38.4 
L 38.4 -33.6 
M -31.2 40.8 
L 40.8 -31.2 
M -28.8 43.2 
L 43.2 -28.8 
M -26.4 45.6 
L 45.6 -26.4 
M -24 48 
L 48 -24 
M -21.6 50.4 
L 50.4 -21.6 
M -19.2 52.8 
L 52.8 -19.2 
M -16.8 55.2 
L 55.2 -16.8 
M -14.4 57.6 
L 57.6 -14.4 
M -12 60 
L 60 -12 
M -9.6 62.4 
L 62.4 -9.6 
M -7.2 64.8 
L 64.8 -7.2 
M -4.8 67.2 
L 67.2 -4.8 
M -2.4 69.6 
L 69.6 -2.4 
M 0 72 
L 72 0 
M 2.4 74.4 
L 74.4 2.4 
M 4.8 76.8 
L 76.8 4.8 
M 7.2 79.2 
L 79.2 7.2 
M 9.6 81.6 
L 81.6 9.6 
M 12 84 
L 84 12 
M 14.4 86.4 
L 86.4 14.4 
M 16.8 88.8 
L 88.8 16.8 
M 19.2 91.2 
L 91.2 19.2 
M 21.6 93.6 
L 93.6 21.6 
M 24 96 
L 96 24 
M 26.4 98.4 
L 98.4 26.4 
M 28.8 100.8 
L 100.8 28.8 
M 31.2 103.2 
L 103.2 31.2 
M 33.6 105.6 
L 105.6 33.6 
M 36 108 
L 108 36 
" style="fill: #000000; stroke: #000000; stroke-width: 1.0; stroke-linecap: butt; stroke-linejoin: miter"/>
  </pattern>
 </defs>
</svg>
