<?xml version="1.0" encoding="utf-8" standalone="no"?>
<!DOCTYPE svg PUBLIC "-//W3C//DTD SVG 1.1//EN"
  "http://www.w3.org/Graphics/SVG/1.1/DTD/svg11.dtd">
<svg xmlns:xlink="http://www.w3.org/1999/xlink" width="556.04375pt" height="259.226519pt" viewBox="0 0 556.04375 259.226519" xmlns="http://www.w3.org/2000/svg" version="1.1">
 <metadata>
  <rdf:RDF xmlns:dc="http://purl.org/dc/elements/1.1/" xmlns:cc="http://creativecommons.org/ns#" xmlns:rdf="http://www.w3.org/1999/02/22-rdf-syntax-ns#">
   <cc:Work>
    <dc:type rdf:resource="http://purl.org/dc/dcmitype/StillImage"/>
    <dc:date>2024-11-11T15:32:26.734879</dc:date>
    <dc:format>image/svg+xml</dc:format>
    <dc:creator>
     <cc:Agent>
      <dc:title>Matplotlib v3.9.2, https://matplotlib.org/</dc:title>
     </cc:Agent>
    </dc:creator>
   </cc:Work>
  </rdf:RDF>
 </metadata>
 <defs>
  <style type="text/css">*{stroke-linejoin: round; stroke-linecap: butt}</style>
 </defs>
 <g id="figure_1">
  <g id="patch_1">
   <path d="M 0 259.226519 
L 556.04375 259.226519 
L 556.04375 0 
L 0 0 
z
" style="fill: #ffffff"/>
  </g>
  <g id="axes_1">
   <g id="patch_2">
    <path d="M 46.64375 155.578438 
L 548.84375 155.578438 
L 548.84375 44.698438 
L 46.64375 44.698438 
z
" style="fill: #ffffff"/>
   </g>
   <g id="patch_3">
    <path d="M 54.74375 155.578438 
L 60.14375 155.578438 
L 60.14375 49.978438 
L 54.74375 49.978438 
z
" clip-path="url(#pee5d7d7b95)" style="fill: #cc79a7"/>
   </g>
   <g id="patch_4">
    <path d="M 60.14375 155.578438 
L 65.54375 155.578438 
L 65.54375 95.487569 
L 60.14375 95.487569 
z
" clip-path="url(#pee5d7d7b95)" style="fill: url(#haae236ddfb)"/>
   </g>
   <g id="patch_5">
    <path d="M 65.54375 155.578438 
L 70.94375 155.578438 
L 70.94375 75.026099 
L 65.54375 75.026099 
z
" clip-path="url(#pee5d7d7b95)" style="fill: #0072b2"/>
   </g>
   <g id="patch_6">
    <path d="M 70.94375 155.578438 
L 76.34375 155.578438 
L 76.34375 101.367302 
L 70.94375 101.367302 
z
" clip-path="url(#pee5d7d7b95)" style="fill: url(#h3213fdbcbd)"/>
   </g>
   <g id="patch_7">
    <path d="M 76.34375 155.578438 
L 81.74375 155.578438 
L 81.74375 98.897814 
L 76.34375 98.897814 
z
" clip-path="url(#pee5d7d7b95)" style="fill: url(#he801a069a7)"/>
   </g>
   <g id="patch_8">
    <path d="M 92.54375 155.578438 
L 97.94375 155.578438 
L 97.94375 49.978438 
L 92.54375 49.978438 
z
" clip-path="url(#pee5d7d7b95)" style="fill: #cc79a7"/>
   </g>
   <g id="patch_9">
    <path d="M 97.94375 155.578438 
L 103.34375 155.578438 
L 103.34375 65.327446 
L 97.94375 65.327446 
z
" clip-path="url(#pee5d7d7b95)" style="fill: url(#haae236ddfb)"/>
   </g>
   <g id="patch_10">
    <path d="M 103.34375 155.578438 
L 108.74375 155.578438 
L 108.74375 74.80815 
L 103.34375 74.80815 
z
" clip-path="url(#pee5d7d7b95)" style="fill: #0072b2"/>
   </g>
   <g id="patch_11">
    <path d="M 108.74375 155.578438 
L 114.14375 155.578438 
L 114.14375 79.054561 
L 108.74375 79.054561 
z
" clip-path="url(#pee5d7d7b95)" style="fill: url(#h3213fdbcbd)"/>
   </g>
   <g id="patch_12">
    <path d="M 114.14375 155.578438 
L 119.54375 155.578438 
L 119.54375 73.481146 
L 114.14375 73.481146 
z
" clip-path="url(#pee5d7d7b95)" style="fill: url(#he801a069a7)"/>
   </g>
   <g id="patch_13">
    <path d="M 130.34375 155.578438 
L 135.74375 155.578438 
L 135.74375 49.978438 
L 130.34375 49.978438 
z
" clip-path="url(#pee5d7d7b95)" style="fill: #cc79a7"/>
   </g>
   <g id="patch_14">
    <path d="M 135.74375 155.578438 
L 141.14375 155.578438 
L 141.14375 63.019665 
L 135.74375 63.019665 
z
" clip-path="url(#pee5d7d7b95)" style="fill: url(#haae236ddfb)"/>
   </g>
   <g id="patch_15">
    <path d="M 141.14375 155.578438 
L 146.54375 155.578438 
L 146.54375 77.278147 
L 141.14375 77.278147 
z
" clip-path="url(#pee5d7d7b95)" style="fill: #0072b2"/>
   </g>
   <g id="patch_16">
    <path d="M 146.54375 155.578438 
L 151.94375 155.578438 
L 151.94375 84.45575 
L 146.54375 84.45575 
z
" clip-path="url(#pee5d7d7b95)" style="fill: url(#h3213fdbcbd)"/>
   </g>
   <g id="patch_17">
    <path d="M 151.94375 155.578438 
L 157.34375 155.578438 
L 157.34375 85.477732 
L 151.94375 85.477732 
z
" clip-path="url(#pee5d7d7b95)" style="fill: url(#he801a069a7)"/>
   </g>
   <g id="patch_18">
    <path d="M 168.14375 155.578438 
L 173.54375 155.578438 
L 173.54375 49.978438 
L 168.14375 49.978438 
z
" clip-path="url(#pee5d7d7b95)" style="fill: #cc79a7"/>
   </g>
   <g id="patch_19">
    <path d="M 173.54375 155.578438 
L 178.94375 155.578438 
L 178.94375 63.567279 
L 173.54375 63.567279 
z
" clip-path="url(#pee5d7d7b95)" style="fill: url(#haae236ddfb)"/>
   </g>
   <g id="patch_20">
    <path d="M 178.94375 155.578438 
L 184.34375 155.578438 
L 184.34375 80.532475 
L 178.94375 80.532475 
z
" clip-path="url(#pee5d7d7b95)" style="fill: #0072b2"/>
   </g>
   <g id="patch_21">
    <path d="M 184.34375 155.578438 
L 189.74375 155.578438 
L 189.74375 90.066048 
L 184.34375 90.066048 
z
" clip-path="url(#pee5d7d7b95)" style="fill: url(#h3213fdbcbd)"/>
   </g>
   <g id="patch_22">
    <path d="M 189.74375 155.578438 
L 195.14375 155.578438 
L 195.14375 91.866898 
L 189.74375 91.866898 
z
" clip-path="url(#pee5d7d7b95)" style="fill: url(#he801a069a7)"/>
   </g>
   <g id="patch_23">
    <path d="M 205.94375 155.578438 
L 211.34375 155.578438 
L 211.34375 49.978438 
L 205.94375 49.978438 
z
" clip-path="url(#pee5d7d7b95)" style="fill: #cc79a7"/>
   </g>
   <g id="patch_24">
    <path d="M 211.34375 155.578438 
L 216.74375 155.578438 
L 216.74375 68.861224 
L 211.34375 68.861224 
z
" clip-path="url(#pee5d7d7b95)" style="fill: url(#haae236ddfb)"/>
   </g>
   <g id="patch_25">
    <path d="M 216.74375 155.578438 
L 222.14375 155.578438 
L 222.14375 84.195989 
L 216.74375 84.195989 
z
" clip-path="url(#pee5d7d7b95)" style="fill: #0072b2"/>
   </g>
   <g id="patch_26">
    <path d="M 222.14375 155.578438 
L 227.54375 155.578438 
L 227.54375 93.429021 
L 222.14375 93.429021 
z
" clip-path="url(#pee5d7d7b95)" style="fill: url(#h3213fdbcbd)"/>
   </g>
   <g id="patch_27">
    <path d="M 227.54375 155.578438 
L 232.94375 155.578438 
L 232.94375 91.465165 
L 227.54375 91.465165 
z
" clip-path="url(#pee5d7d7b95)" style="fill: url(#he801a069a7)"/>
   </g>
   <g id="patch_28">
    <path d="M 243.74375 155.578438 
L 249.14375 155.578438 
L 249.14375 49.978438 
L 243.74375 49.978438 
z
" clip-path="url(#pee5d7d7b95)" style="fill: #cc79a7"/>
   </g>
   <g id="patch_29">
    <path d="M 249.14375 155.578438 
L 254.54375 155.578438 
L 254.54375 67.667603 
L 249.14375 67.667603 
z
" clip-path="url(#pee5d7d7b95)" style="fill: url(#haae236ddfb)"/>
   </g>
   <g id="patch_30">
    <path d="M 254.54375 155.578438 
L 259.94375 155.578438 
L 259.94375 85.785024 
L 254.54375 85.785024 
z
" clip-path="url(#pee5d7d7b95)" style="fill: #0072b2"/>
   </g>
   <g id="patch_31">
    <path d="M 259.94375 155.578438 
L 265.34375 155.578438 
L 265.34375 92.542134 
L 259.94375 92.542134 
z
" clip-path="url(#pee5d7d7b95)" style="fill: url(#h3213fdbcbd)"/>
   </g>
   <g id="patch_32">
    <path d="M 265.34375 155.578438 
L 270.74375 155.578438 
L 270.74375 92.702893 
L 265.34375 92.702893 
z
" clip-path="url(#pee5d7d7b95)" style="fill: url(#he801a069a7)"/>
   </g>
   <g id="patch_33">
    <path d="M 281.54375 155.578438 
L 286.94375 155.578438 
L 286.94375 49.978438 
L 281.54375 49.978438 
z
" clip-path="url(#pee5d7d7b95)" style="fill: #cc79a7"/>
   </g>
   <g id="patch_34">
    <path d="M 286.94375 155.578438 
L 292.34375 155.578438 
L 292.34375 66.155183 
L 286.94375 66.155183 
z
" clip-path="url(#pee5d7d7b95)" style="fill: url(#haae236ddfb)"/>
   </g>
   <g id="patch_35">
    <path d="M 292.34375 155.578438 
L 297.74375 155.578438 
L 297.74375 82.485126 
L 292.34375 82.485126 
z
" clip-path="url(#pee5d7d7b95)" style="fill: #0072b2"/>
   </g>
   <g id="patch_36">
    <path d="M 297.74375 155.578438 
L 303.14375 155.578438 
L 303.14375 92.566218 
L 297.74375 92.566218 
z
" clip-path="url(#pee5d7d7b95)" style="fill: url(#h3213fdbcbd)"/>
   </g>
   <g id="patch_37">
    <path d="M 303.14375 155.578438 
L 308.54375 155.578438 
L 308.54375 91.047863 
L 303.14375 91.047863 
z
" clip-path="url(#pee5d7d7b95)" style="fill: url(#he801a069a7)"/>
   </g>
   <g id="patch_38">
    <path d="M 319.34375 155.578438 
L 324.74375 155.578438 
L 324.74375 49.978438 
L 319.34375 49.978438 
z
" clip-path="url(#pee5d7d7b95)" style="fill: #cc79a7"/>
   </g>
   <g id="patch_39">
    <path d="M 324.74375 155.578438 
L 330.14375 155.578438 
L 330.14375 65.163271 
L 324.74375 65.163271 
z
" clip-path="url(#pee5d7d7b95)" style="fill: url(#haae236ddfb)"/>
   </g>
   <g id="patch_40">
    <path d="M 330.14375 155.578438 
L 335.54375 155.578438 
L 335.54375 85.984548 
L 330.14375 85.984548 
z
" clip-path="url(#pee5d7d7b95)" style="fill: #0072b2"/>
   </g>
   <g id="patch_41">
    <path d="M 335.54375 155.578438 
L 340.94375 155.578438 
L 340.94375 89.949254 
L 335.54375 89.949254 
z
" clip-path="url(#pee5d7d7b95)" style="fill: url(#h3213fdbcbd)"/>
   </g>
   <g id="patch_42">
    <path d="M 340.94375 155.578438 
L 346.34375 155.578438 
L 346.34375 96.011005 
L 340.94375 96.011005 
z
" clip-path="url(#pee5d7d7b95)" style="fill: url(#he801a069a7)"/>
   </g>
   <g id="patch_43">
    <path d="M 357.14375 155.578438 
L 362.54375 155.578438 
L 362.54375 49.978438 
L 357.14375 49.978438 
z
" clip-path="url(#pee5d7d7b95)" style="fill: #cc79a7"/>
   </g>
   <g id="patch_44">
    <path d="M 362.54375 155.578438 
L 367.94375 155.578438 
L 367.94375 69.477336 
L 362.54375 69.477336 
z
" clip-path="url(#pee5d7d7b95)" style="fill: url(#haae236ddfb)"/>
   </g>
   <g id="patch_45">
    <path d="M 367.94375 155.578438 
L 373.34375 155.578438 
L 373.34375 86.128542 
L 367.94375 86.128542 
z
" clip-path="url(#pee5d7d7b95)" style="fill: #0072b2"/>
   </g>
   <g id="patch_46">
    <path d="M 373.34375 155.578438 
L 378.74375 155.578438 
L 378.74375 92.330289 
L 373.34375 92.330289 
z
" clip-path="url(#pee5d7d7b95)" style="fill: url(#h3213fdbcbd)"/>
   </g>
   <g id="patch_47">
    <path d="M 378.74375 155.578438 
L 384.14375 155.578438 
L 384.14375 92.444724 
L 378.74375 92.444724 
z
" clip-path="url(#pee5d7d7b95)" style="fill: url(#he801a069a7)"/>
   </g>
   <g id="patch_48">
    <path d="M 394.94375 155.578438 
L 400.34375 155.578438 
L 400.34375 49.978438 
L 394.94375 49.978438 
z
" clip-path="url(#pee5d7d7b95)" style="fill: #cc79a7"/>
   </g>
   <g id="patch_49">
    <path d="M 400.34375 155.578438 
L 405.74375 155.578438 
L 405.74375 67.192943 
L 400.34375 67.192943 
z
" clip-path="url(#pee5d7d7b95)" style="fill: url(#haae236ddfb)"/>
   </g>
   <g id="patch_50">
    <path d="M 405.74375 155.578438 
L 411.14375 155.578438 
L 411.14375 84.391211 
L 405.74375 84.391211 
z
" clip-path="url(#pee5d7d7b95)" style="fill: #0072b2"/>
   </g>
   <g id="patch_51">
    <path d="M 411.14375 155.578438 
L 416.54375 155.578438 
L 416.54375 91.942211 
L 411.14375 91.942211 
z
" clip-path="url(#pee5d7d7b95)" style="fill: url(#h3213fdbcbd)"/>
   </g>
   <g id="patch_52">
    <path d="M 416.54375 155.578438 
L 421.94375 155.578438 
L 421.94375 92.767828 
L 416.54375 92.767828 
z
" clip-path="url(#pee5d7d7b95)" style="fill: url(#he801a069a7)"/>
   </g>
   <g id="patch_53">
    <path d="M 432.74375 155.578438 
L 438.14375 155.578438 
L 438.14375 49.978438 
L 432.74375 49.978438 
z
" clip-path="url(#pee5d7d7b95)" style="fill: #cc79a7"/>
   </g>
   <g id="patch_54">
    <path d="M 438.14375 155.578438 
L 443.54375 155.578438 
L 443.54375 65.186764 
L 438.14375 65.186764 
z
" clip-path="url(#pee5d7d7b95)" style="fill: url(#haae236ddfb)"/>
   </g>
   <g id="patch_55">
    <path d="M 443.54375 155.578438 
L 448.94375 155.578438 
L 448.94375 81.747141 
L 443.54375 81.747141 
z
" clip-path="url(#pee5d7d7b95)" style="fill: #0072b2"/>
   </g>
   <g id="patch_56">
    <path d="M 448.94375 155.578438 
L 454.34375 155.578438 
L 454.34375 92.56859 
L 448.94375 92.56859 
z
" clip-path="url(#pee5d7d7b95)" style="fill: url(#h3213fdbcbd)"/>
   </g>
   <g id="patch_57">
    <path d="M 454.34375 155.578438 
L 459.74375 155.578438 
L 459.74375 90.022004 
L 454.34375 90.022004 
z
" clip-path="url(#pee5d7d7b95)" style="fill: url(#he801a069a7)"/>
   </g>
   <g id="patch_58">
    <path d="M 470.54375 155.578438 
L 475.94375 155.578438 
L 475.94375 49.978438 
L 470.54375 49.978438 
z
" clip-path="url(#pee5d7d7b95)" style="fill: #cc79a7"/>
   </g>
   <g id="patch_59">
    <path d="M 475.94375 155.578438 
L 481.34375 155.578438 
L 481.34375 65.67134 
L 475.94375 65.67134 
z
" clip-path="url(#pee5d7d7b95)" style="fill: url(#haae236ddfb)"/>
   </g>
   <g id="patch_60">
    <path d="M 481.34375 155.578438 
L 486.74375 155.578438 
L 486.74375 83.497596 
L 481.34375 83.497596 
z
" clip-path="url(#pee5d7d7b95)" style="fill: #0072b2"/>
   </g>
   <g id="patch_61">
    <path d="M 486.74375 155.578438 
L 492.14375 155.578438 
L 492.14375 91.624374 
L 486.74375 91.624374 
z
" clip-path="url(#pee5d7d7b95)" style="fill: url(#h3213fdbcbd)"/>
   </g>
   <g id="patch_62">
    <path d="M 492.14375 155.578438 
L 497.54375 155.578438 
L 497.54375 91.626743 
L 492.14375 91.626743 
z
" clip-path="url(#pee5d7d7b95)" style="fill: url(#he801a069a7)"/>
   </g>
   <g id="patch_63">
    <path d="M 508.34375 155.578438 
L 513.74375 155.578438 
L 513.74375 49.978438 
L 508.34375 49.978438 
z
" clip-path="url(#pee5d7d7b95)" style="fill: #cc79a7"/>
   </g>
   <g id="patch_64">
    <path d="M 513.74375 155.578438 
L 519.14375 155.578438 
L 519.14375 65.686986 
L 513.74375 65.686986 
z
" clip-path="url(#pee5d7d7b95)" style="fill: url(#haae236ddfb)"/>
   </g>
   <g id="patch_65">
    <path d="M 519.14375 155.578438 
L 524.54375 155.578438 
L 524.54375 82.917782 
L 519.14375 82.917782 
z
" clip-path="url(#pee5d7d7b95)" style="fill: #0072b2"/>
   </g>
   <g id="patch_66">
    <path d="M 524.54375 155.578438 
L 529.94375 155.578438 
L 529.94375 91.276181 
L 524.54375 91.276181 
z
" clip-path="url(#pee5d7d7b95)" style="fill: url(#h3213fdbcbd)"/>
   </g>
   <g id="patch_67">
    <path d="M 529.94375 155.578438 
L 535.34375 155.578438 
L 535.34375 91.390304 
L 529.94375 91.390304 
z
" clip-path="url(#pee5d7d7b95)" style="fill: url(#he801a069a7)"/>
   </g>
   <g id="matplotlib.axis_1">
    <g id="xtick_1">
     <g id="line2d_1">
      <defs>
       <path id="m3192f25c94" d="M 0 0 
L 0 -3.5 
" style="stroke: #000000; stroke-width: 0.8"/>
      </defs>
      <g>
       <use xlink:href="#m3192f25c94" x="65.54375" y="155.578438" style="stroke: #000000; stroke-width: 0.8"/>
      </g>
     </g>
     <g id="text_1">
      <!-- msd_15to1 -->
      <g transform="translate(24.88511 203.442759) rotate(-45) scale(0.1 -0.1)">
       <defs>
        <path id="DejaVuSerif-6d" d="M 3316 2675 
Q 3481 3041 3739 3227 
Q 3997 3413 4341 3413 
Q 4863 3413 5119 3089 
Q 5375 2766 5375 2113 
L 5375 331 
L 5894 331 
L 5894 0 
L 4300 0 
L 4300 331 
L 4800 331 
L 4800 2047 
Q 4800 2556 4650 2772 
Q 4500 2988 4153 2988 
Q 3769 2988 3567 2697 
Q 3366 2406 3366 1850 
L 3366 331 
L 3866 331 
L 3866 0 
L 2291 0 
L 2291 331 
L 2791 331 
L 2791 2069 
Q 2791 2566 2641 2777 
Q 2491 2988 2144 2988 
Q 1759 2988 1557 2697 
Q 1356 2406 1356 1850 
L 1356 331 
L 1856 331 
L 1856 0 
L 263 0 
L 263 331 
L 781 331 
L 781 2994 
L 231 2994 
L 231 3322 
L 1356 3322 
L 1356 2731 
Q 1516 3063 1762 3238 
Q 2009 3413 2322 3413 
Q 2709 3413 2968 3220 
Q 3228 3028 3316 2675 
z
" transform="scale(0.015625)"/>
        <path id="DejaVuSerif-73" d="M 359 184 
L 359 959 
L 691 959 
Q 703 588 923 403 
Q 1144 219 1575 219 
Q 1963 219 2166 364 
Q 2369 509 2369 788 
Q 2369 1006 2220 1140 
Q 2072 1275 1594 1428 
L 1178 1569 
Q 750 1706 558 1912 
Q 366 2119 366 2438 
Q 366 2894 700 3153 
Q 1034 3413 1625 3413 
Q 1888 3413 2178 3344 
Q 2469 3275 2778 3144 
L 2778 2419 
L 2447 2419 
Q 2434 2741 2221 2922 
Q 2009 3103 1644 3103 
Q 1281 3103 1095 2975 
Q 909 2847 909 2591 
Q 909 2381 1050 2254 
Q 1191 2128 1613 1997 
L 2069 1856 
Q 2541 1709 2748 1489 
Q 2956 1269 2956 922 
Q 2956 450 2595 179 
Q 2234 -91 1600 -91 
Q 1278 -91 972 -22 
Q 666 47 359 184 
z
" transform="scale(0.015625)"/>
        <path id="DejaVuSerif-64" d="M 3359 331 
L 3909 331 
L 3909 0 
L 2784 0 
L 2784 519 
Q 2616 206 2355 57 
Q 2094 -91 1709 -91 
Q 1097 -91 708 395 
Q 319 881 319 1663 
Q 319 2444 706 2928 
Q 1094 3413 1709 3413 
Q 2094 3413 2355 3264 
Q 2616 3116 2784 2803 
L 2784 4531 
L 2241 4531 
L 2241 4863 
L 3359 4863 
L 3359 331 
z
M 2784 1497 
L 2784 1825 
Q 2784 2422 2554 2737 
Q 2325 3053 1888 3053 
Q 1444 3053 1217 2703 
Q 991 2353 991 1663 
Q 991 975 1217 622 
Q 1444 269 1888 269 
Q 2325 269 2554 583 
Q 2784 897 2784 1497 
z
" transform="scale(0.015625)"/>
        <path id="DejaVuSerif-5f" d="M 3200 -1259 
L 3200 -1509 
L 0 -1509 
L 0 -1259 
L 3200 -1259 
z
" transform="scale(0.015625)"/>
        <path id="DejaVuSerif-31" d="M 909 0 
L 909 331 
L 1722 331 
L 1722 4213 
L 781 3603 
L 781 4013 
L 1919 4750 
L 2350 4750 
L 2350 331 
L 3163 331 
L 3163 0 
L 909 0 
z
" transform="scale(0.015625)"/>
        <path id="DejaVuSerif-35" d="M 3219 4666 
L 3219 4153 
L 1081 4153 
L 1081 2816 
Q 1244 2928 1461 2984 
Q 1678 3041 1947 3041 
Q 2703 3041 3140 2622 
Q 3578 2203 3578 1478 
Q 3578 738 3136 323 
Q 2694 -91 1894 -91 
Q 1572 -91 1234 -12 
Q 897 66 544 225 
L 544 1131 
L 897 1131 
Q 925 688 1179 453 
Q 1434 219 1894 219 
Q 2388 219 2653 544 
Q 2919 869 2919 1478 
Q 2919 2084 2655 2407 
Q 2391 2731 1894 2731 
Q 1613 2731 1398 2631 
Q 1184 2531 1019 2322 
L 750 2322 
L 750 4666 
L 3219 4666 
z
" transform="scale(0.015625)"/>
        <path id="DejaVuSerif-74" d="M 691 2988 
L 184 2988 
L 184 3322 
L 691 3322 
L 691 4353 
L 1269 4353 
L 1269 3322 
L 2350 3322 
L 2350 2988 
L 1269 2988 
L 1269 878 
Q 1269 456 1350 337 
Q 1431 219 1650 219 
Q 1875 219 1978 351 
Q 2081 484 2088 781 
L 2522 781 
Q 2497 328 2275 118 
Q 2053 -91 1600 -91 
Q 1103 -91 897 129 
Q 691 350 691 878 
L 691 2988 
z
" transform="scale(0.015625)"/>
        <path id="DejaVuSerif-6f" d="M 1925 219 
Q 2388 219 2623 584 
Q 2859 950 2859 1663 
Q 2859 2375 2623 2739 
Q 2388 3103 1925 3103 
Q 1463 3103 1227 2739 
Q 991 2375 991 1663 
Q 991 950 1228 584 
Q 1466 219 1925 219 
z
M 1925 -91 
Q 1200 -91 759 389 
Q 319 869 319 1663 
Q 319 2456 758 2934 
Q 1197 3413 1925 3413 
Q 2653 3413 3092 2934 
Q 3531 2456 3531 1663 
Q 3531 869 3092 389 
Q 2653 -91 1925 -91 
z
" transform="scale(0.015625)"/>
       </defs>
       <use xlink:href="#DejaVuSerif-6d"/>
       <use xlink:href="#DejaVuSerif-73" x="94.824219"/>
       <use xlink:href="#DejaVuSerif-64" x="146.142578"/>
       <use xlink:href="#DejaVuSerif-5f" x="210.15625"/>
       <use xlink:href="#DejaVuSerif-31" x="260.15625"/>
       <use xlink:href="#DejaVuSerif-35" x="323.779297"/>
       <use xlink:href="#DejaVuSerif-74" x="387.402344"/>
       <use xlink:href="#DejaVuSerif-6f" x="427.587891"/>
       <use xlink:href="#DejaVuSerif-31" x="487.792969"/>
      </g>
     </g>
    </g>
    <g id="xtick_2">
     <g id="line2d_2">
      <g>
       <use xlink:href="#m3192f25c94" x="103.34375" y="155.578438" style="stroke: #000000; stroke-width: 0.8"/>
      </g>
     </g>
     <g id="text_2">
      <!-- qrom_15_15 -->
      <g transform="translate(57.740887 208.262134) rotate(-45) scale(0.1 -0.1)">
       <defs>
        <path id="DejaVuSerif-71" d="M 3359 2988 
L 3359 -997 
L 3909 -997 
L 3909 -1331 
L 2241 -1331 
L 2241 -997 
L 2784 -997 
L 2784 519 
Q 2616 206 2355 57 
Q 2094 -91 1709 -91 
Q 1097 -91 708 395 
Q 319 881 319 1663 
Q 319 2444 706 2928 
Q 1094 3413 1709 3413 
Q 2094 3413 2355 3264 
Q 2616 3116 2784 2803 
L 2784 3322 
L 3909 3322 
L 3909 2988 
L 3359 2988 
z
M 2784 1825 
Q 2784 2422 2554 2737 
Q 2325 3053 1888 3053 
Q 1444 3053 1217 2703 
Q 991 2353 991 1663 
Q 991 975 1217 622 
Q 1444 269 1888 269 
Q 2325 269 2554 583 
Q 2784 897 2784 1497 
L 2784 1825 
z
" transform="scale(0.015625)"/>
        <path id="DejaVuSerif-72" d="M 3059 3328 
L 3059 2497 
L 2728 2497 
Q 2713 2744 2591 2866 
Q 2469 2988 2234 2988 
Q 1809 2988 1582 2694 
Q 1356 2400 1356 1850 
L 1356 331 
L 2022 331 
L 2022 0 
L 263 0 
L 263 331 
L 781 331 
L 781 2994 
L 231 2994 
L 231 3322 
L 1356 3322 
L 1356 2731 
Q 1525 3078 1790 3245 
Q 2056 3413 2438 3413 
Q 2578 3413 2733 3391 
Q 2888 3369 3059 3328 
z
" transform="scale(0.015625)"/>
       </defs>
       <use xlink:href="#DejaVuSerif-71"/>
       <use xlink:href="#DejaVuSerif-72" x="64.013672"/>
       <use xlink:href="#DejaVuSerif-6f" x="111.816406"/>
       <use xlink:href="#DejaVuSerif-6d" x="172.021484"/>
       <use xlink:href="#DejaVuSerif-5f" x="266.845703"/>
       <use xlink:href="#DejaVuSerif-31" x="316.845703"/>
       <use xlink:href="#DejaVuSerif-35" x="380.46875"/>
       <use xlink:href="#DejaVuSerif-5f" x="444.091797"/>
       <use xlink:href="#DejaVuSerif-31" x="494.091797"/>
       <use xlink:href="#DejaVuSerif-35" x="557.714844"/>
      </g>
     </g>
    </g>
    <g id="xtick_3">
     <g id="line2d_3">
      <g>
       <use xlink:href="#m3192f25c94" x="141.14375" y="155.578438" style="stroke: #000000; stroke-width: 0.8"/>
      </g>
     </g>
     <g id="text_3">
      <!-- carleman_encoding_2_4 -->
      <g transform="translate(53.568575 250.359294) rotate(-45) scale(0.1 -0.1)">
       <defs>
        <path id="DejaVuSerif-63" d="M 3291 997 
Q 3169 466 2822 187 
Q 2475 -91 1925 -91 
Q 1200 -91 759 389 
Q 319 869 319 1663 
Q 319 2459 759 2936 
Q 1200 3413 1925 3413 
Q 2241 3413 2553 3339 
Q 2866 3266 3181 3116 
L 3181 2266 
L 2847 2266 
Q 2781 2703 2561 2903 
Q 2341 3103 1931 3103 
Q 1466 3103 1228 2742 
Q 991 2381 991 1663 
Q 991 944 1227 581 
Q 1463 219 1931 219 
Q 2303 219 2525 412 
Q 2747 606 2828 997 
L 3291 997 
z
" transform="scale(0.015625)"/>
        <path id="DejaVuSerif-61" d="M 2547 1044 
L 2547 1747 
L 1806 1747 
Q 1378 1747 1168 1562 
Q 959 1378 959 997 
Q 959 650 1171 447 
Q 1384 244 1747 244 
Q 2106 244 2326 466 
Q 2547 688 2547 1044 
z
M 3122 2075 
L 3122 331 
L 3634 331 
L 3634 0 
L 2547 0 
L 2547 359 
Q 2356 128 2106 18 
Q 1856 -91 1522 -91 
Q 969 -91 644 203 
Q 319 497 319 997 
Q 319 1513 691 1797 
Q 1063 2081 1741 2081 
L 2547 2081 
L 2547 2309 
Q 2547 2688 2317 2895 
Q 2088 3103 1672 3103 
Q 1328 3103 1125 2947 
Q 922 2791 872 2484 
L 575 2484 
L 575 3156 
Q 875 3284 1158 3348 
Q 1441 3413 1709 3413 
Q 2400 3413 2761 3070 
Q 3122 2728 3122 2075 
z
" transform="scale(0.015625)"/>
        <path id="DejaVuSerif-6c" d="M 1313 331 
L 1856 331 
L 1856 0 
L 184 0 
L 184 331 
L 738 331 
L 738 4531 
L 184 4531 
L 184 4863 
L 1313 4863 
L 1313 331 
z
" transform="scale(0.015625)"/>
        <path id="DejaVuSerif-65" d="M 3469 1600 
L 991 1600 
L 991 1575 
Q 991 903 1244 561 
Q 1497 219 1991 219 
Q 2369 219 2611 417 
Q 2853 616 2950 1006 
L 3413 1006 
Q 3275 459 2904 184 
Q 2534 -91 1931 -91 
Q 1203 -91 761 389 
Q 319 869 319 1663 
Q 319 2450 753 2931 
Q 1188 3413 1894 3413 
Q 2647 3413 3050 2948 
Q 3453 2484 3469 1600 
z
M 2791 1931 
Q 2772 2513 2545 2808 
Q 2319 3103 1894 3103 
Q 1497 3103 1269 2806 
Q 1041 2509 991 1931 
L 2791 1931 
z
" transform="scale(0.015625)"/>
        <path id="DejaVuSerif-6e" d="M 263 0 
L 263 331 
L 781 331 
L 781 2988 
L 231 2988 
L 231 3322 
L 1356 3322 
L 1356 2731 
Q 1516 3069 1770 3241 
Q 2025 3413 2363 3413 
Q 2913 3413 3172 3097 
Q 3431 2781 3431 2113 
L 3431 331 
L 3944 331 
L 3944 0 
L 2356 0 
L 2356 331 
L 2853 331 
L 2853 1931 
Q 2853 2541 2703 2767 
Q 2553 2994 2175 2994 
Q 1775 2994 1565 2701 
Q 1356 2409 1356 1850 
L 1356 331 
L 1856 331 
L 1856 0 
L 263 0 
z
" transform="scale(0.015625)"/>
        <path id="DejaVuSerif-69" d="M 622 4353 
Q 622 4497 726 4603 
Q 831 4709 978 4709 
Q 1122 4709 1226 4603 
Q 1331 4497 1331 4353 
Q 1331 4206 1228 4103 
Q 1125 4000 978 4000 
Q 831 4000 726 4103 
Q 622 4206 622 4353 
z
M 1356 331 
L 1900 331 
L 1900 0 
L 231 0 
L 231 331 
L 781 331 
L 781 2988 
L 231 2988 
L 231 3322 
L 1356 3322 
L 1356 331 
z
" transform="scale(0.015625)"/>
        <path id="DejaVuSerif-67" d="M 3359 2988 
L 3359 72 
Q 3359 -644 2965 -1033 
Q 2572 -1422 1844 -1422 
Q 1516 -1422 1216 -1362 
Q 916 -1303 641 -1184 
L 641 -488 
L 941 -488 
Q 997 -813 1206 -963 
Q 1416 -1113 1806 -1113 
Q 2313 -1113 2548 -827 
Q 2784 -541 2784 72 
L 2784 519 
Q 2616 206 2355 57 
Q 2094 -91 1709 -91 
Q 1097 -91 708 395 
Q 319 881 319 1663 
Q 319 2444 706 2928 
Q 1094 3413 1709 3413 
Q 2094 3413 2355 3264 
Q 2616 3116 2784 2803 
L 2784 3322 
L 3909 3322 
L 3909 2988 
L 3359 2988 
z
M 2784 1825 
Q 2784 2422 2554 2737 
Q 2325 3053 1888 3053 
Q 1444 3053 1217 2703 
Q 991 2353 991 1663 
Q 991 975 1217 622 
Q 1444 269 1888 269 
Q 2325 269 2554 583 
Q 2784 897 2784 1497 
L 2784 1825 
z
" transform="scale(0.015625)"/>
        <path id="DejaVuSerif-32" d="M 819 3553 
L 469 3553 
L 469 4384 
Q 803 4563 1142 4656 
Q 1481 4750 1806 4750 
Q 2534 4750 2956 4397 
Q 3378 4044 3378 3438 
Q 3378 2753 2422 1800 
Q 2347 1728 2309 1691 
L 1131 513 
L 3078 513 
L 3078 1088 
L 3444 1088 
L 3444 0 
L 434 0 
L 434 341 
L 1850 1753 
Q 2319 2222 2519 2614 
Q 2719 3006 2719 3438 
Q 2719 3909 2473 4175 
Q 2228 4441 1797 4441 
Q 1350 4441 1106 4219 
Q 863 3997 819 3553 
z
" transform="scale(0.015625)"/>
        <path id="DejaVuSerif-34" d="M 2234 1581 
L 2234 4063 
L 641 1581 
L 2234 1581 
z
M 3609 0 
L 1484 0 
L 1484 331 
L 2234 331 
L 2234 1247 
L 197 1247 
L 197 1588 
L 2241 4750 
L 2859 4750 
L 2859 1581 
L 3750 1581 
L 3750 1247 
L 2859 1247 
L 2859 331 
L 3609 331 
L 3609 0 
z
" transform="scale(0.015625)"/>
       </defs>
       <use xlink:href="#DejaVuSerif-63"/>
       <use xlink:href="#DejaVuSerif-61" x="56.005859"/>
       <use xlink:href="#DejaVuSerif-72" x="115.625"/>
       <use xlink:href="#DejaVuSerif-6c" x="163.427734"/>
       <use xlink:href="#DejaVuSerif-65" x="195.410156"/>
       <use xlink:href="#DejaVuSerif-6d" x="254.589844"/>
       <use xlink:href="#DejaVuSerif-61" x="349.414062"/>
       <use xlink:href="#DejaVuSerif-6e" x="409.033203"/>
       <use xlink:href="#DejaVuSerif-5f" x="473.4375"/>
       <use xlink:href="#DejaVuSerif-65" x="523.4375"/>
       <use xlink:href="#DejaVuSerif-6e" x="582.617188"/>
       <use xlink:href="#DejaVuSerif-63" x="647.021484"/>
       <use xlink:href="#DejaVuSerif-6f" x="703.027344"/>
       <use xlink:href="#DejaVuSerif-64" x="763.232422"/>
       <use xlink:href="#DejaVuSerif-69" x="827.246094"/>
       <use xlink:href="#DejaVuSerif-6e" x="859.228516"/>
       <use xlink:href="#DejaVuSerif-67" x="923.632812"/>
       <use xlink:href="#DejaVuSerif-5f" x="987.646484"/>
       <use xlink:href="#DejaVuSerif-32" x="1037.646484"/>
       <use xlink:href="#DejaVuSerif-5f" x="1101.269531"/>
       <use xlink:href="#DejaVuSerif-34" x="1151.269531"/>
      </g>
     </g>
    </g>
    <g id="xtick_4">
     <g id="line2d_4">
      <g>
       <use xlink:href="#m3192f25c94" x="178.94375" y="155.578438" style="stroke: #000000; stroke-width: 0.8"/>
      </g>
     </g>
     <g id="text_4">
      <!-- adder_n4 -->
      <g transform="translate(143.853576 197.874293) rotate(-45) scale(0.1 -0.1)">
       <use xlink:href="#DejaVuSerif-61"/>
       <use xlink:href="#DejaVuSerif-64" x="59.619141"/>
       <use xlink:href="#DejaVuSerif-64" x="123.632812"/>
       <use xlink:href="#DejaVuSerif-65" x="187.646484"/>
       <use xlink:href="#DejaVuSerif-72" x="246.826172"/>
       <use xlink:href="#DejaVuSerif-5f" x="294.628906"/>
       <use xlink:href="#DejaVuSerif-6e" x="344.628906"/>
       <use xlink:href="#DejaVuSerif-34" x="409.033203"/>
      </g>
     </g>
    </g>
    <g id="xtick_5">
     <g id="line2d_5">
      <g>
       <use xlink:href="#m3192f25c94" x="216.74375" y="155.578438" style="stroke: #000000; stroke-width: 0.8"/>
      </g>
     </g>
     <g id="text_5">
      <!-- qpeinexact_5 -->
      <g transform="translate(167.797598 211.560124) rotate(-45) scale(0.1 -0.1)">
       <defs>
        <path id="DejaVuSerif-70" d="M 1313 1825 
L 1313 1497 
Q 1313 897 1542 583 
Q 1772 269 2209 269 
Q 2650 269 2876 622 
Q 3103 975 3103 1663 
Q 3103 2353 2876 2703 
Q 2650 3053 2209 3053 
Q 1772 3053 1542 2737 
Q 1313 2422 1313 1825 
z
M 738 2988 
L 184 2988 
L 184 3322 
L 1313 3322 
L 1313 2803 
Q 1481 3116 1742 3264 
Q 2003 3413 2388 3413 
Q 3000 3413 3387 2928 
Q 3775 2444 3775 1663 
Q 3775 881 3387 395 
Q 3000 -91 2388 -91 
Q 2003 -91 1742 57 
Q 1481 206 1313 519 
L 1313 -997 
L 1856 -997 
L 1856 -1331 
L 184 -1331 
L 184 -997 
L 738 -997 
L 738 2988 
z
" transform="scale(0.015625)"/>
        <path id="DejaVuSerif-78" d="M 1863 2028 
L 2559 2988 
L 2113 2988 
L 2113 3322 
L 3391 3322 
L 3391 2988 
L 2950 2988 
L 2059 1759 
L 3097 331 
L 3531 331 
L 3531 0 
L 1997 0 
L 1997 331 
L 2419 331 
L 1697 1325 
L 972 331 
L 1403 331 
L 1403 0 
L 141 0 
L 141 331 
L 581 331 
L 1497 1594 
L 488 2988 
L 78 2988 
L 78 3322 
L 1563 3322 
L 1563 2988 
L 1166 2988 
L 1863 2028 
z
" transform="scale(0.015625)"/>
       </defs>
       <use xlink:href="#DejaVuSerif-71"/>
       <use xlink:href="#DejaVuSerif-70" x="64.013672"/>
       <use xlink:href="#DejaVuSerif-65" x="128.027344"/>
       <use xlink:href="#DejaVuSerif-69" x="187.207031"/>
       <use xlink:href="#DejaVuSerif-6e" x="219.189453"/>
       <use xlink:href="#DejaVuSerif-65" x="283.59375"/>
       <use xlink:href="#DejaVuSerif-78" x="342.773438"/>
       <use xlink:href="#DejaVuSerif-61" x="399.169922"/>
       <use xlink:href="#DejaVuSerif-63" x="458.789062"/>
       <use xlink:href="#DejaVuSerif-74" x="514.794922"/>
       <use xlink:href="#DejaVuSerif-5f" x="554.980469"/>
       <use xlink:href="#DejaVuSerif-35" x="604.980469"/>
      </g>
     </g>
    </g>
    <g id="xtick_6">
     <g id="line2d_6">
      <g>
       <use xlink:href="#m3192f25c94" x="254.54375" y="155.578438" style="stroke: #000000; stroke-width: 0.8"/>
      </g>
     </g>
     <g id="text_6">
      <!-- fermi_hubbard_2_2 -->
      <g transform="translate(183.838596 233.489273) rotate(-45) scale(0.1 -0.1)">
       <defs>
        <path id="DejaVuSerif-66" d="M 2753 4078 
L 2450 4078 
Q 2447 4313 2317 4434 
Q 2188 4556 1941 4556 
Q 1619 4556 1487 4379 
Q 1356 4203 1356 3750 
L 1356 3322 
L 2284 3322 
L 2284 2988 
L 1356 2988 
L 1356 331 
L 2094 331 
L 2094 0 
L 231 0 
L 231 331 
L 781 331 
L 781 2988 
L 231 2988 
L 231 3322 
L 781 3322 
L 781 3738 
Q 781 4294 1070 4578 
Q 1359 4863 1919 4863 
Q 2128 4863 2337 4825 
Q 2547 4788 2753 4709 
L 2753 4078 
z
" transform="scale(0.015625)"/>
        <path id="DejaVuSerif-68" d="M 263 0 
L 263 331 
L 781 331 
L 781 4531 
L 231 4531 
L 231 4863 
L 1356 4863 
L 1356 2731 
Q 1516 3069 1770 3241 
Q 2025 3413 2363 3413 
Q 2913 3413 3172 3097 
Q 3431 2781 3431 2113 
L 3431 331 
L 3944 331 
L 3944 0 
L 2356 0 
L 2356 331 
L 2853 331 
L 2853 1931 
Q 2853 2541 2704 2764 
Q 2556 2988 2175 2988 
Q 1775 2988 1565 2697 
Q 1356 2406 1356 1850 
L 1356 331 
L 1856 331 
L 1856 0 
L 263 0 
z
" transform="scale(0.015625)"/>
        <path id="DejaVuSerif-75" d="M 2266 3322 
L 3341 3322 
L 3341 331 
L 3884 331 
L 3884 0 
L 2766 0 
L 2766 588 
Q 2606 256 2353 82 
Q 2100 -91 1766 -91 
Q 1213 -91 952 223 
Q 691 538 691 1209 
L 691 2988 
L 172 2988 
L 172 3322 
L 1269 3322 
L 1269 1388 
Q 1269 781 1417 556 
Q 1566 331 1947 331 
Q 2347 331 2556 625 
Q 2766 919 2766 1478 
L 2766 2988 
L 2266 2988 
L 2266 3322 
z
" transform="scale(0.015625)"/>
        <path id="DejaVuSerif-62" d="M 738 331 
L 738 4531 
L 184 4531 
L 184 4863 
L 1313 4863 
L 1313 2803 
Q 1481 3116 1742 3264 
Q 2003 3413 2388 3413 
Q 3000 3413 3387 2928 
Q 3775 2444 3775 1663 
Q 3775 881 3387 395 
Q 3000 -91 2388 -91 
Q 2003 -91 1742 57 
Q 1481 206 1313 519 
L 1313 0 
L 184 0 
L 184 331 
L 738 331 
z
M 1313 1497 
Q 1313 897 1542 583 
Q 1772 269 2209 269 
Q 2650 269 2876 622 
Q 3103 975 3103 1663 
Q 3103 2353 2876 2703 
Q 2650 3053 2209 3053 
Q 1772 3053 1542 2737 
Q 1313 2422 1313 1825 
L 1313 1497 
z
" transform="scale(0.015625)"/>
       </defs>
       <use xlink:href="#DejaVuSerif-66"/>
       <use xlink:href="#DejaVuSerif-65" x="37.011719"/>
       <use xlink:href="#DejaVuSerif-72" x="96.191406"/>
       <use xlink:href="#DejaVuSerif-6d" x="143.994141"/>
       <use xlink:href="#DejaVuSerif-69" x="238.818359"/>
       <use xlink:href="#DejaVuSerif-5f" x="270.800781"/>
       <use xlink:href="#DejaVuSerif-68" x="320.800781"/>
       <use xlink:href="#DejaVuSerif-75" x="385.205078"/>
       <use xlink:href="#DejaVuSerif-62" x="449.609375"/>
       <use xlink:href="#DejaVuSerif-62" x="513.623047"/>
       <use xlink:href="#DejaVuSerif-61" x="577.636719"/>
       <use xlink:href="#DejaVuSerif-72" x="637.255859"/>
       <use xlink:href="#DejaVuSerif-64" x="685.058594"/>
       <use xlink:href="#DejaVuSerif-5f" x="749.072266"/>
       <use xlink:href="#DejaVuSerif-32" x="799.072266"/>
       <use xlink:href="#DejaVuSerif-5f" x="862.695312"/>
       <use xlink:href="#DejaVuSerif-32" x="912.695312"/>
      </g>
     </g>
    </g>
    <g id="xtick_7">
     <g id="line2d_7">
      <g>
       <use xlink:href="#m3192f25c94" x="292.34375" y="155.578438" style="stroke: #000000; stroke-width: 0.8"/>
      </g>
     </g>
     <g id="text_7">
      <!-- qpeexact_5 -->
      <g transform="translate(250.213444 204.717761) rotate(-45) scale(0.1 -0.1)">
       <use xlink:href="#DejaVuSerif-71"/>
       <use xlink:href="#DejaVuSerif-70" x="64.013672"/>
       <use xlink:href="#DejaVuSerif-65" x="128.027344"/>
       <use xlink:href="#DejaVuSerif-65" x="187.207031"/>
       <use xlink:href="#DejaVuSerif-78" x="246.386719"/>
       <use xlink:href="#DejaVuSerif-61" x="302.783203"/>
       <use xlink:href="#DejaVuSerif-63" x="362.402344"/>
       <use xlink:href="#DejaVuSerif-74" x="418.408203"/>
       <use xlink:href="#DejaVuSerif-5f" x="458.59375"/>
       <use xlink:href="#DejaVuSerif-35" x="508.59375"/>
      </g>
     </g>
    </g>
    <g id="xtick_8">
     <g id="line2d_8">
      <g>
       <use xlink:href="#m3192f25c94" x="330.14375" y="155.578438" style="stroke: #000000; stroke-width: 0.8"/>
      </g>
     </g>
     <g id="text_8">
      <!-- H2 -->
      <g transform="translate(318.00803 175.116503) rotate(-45) scale(0.1 -0.1)">
       <defs>
        <path id="DejaVuSerif-48" d="M 353 0 
L 353 331 
L 947 331 
L 947 4331 
L 353 4331 
L 353 4666 
L 2175 4666 
L 2175 4331 
L 1581 4331 
L 1581 2719 
L 4000 2719 
L 4000 4331 
L 3406 4331 
L 3406 4666 
L 5228 4666 
L 5228 4331 
L 4634 4331 
L 4634 331 
L 5228 331 
L 5228 0 
L 3406 0 
L 3406 331 
L 4000 331 
L 4000 2338 
L 1581 2338 
L 1581 331 
L 2175 331 
L 2175 0 
L 353 0 
z
" transform="scale(0.015625)"/>
       </defs>
       <use xlink:href="#DejaVuSerif-48"/>
       <use xlink:href="#DejaVuSerif-32" x="87.207031"/>
      </g>
     </g>
    </g>
    <g id="xtick_9">
     <g id="line2d_9">
      <g>
       <use xlink:href="#m3192f25c94" x="367.94375" y="155.578438" style="stroke: #000000; stroke-width: 0.8"/>
      </g>
     </g>
     <g id="text_9">
      <!-- fermi_hubbard_4_4 -->
      <g transform="translate(297.238596 233.489273) rotate(-45) scale(0.1 -0.1)">
       <use xlink:href="#DejaVuSerif-66"/>
       <use xlink:href="#DejaVuSerif-65" x="37.011719"/>
       <use xlink:href="#DejaVuSerif-72" x="96.191406"/>
       <use xlink:href="#DejaVuSerif-6d" x="143.994141"/>
       <use xlink:href="#DejaVuSerif-69" x="238.818359"/>
       <use xlink:href="#DejaVuSerif-5f" x="270.800781"/>
       <use xlink:href="#DejaVuSerif-68" x="320.800781"/>
       <use xlink:href="#DejaVuSerif-75" x="385.205078"/>
       <use xlink:href="#DejaVuSerif-62" x="449.609375"/>
       <use xlink:href="#DejaVuSerif-62" x="513.623047"/>
       <use xlink:href="#DejaVuSerif-61" x="577.636719"/>
       <use xlink:href="#DejaVuSerif-72" x="637.255859"/>
       <use xlink:href="#DejaVuSerif-64" x="685.058594"/>
       <use xlink:href="#DejaVuSerif-5f" x="749.072266"/>
       <use xlink:href="#DejaVuSerif-34" x="799.072266"/>
       <use xlink:href="#DejaVuSerif-5f" x="862.695312"/>
       <use xlink:href="#DejaVuSerif-34" x="912.695312"/>
      </g>
     </g>
    </g>
    <g id="xtick_10">
     <g id="line2d_10">
      <g>
       <use xlink:href="#m3192f25c94" x="405.74375" y="155.578438" style="stroke: #000000; stroke-width: 0.8"/>
      </g>
     </g>
     <g id="text_10">
      <!-- qpeinexact_10 -->
      <g transform="translate(352.298631 216.10439) rotate(-45) scale(0.1 -0.1)">
       <defs>
        <path id="DejaVuSerif-30" d="M 2034 219 
Q 2513 219 2750 744 
Q 2988 1269 2988 2328 
Q 2988 3391 2750 3916 
Q 2513 4441 2034 4441 
Q 1556 4441 1318 3916 
Q 1081 3391 1081 2328 
Q 1081 1269 1318 744 
Q 1556 219 2034 219 
z
M 2034 -91 
Q 1275 -91 848 546 
Q 422 1184 422 2328 
Q 422 3475 848 4112 
Q 1275 4750 2034 4750 
Q 2797 4750 3222 4112 
Q 3647 3475 3647 2328 
Q 3647 1184 3222 546 
Q 2797 -91 2034 -91 
z
" transform="scale(0.015625)"/>
       </defs>
       <use xlink:href="#DejaVuSerif-71"/>
       <use xlink:href="#DejaVuSerif-70" x="64.013672"/>
       <use xlink:href="#DejaVuSerif-65" x="128.027344"/>
       <use xlink:href="#DejaVuSerif-69" x="187.207031"/>
       <use xlink:href="#DejaVuSerif-6e" x="219.189453"/>
       <use xlink:href="#DejaVuSerif-65" x="283.59375"/>
       <use xlink:href="#DejaVuSerif-78" x="342.773438"/>
       <use xlink:href="#DejaVuSerif-61" x="399.169922"/>
       <use xlink:href="#DejaVuSerif-63" x="458.789062"/>
       <use xlink:href="#DejaVuSerif-74" x="514.794922"/>
       <use xlink:href="#DejaVuSerif-5f" x="554.980469"/>
       <use xlink:href="#DejaVuSerif-31" x="604.980469"/>
       <use xlink:href="#DejaVuSerif-30" x="668.603516"/>
      </g>
     </g>
    </g>
    <g id="xtick_11">
     <g id="line2d_11">
      <g>
       <use xlink:href="#m3192f25c94" x="443.54375" y="155.578438" style="stroke: #000000; stroke-width: 0.8"/>
      </g>
     </g>
     <g id="text_11">
      <!-- adder_n10 -->
      <g transform="translate(403.954609 202.37326) rotate(-45) scale(0.1 -0.1)">
       <use xlink:href="#DejaVuSerif-61"/>
       <use xlink:href="#DejaVuSerif-64" x="59.619141"/>
       <use xlink:href="#DejaVuSerif-64" x="123.632812"/>
       <use xlink:href="#DejaVuSerif-65" x="187.646484"/>
       <use xlink:href="#DejaVuSerif-72" x="246.826172"/>
       <use xlink:href="#DejaVuSerif-5f" x="294.628906"/>
       <use xlink:href="#DejaVuSerif-6e" x="344.628906"/>
       <use xlink:href="#DejaVuSerif-31" x="409.033203"/>
       <use xlink:href="#DejaVuSerif-30" x="472.65625"/>
      </g>
     </g>
    </g>
    <g id="xtick_12">
     <g id="line2d_12">
      <g>
       <use xlink:href="#m3192f25c94" x="481.34375" y="155.578438" style="stroke: #000000; stroke-width: 0.8"/>
      </g>
     </g>
     <g id="text_12">
      <!-- qft_10 -->
      <g transform="translate(457.157384 186.970485) rotate(-45) scale(0.1 -0.1)">
       <use xlink:href="#DejaVuSerif-71"/>
       <use xlink:href="#DejaVuSerif-66" x="64.013672"/>
       <use xlink:href="#DejaVuSerif-74" x="101.025391"/>
       <use xlink:href="#DejaVuSerif-5f" x="141.210938"/>
       <use xlink:href="#DejaVuSerif-31" x="191.210938"/>
       <use xlink:href="#DejaVuSerif-30" x="254.833984"/>
      </g>
     </g>
    </g>
    <g id="xtick_13">
     <g id="line2d_13">
      <g>
       <use xlink:href="#m3192f25c94" x="519.14375" y="155.578438" style="stroke: #000000; stroke-width: 0.8"/>
      </g>
     </g>
     <g id="text_13">
      <!-- qpeexact_10 -->
      <g transform="translate(472.514477 209.288543) rotate(-45) scale(0.1 -0.1)">
       <use xlink:href="#DejaVuSerif-71"/>
       <use xlink:href="#DejaVuSerif-70" x="64.013672"/>
       <use xlink:href="#DejaVuSerif-65" x="128.027344"/>
       <use xlink:href="#DejaVuSerif-65" x="187.207031"/>
       <use xlink:href="#DejaVuSerif-78" x="246.386719"/>
       <use xlink:href="#DejaVuSerif-61" x="302.783203"/>
       <use xlink:href="#DejaVuSerif-63" x="362.402344"/>
       <use xlink:href="#DejaVuSerif-74" x="418.408203"/>
       <use xlink:href="#DejaVuSerif-5f" x="458.59375"/>
       <use xlink:href="#DejaVuSerif-31" x="508.59375"/>
       <use xlink:href="#DejaVuSerif-30" x="572.216797"/>
      </g>
     </g>
    </g>
   </g>
   <g id="matplotlib.axis_2">
    <g id="ytick_1">
     <g id="line2d_14">
      <defs>
       <path id="m24a593d86e" d="M 0 0 
L 3.5 0 
" style="stroke: #000000; stroke-width: 0.8"/>
      </defs>
      <g>
       <use xlink:href="#m24a593d86e" x="46.64375" y="155.578438" style="stroke: #000000; stroke-width: 0.8"/>
      </g>
     </g>
     <g id="text_14">
      <!-- 0.00 -->
      <g transform="translate(20.878125 159.377656) scale(0.1 -0.1)">
       <defs>
        <path id="DejaVuSerif-2e" d="M 603 325 
Q 603 500 722 622 
Q 841 744 1019 744 
Q 1191 744 1312 622 
Q 1434 500 1434 325 
Q 1434 153 1312 31 
Q 1191 -91 1019 -91 
Q 841 -91 722 29 
Q 603 150 603 325 
z
" transform="scale(0.015625)"/>
       </defs>
       <use xlink:href="#DejaVuSerif-30"/>
       <use xlink:href="#DejaVuSerif-2e" x="63.623047"/>
       <use xlink:href="#DejaVuSerif-30" x="95.410156"/>
       <use xlink:href="#DejaVuSerif-30" x="159.033203"/>
      </g>
     </g>
    </g>
    <g id="ytick_2">
     <g id="line2d_15">
      <g>
       <use xlink:href="#m24a593d86e" x="46.64375" y="129.178438" style="stroke: #000000; stroke-width: 0.8"/>
      </g>
     </g>
     <g id="text_15">
      <!-- 0.25 -->
      <g transform="translate(20.878125 132.977656) scale(0.1 -0.1)">
       <use xlink:href="#DejaVuSerif-30"/>
       <use xlink:href="#DejaVuSerif-2e" x="63.623047"/>
       <use xlink:href="#DejaVuSerif-32" x="95.410156"/>
       <use xlink:href="#DejaVuSerif-35" x="159.033203"/>
      </g>
     </g>
    </g>
    <g id="ytick_3">
     <g id="line2d_16">
      <g>
       <use xlink:href="#m24a593d86e" x="46.64375" y="102.778438" style="stroke: #000000; stroke-width: 0.8"/>
      </g>
     </g>
     <g id="text_16">
      <!-- 0.50 -->
      <g transform="translate(20.878125 106.577656) scale(0.1 -0.1)">
       <use xlink:href="#DejaVuSerif-30"/>
       <use xlink:href="#DejaVuSerif-2e" x="63.623047"/>
       <use xlink:href="#DejaVuSerif-35" x="95.410156"/>
       <use xlink:href="#DejaVuSerif-30" x="159.033203"/>
      </g>
     </g>
    </g>
    <g id="ytick_4">
     <g id="line2d_17">
      <g>
       <use xlink:href="#m24a593d86e" x="46.64375" y="76.378438" style="stroke: #000000; stroke-width: 0.8"/>
      </g>
     </g>
     <g id="text_17">
      <!-- 0.75 -->
      <g transform="translate(20.878125 80.177656) scale(0.1 -0.1)">
       <defs>
        <path id="DejaVuSerif-37" d="M 3609 4347 
L 1784 0 
L 1319 0 
L 3059 4153 
L 903 4153 
L 903 3578 
L 538 3578 
L 538 4666 
L 3609 4666 
L 3609 4347 
z
" transform="scale(0.015625)"/>
       </defs>
       <use xlink:href="#DejaVuSerif-30"/>
       <use xlink:href="#DejaVuSerif-2e" x="63.623047"/>
       <use xlink:href="#DejaVuSerif-37" x="95.410156"/>
       <use xlink:href="#DejaVuSerif-35" x="159.033203"/>
      </g>
     </g>
    </g>
    <g id="ytick_5">
     <g id="line2d_18">
      <g>
       <use xlink:href="#m24a593d86e" x="46.64375" y="49.978438" style="stroke: #000000; stroke-width: 0.8"/>
      </g>
     </g>
     <g id="text_18">
      <!-- 1.00 -->
      <g transform="translate(20.878125 53.777656) scale(0.1 -0.1)">
       <use xlink:href="#DejaVuSerif-31"/>
       <use xlink:href="#DejaVuSerif-2e" x="63.623047"/>
       <use xlink:href="#DejaVuSerif-30" x="95.410156"/>
       <use xlink:href="#DejaVuSerif-30" x="159.033203"/>
      </g>
     </g>
    </g>
    <g id="text_19">
     <!-- Relative device runtime -->
     <g transform="translate(14.798438 160.497813) rotate(-90) scale(0.1 -0.1)">
      <defs>
       <path id="DejaVuSerif-52" d="M 3066 2316 
Q 3284 2256 3442 2114 
Q 3600 1972 3725 1716 
L 4403 331 
L 4972 331 
L 4972 0 
L 3872 0 
L 3144 1484 
Q 2934 1916 2759 2042 
Q 2584 2169 2278 2169 
L 1581 2169 
L 1581 331 
L 2241 331 
L 2241 0 
L 353 0 
L 353 331 
L 947 331 
L 947 4331 
L 353 4331 
L 353 4666 
L 2719 4666 
Q 3400 4666 3770 4341 
Q 4141 4016 4141 3419 
Q 4141 2938 3870 2661 
Q 3600 2384 3066 2316 
z
M 1581 2503 
L 2503 2503 
Q 2975 2503 3200 2726 
Q 3425 2950 3425 3419 
Q 3425 3888 3200 4109 
Q 2975 4331 2503 4331 
L 1581 4331 
L 1581 2503 
z
" transform="scale(0.015625)"/>
       <path id="DejaVuSerif-76" d="M 1581 0 
L 359 2988 
L -19 2988 
L -19 3322 
L 1509 3322 
L 1509 2988 
L 978 2988 
L 1913 703 
L 2847 2988 
L 2350 2988 
L 2350 3322 
L 3597 3322 
L 3597 2988 
L 3225 2988 
L 2003 0 
L 1581 0 
z
" transform="scale(0.015625)"/>
       <path id="DejaVuSerif-20" transform="scale(0.015625)"/>
      </defs>
      <use xlink:href="#DejaVuSerif-52"/>
      <use xlink:href="#DejaVuSerif-65" x="75.292969"/>
      <use xlink:href="#DejaVuSerif-6c" x="134.472656"/>
      <use xlink:href="#DejaVuSerif-61" x="166.455078"/>
      <use xlink:href="#DejaVuSerif-74" x="226.074219"/>
      <use xlink:href="#DejaVuSerif-69" x="266.259766"/>
      <use xlink:href="#DejaVuSerif-76" x="298.242188"/>
      <use xlink:href="#DejaVuSerif-65" x="354.736328"/>
      <use xlink:href="#DejaVuSerif-20" x="413.916016"/>
      <use xlink:href="#DejaVuSerif-64" x="445.703125"/>
      <use xlink:href="#DejaVuSerif-65" x="509.716797"/>
      <use xlink:href="#DejaVuSerif-76" x="568.896484"/>
      <use xlink:href="#DejaVuSerif-69" x="625.390625"/>
      <use xlink:href="#DejaVuSerif-63" x="657.373047"/>
      <use xlink:href="#DejaVuSerif-65" x="713.378906"/>
      <use xlink:href="#DejaVuSerif-20" x="772.558594"/>
      <use xlink:href="#DejaVuSerif-72" x="804.345703"/>
      <use xlink:href="#DejaVuSerif-75" x="852.148438"/>
      <use xlink:href="#DejaVuSerif-6e" x="916.552734"/>
      <use xlink:href="#DejaVuSerif-74" x="980.957031"/>
      <use xlink:href="#DejaVuSerif-69" x="1021.142578"/>
      <use xlink:href="#DejaVuSerif-6d" x="1053.125"/>
      <use xlink:href="#DejaVuSerif-65" x="1147.949219"/>
     </g>
    </g>
   </g>
   <g id="patch_68">
    <path d="M 46.64375 155.578438 
L 46.64375 44.698438 
" style="fill: none; stroke: #000000; stroke-width: 0.8; stroke-linejoin: miter; stroke-linecap: square"/>
   </g>
   <g id="patch_69">
    <path d="M 548.84375 155.578438 
L 548.84375 44.698438 
" style="fill: none; stroke: #000000; stroke-width: 0.8; stroke-linejoin: miter; stroke-linecap: square"/>
   </g>
   <g id="patch_70">
    <path d="M 46.64375 155.578438 
L 548.84375 155.578438 
" style="fill: none; stroke: #000000; stroke-width: 0.8; stroke-linejoin: miter; stroke-linecap: square"/>
   </g>
   <g id="patch_71">
    <path d="M 46.64375 44.698438 
L 548.84375 44.698438 
" style="fill: none; stroke: #000000; stroke-width: 0.8; stroke-linejoin: miter; stroke-linecap: square"/>
   </g>
   <g id="legend_1">
    <g id="patch_72">
     <path d="M 112.10625 39.698438 
L 483.38125 39.698438 
Q 485.38125 39.698438 485.38125 37.698438 
L 485.38125 9.2 
Q 485.38125 7.2 483.38125 7.2 
L 112.10625 7.2 
Q 110.10625 7.2 110.10625 9.2 
L 110.10625 37.698438 
Q 110.10625 39.698438 112.10625 39.698438 
z
" style="fill: #ffffff; opacity: 0.8; stroke: #cccccc; stroke-linejoin: miter"/>
    </g>
    <g id="patch_73">
     <path d="M 114.10625 18.798438 
L 134.10625 18.798438 
L 134.10625 11.798438 
L 114.10625 11.798438 
z
" style="fill: #cc79a7"/>
    </g>
    <g id="text_20">
     <!-- Default parallel -->
     <g transform="translate(142.10625 18.798438) scale(0.1 -0.1)">
      <defs>
       <path id="DejaVuSerif-44" d="M 1581 331 
L 2163 331 
Q 3072 331 3558 850 
Q 4044 1369 4044 2338 
Q 4044 3306 3559 3818 
Q 3075 4331 2163 4331 
L 1581 4331 
L 1581 331 
z
M 353 0 
L 353 331 
L 947 331 
L 947 4331 
L 353 4331 
L 353 4666 
L 2209 4666 
Q 3416 4666 4089 4050 
Q 4763 3434 4763 2338 
Q 4763 1238 4088 619 
Q 3413 0 2209 0 
L 353 0 
z
" transform="scale(0.015625)"/>
      </defs>
      <use xlink:href="#DejaVuSerif-44"/>
      <use xlink:href="#DejaVuSerif-65" x="80.175781"/>
      <use xlink:href="#DejaVuSerif-66" x="139.355469"/>
      <use xlink:href="#DejaVuSerif-61" x="176.367188"/>
      <use xlink:href="#DejaVuSerif-75" x="235.986328"/>
      <use xlink:href="#DejaVuSerif-6c" x="300.390625"/>
      <use xlink:href="#DejaVuSerif-74" x="332.373047"/>
      <use xlink:href="#DejaVuSerif-20" x="372.558594"/>
      <use xlink:href="#DejaVuSerif-70" x="404.345703"/>
      <use xlink:href="#DejaVuSerif-61" x="468.359375"/>
      <use xlink:href="#DejaVuSerif-72" x="527.978516"/>
      <use xlink:href="#DejaVuSerif-61" x="575.78125"/>
      <use xlink:href="#DejaVuSerif-6c" x="635.400391"/>
      <use xlink:href="#DejaVuSerif-6c" x="667.382812"/>
      <use xlink:href="#DejaVuSerif-65" x="699.365234"/>
      <use xlink:href="#DejaVuSerif-6c" x="758.544922"/>
     </g>
    </g>
    <g id="patch_74">
     <path d="M 114.10625 33.476562 
L 134.10625 33.476562 
L 134.10625 26.476562 
L 114.10625 26.476562 
z
" style="fill: url(#haae236ddfb)"/>
    </g>
    <g id="text_21">
     <!-- Default aligned -->
     <g transform="translate(142.10625 33.476562) scale(0.1 -0.1)">
      <use xlink:href="#DejaVuSerif-44"/>
      <use xlink:href="#DejaVuSerif-65" x="80.175781"/>
      <use xlink:href="#DejaVuSerif-66" x="139.355469"/>
      <use xlink:href="#DejaVuSerif-61" x="176.367188"/>
      <use xlink:href="#DejaVuSerif-75" x="235.986328"/>
      <use xlink:href="#DejaVuSerif-6c" x="300.390625"/>
      <use xlink:href="#DejaVuSerif-74" x="332.373047"/>
      <use xlink:href="#DejaVuSerif-20" x="372.558594"/>
      <use xlink:href="#DejaVuSerif-61" x="404.345703"/>
      <use xlink:href="#DejaVuSerif-6c" x="463.964844"/>
      <use xlink:href="#DejaVuSerif-69" x="495.947266"/>
      <use xlink:href="#DejaVuSerif-67" x="527.929688"/>
      <use xlink:href="#DejaVuSerif-6e" x="591.943359"/>
      <use xlink:href="#DejaVuSerif-65" x="656.347656"/>
      <use xlink:href="#DejaVuSerif-64" x="715.527344"/>
     </g>
    </g>
    <g id="patch_75">
     <path d="M 241.1625 18.798438 
L 261.1625 18.798438 
L 261.1625 11.798438 
L 241.1625 11.798438 
z
" style="fill: #0072b2"/>
    </g>
    <g id="text_22">
     <!-- SWIPER parallel -->
     <g transform="translate(269.1625 18.798438) scale(0.1 -0.1)">
      <defs>
       <path id="DejaVuSerif-53" d="M 594 225 
L 594 1288 
L 953 1284 
Q 969 753 1261 498 
Q 1553 244 2150 244 
Q 2706 244 2998 464 
Q 3291 684 3291 1106 
Q 3291 1444 3114 1625 
Q 2938 1806 2369 1978 
L 1753 2163 
Q 1084 2366 811 2669 
Q 538 2972 538 3500 
Q 538 4094 959 4422 
Q 1381 4750 2144 4750 
Q 2469 4750 2856 4679 
Q 3244 4609 3681 4475 
L 3681 3481 
L 3328 3481 
Q 3275 3975 2998 4195 
Q 2722 4416 2156 4416 
Q 1663 4416 1405 4214 
Q 1147 4013 1147 3628 
Q 1147 3294 1340 3103 
Q 1534 2913 2163 2725 
L 2741 2553 
Q 3375 2363 3645 2067 
Q 3916 1772 3916 1275 
Q 3916 597 3481 253 
Q 3047 -91 2188 -91 
Q 1803 -91 1404 -12 
Q 1006 66 594 225 
z
" transform="scale(0.015625)"/>
       <path id="DejaVuSerif-57" d="M 4878 0 
L 4366 0 
L 3297 3794 
L 2228 0 
L 1716 0 
L 494 4331 
L 31 4331 
L 31 4666 
L 1734 4666 
L 1734 4331 
L 1153 4331 
L 2125 884 
L 3188 4666 
L 3694 4666 
L 4775 844 
L 5753 4331 
L 5216 4331 
L 5216 4666 
L 6559 4666 
L 6559 4331 
L 6100 4331 
L 4878 0 
z
" transform="scale(0.015625)"/>
       <path id="DejaVuSerif-49" d="M 1581 331 
L 2175 331 
L 2175 0 
L 353 0 
L 353 331 
L 947 331 
L 947 4331 
L 353 4331 
L 353 4666 
L 2175 4666 
L 2175 4331 
L 1581 4331 
L 1581 331 
z
" transform="scale(0.015625)"/>
       <path id="DejaVuSerif-50" d="M 1581 2375 
L 2406 2375 
Q 2872 2375 3115 2626 
Q 3359 2878 3359 3353 
Q 3359 3831 3115 4081 
Q 2872 4331 2406 4331 
L 1581 4331 
L 1581 2375 
z
M 353 0 
L 353 331 
L 947 331 
L 947 4331 
L 353 4331 
L 353 4666 
L 2559 4666 
Q 3259 4666 3668 4311 
Q 4078 3956 4078 3353 
Q 4078 2753 3668 2397 
Q 3259 2041 2559 2041 
L 1581 2041 
L 1581 331 
L 2303 331 
L 2303 0 
L 353 0 
z
" transform="scale(0.015625)"/>
       <path id="DejaVuSerif-45" d="M 353 0 
L 353 331 
L 947 331 
L 947 4331 
L 353 4331 
L 353 4666 
L 4109 4666 
L 4109 3628 
L 3725 3628 
L 3725 4281 
L 1581 4281 
L 1581 2719 
L 3109 2719 
L 3109 3303 
L 3494 3303 
L 3494 1753 
L 3109 1753 
L 3109 2338 
L 1581 2338 
L 1581 384 
L 3775 384 
L 3775 1038 
L 4159 1038 
L 4159 0 
L 353 0 
z
" transform="scale(0.015625)"/>
      </defs>
      <use xlink:href="#DejaVuSerif-53"/>
      <use xlink:href="#DejaVuSerif-57" x="68.505859"/>
      <use xlink:href="#DejaVuSerif-49" x="171.289062"/>
      <use xlink:href="#DejaVuSerif-50" x="210.791016"/>
      <use xlink:href="#DejaVuSerif-45" x="278.076172"/>
      <use xlink:href="#DejaVuSerif-52" x="351.074219"/>
      <use xlink:href="#DejaVuSerif-20" x="426.367188"/>
      <use xlink:href="#DejaVuSerif-70" x="458.154297"/>
      <use xlink:href="#DejaVuSerif-61" x="522.167969"/>
      <use xlink:href="#DejaVuSerif-72" x="581.787109"/>
      <use xlink:href="#DejaVuSerif-61" x="629.589844"/>
      <use xlink:href="#DejaVuSerif-6c" x="689.208984"/>
      <use xlink:href="#DejaVuSerif-6c" x="721.191406"/>
      <use xlink:href="#DejaVuSerif-65" x="753.173828"/>
      <use xlink:href="#DejaVuSerif-6c" x="812.353516"/>
     </g>
    </g>
    <g id="patch_76">
     <path d="M 241.1625 33.476562 
L 261.1625 33.476562 
L 261.1625 26.476562 
L 241.1625 26.476562 
z
" style="fill: url(#h3213fdbcbd)"/>
    </g>
    <g id="text_23">
     <!-- SWIPER aligned -->
     <g transform="translate(269.1625 33.476562) scale(0.1 -0.1)">
      <use xlink:href="#DejaVuSerif-53"/>
      <use xlink:href="#DejaVuSerif-57" x="68.505859"/>
      <use xlink:href="#DejaVuSerif-49" x="171.289062"/>
      <use xlink:href="#DejaVuSerif-50" x="210.791016"/>
      <use xlink:href="#DejaVuSerif-45" x="278.076172"/>
      <use xlink:href="#DejaVuSerif-52" x="351.074219"/>
      <use xlink:href="#DejaVuSerif-20" x="426.367188"/>
      <use xlink:href="#DejaVuSerif-61" x="458.154297"/>
      <use xlink:href="#DejaVuSerif-6c" x="517.773438"/>
      <use xlink:href="#DejaVuSerif-69" x="549.755859"/>
      <use xlink:href="#DejaVuSerif-67" x="581.738281"/>
      <use xlink:href="#DejaVuSerif-6e" x="645.751953"/>
      <use xlink:href="#DejaVuSerif-65" x="710.15625"/>
      <use xlink:href="#DejaVuSerif-64" x="769.335938"/>
     </g>
    </g>
    <g id="patch_77">
     <path d="M 373.596875 18.798438 
L 393.596875 18.798438 
L 393.596875 11.798438 
L 373.596875 11.798438 
z
" style="fill: url(#he801a069a7)"/>
    </g>
    <g id="text_24">
     <!-- SWIPER sliding -->
     <g transform="translate(401.596875 18.798438) scale(0.1 -0.1)">
      <use xlink:href="#DejaVuSerif-53"/>
      <use xlink:href="#DejaVuSerif-57" x="68.505859"/>
      <use xlink:href="#DejaVuSerif-49" x="171.289062"/>
      <use xlink:href="#DejaVuSerif-50" x="210.791016"/>
      <use xlink:href="#DejaVuSerif-45" x="278.076172"/>
      <use xlink:href="#DejaVuSerif-52" x="351.074219"/>
      <use xlink:href="#DejaVuSerif-20" x="426.367188"/>
      <use xlink:href="#DejaVuSerif-73" x="458.154297"/>
      <use xlink:href="#DejaVuSerif-6c" x="509.472656"/>
      <use xlink:href="#DejaVuSerif-69" x="541.455078"/>
      <use xlink:href="#DejaVuSerif-64" x="573.4375"/>
      <use xlink:href="#DejaVuSerif-69" x="637.451172"/>
      <use xlink:href="#DejaVuSerif-6e" x="669.433594"/>
      <use xlink:href="#DejaVuSerif-67" x="733.837891"/>
     </g>
    </g>
   </g>
  </g>
 </g>
 <defs>
  <clipPath id="pee5d7d7b95">
   <rect x="46.64375" y="44.698438" width="502.2" height="110.88"/>
  </clipPath>
 </defs>
 <defs>
  <pattern id="haae236ddfb" patternUnits="userSpaceOnUse" x="0" y="0" width="72" height="72">
   <rect x="0" y="0" width="73" height="73" fill="#dda6c4"/>
   <path d="M -36 36 
L 36 -36 
M -30 42 
L 42 -30 
M -24 48 
L 48 -24 
M -18 54 
L 54 -18 
M -12 60 
L 60 -12 
M -6 66 
L 66 -6 
M 0 72 
L 72 0 
M 6 78 
L 78 6 
M 12 84 
L 84 12 
M 18 90 
L 90 18 
M 24 96 
L 96 24 
M 30 102 
L 102 30 
M 36 108 
L 108 36 
" style="fill: #000000; stroke: #000000; stroke-width: 1.0; stroke-linecap: butt; stroke-linejoin: miter"/>
  </pattern>
  <pattern id="h3213fdbcbd" patternUnits="userSpaceOnUse" x="0" y="0" width="72" height="72">
   <rect x="0" y="0" width="73" height="73" fill="#55a1cc"/>
   <path d="M -36 36 
L 36 -36 
M -30 42 
L 42 -30 
M -24 48 
L 48 -24 
M -18 54 
L 54 -18 
M -12 60 
L 60 -12 
M -6 66 
L 66 -6 
M 0 72 
L 72 0 
M 6 78 
L 78 6 
M 12 84 
L 84 12 
M 18 90 
L 90 18 
M 24 96 
L 96 24 
M 30 102 
L 102 30 
M 36 108 
L 108 36 
" style="fill: #000000; stroke: #000000; stroke-width: 1.0; stroke-linecap: butt; stroke-linejoin: miter"/>
  </pattern>
  <pattern id="he801a069a7" patternUnits="userSpaceOnUse" x="0" y="0" width="72" height="72">
   <rect x="0" y="0" width="73" height="73" fill="#aad0e5"/>
   <path d="M -36 36 
L 36 -36 
M -33.6 38.4 
L 38.4 -33.6 
M -31.2 40.8 
L 40.8 -31.2 
M -28.8 43.2 
L 43.2 -28.8 
M -26.4 45.6 
L 45.6 -26.4 
M -24 48 
L 48 -24 
M -21.6 50.4 
L 50.4 -21.6 
M -19.2 52.8 
L 52.8 -19.2 
M -16.8 55.2 
L 55.2 -16.8 
M -14.4 57.6 
L 57.6 -14.4 
M -12 60 
L 60 -12 
M -9.6 62.4 
L 62.4 -9.6 
M -7.2 64.8 
L 64.8 -7.2 
M -4.8 67.2 
L 67.2 -4.8 
M -2.4 69.6 
L 69.6 -2.4 
M 0 72 
L 72 0 
M 2.4 74.4 
L 74.4 2.4 
M 4.8 76.8 
L 76.8 4.8 
M 7.2 79.2 
L 79.2 7.2 
M 9.6 81.6 
L 81.6 9.6 
M 12 84 
L 84 12 
M 14.4 86.4 
L 86.4 14.4 
M 16.8 88.8 
L 88.8 16.8 
M 19.2 91.2 
L 91.2 19.2 
M 21.6 93.6 
L 93.6 21.6 
M 24 96 
L 96 24 
M 26.4 98.4 
L 98.4 26.4 
M 28.8 100.8 
L 100.8 28.8 
M 31.2 103.2 
L 103.2 31.2 
M 33.6 105.6 
L 105.6 33.6 
M 36 108 
L 108 36 
" style="fill: #000000; stroke: #000000; stroke-width: 1.0; stroke-linecap: butt; stroke-linejoin: miter"/>
  </pattern>
 </defs>
</svg>
