<?xml version="1.0" encoding="utf-8" standalone="no"?>
<!DOCTYPE svg PUBLIC "-//W3C//DTD SVG 1.1//EN"
  "http://www.w3.org/Graphics/SVG/1.1/DTD/svg11.dtd">
<svg xmlns:xlink="http://www.w3.org/1999/xlink" width="280.512pt" height="280.512pt" viewBox="0 0 280.512 280.512" xmlns="http://www.w3.org/2000/svg" version="1.1">
 <metadata>
  <rdf:RDF xmlns:dc="http://purl.org/dc/elements/1.1/" xmlns:cc="http://creativecommons.org/ns#" xmlns:rdf="http://www.w3.org/1999/02/22-rdf-syntax-ns#">
   <cc:Work>
    <dc:type rdf:resource="http://purl.org/dc/dcmitype/StillImage"/>
    <dc:date>2024-11-04T11:10:39.044218</dc:date>
    <dc:format>image/svg+xml</dc:format>
    <dc:creator>
     <cc:Agent>
      <dc:title>Matplotlib v3.9.2, https://matplotlib.org/</dc:title>
     </cc:Agent>
    </dc:creator>
   </cc:Work>
  </rdf:RDF>
 </metadata>
 <defs>
  <style type="text/css">*{stroke-linejoin: round; stroke-linecap: butt}</style>
 </defs>
 <g id="figure_1">
  <g id="patch_1">
   <path d="M 0 280.512 
L 280.512 280.512 
L 280.512 0 
L 0 0 
z
" style="fill: #ffffff"/>
  </g>
  <g id="patch_2">
   <path d="M 7.2 273.312 
L 273.312 273.312 
L 273.312 7.2 
L 7.2 7.2 
z
" style="fill: #ffffff"/>
  </g>
  <g id="axes_1">
   <g id="Poly3DCollection_1">
    <path d="M 150.047581 248.536531 
L 150.052829 244.083476 
L 121.755028 238.689389 
L 121.773528 243.098263 
z
" clip-path="url(#p149245588b)" style="fill: #797979; stroke: #646464; stroke-width: 0.5"/>
    <path d="M 121.755028 238.689389 
L 104.714551 248.108524 
L 104.747949 252.59448 
L 121.773528 243.098263 
z
" clip-path="url(#p149245588b)" style="fill: #d2d2d2; stroke: #aeaeae; stroke-width: 0.5"/>
    <path d="M 104.747949 252.59448 
L 133.38211 258.245968 
L 150.047581 248.536531 
L 121.773528 243.098263 
z
" clip-path="url(#p149245588b)" style="fill: #e5e5e5; stroke: #bdbdbd; stroke-width: 0.5"/>
    <path d="M 150.047581 248.536531 
L 133.38211 258.245968 
L 133.373067 253.714283 
L 150.052829 244.083476 
z
" clip-path="url(#p149245588b)" style="fill: #797979; stroke: #646464; stroke-width: 0.5"/>
    <path d="M 104.747949 252.59448 
L 104.714551 248.108524 
L 133.373067 253.714283 
L 133.38211 258.245968 
z
" clip-path="url(#p149245588b)" style="fill: #d2d2d2; stroke: #aeaeae; stroke-width: 0.5"/>
   </g>
   <g id="Poly3DCollection_2">
    <path d="M 150.052829 244.083476 
L 150.058087 239.62287 
L 121.736498 234.27312 
L 121.755028 238.689389 
z
" clip-path="url(#p149245588b)" style="fill: #797979; stroke: #646464; stroke-width: 0.5"/>
    <path d="M 121.736498 234.27312 
L 104.681096 243.614898 
L 104.714551 248.108524 
L 121.755028 238.689389 
z
" clip-path="url(#p149245588b)" style="fill: #d2d2d2; stroke: #aeaeae; stroke-width: 0.5"/>
    <path d="M 150.052829 244.083476 
L 133.373067 253.714283 
L 133.364008 249.174763 
L 150.058087 239.62287 
z
" clip-path="url(#p149245588b)" style="fill: #797979; stroke: #646464; stroke-width: 0.5"/>
    <path d="M 104.714551 248.108524 
L 104.681096 243.614898 
L 133.364008 249.174763 
L 133.373067 253.714283 
z
" clip-path="url(#p149245588b)" style="fill: #d2d2d2; stroke: #aeaeae; stroke-width: 0.5"/>
   </g>
   <g id="Poly3DCollection_3">
    <path d="M 150.058087 239.62287 
L 150.063353 235.154694 
L 121.717936 229.849438 
L 121.736498 234.27312 
z
" clip-path="url(#p149245588b)" style="fill: #797979; stroke: #646464; stroke-width: 0.5"/>
    <path d="M 121.717936 229.849438 
L 104.647584 239.113584 
L 104.681096 243.614898 
L 121.736498 234.27312 
z
" clip-path="url(#p149245588b)" style="fill: #d2d2d2; stroke: #aeaeae; stroke-width: 0.5"/>
    <path d="M 150.058087 239.62287 
L 133.364008 249.174763 
L 133.354934 244.627387 
L 150.063353 235.154694 
z
" clip-path="url(#p149245588b)" style="fill: #797979; stroke: #646464; stroke-width: 0.5"/>
    <path d="M 104.681096 243.614898 
L 104.647584 239.113584 
L 133.354934 244.627387 
L 133.364008 249.174763 
z
" clip-path="url(#p149245588b)" style="fill: #d2d2d2; stroke: #aeaeae; stroke-width: 0.5"/>
   </g>
   <g id="Poly3DCollection_4">
    <path d="M 150.063353 235.154694 
L 150.068628 230.678928 
L 121.699344 225.418324 
L 121.717936 229.849438 
z
" clip-path="url(#p149245588b)" style="fill: #797979; stroke: #646464; stroke-width: 0.5"/>
    <path d="M 121.699344 225.418324 
L 104.614014 234.604561 
L 104.647584 239.113584 
L 121.717936 229.849438 
z
" clip-path="url(#p149245588b)" style="fill: #d2d2d2; stroke: #aeaeae; stroke-width: 0.5"/>
    <path d="M 150.063353 235.154694 
L 133.354934 244.627387 
L 133.345844 240.072136 
L 150.068628 230.678928 
z
" clip-path="url(#p149245588b)" style="fill: #797979; stroke: #646464; stroke-width: 0.5"/>
    <path d="M 104.647584 239.113584 
L 104.614014 234.604561 
L 133.345844 240.072136 
L 133.354934 244.627387 
z
" clip-path="url(#p149245588b)" style="fill: #d2d2d2; stroke: #aeaeae; stroke-width: 0.5"/>
   </g>
   <g id="Poly3DCollection_5">
    <path d="M 150.068628 230.678928 
L 150.073913 226.195552 
L 121.68072 220.97976 
L 121.699344 225.418324 
z
" clip-path="url(#p149245588b)" style="fill: #797979; stroke: #646464; stroke-width: 0.5"/>
    <path d="M 121.68072 220.97976 
L 104.580387 230.087809 
L 104.614014 234.604561 
L 121.699344 225.418324 
z
" clip-path="url(#p149245588b)" style="fill: #d2d2d2; stroke: #aeaeae; stroke-width: 0.5"/>
    <path d="M 150.068628 230.678928 
L 133.345844 240.072136 
L 133.336738 235.508989 
L 150.073913 226.195552 
z
" clip-path="url(#p149245588b)" style="fill: #797979; stroke: #646464; stroke-width: 0.5"/>
    <path d="M 104.614014 234.604561 
L 104.580387 230.087809 
L 133.336738 235.508989 
L 133.345844 240.072136 
z
" clip-path="url(#p149245588b)" style="fill: #d2d2d2; stroke: #aeaeae; stroke-width: 0.5"/>
   </g>
   <g id="Poly3DCollection_6">
    <path d="M 150.073913 226.195552 
L 150.079206 221.704548 
L 121.662065 216.533727 
L 121.68072 220.97976 
z
" clip-path="url(#p149245588b)" style="fill: #797979; stroke: #646464; stroke-width: 0.5"/>
    <path d="M 121.662065 216.533727 
L 104.546702 225.563309 
L 104.580387 230.087809 
L 121.68072 220.97976 
z
" clip-path="url(#p149245588b)" style="fill: #d2d2d2; stroke: #aeaeae; stroke-width: 0.5"/>
    <path d="M 150.073913 226.195552 
L 133.336738 235.508989 
L 133.327616 230.937925 
L 150.079206 221.704548 
z
" clip-path="url(#p149245588b)" style="fill: #797979; stroke: #646464; stroke-width: 0.5"/>
    <path d="M 104.580387 230.087809 
L 104.546702 225.563309 
L 133.327616 230.937925 
L 133.336738 235.508989 
z
" clip-path="url(#p149245588b)" style="fill: #d2d2d2; stroke: #aeaeae; stroke-width: 0.5"/>
   </g>
   <g id="Poly3DCollection_7">
    <path d="M 150.079206 221.704548 
L 150.084508 217.205896 
L 121.643378 212.080205 
L 121.662065 216.533727 
z
" clip-path="url(#p149245588b)" style="fill: #797979; stroke: #646464; stroke-width: 0.5"/>
    <path d="M 121.643378 212.080205 
L 104.512959 221.031041 
L 104.546702 225.563309 
L 121.662065 216.533727 
z
" clip-path="url(#p149245588b)" style="fill: #d2d2d2; stroke: #aeaeae; stroke-width: 0.5"/>
    <path d="M 150.079206 221.704548 
L 133.327616 230.937925 
L 133.318479 226.358924 
L 150.084508 217.205896 
z
" clip-path="url(#p149245588b)" style="fill: #797979; stroke: #646464; stroke-width: 0.5"/>
    <path d="M 104.546702 225.563309 
L 104.512959 221.031041 
L 133.318479 226.358924 
L 133.327616 230.937925 
z
" clip-path="url(#p149245588b)" style="fill: #d2d2d2; stroke: #aeaeae; stroke-width: 0.5"/>
   </g>
   <g id="Poly3DCollection_8">
    <path d="M 150.084508 217.205896 
L 150.08982 212.699577 
L 121.62466 207.619176 
L 121.643378 212.080205 
z
" clip-path="url(#p149245588b)" style="fill: #797979; stroke: #646464; stroke-width: 0.5"/>
    <path d="M 121.62466 207.619176 
L 104.479158 216.490984 
L 104.512959 221.031041 
L 121.643378 212.080205 
z
" clip-path="url(#p149245588b)" style="fill: #d2d2d2; stroke: #aeaeae; stroke-width: 0.5"/>
    <path d="M 150.084508 217.205896 
L 133.318479 226.358924 
L 133.309326 221.771964 
L 150.08982 212.699577 
z
" clip-path="url(#p149245588b)" style="fill: #797979; stroke: #646464; stroke-width: 0.5"/>
    <path d="M 104.512959 221.031041 
L 104.479158 216.490984 
L 133.309326 221.771964 
L 133.318479 226.358924 
z
" clip-path="url(#p149245588b)" style="fill: #d2d2d2; stroke: #aeaeae; stroke-width: 0.5"/>
   </g>
   <g id="Poly3DCollection_9">
    <path d="M 150.08982 212.699577 
L 150.09514 208.18557 
L 121.60591 203.150621 
L 121.62466 207.619176 
z
" clip-path="url(#p149245588b)" style="fill: #797979; stroke: #646464; stroke-width: 0.5"/>
    <path d="M 121.60591 203.150621 
L 104.4453 211.943119 
L 104.479158 216.490984 
L 121.62466 207.619176 
z
" clip-path="url(#p149245588b)" style="fill: #d2d2d2; stroke: #aeaeae; stroke-width: 0.5"/>
    <path d="M 150.08982 212.699577 
L 133.309326 221.771964 
L 133.300156 217.177026 
L 150.09514 208.18557 
z
" clip-path="url(#p149245588b)" style="fill: #797979; stroke: #646464; stroke-width: 0.5"/>
    <path d="M 104.479158 216.490984 
L 104.4453 211.943119 
L 133.300156 217.177026 
L 133.309326 221.771964 
z
" clip-path="url(#p149245588b)" style="fill: #d2d2d2; stroke: #aeaeae; stroke-width: 0.5"/>
   </g>
   <g id="Poly3DCollection_10">
    <path d="M 150.09514 208.18557 
L 150.100469 203.663856 
L 121.587129 198.674521 
L 121.60591 203.150621 
z
" clip-path="url(#p149245588b)" style="fill: #797979; stroke: #646464; stroke-width: 0.5"/>
    <path d="M 121.587129 198.674521 
L 104.411382 207.387425 
L 104.4453 211.943119 
L 121.60591 203.150621 
z
" clip-path="url(#p149245588b)" style="fill: #d2d2d2; stroke: #aeaeae; stroke-width: 0.5"/>
    <path d="M 150.09514 208.18557 
L 133.300156 217.177026 
L 133.290971 212.574089 
L 150.100469 203.663856 
z
" clip-path="url(#p149245588b)" style="fill: #797979; stroke: #646464; stroke-width: 0.5"/>
    <path d="M 104.4453 211.943119 
L 104.411382 207.387425 
L 133.290971 212.574089 
L 133.300156 217.177026 
z
" clip-path="url(#p149245588b)" style="fill: #d2d2d2; stroke: #aeaeae; stroke-width: 0.5"/>
   </g>
   <g id="Poly3DCollection_11">
    <path d="M 150.100469 203.663856 
L 150.105808 199.134416 
L 121.568316 194.190857 
L 121.587129 198.674521 
z
" clip-path="url(#p149245588b)" style="fill: #797979; stroke: #646464; stroke-width: 0.5"/>
    <path d="M 121.568316 194.190857 
L 104.377407 202.823883 
L 104.411382 207.387425 
L 121.587129 198.674521 
z
" clip-path="url(#p149245588b)" style="fill: #d2d2d2; stroke: #aeaeae; stroke-width: 0.5"/>
    <path d="M 150.100469 203.663856 
L 133.290971 212.574089 
L 133.28177 207.963131 
L 150.105808 199.134416 
z
" clip-path="url(#p149245588b)" style="fill: #797979; stroke: #646464; stroke-width: 0.5"/>
    <path d="M 104.411382 207.387425 
L 104.377407 202.823883 
L 133.28177 207.963131 
L 133.290971 212.574089 
z
" clip-path="url(#p149245588b)" style="fill: #d2d2d2; stroke: #aeaeae; stroke-width: 0.5"/>
   </g>
   <g id="Poly3DCollection_12">
    <path d="M 150.105808 199.134416 
L 150.111156 194.597229 
L 121.549471 189.699609 
L 121.568316 194.190857 
z
" clip-path="url(#p149245588b)" style="fill: #797979; stroke: #646464; stroke-width: 0.5"/>
    <path d="M 121.549471 189.699609 
L 104.343373 198.252471 
L 104.377407 202.823883 
L 121.568316 194.190857 
z
" clip-path="url(#p149245588b)" style="fill: #d2d2d2; stroke: #aeaeae; stroke-width: 0.5"/>
    <path d="M 150.105808 199.134416 
L 133.28177 207.963131 
L 133.272553 203.344131 
L 150.111156 194.597229 
z
" clip-path="url(#p149245588b)" style="fill: #797979; stroke: #646464; stroke-width: 0.5"/>
    <path d="M 104.377407 202.823883 
L 104.343373 198.252471 
L 133.272553 203.344131 
L 133.28177 207.963131 
z
" clip-path="url(#p149245588b)" style="fill: #d2d2d2; stroke: #aeaeae; stroke-width: 0.5"/>
   </g>
   <g id="Poly3DCollection_13">
    <path d="M 150.111156 194.597229 
L 150.116513 190.052276 
L 121.530594 185.200758 
L 121.549471 189.699609 
z
" clip-path="url(#p149245588b)" style="fill: #797979; stroke: #646464; stroke-width: 0.5"/>
    <path d="M 121.530594 185.200758 
L 104.30928 193.67317 
L 104.343373 198.252471 
L 121.549471 189.699609 
z
" clip-path="url(#p149245588b)" style="fill: #d2d2d2; stroke: #aeaeae; stroke-width: 0.5"/>
    <path d="M 150.111156 194.597229 
L 133.272553 203.344131 
L 133.263319 198.717069 
L 150.116513 190.052276 
z
" clip-path="url(#p149245588b)" style="fill: #797979; stroke: #646464; stroke-width: 0.5"/>
    <path d="M 104.343373 198.252471 
L 104.30928 193.67317 
L 133.263319 198.717069 
L 133.272553 203.344131 
z
" clip-path="url(#p149245588b)" style="fill: #d2d2d2; stroke: #aeaeae; stroke-width: 0.5"/>
   </g>
   <g id="Poly3DCollection_14">
    <path d="M 150.116513 190.052276 
L 150.121879 185.499536 
L 121.511685 180.694286 
L 121.530594 185.200758 
z
" clip-path="url(#p149245588b)" style="fill: #797979; stroke: #646464; stroke-width: 0.5"/>
    <path d="M 121.511685 180.694286 
L 104.275128 189.085958 
L 104.30928 193.67317 
L 121.530594 185.200758 
z
" clip-path="url(#p149245588b)" style="fill: #d2d2d2; stroke: #aeaeae; stroke-width: 0.5"/>
    <path d="M 150.116513 190.052276 
L 133.263319 198.717069 
L 133.25407 194.081924 
L 150.121879 185.499536 
z
" clip-path="url(#p149245588b)" style="fill: #797979; stroke: #646464; stroke-width: 0.5"/>
    <path d="M 104.30928 193.67317 
L 104.275128 189.085958 
L 133.25407 194.081924 
L 133.263319 198.717069 
z
" clip-path="url(#p149245588b)" style="fill: #d2d2d2; stroke: #aeaeae; stroke-width: 0.5"/>
   </g>
   <g id="Poly3DCollection_15">
    <path d="M 150.121879 185.499536 
L 150.127254 180.93899 
L 121.492744 176.180172 
L 121.511685 180.694286 
z
" clip-path="url(#p149245588b)" style="fill: #797979; stroke: #646464; stroke-width: 0.5"/>
    <path d="M 121.492744 176.180172 
L 104.240917 184.490817 
L 104.275128 189.085958 
L 121.511685 180.694286 
z
" clip-path="url(#p149245588b)" style="fill: #d2d2d2; stroke: #aeaeae; stroke-width: 0.5"/>
    <path d="M 150.121879 185.499536 
L 133.25407 194.081924 
L 133.244804 189.438673 
L 150.127254 180.93899 
z
" clip-path="url(#p149245588b)" style="fill: #797979; stroke: #646464; stroke-width: 0.5"/>
    <path d="M 104.275128 189.085958 
L 104.240917 184.490817 
L 133.244804 189.438673 
L 133.25407 194.081924 
z
" clip-path="url(#p149245588b)" style="fill: #d2d2d2; stroke: #aeaeae; stroke-width: 0.5"/>
   </g>
   <g id="Poly3DCollection_16">
    <path d="M 150.127254 180.93899 
L 150.132638 176.370618 
L 121.473771 171.658396 
L 121.492744 176.180172 
z
" clip-path="url(#p149245588b)" style="fill: #3d3d3d; stroke: #323232; stroke-width: 0.5"/>
    <path d="M 121.473771 171.658396 
L 104.206647 179.887724 
L 104.240917 184.490817 
L 121.492744 176.180172 
z
" clip-path="url(#p149245588b)" style="fill: #6a6a6a; stroke: #575757; stroke-width: 0.5"/>
    <path d="M 104.240917 184.490817 
L 104.206647 179.887724 
L 133.235522 184.787296 
L 133.244804 189.438673 
z
" clip-path="url(#p149245588b)" style="fill: #6a6a6a; stroke: #575757; stroke-width: 0.5"/>
   </g>
   <g id="Poly3DCollection_17">
    <path d="M 150.132638 176.370618 
L 150.138032 171.794399 
L 121.454766 167.128941 
L 121.473771 171.658396 
z
" clip-path="url(#p149245588b)" style="fill: #3d3d3d; stroke: #323232; stroke-width: 0.5"/>
    <path d="M 121.454766 167.128941 
L 104.172318 175.276659 
L 104.206647 179.887724 
L 121.473771 171.658396 
z
" clip-path="url(#p149245588b)" style="fill: #6a6a6a; stroke: #575757; stroke-width: 0.5"/>
    <path d="M 104.206647 179.887724 
L 104.172318 175.276659 
L 133.226224 180.127772 
L 133.235522 184.787296 
z
" clip-path="url(#p149245588b)" style="fill: #6a6a6a; stroke: #575757; stroke-width: 0.5"/>
   </g>
   <g id="Poly3DCollection_18">
    <path d="M 154.270335 181.627536 
L 154.279289 177.052429 
L 150.132638 176.370618 
L 150.127254 180.93899 
z
" clip-path="url(#p149245588b)" style="fill: #3d3d3d; stroke: #323232; stroke-width: 0.5"/>
    <path d="M 133.244804 189.438673 
L 137.442382 190.15475 
L 154.270335 181.627536 
L 150.127254 180.93899 
z
" clip-path="url(#p149245588b)" style="fill: #737373; stroke: #5e5e5e; stroke-width: 0.5"/>
    <path d="M 133.244804 189.438673 
L 133.235522 184.787296 
L 137.436764 185.496393 
L 137.442382 190.15475 
z
" clip-path="url(#p149245588b)" style="fill: #6a6a6a; stroke: #575757; stroke-width: 0.5"/>
   </g>
   <g id="Poly3DCollection_19">
    <path d="M 150.138032 171.794399 
L 150.143435 167.210313 
L 121.435728 162.591786 
L 121.454766 167.128941 
z
" clip-path="url(#p149245588b)" style="fill: #3d3d3d; stroke: #323232; stroke-width: 0.5"/>
    <path d="M 121.435728 162.591786 
L 104.137929 170.657602 
L 104.172318 175.276659 
L 121.454766 167.128941 
z
" clip-path="url(#p149245588b)" style="fill: #6a6a6a; stroke: #575757; stroke-width: 0.5"/>
    <path d="M 104.172318 175.276659 
L 104.137929 170.657602 
L 133.216909 175.460079 
L 133.226224 180.127772 
z
" clip-path="url(#p149245588b)" style="fill: #6a6a6a; stroke: #575757; stroke-width: 0.5"/>
   </g>
   <g id="Poly3DCollection_20">
    <path d="M 154.279289 177.052429 
L 154.288258 172.469451 
L 150.138032 171.794399 
L 150.132638 176.370618 
z
" clip-path="url(#p149245588b)" style="fill: #3d3d3d; stroke: #323232; stroke-width: 0.5"/>
    <path d="M 133.235522 184.787296 
L 133.226224 180.127772 
L 137.431137 180.829864 
L 137.436764 185.496393 
z
" clip-path="url(#p149245588b)" style="fill: #6a6a6a; stroke: #575757; stroke-width: 0.5"/>
   </g>
   <g id="Poly3DCollection_21">
    <path d="M 150.143435 167.210313 
L 150.148847 162.61834 
L 121.416658 158.04691 
L 121.435728 162.591786 
z
" clip-path="url(#p149245588b)" style="fill: #3d3d3d; stroke: #323232; stroke-width: 0.5"/>
    <path d="M 121.416658 158.04691 
L 104.103481 166.030532 
L 104.137929 170.657602 
L 121.435728 162.591786 
z
" clip-path="url(#p149245588b)" style="fill: #6a6a6a; stroke: #575757; stroke-width: 0.5"/>
    <path d="M 104.137929 170.657602 
L 104.103481 166.030532 
L 133.207579 170.784195 
L 133.216909 175.460079 
z
" clip-path="url(#p149245588b)" style="fill: #6a6a6a; stroke: #575757; stroke-width: 0.5"/>
   </g>
   <g id="Poly3DCollection_22">
    <path d="M 154.288258 172.469451 
L 154.297243 167.878582 
L 150.143435 167.210313 
L 150.138032 171.794399 
z
" clip-path="url(#p149245588b)" style="fill: #3d3d3d; stroke: #323232; stroke-width: 0.5"/>
    <path d="M 133.226224 180.127772 
L 133.216909 175.460079 
L 137.425499 176.15514 
L 137.431137 180.829864 
z
" clip-path="url(#p149245588b)" style="fill: #6a6a6a; stroke: #575757; stroke-width: 0.5"/>
   </g>
   <g id="Poly3DCollection_23">
    <path d="M 150.148847 162.61834 
L 150.154269 158.018459 
L 121.397556 153.494296 
L 121.416658 158.04691 
z
" clip-path="url(#p149245588b)" style="fill: #3d3d3d; stroke: #323232; stroke-width: 0.5"/>
    <path d="M 121.397556 153.494296 
L 104.068972 161.395428 
L 104.103481 166.030532 
L 121.416658 158.04691 
z
" clip-path="url(#p149245588b)" style="fill: #6a6a6a; stroke: #575757; stroke-width: 0.5"/>
    <path d="M 104.103481 166.030532 
L 104.068972 161.395428 
L 133.198231 166.1001 
L 133.207579 170.784195 
z
" clip-path="url(#p149245588b)" style="fill: #6a6a6a; stroke: #575757; stroke-width: 0.5"/>
   </g>
   <g id="Poly3DCollection_24">
    <path d="M 154.297243 167.878582 
L 154.306243 163.279801 
L 150.148847 162.61834 
L 150.143435 167.210313 
z
" clip-path="url(#p149245588b)" style="fill: #3d3d3d; stroke: #323232; stroke-width: 0.5"/>
    <path d="M 133.216909 175.460079 
L 133.207579 170.784195 
L 137.419851 171.472199 
L 137.425499 176.15514 
z
" clip-path="url(#p149245588b)" style="fill: #6a6a6a; stroke: #575757; stroke-width: 0.5"/>
   </g>
   <g id="Poly3DCollection_25">
    <path d="M 150.154269 158.018459 
L 150.1597 153.410651 
L 121.378421 148.933922 
L 121.397556 153.494296 
z
" clip-path="url(#p149245588b)" style="fill: #3d3d3d; stroke: #323232; stroke-width: 0.5"/>
    <path d="M 121.378421 148.933922 
L 104.034404 156.752269 
L 104.068972 161.395428 
L 121.397556 153.494296 
z
" clip-path="url(#p149245588b)" style="fill: #6a6a6a; stroke: #575757; stroke-width: 0.5"/>
    <path d="M 104.068972 161.395428 
L 104.034404 156.752269 
L 133.188868 161.407771 
L 133.198231 166.1001 
z
" clip-path="url(#p149245588b)" style="fill: #6a6a6a; stroke: #575757; stroke-width: 0.5"/>
   </g>
   <g id="Poly3DCollection_26">
    <path d="M 154.306243 163.279801 
L 154.315259 158.673089 
L 150.154269 158.018459 
L 150.148847 162.61834 
z
" clip-path="url(#p149245588b)" style="fill: #3d3d3d; stroke: #323232; stroke-width: 0.5"/>
    <path d="M 133.207579 170.784195 
L 133.198231 166.1001 
L 137.414194 166.781021 
L 137.419851 171.472199 
z
" clip-path="url(#p149245588b)" style="fill: #6a6a6a; stroke: #575757; stroke-width: 0.5"/>
   </g>
   <g id="Poly3DCollection_27">
    <path d="M 150.1597 153.410651 
L 150.16514 148.794894 
L 121.359253 144.365769 
L 121.378421 148.933922 
z
" clip-path="url(#p149245588b)" style="fill: #3d3d3d; stroke: #323232; stroke-width: 0.5"/>
    <path d="M 121.359253 144.365769 
L 103.999775 152.101033 
L 104.034404 156.752269 
L 121.378421 148.933922 
z
" clip-path="url(#p149245588b)" style="fill: #6a6a6a; stroke: #575757; stroke-width: 0.5"/>
    <path d="M 104.034404 156.752269 
L 103.999775 152.101033 
L 133.179488 156.707186 
L 133.188868 161.407771 
z
" clip-path="url(#p149245588b)" style="fill: #6a6a6a; stroke: #575757; stroke-width: 0.5"/>
   </g>
   <g id="Poly3DCollection_28">
    <path d="M 154.315259 158.673089 
L 154.32429 154.058424 
L 150.1597 153.410651 
L 150.154269 158.018459 
z
" clip-path="url(#p149245588b)" style="fill: #3d3d3d; stroke: #323232; stroke-width: 0.5"/>
    <path d="M 133.198231 166.1001 
L 133.188868 161.407771 
L 137.408526 162.081583 
L 137.414194 166.781021 
z
" clip-path="url(#p149245588b)" style="fill: #6a6a6a; stroke: #575757; stroke-width: 0.5"/>
   </g>
   <g id="Poly3DCollection_29">
    <path d="M 150.16514 148.794894 
L 150.17059 144.171167 
L 121.340053 139.789818 
L 121.359253 144.365769 
z
" clip-path="url(#p149245588b)" style="fill: #551010; stroke: #3d0000; stroke-width: 0.5"/>
    <path d="M 121.340053 139.789818 
L 103.965087 147.441701 
L 103.999775 152.101033 
L 121.359253 144.365769 
z
" clip-path="url(#p149245588b)" style="fill: #931c1c; stroke: #6a0000; stroke-width: 0.5"/>
    <path d="M 150.16514 148.794894 
L 133.179488 156.707186 
L 133.170091 151.998325 
L 150.17059 144.171167 
z
" clip-path="url(#p149245588b)" style="fill: #551010; stroke: #3d0000; stroke-width: 0.5"/>
    <path d="M 103.999775 152.101033 
L 103.965087 147.441701 
L 133.170091 151.998325 
L 133.179488 156.707186 
z
" clip-path="url(#p149245588b)" style="fill: #931c1c; stroke: #6a0000; stroke-width: 0.5"/>
   </g>
   <g id="Poly3DCollection_30">
    <path d="M 154.32429 154.058424 
L 154.333337 149.435785 
L 150.16514 148.794894 
L 150.1597 153.410651 
z
" clip-path="url(#p149245588b)" style="fill: #3d3d3d; stroke: #323232; stroke-width: 0.5"/>
    <path d="M 150.16514 148.794894 
L 154.333337 149.435785 
L 137.402848 157.373863 
L 133.179488 156.707186 
z
" clip-path="url(#p149245588b)" style="fill: #343434; stroke: #2a2a2a; stroke-width: 0.5"/>
    <path d="M 133.188868 161.407771 
L 133.179488 156.707186 
L 137.402848 157.373863 
L 137.408526 162.081583 
z
" clip-path="url(#p149245588b)" style="fill: #6a6a6a; stroke: #575757; stroke-width: 0.5"/>
   </g>
   <g id="Poly3DCollection_31">
    <path d="M 183.40743 218.646032 
L 183.441603 214.078945 
L 154.216934 208.914021 
L 154.208087 213.434596 
z
" clip-path="url(#p149245588b)" style="fill: #003d00; stroke: #002f00; stroke-width: 0.5"/>
    <path d="M 154.216934 208.914021 
L 137.475885 217.934451 
L 137.481434 222.536193 
L 154.208087 213.434596 
z
" clip-path="url(#p149245588b)" style="fill: #006a00; stroke: #005200; stroke-width: 0.5"/>
    <path d="M 137.481434 222.536193 
L 167.070023 227.956097 
L 183.40743 218.646032 
L 154.208087 213.434596 
z
" clip-path="url(#p149245588b)" style="fill: #007300; stroke: #005a00; stroke-width: 0.5"/>
    <path d="M 183.40743 218.646032 
L 167.070023 227.956097 
L 167.090481 223.306166 
L 183.441603 214.078945 
z
" clip-path="url(#p149245588b)" style="fill: #003d00; stroke: #002f00; stroke-width: 0.5"/>
    <path d="M 137.481434 222.536193 
L 137.475885 217.934451 
L 167.090481 223.306166 
L 167.070023 227.956097 
z
" clip-path="url(#p149245588b)" style="fill: #006a00; stroke: #005200; stroke-width: 0.5"/>
   </g>
   <g id="Poly3DCollection_32">
    <path d="M 150.17059 144.171167 
L 150.176049 139.539452 
L 121.320819 135.206047 
L 121.340053 139.789818 
z
" clip-path="url(#p149245588b)" style="fill: #551010; stroke: #3d0000; stroke-width: 0.5"/>
    <path d="M 121.320819 135.206047 
L 103.930338 142.77425 
L 103.965087 147.441701 
L 121.340053 139.789818 
z
" clip-path="url(#p149245588b)" style="fill: #931c1c; stroke: #6a0000; stroke-width: 0.5"/>
    <path d="M 150.17059 144.171167 
L 133.170091 151.998325 
L 133.160678 147.281164 
L 150.176049 139.539452 
z
" clip-path="url(#p149245588b)" style="fill: #551010; stroke: #3d0000; stroke-width: 0.5"/>
    <path d="M 103.965087 147.441701 
L 103.930338 142.77425 
L 133.160678 147.281164 
L 133.170091 151.998325 
z
" clip-path="url(#p149245588b)" style="fill: #931c1c; stroke: #6a0000; stroke-width: 0.5"/>
   </g>
   <g id="Poly3DCollection_33">
    <path d="M 183.441603 214.078945 
L 183.475836 209.50396 
L 154.225796 204.385716 
L 154.216934 208.914021 
z
" clip-path="url(#p149245588b)" style="fill: #003d00; stroke: #002f00; stroke-width: 0.5"/>
    <path d="M 154.225796 204.385716 
L 137.470325 213.324685 
L 137.475885 217.934451 
L 154.216934 208.914021 
z
" clip-path="url(#p149245588b)" style="fill: #006a00; stroke: #005200; stroke-width: 0.5"/>
    <path d="M 183.441603 214.078945 
L 167.090481 223.306166 
L 167.110976 218.648032 
L 183.475836 209.50396 
z
" clip-path="url(#p149245588b)" style="fill: #003d00; stroke: #002f00; stroke-width: 0.5"/>
    <path d="M 137.475885 217.934451 
L 137.470325 213.324685 
L 167.110976 218.648032 
L 167.090481 223.306166 
z
" clip-path="url(#p149245588b)" style="fill: #006a00; stroke: #005200; stroke-width: 0.5"/>
   </g>
   <g id="Poly3DCollection_34">
    <path d="M 150.176049 139.539452 
L 150.181517 134.899725 
L 121.301553 130.614438 
L 121.320819 135.206047 
z
" clip-path="url(#p149245588b)" style="fill: #551010; stroke: #3d0000; stroke-width: 0.5"/>
    <path d="M 121.301553 130.614438 
L 103.895528 138.098659 
L 103.930338 142.77425 
L 121.320819 135.206047 
z
" clip-path="url(#p149245588b)" style="fill: #931c1c; stroke: #6a0000; stroke-width: 0.5"/>
    <path d="M 150.176049 139.539452 
L 133.160678 147.281164 
L 133.151248 142.555682 
L 150.181517 134.899725 
z
" clip-path="url(#p149245588b)" style="fill: #551010; stroke: #3d0000; stroke-width: 0.5"/>
    <path d="M 103.930338 142.77425 
L 103.895528 138.098659 
L 133.151248 142.555682 
L 133.160678 147.281164 
z
" clip-path="url(#p149245588b)" style="fill: #931c1c; stroke: #6a0000; stroke-width: 0.5"/>
   </g>
   <g id="Poly3DCollection_35">
    <path d="M 183.475836 209.50396 
L 183.510127 204.921057 
L 154.234673 199.84966 
L 154.225796 204.385716 
z
" clip-path="url(#p149245588b)" style="fill: #003d00; stroke: #002f00; stroke-width: 0.5"/>
    <path d="M 154.234673 199.84966 
L 137.464756 208.706873 
L 137.470325 213.324685 
L 154.225796 204.385716 
z
" clip-path="url(#p149245588b)" style="fill: #006a00; stroke: #005200; stroke-width: 0.5"/>
    <path d="M 183.475836 209.50396 
L 167.110976 218.648032 
L 167.131507 213.981676 
L 183.510127 204.921057 
z
" clip-path="url(#p149245588b)" style="fill: #003d00; stroke: #002f00; stroke-width: 0.5"/>
    <path d="M 137.470325 213.324685 
L 137.464756 208.706873 
L 167.131507 213.981676 
L 167.110976 218.648032 
z
" clip-path="url(#p149245588b)" style="fill: #006a00; stroke: #005200; stroke-width: 0.5"/>
   </g>
   <g id="Poly3DCollection_36">
    <path d="M 150.181517 134.899725 
L 150.186995 130.251968 
L 121.282254 126.014969 
L 121.301553 130.614438 
z
" clip-path="url(#p149245588b)" style="fill: #551010; stroke: #3d0000; stroke-width: 0.5"/>
    <path d="M 121.282254 126.014969 
L 103.860657 133.414908 
L 103.895528 138.098659 
L 121.301553 130.614438 
z
" clip-path="url(#p149245588b)" style="fill: #931c1c; stroke: #6a0000; stroke-width: 0.5"/>
    <path d="M 150.181517 134.899725 
L 133.151248 142.555682 
L 133.141802 137.821857 
L 150.186995 130.251968 
z
" clip-path="url(#p149245588b)" style="fill: #551010; stroke: #3d0000; stroke-width: 0.5"/>
    <path d="M 103.895528 138.098659 
L 103.860657 133.414908 
L 133.141802 137.821857 
L 133.151248 142.555682 
z
" clip-path="url(#p149245588b)" style="fill: #931c1c; stroke: #6a0000; stroke-width: 0.5"/>
   </g>
   <g id="Poly3DCollection_37">
    <path d="M 183.510127 204.921057 
L 183.544479 200.330214 
L 154.243566 195.305835 
L 154.234673 199.84966 
z
" clip-path="url(#p149245588b)" style="fill: #003d00; stroke: #002f00; stroke-width: 0.5"/>
    <path d="M 154.243566 195.305835 
L 137.459177 204.080995 
L 137.464756 208.706873 
L 154.234673 199.84966 
z
" clip-path="url(#p149245588b)" style="fill: #006a00; stroke: #005200; stroke-width: 0.5"/>
    <path d="M 183.510127 204.921057 
L 167.131507 213.981676 
L 167.152074 209.307073 
L 183.544479 200.330214 
z
" clip-path="url(#p149245588b)" style="fill: #003d00; stroke: #002f00; stroke-width: 0.5"/>
    <path d="M 137.464756 208.706873 
L 137.459177 204.080995 
L 167.152074 209.307073 
L 167.131507 213.981676 
z
" clip-path="url(#p149245588b)" style="fill: #006a00; stroke: #005200; stroke-width: 0.5"/>
   </g>
   <g id="Poly3DCollection_38">
    <path d="M 150.186995 130.251968 
L 150.192483 125.596158 
L 121.262922 121.407621 
L 121.282254 126.014969 
z
" clip-path="url(#p149245588b)" style="fill: #551010; stroke: #3d0000; stroke-width: 0.5"/>
    <path d="M 121.262922 121.407621 
L 103.825726 128.722974 
L 103.860657 133.414908 
L 121.282254 126.014969 
z
" clip-path="url(#p149245588b)" style="fill: #931c1c; stroke: #6a0000; stroke-width: 0.5"/>
    <path d="M 150.186995 130.251968 
L 133.141802 137.821857 
L 133.132339 133.079667 
L 150.192483 125.596158 
z
" clip-path="url(#p149245588b)" style="fill: #551010; stroke: #3d0000; stroke-width: 0.5"/>
    <path d="M 103.860657 133.414908 
L 103.825726 128.722974 
L 133.132339 133.079667 
L 133.141802 137.821857 
z
" clip-path="url(#p149245588b)" style="fill: #931c1c; stroke: #6a0000; stroke-width: 0.5"/>
   </g>
   <g id="Poly3DCollection_39">
    <path d="M 183.544479 200.330214 
L 183.578889 195.731411 
L 154.252474 190.754219 
L 154.243566 195.305835 
z
" clip-path="url(#p149245588b)" style="fill: #003d00; stroke: #002f00; stroke-width: 0.5"/>
    <path d="M 154.252474 190.754219 
L 137.453589 199.44703 
L 137.459177 204.080995 
L 154.243566 195.305835 
z
" clip-path="url(#p149245588b)" style="fill: #006a00; stroke: #005200; stroke-width: 0.5"/>
    <path d="M 183.544479 200.330214 
L 167.152074 209.307073 
L 167.172678 204.624204 
L 183.578889 195.731411 
z
" clip-path="url(#p149245588b)" style="fill: #003d00; stroke: #002f00; stroke-width: 0.5"/>
    <path d="M 137.459177 204.080995 
L 137.453589 199.44703 
L 167.172678 204.624204 
L 167.152074 209.307073 
z
" clip-path="url(#p149245588b)" style="fill: #006a00; stroke: #005200; stroke-width: 0.5"/>
   </g>
   <g id="Poly3DCollection_40">
    <path d="M 150.192483 125.596158 
L 150.19798 120.932276 
L 121.243557 116.792373 
L 121.262922 121.407621 
z
" clip-path="url(#p149245588b)" style="fill: #551010; stroke: #3d0000; stroke-width: 0.5"/>
    <path d="M 121.243557 116.792373 
L 103.790733 124.022837 
L 103.825726 128.722974 
L 121.262922 121.407621 
z
" clip-path="url(#p149245588b)" style="fill: #931c1c; stroke: #6a0000; stroke-width: 0.5"/>
    <path d="M 150.192483 125.596158 
L 133.132339 133.079667 
L 133.122859 128.32909 
L 150.19798 120.932276 
z
" clip-path="url(#p149245588b)" style="fill: #551010; stroke: #3d0000; stroke-width: 0.5"/>
    <path d="M 103.825726 128.722974 
L 103.790733 124.022837 
L 133.122859 128.32909 
L 133.132339 133.079667 
z
" clip-path="url(#p149245588b)" style="fill: #931c1c; stroke: #6a0000; stroke-width: 0.5"/>
   </g>
   <g id="Poly3DCollection_41">
    <path d="M 183.578889 195.731411 
L 183.61336 191.124627 
L 154.261397 186.194792 
L 154.252474 190.754219 
z
" clip-path="url(#p149245588b)" style="fill: #003d00; stroke: #002f00; stroke-width: 0.5"/>
    <path d="M 154.261397 186.194792 
L 137.447991 194.804955 
L 137.453589 199.44703 
L 154.252474 190.754219 
z
" clip-path="url(#p149245588b)" style="fill: #006a00; stroke: #005200; stroke-width: 0.5"/>
    <path d="M 183.578889 195.731411 
L 167.172678 204.624204 
L 167.193318 199.933045 
L 183.61336 191.124627 
z
" clip-path="url(#p149245588b)" style="fill: #003d00; stroke: #002f00; stroke-width: 0.5"/>
    <path d="M 137.453589 199.44703 
L 137.447991 194.804955 
L 167.193318 199.933045 
L 167.172678 204.624204 
z
" clip-path="url(#p149245588b)" style="fill: #006a00; stroke: #005200; stroke-width: 0.5"/>
   </g>
   <g id="Poly3DCollection_42">
    <path d="M 150.19798 120.932276 
L 150.203487 116.260299 
L 121.224158 112.169206 
L 121.243557 116.792373 
z
" clip-path="url(#p149245588b)" style="fill: #551010; stroke: #3d0000; stroke-width: 0.5"/>
    <path d="M 121.224158 112.169206 
L 103.75568 119.314474 
L 103.790733 124.022837 
L 121.243557 116.792373 
z
" clip-path="url(#p149245588b)" style="fill: #931c1c; stroke: #6a0000; stroke-width: 0.5"/>
    <path d="M 150.19798 120.932276 
L 133.122859 128.32909 
L 133.113362 123.570103 
L 150.203487 116.260299 
z
" clip-path="url(#p149245588b)" style="fill: #551010; stroke: #3d0000; stroke-width: 0.5"/>
    <path d="M 103.790733 124.022837 
L 103.75568 119.314474 
L 133.113362 123.570103 
L 133.122859 128.32909 
z
" clip-path="url(#p149245588b)" style="fill: #931c1c; stroke: #6a0000; stroke-width: 0.5"/>
   </g>
   <g id="Poly3DCollection_43">
    <path d="M 183.61336 191.124627 
L 183.64789 186.509842 
L 154.270335 181.627536 
L 154.261397 186.194792 
z
" clip-path="url(#p149245588b)" style="fill: #003d00; stroke: #002f00; stroke-width: 0.5"/>
    <path d="M 154.270335 181.627536 
L 137.442382 190.15475 
L 137.447991 194.804955 
L 154.261397 186.194792 
z
" clip-path="url(#p149245588b)" style="fill: #006a00; stroke: #005200; stroke-width: 0.5"/>
    <path d="M 183.61336 191.124627 
L 167.193318 199.933045 
L 167.213995 195.233575 
L 183.64789 186.509842 
z
" clip-path="url(#p149245588b)" style="fill: #003d00; stroke: #002f00; stroke-width: 0.5"/>
    <path d="M 137.447991 194.804955 
L 137.442382 190.15475 
L 167.213995 195.233575 
L 167.193318 199.933045 
z
" clip-path="url(#p149245588b)" style="fill: #006a00; stroke: #005200; stroke-width: 0.5"/>
   </g>
   <g id="Poly3DCollection_44">
    <path d="M 150.203487 116.260299 
L 150.209003 111.580207 
L 121.204727 107.538098 
L 121.224158 112.169206 
z
" clip-path="url(#p149245588b)" style="fill: #551010; stroke: #3d0000; stroke-width: 0.5"/>
    <path d="M 121.204727 107.538098 
L 103.720565 114.597865 
L 103.75568 119.314474 
L 121.224158 112.169206 
z
" clip-path="url(#p149245588b)" style="fill: #931c1c; stroke: #6a0000; stroke-width: 0.5"/>
    <path d="M 150.203487 116.260299 
L 133.113362 123.570103 
L 133.103849 118.802684 
L 150.209003 111.580207 
z
" clip-path="url(#p149245588b)" style="fill: #551010; stroke: #3d0000; stroke-width: 0.5"/>
    <path d="M 103.75568 119.314474 
L 103.720565 114.597865 
L 133.103849 118.802684 
L 133.113362 123.570103 
z
" clip-path="url(#p149245588b)" style="fill: #931c1c; stroke: #6a0000; stroke-width: 0.5"/>
   </g>
   <g id="Poly3DCollection_45">
    <path d="M 183.64789 186.509842 
L 183.68248 181.887035 
L 154.279289 177.052429 
L 154.270335 181.627536 
z
" clip-path="url(#p149245588b)" style="fill: #3d3d3d; stroke: #323232; stroke-width: 0.5"/>
    <path d="M 183.64789 186.509842 
L 167.213995 195.233575 
L 167.234708 190.525771 
L 183.68248 181.887035 
z
" clip-path="url(#p149245588b)" style="fill: #3d3d3d; stroke: #323232; stroke-width: 0.5"/>
    <path d="M 137.442382 190.15475 
L 137.436764 185.496393 
L 167.234708 190.525771 
L 167.213995 195.233575 
z
" clip-path="url(#p149245588b)" style="fill: #6a6a6a; stroke: #575757; stroke-width: 0.5"/>
   </g>
   <g id="Poly3DCollection_46">
    <path d="M 150.209003 111.580207 
L 150.214528 106.891978 
L 121.185261 102.89903 
L 121.204727 107.538098 
z
" clip-path="url(#p149245588b)" style="fill: #551010; stroke: #3d0000; stroke-width: 0.5"/>
    <path d="M 121.185261 102.89903 
L 103.685388 109.872987 
L 103.720565 114.597865 
L 121.204727 107.538098 
z
" clip-path="url(#p149245588b)" style="fill: #931c1c; stroke: #6a0000; stroke-width: 0.5"/>
    <path d="M 150.209003 111.580207 
L 133.103849 118.802684 
L 133.094318 114.02681 
L 150.214528 106.891978 
z
" clip-path="url(#p149245588b)" style="fill: #551010; stroke: #3d0000; stroke-width: 0.5"/>
    <path d="M 103.720565 114.597865 
L 103.685388 109.872987 
L 133.094318 114.02681 
L 133.103849 118.802684 
z
" clip-path="url(#p149245588b)" style="fill: #931c1c; stroke: #6a0000; stroke-width: 0.5"/>
   </g>
   <g id="Poly3DCollection_47">
    <path d="M 183.68248 181.887035 
L 183.717131 177.256184 
L 154.288258 172.469451 
L 154.279289 177.052429 
z
" clip-path="url(#p149245588b)" style="fill: #3d3d3d; stroke: #323232; stroke-width: 0.5"/>
    <path d="M 183.68248 181.887035 
L 167.234708 190.525771 
L 167.255458 185.809612 
L 183.717131 177.256184 
z
" clip-path="url(#p149245588b)" style="fill: #3d3d3d; stroke: #323232; stroke-width: 0.5"/>
    <path d="M 137.436764 185.496393 
L 137.431137 180.829864 
L 167.255458 185.809612 
L 167.234708 190.525771 
z
" clip-path="url(#p149245588b)" style="fill: #6a6a6a; stroke: #575757; stroke-width: 0.5"/>
   </g>
   <g id="Poly3DCollection_48">
    <path d="M 150.214528 106.891978 
L 150.220064 102.195593 
L 121.165763 98.25198 
L 121.185261 102.89903 
z
" clip-path="url(#p149245588b)" style="fill: #551010; stroke: #3d0000; stroke-width: 0.5"/>
    <path d="M 121.165763 98.25198 
L 103.650149 105.139819 
L 103.685388 109.872987 
L 121.185261 102.89903 
z
" clip-path="url(#p149245588b)" style="fill: #931c1c; stroke: #6a0000; stroke-width: 0.5"/>
    <path d="M 150.214528 106.891978 
L 133.094318 114.02681 
L 133.084771 109.24246 
L 150.220064 102.195593 
z
" clip-path="url(#p149245588b)" style="fill: #551010; stroke: #3d0000; stroke-width: 0.5"/>
    <path d="M 103.685388 109.872987 
L 103.650149 105.139819 
L 133.084771 109.24246 
L 133.094318 114.02681 
z
" clip-path="url(#p149245588b)" style="fill: #931c1c; stroke: #6a0000; stroke-width: 0.5"/>
   </g>
   <g id="Poly3DCollection_49">
    <path d="M 183.717131 177.256184 
L 183.751842 172.61727 
L 154.297243 167.878582 
L 154.288258 172.469451 
z
" clip-path="url(#p149245588b)" style="fill: #3d3d3d; stroke: #323232; stroke-width: 0.5"/>
    <path d="M 183.717131 177.256184 
L 167.255458 185.809612 
L 167.276245 181.085075 
L 183.751842 172.61727 
z
" clip-path="url(#p149245588b)" style="fill: #3d3d3d; stroke: #323232; stroke-width: 0.5"/>
    <path d="M 137.431137 180.829864 
L 137.425499 176.15514 
L 167.276245 181.085075 
L 167.255458 185.809612 
z
" clip-path="url(#p149245588b)" style="fill: #6a6a6a; stroke: #575757; stroke-width: 0.5"/>
   </g>
   <g id="Poly3DCollection_50">
    <path d="M 150.220064 102.195593 
L 150.225609 97.491028 
L 121.14623 93.596928 
L 121.165763 98.25198 
z
" clip-path="url(#p149245588b)" style="fill: #551010; stroke: #3d0000; stroke-width: 0.5"/>
    <path d="M 121.14623 93.596928 
L 103.614849 100.398338 
L 103.650149 105.139819 
L 121.165763 98.25198 
z
" clip-path="url(#p149245588b)" style="fill: #931c1c; stroke: #6a0000; stroke-width: 0.5"/>
    <path d="M 150.220064 102.195593 
L 133.084771 109.24246 
L 133.075207 104.44961 
L 150.225609 97.491028 
z
" clip-path="url(#p149245588b)" style="fill: #551010; stroke: #3d0000; stroke-width: 0.5"/>
    <path d="M 103.650149 105.139819 
L 103.614849 100.398338 
L 133.075207 104.44961 
L 133.084771 109.24246 
z
" clip-path="url(#p149245588b)" style="fill: #931c1c; stroke: #6a0000; stroke-width: 0.5"/>
   </g>
   <g id="Poly3DCollection_51">
    <path d="M 183.751842 172.61727 
L 183.786613 167.97027 
L 154.306243 163.279801 
L 154.297243 167.878582 
z
" clip-path="url(#p149245588b)" style="fill: #3d3d3d; stroke: #323232; stroke-width: 0.5"/>
    <path d="M 183.751842 172.61727 
L 167.276245 181.085075 
L 167.297069 176.352138 
L 183.786613 167.97027 
z
" clip-path="url(#p149245588b)" style="fill: #3d3d3d; stroke: #323232; stroke-width: 0.5"/>
    <path d="M 137.425499 176.15514 
L 137.419851 171.472199 
L 167.297069 176.352138 
L 167.276245 181.085075 
z
" clip-path="url(#p149245588b)" style="fill: #6a6a6a; stroke: #575757; stroke-width: 0.5"/>
   </g>
   <g id="Poly3DCollection_52">
    <path d="M 150.225609 97.491028 
L 150.231163 92.778263 
L 121.126665 88.933853 
L 121.14623 93.596928 
z
" clip-path="url(#p149245588b)" style="fill: #551010; stroke: #3d0000; stroke-width: 0.5"/>
    <path d="M 121.126665 88.933853 
L 103.579487 95.648524 
L 103.614849 100.398338 
L 121.14623 93.596928 
z
" clip-path="url(#p149245588b)" style="fill: #931c1c; stroke: #6a0000; stroke-width: 0.5"/>
    <path d="M 150.225609 97.491028 
L 133.075207 104.44961 
L 133.065626 99.648238 
L 150.231163 92.778263 
z
" clip-path="url(#p149245588b)" style="fill: #551010; stroke: #3d0000; stroke-width: 0.5"/>
    <path d="M 103.614849 100.398338 
L 103.579487 95.648524 
L 133.065626 99.648238 
L 133.075207 104.44961 
z
" clip-path="url(#p149245588b)" style="fill: #931c1c; stroke: #6a0000; stroke-width: 0.5"/>
   </g>
   <g id="Poly3DCollection_53">
    <path d="M 183.786613 167.97027 
L 183.821445 163.315163 
L 154.315259 158.673089 
L 154.306243 163.279801 
z
" clip-path="url(#p149245588b)" style="fill: #3d3d3d; stroke: #323232; stroke-width: 0.5"/>
    <path d="M 183.786613 167.97027 
L 167.297069 176.352138 
L 167.31793 171.610779 
L 183.821445 163.315163 
z
" clip-path="url(#p149245588b)" style="fill: #3d3d3d; stroke: #323232; stroke-width: 0.5"/>
    <path d="M 137.419851 171.472199 
L 137.414194 166.781021 
L 167.31793 171.610779 
L 167.297069 176.352138 
z
" clip-path="url(#p149245588b)" style="fill: #6a6a6a; stroke: #575757; stroke-width: 0.5"/>
   </g>
   <g id="Poly3DCollection_54">
    <path d="M 150.231163 92.778263 
L 150.236728 88.057276 
L 121.107065 84.262736 
L 121.126665 88.933853 
z
" clip-path="url(#p149245588b)" style="fill: #551010; stroke: #3d0000; stroke-width: 0.5"/>
    <path d="M 121.107065 84.262736 
L 103.544062 90.890353 
L 103.579487 95.648524 
L 121.126665 88.933853 
z
" clip-path="url(#p149245588b)" style="fill: #931c1c; stroke: #6a0000; stroke-width: 0.5"/>
    <path d="M 150.231163 92.778263 
L 133.065626 99.648238 
L 133.056027 94.838321 
L 150.236728 88.057276 
z
" clip-path="url(#p149245588b)" style="fill: #551010; stroke: #3d0000; stroke-width: 0.5"/>
    <path d="M 103.579487 95.648524 
L 103.544062 90.890353 
L 133.056027 94.838321 
L 133.065626 99.648238 
z
" clip-path="url(#p149245588b)" style="fill: #931c1c; stroke: #6a0000; stroke-width: 0.5"/>
   </g>
   <g id="Poly3DCollection_55">
    <path d="M 183.821445 163.315163 
L 183.856338 158.651929 
L 154.32429 154.058424 
L 154.315259 158.673089 
z
" clip-path="url(#p149245588b)" style="fill: #3d3d3d; stroke: #323232; stroke-width: 0.5"/>
    <path d="M 183.821445 163.315163 
L 167.31793 171.610779 
L 167.338828 166.860974 
L 183.856338 158.651929 
z
" clip-path="url(#p149245588b)" style="fill: #3d3d3d; stroke: #323232; stroke-width: 0.5"/>
    <path d="M 137.414194 166.781021 
L 137.408526 162.081583 
L 167.338828 166.860974 
L 167.31793 171.610779 
z
" clip-path="url(#p149245588b)" style="fill: #6a6a6a; stroke: #575757; stroke-width: 0.5"/>
   </g>
   <g id="Poly3DCollection_56">
    <path d="M 150.236728 88.057276 
L 150.242302 83.328046 
L 121.087431 79.583553 
L 121.107065 84.262736 
z
" clip-path="url(#p149245588b)" style="fill: #551010; stroke: #3d0000; stroke-width: 0.5"/>
    <path d="M 121.087431 79.583553 
L 103.508575 86.123805 
L 103.544062 90.890353 
L 121.107065 84.262736 
z
" clip-path="url(#p149245588b)" style="fill: #931c1c; stroke: #6a0000; stroke-width: 0.5"/>
    <path d="M 150.236728 88.057276 
L 133.056027 94.838321 
L 133.046412 90.019836 
L 150.242302 83.328046 
z
" clip-path="url(#p149245588b)" style="fill: #551010; stroke: #3d0000; stroke-width: 0.5"/>
    <path d="M 103.544062 90.890353 
L 103.508575 86.123805 
L 133.046412 90.019836 
L 133.056027 94.838321 
z
" clip-path="url(#p149245588b)" style="fill: #931c1c; stroke: #6a0000; stroke-width: 0.5"/>
   </g>
   <g id="Poly3DCollection_57">
    <path d="M 183.856338 158.651929 
L 183.891291 153.980546 
L 154.333337 149.435785 
L 154.32429 154.058424 
z
" clip-path="url(#p149245588b)" style="fill: #3d3d3d; stroke: #323232; stroke-width: 0.5"/>
    <path d="M 154.333337 149.435785 
L 183.891291 153.980546 
L 167.359764 162.102702 
L 137.402848 157.373863 
z
" clip-path="url(#p149245588b)" style="fill: #343434; stroke: #2a2a2a; stroke-width: 0.5"/>
    <path d="M 183.856338 158.651929 
L 167.338828 166.860974 
L 167.359764 162.102702 
L 183.891291 153.980546 
z
" clip-path="url(#p149245588b)" style="fill: #3d3d3d; stroke: #323232; stroke-width: 0.5"/>
    <path d="M 137.408526 162.081583 
L 137.402848 157.373863 
L 167.359764 162.102702 
L 167.338828 166.860974 
z
" clip-path="url(#p149245588b)" style="fill: #6a6a6a; stroke: #575757; stroke-width: 0.5"/>
   </g>
   <g id="Poly3DCollection_58">
    <path d="M 150.242302 83.328046 
L 150.247886 78.590551 
L 121.067764 74.896286 
L 121.087431 79.583553 
z
" clip-path="url(#p149245588b)" style="fill: #551010; stroke: #3d0000; stroke-width: 0.5"/>
    <path d="M 121.067764 74.896286 
L 103.473026 81.348856 
L 103.508575 86.123805 
L 121.087431 79.583553 
z
" clip-path="url(#p149245588b)" style="fill: #931c1c; stroke: #6a0000; stroke-width: 0.5"/>
    <path d="M 150.242302 83.328046 
L 133.046412 90.019836 
L 133.036779 85.192761 
L 150.247886 78.590551 
z
" clip-path="url(#p149245588b)" style="fill: #551010; stroke: #3d0000; stroke-width: 0.5"/>
    <path d="M 103.508575 86.123805 
L 103.473026 81.348856 
L 133.036779 85.192761 
L 133.046412 90.019836 
z
" clip-path="url(#p149245588b)" style="fill: #931c1c; stroke: #6a0000; stroke-width: 0.5"/>
   </g>
   <g id="Poly3DCollection_59">
    <path d="M 150.247886 78.590551 
L 150.253479 73.84477 
L 121.048062 70.200913 
L 121.067764 74.896286 
z
" clip-path="url(#p149245588b)" style="fill: #551010; stroke: #3d0000; stroke-width: 0.5"/>
    <path d="M 121.048062 70.200913 
L 103.437414 76.565484 
L 103.473026 81.348856 
L 121.067764 74.896286 
z
" clip-path="url(#p149245588b)" style="fill: #931c1c; stroke: #6a0000; stroke-width: 0.5"/>
    <path d="M 150.247886 78.590551 
L 133.036779 85.192761 
L 133.02713 80.357071 
L 150.253479 73.84477 
z
" clip-path="url(#p149245588b)" style="fill: #551010; stroke: #3d0000; stroke-width: 0.5"/>
    <path d="M 103.473026 81.348856 
L 103.437414 76.565484 
L 133.02713 80.357071 
L 133.036779 85.192761 
z
" clip-path="url(#p149245588b)" style="fill: #931c1c; stroke: #6a0000; stroke-width: 0.5"/>
   </g>
   <g id="Poly3DCollection_60">
    <path d="M 150.253479 73.84477 
L 150.259083 69.09068 
L 121.028327 65.497413 
L 121.048062 70.200913 
z
" clip-path="url(#p149245588b)" style="fill: #551010; stroke: #3d0000; stroke-width: 0.5"/>
    <path d="M 121.028327 65.497413 
L 103.401739 71.773668 
L 103.437414 76.565484 
L 121.048062 70.200913 
z
" clip-path="url(#p149245588b)" style="fill: #931c1c; stroke: #6a0000; stroke-width: 0.5"/>
    <path d="M 150.253479 73.84477 
L 133.02713 80.357071 
L 133.017463 75.512746 
L 150.259083 69.09068 
z
" clip-path="url(#p149245588b)" style="fill: #551010; stroke: #3d0000; stroke-width: 0.5"/>
    <path d="M 103.437414 76.565484 
L 103.401739 71.773668 
L 133.017463 75.512746 
L 133.02713 80.357071 
z
" clip-path="url(#p149245588b)" style="fill: #931c1c; stroke: #6a0000; stroke-width: 0.5"/>
   </g>
   <g id="Poly3DCollection_61">
    <path d="M 150.259083 69.09068 
L 150.264696 64.328261 
L 121.008557 60.785764 
L 121.028327 65.497413 
z
" clip-path="url(#p149245588b)" style="fill: #551010; stroke: #3d0000; stroke-width: 0.5"/>
    <path d="M 121.008557 60.785764 
L 103.366 66.973385 
L 103.401739 71.773668 
L 121.028327 65.497413 
z
" clip-path="url(#p149245588b)" style="fill: #931c1c; stroke: #6a0000; stroke-width: 0.5"/>
    <path d="M 150.259083 69.09068 
L 133.017463 75.512746 
L 133.007778 70.65976 
L 150.264696 64.328261 
z
" clip-path="url(#p149245588b)" style="fill: #551010; stroke: #3d0000; stroke-width: 0.5"/>
    <path d="M 103.401739 71.773668 
L 103.366 66.973385 
L 133.007778 70.65976 
L 133.017463 75.512746 
z
" clip-path="url(#p149245588b)" style="fill: #931c1c; stroke: #6a0000; stroke-width: 0.5"/>
   </g>
   <g id="Poly3DCollection_62">
    <path d="M 150.264696 64.328261 
L 150.270319 59.557489 
L 120.988753 56.065946 
L 121.008557 60.785764 
z
" clip-path="url(#p149245588b)" style="fill: #551010; stroke: #3d0000; stroke-width: 0.5"/>
    <path d="M 120.988753 56.065946 
L 103.330199 62.164612 
L 103.366 66.973385 
L 121.008557 60.785764 
z
" clip-path="url(#p149245588b)" style="fill: #931c1c; stroke: #6a0000; stroke-width: 0.5"/>
    <path d="M 150.264696 64.328261 
L 133.007778 70.65976 
L 132.998077 65.798091 
L 150.270319 59.557489 
z
" clip-path="url(#p149245588b)" style="fill: #551010; stroke: #3d0000; stroke-width: 0.5"/>
    <path d="M 103.366 66.973385 
L 103.330199 62.164612 
L 132.998077 65.798091 
L 133.007778 70.65976 
z
" clip-path="url(#p149245588b)" style="fill: #931c1c; stroke: #6a0000; stroke-width: 0.5"/>
   </g>
   <g id="Poly3DCollection_63">
    <path d="M 150.270319 59.557489 
L 150.275952 54.778343 
L 120.968915 51.337937 
L 120.988753 56.065946 
z
" clip-path="url(#p149245588b)" style="fill: #551010; stroke: #3d0000; stroke-width: 0.5"/>
    <path d="M 120.968915 51.337937 
L 103.294335 57.347326 
L 103.330199 62.164612 
L 120.988753 56.065946 
z
" clip-path="url(#p149245588b)" style="fill: #931c1c; stroke: #6a0000; stroke-width: 0.5"/>
    <path d="M 150.270319 59.557489 
L 132.998077 65.798091 
L 132.988358 60.927716 
L 150.275952 54.778343 
z
" clip-path="url(#p149245588b)" style="fill: #551010; stroke: #3d0000; stroke-width: 0.5"/>
    <path d="M 103.330199 62.164612 
L 103.294335 57.347326 
L 132.988358 60.927716 
L 132.998077 65.798091 
z
" clip-path="url(#p149245588b)" style="fill: #931c1c; stroke: #6a0000; stroke-width: 0.5"/>
   </g>
   <g id="Poly3DCollection_64">
    <path d="M 150.275952 54.778343 
L 150.281594 49.990801 
L 120.949042 46.601716 
L 120.968915 51.337937 
z
" clip-path="url(#p149245588b)" style="fill: #551010; stroke: #3d0000; stroke-width: 0.5"/>
    <path d="M 120.949042 46.601716 
L 103.258406 52.521506 
L 103.294335 57.347326 
L 120.968915 51.337937 
z
" clip-path="url(#p149245588b)" style="fill: #931c1c; stroke: #6a0000; stroke-width: 0.5"/>
    <path d="M 150.275952 54.778343 
L 132.988358 60.927716 
L 132.978622 56.04861 
L 150.281594 49.990801 
z
" clip-path="url(#p149245588b)" style="fill: #551010; stroke: #3d0000; stroke-width: 0.5"/>
    <path d="M 103.294335 57.347326 
L 103.258406 52.521506 
L 132.978622 56.04861 
L 132.988358 60.927716 
z
" clip-path="url(#p149245588b)" style="fill: #931c1c; stroke: #6a0000; stroke-width: 0.5"/>
   </g>
   <g id="Poly3DCollection_65">
    <path d="M 150.281594 49.990801 
L 150.287247 45.19484 
L 120.929135 41.857262 
L 120.949042 46.601716 
z
" clip-path="url(#p149245588b)" style="fill: #551010; stroke: #3d0000; stroke-width: 0.5"/>
    <path d="M 120.929135 41.857262 
L 103.222414 47.687129 
L 103.258406 52.521506 
L 120.949042 46.601716 
z
" clip-path="url(#p149245588b)" style="fill: #931c1c; stroke: #6a0000; stroke-width: 0.5"/>
    <path d="M 150.281594 49.990801 
L 132.978622 56.04861 
L 132.968868 51.160752 
L 150.287247 45.19484 
z
" clip-path="url(#p149245588b)" style="fill: #551010; stroke: #3d0000; stroke-width: 0.5"/>
    <path d="M 103.258406 52.521506 
L 103.222414 47.687129 
L 132.968868 51.160752 
L 132.978622 56.04861 
z
" clip-path="url(#p149245588b)" style="fill: #931c1c; stroke: #6a0000; stroke-width: 0.5"/>
   </g>
   <g id="Poly3DCollection_66">
    <path d="M 150.287247 45.19484 
L 150.29291 40.39044 
L 120.909192 37.104552 
L 120.929135 41.857262 
z
" clip-path="url(#p149245588b)" style="fill: #551010; stroke: #3d0000; stroke-width: 0.5"/>
    <path d="M 120.909192 37.104552 
L 103.186359 42.844171 
L 103.222414 47.687129 
L 120.929135 41.857262 
z
" clip-path="url(#p149245588b)" style="fill: #931c1c; stroke: #6a0000; stroke-width: 0.5"/>
    <path d="M 150.287247 45.19484 
L 132.968868 51.160752 
L 132.959097 46.264116 
L 150.29291 40.39044 
z
" clip-path="url(#p149245588b)" style="fill: #551010; stroke: #3d0000; stroke-width: 0.5"/>
    <path d="M 103.222414 47.687129 
L 103.186359 42.844171 
L 132.959097 46.264116 
L 132.968868 51.160752 
z
" clip-path="url(#p149245588b)" style="fill: #931c1c; stroke: #6a0000; stroke-width: 0.5"/>
   </g>
   <g id="Poly3DCollection_67">
    <path d="M 150.29291 40.39044 
L 150.298582 35.577576 
L 120.889216 32.343567 
L 120.909192 37.104552 
z
" clip-path="url(#p149245588b)" style="fill: #551010; stroke: #3d0000; stroke-width: 0.5"/>
    <path d="M 120.889216 32.343567 
L 103.150239 37.99261 
L 103.186359 42.844171 
L 120.909192 37.104552 
z
" clip-path="url(#p149245588b)" style="fill: #931c1c; stroke: #6a0000; stroke-width: 0.5"/>
    <path d="M 150.29291 40.39044 
L 132.959097 46.264116 
L 132.949308 41.35868 
L 150.298582 35.577576 
z
" clip-path="url(#p149245588b)" style="fill: #551010; stroke: #3d0000; stroke-width: 0.5"/>
    <path d="M 103.186359 42.844171 
L 103.150239 37.99261 
L 132.949308 41.35868 
L 132.959097 46.264116 
z
" clip-path="url(#p149245588b)" style="fill: #931c1c; stroke: #6a0000; stroke-width: 0.5"/>
   </g>
   <g id="Poly3DCollection_68">
    <path d="M 150.298582 35.577576 
L 150.304265 30.756227 
L 120.869204 27.574283 
L 120.889216 32.343567 
z
" clip-path="url(#p149245588b)" style="fill: #796600; stroke: #794e00; stroke-width: 0.5"/>
    <path d="M 120.869204 27.574283 
L 103.114055 33.132423 
L 103.150239 37.99261 
L 120.889216 32.343567 
z
" clip-path="url(#p149245588b)" style="fill: #d2b100; stroke: #d28800; stroke-width: 0.5"/>
    <path d="M 150.298582 35.577576 
L 132.949308 41.35868 
L 132.939501 36.444419 
L 150.304265 30.756227 
z
" clip-path="url(#p149245588b)" style="fill: #796600; stroke: #794e00; stroke-width: 0.5"/>
    <path d="M 103.150239 37.99261 
L 103.114055 33.132423 
L 132.939501 36.444419 
L 132.949308 41.35868 
z
" clip-path="url(#p149245588b)" style="fill: #d2b100; stroke: #d28800; stroke-width: 0.5"/>
   </g>
   <g id="Poly3DCollection_69">
    <path d="M 150.304265 30.756227 
L 150.309958 25.926371 
L 120.849158 22.796679 
L 120.869204 27.574283 
z
" clip-path="url(#p149245588b)" style="fill: #796600; stroke: #794e00; stroke-width: 0.5"/>
    <path d="M 120.849158 22.796679 
L 103.077806 28.263586 
L 103.114055 33.132423 
L 120.869204 27.574283 
z
" clip-path="url(#p149245588b)" style="fill: #d2b100; stroke: #d28800; stroke-width: 0.5"/>
    <path d="M 150.304265 30.756227 
L 132.939501 36.444419 
L 132.929677 31.52131 
L 150.309958 25.926371 
z
" clip-path="url(#p149245588b)" style="fill: #796600; stroke: #794e00; stroke-width: 0.5"/>
    <path d="M 103.114055 33.132423 
L 103.077806 28.263586 
L 132.929677 31.52131 
L 132.939501 36.444419 
z
" clip-path="url(#p149245588b)" style="fill: #d2b100; stroke: #d28800; stroke-width: 0.5"/>
   </g>
   <g id="Poly3DCollection_70">
    <path d="M 150.309958 25.926371 
L 150.31566 21.087984 
L 120.829076 18.010733 
L 120.849158 22.796679 
z
" clip-path="url(#p149245588b)" style="fill: #796600; stroke: #794e00; stroke-width: 0.5"/>
    <path d="M 120.829076 18.010733 
L 103.041493 23.386078 
L 103.077806 28.263586 
L 120.849158 22.796679 
z
" clip-path="url(#p149245588b)" style="fill: #d2b100; stroke: #d28800; stroke-width: 0.5"/>
    <path d="M 150.309958 25.926371 
L 132.929677 31.52131 
L 132.919835 26.589329 
L 150.31566 21.087984 
z
" clip-path="url(#p149245588b)" style="fill: #796600; stroke: #794e00; stroke-width: 0.5"/>
    <path d="M 103.077806 28.263586 
L 103.041493 23.386078 
L 132.919835 26.589329 
L 132.929677 31.52131 
z
" clip-path="url(#p149245588b)" style="fill: #d2b100; stroke: #d28800; stroke-width: 0.5"/>
   </g>
   <g id="Poly3DCollection_71">
    <path d="M 150.31566 21.087984 
L 150.321373 16.241045 
L 120.80896 13.216424 
L 120.829076 18.010733 
z
" clip-path="url(#p149245588b)" style="fill: #796600; stroke: #794e00; stroke-width: 0.5"/>
    <path d="M 120.80896 13.216424 
L 103.005115 18.499874 
L 103.041493 23.386078 
L 120.829076 18.010733 
z
" clip-path="url(#p149245588b)" style="fill: #d2b100; stroke: #d28800; stroke-width: 0.5"/>
    <path d="M 150.31566 21.087984 
L 132.919835 26.589329 
L 132.909976 21.648452 
L 150.321373 16.241045 
z
" clip-path="url(#p149245588b)" style="fill: #796600; stroke: #794e00; stroke-width: 0.5"/>
    <path d="M 103.041493 23.386078 
L 103.005115 18.499874 
L 132.909976 21.648452 
L 132.919835 26.589329 
z
" clip-path="url(#p149245588b)" style="fill: #d2b100; stroke: #d28800; stroke-width: 0.5"/>
   </g>
   <g id="Poly3DCollection_72">
    <path d="M 150.321373 16.241045 
L 150.327096 11.38553 
L 120.788808 8.41373 
L 120.80896 13.216424 
z
" clip-path="url(#p149245588b)" style="fill: #796600; stroke: #794e00; stroke-width: 0.5"/>
    <path d="M 120.788808 8.41373 
L 102.968673 13.604951 
L 103.005115 18.499874 
L 120.80896 13.216424 
z
" clip-path="url(#p149245588b)" style="fill: #d2b100; stroke: #d28800; stroke-width: 0.5"/>
    <path d="M 120.788808 8.41373 
L 150.327096 11.38553 
L 132.900098 16.698655 
L 102.968673 13.604951 
z
" clip-path="url(#p149245588b)" style="fill: #675700; stroke: #674200; stroke-width: 0.5"/>
    <path d="M 150.321373 16.241045 
L 132.909976 21.648452 
L 132.900098 16.698655 
L 150.327096 11.38553 
z
" clip-path="url(#p149245588b)" style="fill: #796600; stroke: #794e00; stroke-width: 0.5"/>
    <path d="M 103.005115 18.499874 
L 102.968673 13.604951 
L 132.900098 16.698655 
L 132.909976 21.648452 
z
" clip-path="url(#p149245588b)" style="fill: #d2b100; stroke: #d28800; stroke-width: 0.5"/>
   </g>
  </g>
 </g>
 <defs>
  <clipPath id="p149245588b">
   <rect x="7.2" y="7.2" width="266.112" height="266.112"/>
  </clipPath>
 </defs>
</svg>
