<?xml version="1.0" encoding="utf-8" standalone="no"?>
<!DOCTYPE svg PUBLIC "-//W3C//DTD SVG 1.1//EN"
  "http://www.w3.org/Graphics/SVG/1.1/DTD/svg11.dtd">
<svg xmlns:xlink="http://www.w3.org/1999/xlink" width="280.512pt" height="280.512pt" viewBox="0 0 280.512 280.512" xmlns="http://www.w3.org/2000/svg" version="1.1">
 <metadata>
  <rdf:RDF xmlns:dc="http://purl.org/dc/elements/1.1/" xmlns:cc="http://creativecommons.org/ns#" xmlns:rdf="http://www.w3.org/1999/02/22-rdf-syntax-ns#">
   <cc:Work>
    <dc:type rdf:resource="http://purl.org/dc/dcmitype/StillImage"/>
    <dc:date>2024-11-10T18:33:50.635961</dc:date>
    <dc:format>image/svg+xml</dc:format>
    <dc:creator>
     <cc:Agent>
      <dc:title>Matplotlib v3.9.2, https://matplotlib.org/</dc:title>
     </cc:Agent>
    </dc:creator>
   </cc:Work>
  </rdf:RDF>
 </metadata>
 <defs>
  <style type="text/css">*{stroke-linejoin: round; stroke-linecap: butt}</style>
 </defs>
 <g id="figure_1">
  <g id="patch_1">
   <path d="M 0 280.512 
L 280.512 280.512 
L 280.512 0 
L 0 0 
z
" style="fill: #ffffff"/>
  </g>
  <g id="patch_2">
   <path d="M 7.2 273.312 
L 273.312 273.312 
L 273.312 7.2 
L 7.2 7.2 
z
" style="fill: #ffffff"/>
  </g>
  <g id="axes_1">
   <g id="Poly3DCollection_1">
    <path d="M 150.156262 248.187234 
L 150.161697 243.655695 
L 121.371385 238.17272 
L 121.390532 242.658515 
z
" clip-path="url(#p3d084b075f)" style="fill: #797979; stroke: #646464; stroke-width: 0.5"/>
    <path d="M 121.371385 238.17272 
L 104.021693 247.748443 
L 104.056284 252.314059 
L 121.390532 242.658515 
z
" clip-path="url(#p3d084b075f)" style="fill: #d2d2d2; stroke: #aeaeae; stroke-width: 0.5"/>
    <path d="M 104.056284 252.314059 
L 133.194794 258.063438 
L 150.156262 248.187234 
L 121.390532 242.658515 
z
" clip-path="url(#p3d084b075f)" style="fill: #e5e5e5; stroke: #bdbdbd; stroke-width: 0.5"/>
    <path d="M 150.156262 248.187234 
L 133.194794 258.063438 
L 133.185425 253.450446 
L 150.161697 243.655695 
z
" clip-path="url(#p3d084b075f)" style="fill: #797979; stroke: #646464; stroke-width: 0.5"/>
    <path d="M 104.056284 252.314059 
L 104.021693 247.748443 
L 133.185425 253.450446 
L 133.194794 258.063438 
z
" clip-path="url(#p3d084b075f)" style="fill: #d2d2d2; stroke: #aeaeae; stroke-width: 0.5"/>
   </g>
   <g id="Poly3DCollection_2">
    <path d="M 150.161697 243.655695 
L 150.16714 239.116337 
L 121.352205 233.679271 
L 121.371385 238.17272 
z
" clip-path="url(#p3d084b075f)" style="fill: #797979; stroke: #646464; stroke-width: 0.5"/>
    <path d="M 121.352205 233.679271 
L 103.987043 243.174884 
L 104.021693 247.748443 
L 121.371385 238.17272 
z
" clip-path="url(#p3d084b075f)" style="fill: #d2d2d2; stroke: #aeaeae; stroke-width: 0.5"/>
    <path d="M 150.161697 243.655695 
L 133.185425 253.450446 
L 133.176039 248.829336 
L 150.16714 239.116337 
z
" clip-path="url(#p3d084b075f)" style="fill: #797979; stroke: #646464; stroke-width: 0.5"/>
    <path d="M 104.021693 247.748443 
L 103.987043 243.174884 
L 133.176039 248.829336 
L 133.185425 253.450446 
z
" clip-path="url(#p3d084b075f)" style="fill: #d2d2d2; stroke: #aeaeae; stroke-width: 0.5"/>
   </g>
   <g id="Poly3DCollection_3">
    <path d="M 150.16714 239.116337 
L 150.172594 234.569139 
L 121.332993 229.178148 
L 121.352205 233.679271 
z
" clip-path="url(#p3d084b075f)" style="fill: #797979; stroke: #646464; stroke-width: 0.5"/>
    <path d="M 121.332993 229.178148 
L 103.952332 238.59336 
L 103.987043 243.174884 
L 121.352205 233.679271 
z
" clip-path="url(#p3d084b075f)" style="fill: #d2d2d2; stroke: #aeaeae; stroke-width: 0.5"/>
    <path d="M 150.16714 239.116337 
L 133.176039 248.829336 
L 133.166636 244.200085 
L 150.172594 234.569139 
z
" clip-path="url(#p3d084b075f)" style="fill: #797979; stroke: #646464; stroke-width: 0.5"/>
    <path d="M 103.987043 243.174884 
L 103.952332 238.59336 
L 133.166636 244.200085 
L 133.176039 248.829336 
z
" clip-path="url(#p3d084b075f)" style="fill: #d2d2d2; stroke: #aeaeae; stroke-width: 0.5"/>
   </g>
   <g id="Poly3DCollection_4">
    <path d="M 150.172594 234.569139 
L 150.178056 230.014081 
L 121.313748 224.669332 
L 121.332993 229.178148 
z
" clip-path="url(#p3d084b075f)" style="fill: #797979; stroke: #646464; stroke-width: 0.5"/>
    <path d="M 121.313748 224.669332 
L 103.91756 234.003851 
L 103.952332 238.59336 
L 121.332993 229.178148 
z
" clip-path="url(#p3d084b075f)" style="fill: #d2d2d2; stroke: #aeaeae; stroke-width: 0.5"/>
    <path d="M 150.172594 234.569139 
L 133.166636 244.200085 
L 133.157217 239.562674 
L 150.178056 230.014081 
z
" clip-path="url(#p3d084b075f)" style="fill: #797979; stroke: #646464; stroke-width: 0.5"/>
    <path d="M 103.952332 238.59336 
L 103.91756 234.003851 
L 133.157217 239.562674 
L 133.166636 244.200085 
z
" clip-path="url(#p3d084b075f)" style="fill: #d2d2d2; stroke: #aeaeae; stroke-width: 0.5"/>
   </g>
   <g id="Poly3DCollection_5">
    <path d="M 150.178056 230.014081 
L 150.183528 225.451142 
L 121.294469 220.152802 
L 121.313748 224.669332 
z
" clip-path="url(#p3d084b075f)" style="fill: #797979; stroke: #646464; stroke-width: 0.5"/>
    <path d="M 121.294469 220.152802 
L 103.882728 229.406336 
L 103.91756 234.003851 
L 121.313748 224.669332 
z
" clip-path="url(#p3d084b075f)" style="fill: #d2d2d2; stroke: #aeaeae; stroke-width: 0.5"/>
    <path d="M 150.178056 230.014081 
L 133.157217 239.562674 
L 133.147781 234.917079 
L 150.183528 225.451142 
z
" clip-path="url(#p3d084b075f)" style="fill: #797979; stroke: #646464; stroke-width: 0.5"/>
    <path d="M 103.91756 234.003851 
L 103.882728 229.406336 
L 133.147781 234.917079 
L 133.157217 239.562674 
z
" clip-path="url(#p3d084b075f)" style="fill: #d2d2d2; stroke: #aeaeae; stroke-width: 0.5"/>
   </g>
   <g id="Poly3DCollection_6">
    <path d="M 150.183528 225.451142 
L 150.18901 220.880303 
L 121.275158 215.62854 
L 121.294469 220.152802 
z
" clip-path="url(#p3d084b075f)" style="fill: #797979; stroke: #646464; stroke-width: 0.5"/>
    <path d="M 121.275158 215.62854 
L 103.847836 224.800794 
L 103.882728 229.406336 
L 121.294469 220.152802 
z
" clip-path="url(#p3d084b075f)" style="fill: #d2d2d2; stroke: #aeaeae; stroke-width: 0.5"/>
    <path d="M 150.183528 225.451142 
L 133.147781 234.917079 
L 133.138328 230.263279 
L 150.18901 220.880303 
z
" clip-path="url(#p3d084b075f)" style="fill: #797979; stroke: #646464; stroke-width: 0.5"/>
    <path d="M 103.882728 229.406336 
L 103.847836 224.800794 
L 133.138328 230.263279 
L 133.147781 234.917079 
z
" clip-path="url(#p3d084b075f)" style="fill: #d2d2d2; stroke: #aeaeae; stroke-width: 0.5"/>
   </g>
   <g id="Poly3DCollection_7">
    <path d="M 150.18901 220.880303 
L 150.194501 216.301542 
L 121.255814 211.096524 
L 121.275158 215.62854 
z
" clip-path="url(#p3d084b075f)" style="fill: #797979; stroke: #646464; stroke-width: 0.5"/>
    <path d="M 121.255814 211.096524 
L 103.812882 220.187203 
L 103.847836 224.800794 
L 121.275158 215.62854 
z
" clip-path="url(#p3d084b075f)" style="fill: #d2d2d2; stroke: #aeaeae; stroke-width: 0.5"/>
    <path d="M 150.18901 220.880303 
L 133.138328 230.263279 
L 133.128859 225.601253 
L 150.194501 216.301542 
z
" clip-path="url(#p3d084b075f)" style="fill: #797979; stroke: #646464; stroke-width: 0.5"/>
    <path d="M 103.847836 224.800794 
L 103.812882 220.187203 
L 133.128859 225.601253 
L 133.138328 230.263279 
z
" clip-path="url(#p3d084b075f)" style="fill: #d2d2d2; stroke: #aeaeae; stroke-width: 0.5"/>
   </g>
   <g id="Poly3DCollection_8">
    <path d="M 150.194501 216.301542 
L 150.200001 211.71484 
L 121.236437 206.556736 
L 121.255814 211.096524 
z
" clip-path="url(#p3d084b075f)" style="fill: #797979; stroke: #646464; stroke-width: 0.5"/>
    <path d="M 121.236437 206.556736 
L 103.777867 215.565543 
L 103.812882 220.187203 
L 121.255814 211.096524 
z
" clip-path="url(#p3d084b075f)" style="fill: #d2d2d2; stroke: #aeaeae; stroke-width: 0.5"/>
    <path d="M 150.194501 216.301542 
L 133.128859 225.601253 
L 133.119373 220.930979 
L 150.200001 211.71484 
z
" clip-path="url(#p3d084b075f)" style="fill: #797979; stroke: #646464; stroke-width: 0.5"/>
    <path d="M 103.812882 220.187203 
L 103.777867 215.565543 
L 133.119373 220.930979 
L 133.128859 225.601253 
z
" clip-path="url(#p3d084b075f)" style="fill: #d2d2d2; stroke: #aeaeae; stroke-width: 0.5"/>
   </g>
   <g id="Poly3DCollection_9">
    <path d="M 150.200001 211.71484 
L 150.205511 207.120174 
L 121.217026 202.009155 
L 121.236437 206.556736 
z
" clip-path="url(#p3d084b075f)" style="fill: #797979; stroke: #646464; stroke-width: 0.5"/>
    <path d="M 121.217026 202.009155 
L 103.742791 210.935793 
L 103.777867 215.565543 
L 121.236437 206.556736 
z
" clip-path="url(#p3d084b075f)" style="fill: #d2d2d2; stroke: #aeaeae; stroke-width: 0.5"/>
    <path d="M 150.200001 211.71484 
L 133.119373 220.930979 
L 133.10987 216.252435 
L 150.205511 207.120174 
z
" clip-path="url(#p3d084b075f)" style="fill: #797979; stroke: #646464; stroke-width: 0.5"/>
    <path d="M 103.777867 215.565543 
L 103.742791 210.935793 
L 133.10987 216.252435 
L 133.119373 220.930979 
z
" clip-path="url(#p3d084b075f)" style="fill: #d2d2d2; stroke: #aeaeae; stroke-width: 0.5"/>
   </g>
   <g id="Poly3DCollection_10">
    <path d="M 150.205511 207.120174 
L 150.211031 202.517526 
L 121.197582 197.45376 
L 121.217026 202.009155 
z
" clip-path="url(#p3d084b075f)" style="fill: #797979; stroke: #646464; stroke-width: 0.5"/>
    <path d="M 121.197582 197.45376 
L 103.707653 206.297931 
L 103.742791 210.935793 
L 121.217026 202.009155 
z
" clip-path="url(#p3d084b075f)" style="fill: #d2d2d2; stroke: #aeaeae; stroke-width: 0.5"/>
    <path d="M 150.205511 207.120174 
L 133.10987 216.252435 
L 133.10035 211.565598 
L 150.211031 202.517526 
z
" clip-path="url(#p3d084b075f)" style="fill: #797979; stroke: #646464; stroke-width: 0.5"/>
    <path d="M 103.742791 210.935793 
L 103.707653 206.297931 
L 133.10035 211.565598 
L 133.10987 216.252435 
z
" clip-path="url(#p3d084b075f)" style="fill: #d2d2d2; stroke: #aeaeae; stroke-width: 0.5"/>
   </g>
   <g id="Poly3DCollection_11">
    <path d="M 150.211031 202.517526 
L 150.21656 197.906873 
L 121.178104 192.890533 
L 121.197582 197.45376 
z
" clip-path="url(#p3d084b075f)" style="fill: #3d3d3d; stroke: #323232; stroke-width: 0.5"/>
    <path d="M 121.178104 192.890533 
L 103.672453 201.651936 
L 103.707653 206.297931 
L 121.197582 197.45376 
z
" clip-path="url(#p3d084b075f)" style="fill: #6a6a6a; stroke: #575757; stroke-width: 0.5"/>
    <path d="M 103.707653 206.297931 
L 103.672453 201.651936 
L 133.090814 206.870448 
L 133.10035 211.565598 
z
" clip-path="url(#p3d084b075f)" style="fill: #6a6a6a; stroke: #575757; stroke-width: 0.5"/>
   </g>
   <g id="Poly3DCollection_12">
    <path d="M 150.21656 197.906873 
L 150.222099 193.288195 
L 121.158593 188.319452 
L 121.178104 192.890533 
z
" clip-path="url(#p3d084b075f)" style="fill: #3d3d3d; stroke: #323232; stroke-width: 0.5"/>
    <path d="M 121.158593 188.319452 
L 103.637192 196.997786 
L 103.672453 201.651936 
L 121.178104 192.890533 
z
" clip-path="url(#p3d084b075f)" style="fill: #6a6a6a; stroke: #575757; stroke-width: 0.5"/>
    <path d="M 103.672453 201.651936 
L 103.637192 196.997786 
L 133.08126 202.16696 
L 133.090814 206.870448 
z
" clip-path="url(#p3d084b075f)" style="fill: #6a6a6a; stroke: #575757; stroke-width: 0.5"/>
   </g>
   <g id="Poly3DCollection_13">
    <path d="M 154.409651 203.250318 
L 154.418846 198.63281 
L 150.21656 197.906873 
L 150.211031 202.517526 
z
" clip-path="url(#p3d084b075f)" style="fill: #3d3d3d; stroke: #323232; stroke-width: 0.5"/>
    <path d="M 133.10035 211.565598 
L 137.354948 212.328094 
L 154.409651 203.250318 
L 150.211031 202.517526 
z
" clip-path="url(#p3d084b075f)" style="fill: #737373; stroke: #5e5e5e; stroke-width: 0.5"/>
    <path d="M 133.10035 211.565598 
L 133.090814 206.870448 
L 137.349176 207.625837 
L 137.354948 212.328094 
z
" clip-path="url(#p3d084b075f)" style="fill: #6a6a6a; stroke: #575757; stroke-width: 0.5"/>
   </g>
   <g id="Poly3DCollection_14">
    <path d="M 150.222099 193.288195 
L 150.227648 188.66147 
L 121.139049 183.740498 
L 121.158593 188.319452 
z
" clip-path="url(#p3d084b075f)" style="fill: #3d3d3d; stroke: #323232; stroke-width: 0.5"/>
    <path d="M 121.139049 183.740498 
L 103.601869 192.33546 
L 103.637192 196.997786 
L 121.158593 188.319452 
z
" clip-path="url(#p3d084b075f)" style="fill: #6a6a6a; stroke: #575757; stroke-width: 0.5"/>
    <path d="M 103.637192 196.997786 
L 103.601869 192.33546 
L 133.07169 197.455115 
L 133.08126 202.16696 
z
" clip-path="url(#p3d084b075f)" style="fill: #6a6a6a; stroke: #575757; stroke-width: 0.5"/>
   </g>
   <g id="Poly3DCollection_15">
    <path d="M 154.418846 198.63281 
L 154.428057 194.007252 
L 150.222099 193.288195 
L 150.21656 197.906873 
z
" clip-path="url(#p3d084b075f)" style="fill: #3d3d3d; stroke: #323232; stroke-width: 0.5"/>
    <path d="M 133.090814 206.870448 
L 133.08126 202.16696 
L 137.343393 202.915217 
L 137.349176 207.625837 
z
" clip-path="url(#p3d084b075f)" style="fill: #6a6a6a; stroke: #575757; stroke-width: 0.5"/>
   </g>
   <g id="Poly3DCollection_16">
    <path d="M 150.227648 188.66147 
L 150.233206 184.026679 
L 121.11947 179.15365 
L 121.139049 183.740498 
z
" clip-path="url(#p3d084b075f)" style="fill: #3d3d3d; stroke: #323232; stroke-width: 0.5"/>
    <path d="M 121.11947 179.15365 
L 103.566484 187.664937 
L 103.601869 192.33546 
L 121.139049 183.740498 
z
" clip-path="url(#p3d084b075f)" style="fill: #6a6a6a; stroke: #575757; stroke-width: 0.5"/>
    <path d="M 103.601869 192.33546 
L 103.566484 187.664937 
L 133.062102 192.734888 
L 133.07169 197.455115 
z
" clip-path="url(#p3d084b075f)" style="fill: #6a6a6a; stroke: #575757; stroke-width: 0.5"/>
   </g>
   <g id="Poly3DCollection_17">
    <path d="M 154.428057 194.007252 
L 154.437284 189.373622 
L 150.227648 188.66147 
L 150.222099 193.288195 
z
" clip-path="url(#p3d084b075f)" style="fill: #3d3d3d; stroke: #323232; stroke-width: 0.5"/>
    <path d="M 133.08126 202.16696 
L 133.07169 197.455115 
L 137.3376 198.196212 
L 137.343393 202.915217 
z
" clip-path="url(#p3d084b075f)" style="fill: #6a6a6a; stroke: #575757; stroke-width: 0.5"/>
   </g>
   <g id="Poly3DCollection_18">
    <path d="M 150.233206 184.026679 
L 150.238774 179.383799 
L 121.099858 174.558887 
L 121.11947 179.15365 
z
" clip-path="url(#p3d084b075f)" style="fill: #3d3d3d; stroke: #323232; stroke-width: 0.5"/>
    <path d="M 121.099858 174.558887 
L 103.531037 182.986194 
L 103.566484 187.664937 
L 121.11947 179.15365 
z
" clip-path="url(#p3d084b075f)" style="fill: #6a6a6a; stroke: #575757; stroke-width: 0.5"/>
    <path d="M 103.566484 187.664937 
L 103.531037 182.986194 
L 133.052498 188.006258 
L 133.062102 192.734888 
z
" clip-path="url(#p3d084b075f)" style="fill: #6a6a6a; stroke: #575757; stroke-width: 0.5"/>
   </g>
   <g id="Poly3DCollection_19">
    <path d="M 154.437284 189.373622 
L 154.446527 184.731901 
L 150.233206 184.026679 
L 150.227648 188.66147 
z
" clip-path="url(#p3d084b075f)" style="fill: #3d3d3d; stroke: #323232; stroke-width: 0.5"/>
    <path d="M 133.07169 197.455115 
L 133.062102 192.734888 
L 137.331797 193.468799 
L 137.3376 198.196212 
z
" clip-path="url(#p3d084b075f)" style="fill: #6a6a6a; stroke: #575757; stroke-width: 0.5"/>
   </g>
   <g id="Poly3DCollection_20">
    <path d="M 150.238774 179.383799 
L 150.244351 174.73281 
L 121.080212 169.95619 
L 121.099858 174.558887 
z
" clip-path="url(#p3d084b075f)" style="fill: #3d3d3d; stroke: #323232; stroke-width: 0.5"/>
    <path d="M 121.080212 169.95619 
L 103.495527 178.29921 
L 103.531037 182.986194 
L 121.099858 174.558887 
z
" clip-path="url(#p3d084b075f)" style="fill: #6a6a6a; stroke: #575757; stroke-width: 0.5"/>
    <path d="M 103.531037 182.986194 
L 103.495527 178.29921 
L 133.042876 183.269203 
L 133.052498 188.006258 
z
" clip-path="url(#p3d084b075f)" style="fill: #6a6a6a; stroke: #575757; stroke-width: 0.5"/>
   </g>
   <g id="Poly3DCollection_21">
    <path d="M 154.446527 184.731901 
L 154.455787 180.082065 
L 150.238774 179.383799 
L 150.233206 184.026679 
z
" clip-path="url(#p3d084b075f)" style="fill: #3d3d3d; stroke: #323232; stroke-width: 0.5"/>
    <path d="M 133.062102 192.734888 
L 133.052498 188.006258 
L 137.325983 188.732956 
L 137.331797 193.468799 
z
" clip-path="url(#p3d084b075f)" style="fill: #6a6a6a; stroke: #575757; stroke-width: 0.5"/>
   </g>
   <g id="Poly3DCollection_22">
    <path d="M 150.244351 174.73281 
L 150.249939 170.07369 
L 121.060532 165.345537 
L 121.080212 169.95619 
z
" clip-path="url(#p3d084b075f)" style="fill: #3d3d3d; stroke: #323232; stroke-width: 0.5"/>
    <path d="M 121.060532 165.345537 
L 103.459954 173.603964 
L 103.495527 178.29921 
L 121.080212 169.95619 
z
" clip-path="url(#p3d084b075f)" style="fill: #6a6a6a; stroke: #575757; stroke-width: 0.5"/>
    <path d="M 103.495527 178.29921 
L 103.459954 173.603964 
L 133.033237 178.523699 
L 133.042876 183.269203 
z
" clip-path="url(#p3d084b075f)" style="fill: #6a6a6a; stroke: #575757; stroke-width: 0.5"/>
   </g>
   <g id="Poly3DCollection_23">
    <path d="M 154.455787 180.082065 
L 154.465062 175.424095 
L 150.244351 174.73281 
L 150.238774 179.383799 
z
" clip-path="url(#p3d084b075f)" style="fill: #3d3d3d; stroke: #323232; stroke-width: 0.5"/>
    <path d="M 133.052498 188.006258 
L 133.042876 183.269203 
L 137.320159 183.98866 
L 137.325983 188.732956 
z
" clip-path="url(#p3d084b075f)" style="fill: #6a6a6a; stroke: #575757; stroke-width: 0.5"/>
   </g>
   <g id="Poly3DCollection_24">
    <path d="M 150.249939 170.07369 
L 150.255536 165.406418 
L 121.040818 160.726907 
L 121.060532 165.345537 
z
" clip-path="url(#p3d084b075f)" style="fill: #551010; stroke: #3d0000; stroke-width: 0.5"/>
    <path d="M 121.040818 160.726907 
L 103.424319 168.900433 
L 103.459954 173.603964 
L 121.060532 165.345537 
z
" clip-path="url(#p3d084b075f)" style="fill: #931c1c; stroke: #6a0000; stroke-width: 0.5"/>
    <path d="M 150.249939 170.07369 
L 133.033237 178.523699 
L 133.023581 173.769724 
L 150.255536 165.406418 
z
" clip-path="url(#p3d084b075f)" style="fill: #551010; stroke: #3d0000; stroke-width: 0.5"/>
    <path d="M 103.459954 173.603964 
L 103.424319 168.900433 
L 133.023581 173.769724 
L 133.033237 178.523699 
z
" clip-path="url(#p3d084b075f)" style="fill: #931c1c; stroke: #6a0000; stroke-width: 0.5"/>
   </g>
   <g id="Poly3DCollection_25">
    <path d="M 154.465062 175.424095 
L 154.474354 170.757969 
L 150.249939 170.07369 
L 150.244351 174.73281 
z
" clip-path="url(#p3d084b075f)" style="fill: #3d3d3d; stroke: #323232; stroke-width: 0.5"/>
    <path d="M 150.249939 170.07369 
L 154.474354 170.757969 
L 137.314325 179.23589 
L 133.033237 178.523699 
z
" clip-path="url(#p3d084b075f)" style="fill: #343434; stroke: #2a2a2a; stroke-width: 0.5"/>
    <path d="M 133.042876 183.269203 
L 133.033237 178.523699 
L 137.314325 179.23589 
L 137.320159 183.98866 
z
" clip-path="url(#p3d084b075f)" style="fill: #6a6a6a; stroke: #575757; stroke-width: 0.5"/>
   </g>
   <g id="Poly3DCollection_26">
    <path d="M 183.939181 240.881131 
L 183.97428 236.272063 
L 154.354816 230.787483 
L 154.345732 235.349224 
z
" clip-path="url(#p3d084b075f)" style="fill: #003d00; stroke: #002f00; stroke-width: 0.5"/>
    <path d="M 154.354816 230.787483 
L 137.389368 240.367258 
L 137.39507 245.011594 
L 154.345732 235.349224 
z
" clip-path="url(#p3d084b075f)" style="fill: #006a00; stroke: #005200; stroke-width: 0.5"/>
    <path d="M 137.39507 245.011594 
L 167.388448 250.767837 
L 183.939181 240.881131 
L 154.345732 235.349224 
z
" clip-path="url(#p3d084b075f)" style="fill: #007300; stroke: #005a00; stroke-width: 0.5"/>
    <path d="M 183.939181 240.881131 
L 167.388448 250.767837 
L 167.409472 246.074453 
L 183.97428 236.272063 
z
" clip-path="url(#p3d084b075f)" style="fill: #003d00; stroke: #002f00; stroke-width: 0.5"/>
    <path d="M 137.39507 245.011594 
L 137.389368 240.367258 
L 167.409472 246.074453 
L 167.388448 250.767837 
z
" clip-path="url(#p3d084b075f)" style="fill: #006a00; stroke: #005200; stroke-width: 0.5"/>
   </g>
   <g id="Poly3DCollection_27">
    <path d="M 150.255536 165.406418 
L 150.261143 160.730973 
L 121.02107 156.100281 
L 121.040818 160.726907 
z
" clip-path="url(#p3d084b075f)" style="fill: #551010; stroke: #3d0000; stroke-width: 0.5"/>
    <path d="M 121.02107 156.100281 
L 103.388621 164.188596 
L 103.424319 168.900433 
L 121.040818 160.726907 
z
" clip-path="url(#p3d084b075f)" style="fill: #931c1c; stroke: #6a0000; stroke-width: 0.5"/>
    <path d="M 150.255536 165.406418 
L 133.023581 173.769724 
L 133.013908 169.007256 
L 150.261143 160.730973 
z
" clip-path="url(#p3d084b075f)" style="fill: #551010; stroke: #3d0000; stroke-width: 0.5"/>
    <path d="M 103.424319 168.900433 
L 103.388621 164.188596 
L 133.013908 169.007256 
L 133.023581 173.769724 
z
" clip-path="url(#p3d084b075f)" style="fill: #931c1c; stroke: #6a0000; stroke-width: 0.5"/>
   </g>
   <g id="Poly3DCollection_28">
    <path d="M 183.97428 236.272063 
L 184.00944 231.654916 
L 154.363915 226.217838 
L 154.354816 230.787483 
z
" clip-path="url(#p3d084b075f)" style="fill: #003d00; stroke: #002f00; stroke-width: 0.5"/>
    <path d="M 154.363915 226.217838 
L 137.383657 235.714713 
L 137.389368 240.367258 
L 154.354816 230.787483 
z
" clip-path="url(#p3d084b075f)" style="fill: #006a00; stroke: #005200; stroke-width: 0.5"/>
    <path d="M 183.97428 236.272063 
L 167.409472 246.074453 
L 167.430534 241.372677 
L 184.00944 231.654916 
z
" clip-path="url(#p3d084b075f)" style="fill: #003d00; stroke: #002f00; stroke-width: 0.5"/>
    <path d="M 137.389368 240.367258 
L 137.383657 235.714713 
L 167.430534 241.372677 
L 167.409472 246.074453 
z
" clip-path="url(#p3d084b075f)" style="fill: #006a00; stroke: #005200; stroke-width: 0.5"/>
   </g>
   <g id="Poly3DCollection_29">
    <path d="M 150.261143 160.730973 
L 150.26676 156.047332 
L 121.001288 151.465638 
L 121.02107 156.100281 
z
" clip-path="url(#p3d084b075f)" style="fill: #551010; stroke: #3d0000; stroke-width: 0.5"/>
    <path d="M 121.001288 151.465638 
L 103.35286 159.46843 
L 103.388621 164.188596 
L 121.02107 156.100281 
z
" clip-path="url(#p3d084b075f)" style="fill: #931c1c; stroke: #6a0000; stroke-width: 0.5"/>
    <path d="M 150.261143 160.730973 
L 133.013908 169.007256 
L 133.004218 164.236271 
L 150.26676 156.047332 
z
" clip-path="url(#p3d084b075f)" style="fill: #551010; stroke: #3d0000; stroke-width: 0.5"/>
    <path d="M 103.388621 164.188596 
L 103.35286 159.46843 
L 133.004218 164.236271 
L 133.013908 169.007256 
z
" clip-path="url(#p3d084b075f)" style="fill: #931c1c; stroke: #6a0000; stroke-width: 0.5"/>
   </g>
   <g id="Poly3DCollection_30">
    <path d="M 184.00944 231.654916 
L 184.044662 227.02967 
L 154.373031 221.640267 
L 154.363915 226.217838 
z
" clip-path="url(#p3d084b075f)" style="fill: #003d00; stroke: #002f00; stroke-width: 0.5"/>
    <path d="M 154.373031 221.640267 
L 137.377936 231.053938 
L 137.383657 235.714713 
L 154.363915 226.217838 
z
" clip-path="url(#p3d084b075f)" style="fill: #006a00; stroke: #005200; stroke-width: 0.5"/>
    <path d="M 184.00944 231.654916 
L 167.430534 241.372677 
L 167.451633 236.662486 
L 184.044662 227.02967 
z
" clip-path="url(#p3d084b075f)" style="fill: #003d00; stroke: #002f00; stroke-width: 0.5"/>
    <path d="M 137.383657 235.714713 
L 137.377936 231.053938 
L 167.451633 236.662486 
L 167.430534 241.372677 
z
" clip-path="url(#p3d084b075f)" style="fill: #006a00; stroke: #005200; stroke-width: 0.5"/>
   </g>
   <g id="Poly3DCollection_31">
    <path d="M 150.26676 156.047332 
L 150.272386 151.355475 
L 120.981471 146.822955 
L 121.001288 151.465638 
z
" clip-path="url(#p3d084b075f)" style="fill: #551010; stroke: #3d0000; stroke-width: 0.5"/>
    <path d="M 120.981471 146.822955 
L 103.317035 154.739913 
L 103.35286 159.46843 
L 121.001288 151.465638 
z
" clip-path="url(#p3d084b075f)" style="fill: #931c1c; stroke: #6a0000; stroke-width: 0.5"/>
    <path d="M 150.26676 156.047332 
L 133.004218 164.236271 
L 132.99451 159.456747 
L 150.272386 151.355475 
z
" clip-path="url(#p3d084b075f)" style="fill: #551010; stroke: #3d0000; stroke-width: 0.5"/>
    <path d="M 103.35286 159.46843 
L 103.317035 154.739913 
L 132.99451 159.456747 
L 133.004218 164.236271 
z
" clip-path="url(#p3d084b075f)" style="fill: #931c1c; stroke: #6a0000; stroke-width: 0.5"/>
   </g>
   <g id="Poly3DCollection_32">
    <path d="M 184.044662 227.02967 
L 184.079946 222.396303 
L 154.382162 217.054751 
L 154.373031 221.640267 
z
" clip-path="url(#p3d084b075f)" style="fill: #003d00; stroke: #002f00; stroke-width: 0.5"/>
    <path d="M 154.382162 217.054751 
L 137.372204 226.384911 
L 137.377936 231.053938 
L 154.373031 221.640267 
z
" clip-path="url(#p3d084b075f)" style="fill: #006a00; stroke: #005200; stroke-width: 0.5"/>
    <path d="M 184.044662 227.02967 
L 167.451633 236.662486 
L 167.47277 231.943858 
L 184.079946 222.396303 
z
" clip-path="url(#p3d084b075f)" style="fill: #003d00; stroke: #002f00; stroke-width: 0.5"/>
    <path d="M 137.377936 231.053938 
L 137.372204 226.384911 
L 167.47277 231.943858 
L 167.451633 236.662486 
z
" clip-path="url(#p3d084b075f)" style="fill: #006a00; stroke: #005200; stroke-width: 0.5"/>
   </g>
   <g id="Poly3DCollection_33">
    <path d="M 150.272386 151.355475 
L 150.278023 146.65538 
L 120.96162 142.172214 
L 120.981471 146.822955 
z
" clip-path="url(#p3d084b075f)" style="fill: #551010; stroke: #3d0000; stroke-width: 0.5"/>
    <path d="M 120.96162 142.172214 
L 103.281147 150.003024 
L 103.317035 154.739913 
L 120.981471 146.822955 
z
" clip-path="url(#p3d084b075f)" style="fill: #931c1c; stroke: #6a0000; stroke-width: 0.5"/>
    <path d="M 150.272386 151.355475 
L 132.99451 159.456747 
L 132.984784 154.668661 
L 150.278023 146.65538 
z
" clip-path="url(#p3d084b075f)" style="fill: #551010; stroke: #3d0000; stroke-width: 0.5"/>
    <path d="M 103.317035 154.739913 
L 103.281147 150.003024 
L 132.984784 154.668661 
L 132.99451 159.456747 
z
" clip-path="url(#p3d084b075f)" style="fill: #931c1c; stroke: #6a0000; stroke-width: 0.5"/>
   </g>
   <g id="Poly3DCollection_34">
    <path d="M 184.079946 222.396303 
L 184.115292 217.754794 
L 154.391309 212.461267 
L 154.382162 217.054751 
z
" clip-path="url(#p3d084b075f)" style="fill: #003d00; stroke: #002f00; stroke-width: 0.5"/>
    <path d="M 154.391309 212.461267 
L 137.366462 221.707609 
L 137.372204 226.384911 
L 154.382162 217.054751 
z
" clip-path="url(#p3d084b075f)" style="fill: #006a00; stroke: #005200; stroke-width: 0.5"/>
    <path d="M 184.079946 222.396303 
L 167.47277 231.943858 
L 167.493945 227.21677 
L 184.115292 217.754794 
z
" clip-path="url(#p3d084b075f)" style="fill: #003d00; stroke: #002f00; stroke-width: 0.5"/>
    <path d="M 137.372204 226.384911 
L 137.366462 221.707609 
L 167.493945 227.21677 
L 167.47277 231.943858 
z
" clip-path="url(#p3d084b075f)" style="fill: #006a00; stroke: #005200; stroke-width: 0.5"/>
   </g>
   <g id="Poly3DCollection_35">
    <path d="M 150.278023 146.65538 
L 150.283669 141.947025 
L 120.941735 137.513392 
L 120.96162 142.172214 
z
" clip-path="url(#p3d084b075f)" style="fill: #551010; stroke: #3d0000; stroke-width: 0.5"/>
    <path d="M 120.941735 137.513392 
L 103.245195 145.257739 
L 103.281147 150.003024 
L 120.96162 142.172214 
z
" clip-path="url(#p3d084b075f)" style="fill: #931c1c; stroke: #6a0000; stroke-width: 0.5"/>
    <path d="M 150.278023 146.65538 
L 132.984784 154.668661 
L 132.975042 149.87199 
L 150.283669 141.947025 
z
" clip-path="url(#p3d084b075f)" style="fill: #551010; stroke: #3d0000; stroke-width: 0.5"/>
    <path d="M 103.281147 150.003024 
L 103.245195 145.257739 
L 132.975042 149.87199 
L 132.984784 154.668661 
z
" clip-path="url(#p3d084b075f)" style="fill: #931c1c; stroke: #6a0000; stroke-width: 0.5"/>
   </g>
   <g id="Poly3DCollection_36">
    <path d="M 184.115292 217.754794 
L 184.1507 213.105121 
L 154.400472 207.859797 
L 154.391309 212.461267 
z
" clip-path="url(#p3d084b075f)" style="fill: #003d00; stroke: #002f00; stroke-width: 0.5"/>
    <path d="M 154.400472 207.859797 
L 137.36071 217.022011 
L 137.366462 221.707609 
L 154.391309 212.461267 
z
" clip-path="url(#p3d084b075f)" style="fill: #006a00; stroke: #005200; stroke-width: 0.5"/>
    <path d="M 184.115292 217.754794 
L 167.493945 227.21677 
L 167.515158 222.481198 
L 184.1507 213.105121 
z
" clip-path="url(#p3d084b075f)" style="fill: #003d00; stroke: #002f00; stroke-width: 0.5"/>
    <path d="M 137.366462 221.707609 
L 137.36071 217.022011 
L 167.515158 222.481198 
L 167.493945 227.21677 
z
" clip-path="url(#p3d084b075f)" style="fill: #006a00; stroke: #005200; stroke-width: 0.5"/>
   </g>
   <g id="Poly3DCollection_37">
    <path d="M 150.283669 141.947025 
L 150.289326 137.230388 
L 120.921815 132.846468 
L 120.941735 137.513392 
z
" clip-path="url(#p3d084b075f)" style="fill: #551010; stroke: #3d0000; stroke-width: 0.5"/>
    <path d="M 120.921815 132.846468 
L 103.20918 140.504037 
L 103.245195 145.257739 
L 120.941735 137.513392 
z
" clip-path="url(#p3d084b075f)" style="fill: #931c1c; stroke: #6a0000; stroke-width: 0.5"/>
    <path d="M 150.283669 141.947025 
L 132.975042 149.87199 
L 132.965281 145.06671 
L 150.289326 137.230388 
z
" clip-path="url(#p3d084b075f)" style="fill: #551010; stroke: #3d0000; stroke-width: 0.5"/>
    <path d="M 103.245195 145.257739 
L 103.20918 140.504037 
L 132.965281 145.06671 
L 132.975042 149.87199 
z
" clip-path="url(#p3d084b075f)" style="fill: #931c1c; stroke: #6a0000; stroke-width: 0.5"/>
   </g>
   <g id="Poly3DCollection_38">
    <path d="M 184.1507 213.105121 
L 184.18617 208.447263 
L 154.409651 203.250318 
L 154.400472 207.859797 
z
" clip-path="url(#p3d084b075f)" style="fill: #003d00; stroke: #002f00; stroke-width: 0.5"/>
    <path d="M 154.409651 203.250318 
L 137.354948 212.328094 
L 137.36071 217.022011 
L 154.400472 207.859797 
z
" clip-path="url(#p3d084b075f)" style="fill: #006a00; stroke: #005200; stroke-width: 0.5"/>
    <path d="M 184.1507 213.105121 
L 167.515158 222.481198 
L 167.53641 217.737121 
L 184.18617 208.447263 
z
" clip-path="url(#p3d084b075f)" style="fill: #003d00; stroke: #002f00; stroke-width: 0.5"/>
    <path d="M 137.36071 217.022011 
L 137.354948 212.328094 
L 167.53641 217.737121 
L 167.515158 222.481198 
z
" clip-path="url(#p3d084b075f)" style="fill: #006a00; stroke: #005200; stroke-width: 0.5"/>
   </g>
   <g id="Poly3DCollection_39">
    <path d="M 150.289326 137.230388 
L 150.294992 132.505448 
L 120.90186 128.171422 
L 120.921815 132.846468 
z
" clip-path="url(#p3d084b075f)" style="fill: #551010; stroke: #3d0000; stroke-width: 0.5"/>
    <path d="M 120.90186 128.171422 
L 103.173101 135.741895 
L 103.20918 140.504037 
L 120.921815 132.846468 
z
" clip-path="url(#p3d084b075f)" style="fill: #931c1c; stroke: #6a0000; stroke-width: 0.5"/>
    <path d="M 150.289326 137.230388 
L 132.965281 145.06671 
L 132.955504 140.252799 
L 150.294992 132.505448 
z
" clip-path="url(#p3d084b075f)" style="fill: #551010; stroke: #3d0000; stroke-width: 0.5"/>
    <path d="M 103.20918 140.504037 
L 103.173101 135.741895 
L 132.955504 140.252799 
L 132.965281 145.06671 
z
" clip-path="url(#p3d084b075f)" style="fill: #931c1c; stroke: #6a0000; stroke-width: 0.5"/>
   </g>
   <g id="Poly3DCollection_40">
    <path d="M 184.18617 208.447263 
L 184.221703 203.781198 
L 154.418846 198.63281 
L 154.409651 203.250318 
z
" clip-path="url(#p3d084b075f)" style="fill: #3d3d3d; stroke: #323232; stroke-width: 0.5"/>
    <path d="M 184.18617 208.447263 
L 167.53641 217.737121 
L 167.557699 212.984515 
L 184.221703 203.781198 
z
" clip-path="url(#p3d084b075f)" style="fill: #3d3d3d; stroke: #323232; stroke-width: 0.5"/>
    <path d="M 137.354948 212.328094 
L 137.349176 207.625837 
L 167.557699 212.984515 
L 167.53641 217.737121 
z
" clip-path="url(#p3d084b075f)" style="fill: #6a6a6a; stroke: #575757; stroke-width: 0.5"/>
   </g>
   <g id="Poly3DCollection_41">
    <path d="M 150.294992 132.505448 
L 150.300668 127.772182 
L 120.88187 123.488232 
L 120.90186 128.171422 
z
" clip-path="url(#p3d084b075f)" style="fill: #551010; stroke: #3d0000; stroke-width: 0.5"/>
    <path d="M 120.88187 123.488232 
L 103.136957 130.971291 
L 103.173101 135.741895 
L 120.90186 128.171422 
z
" clip-path="url(#p3d084b075f)" style="fill: #931c1c; stroke: #6a0000; stroke-width: 0.5"/>
    <path d="M 150.294992 132.505448 
L 132.955504 140.252799 
L 132.945708 135.430233 
L 150.300668 127.772182 
z
" clip-path="url(#p3d084b075f)" style="fill: #551010; stroke: #3d0000; stroke-width: 0.5"/>
    <path d="M 103.173101 135.741895 
L 103.136957 130.971291 
L 132.945708 135.430233 
L 132.955504 140.252799 
z
" clip-path="url(#p3d084b075f)" style="fill: #931c1c; stroke: #6a0000; stroke-width: 0.5"/>
   </g>
   <g id="Poly3DCollection_42">
    <path d="M 184.221703 203.781198 
L 184.257298 199.106905 
L 154.428057 194.007252 
L 154.418846 198.63281 
z
" clip-path="url(#p3d084b075f)" style="fill: #3d3d3d; stroke: #323232; stroke-width: 0.5"/>
    <path d="M 184.221703 203.781198 
L 167.557699 212.984515 
L 167.579026 208.223358 
L 184.257298 199.106905 
z
" clip-path="url(#p3d084b075f)" style="fill: #3d3d3d; stroke: #323232; stroke-width: 0.5"/>
    <path d="M 137.349176 207.625837 
L 137.343393 202.915217 
L 167.579026 208.223358 
L 167.557699 212.984515 
z
" clip-path="url(#p3d084b075f)" style="fill: #6a6a6a; stroke: #575757; stroke-width: 0.5"/>
   </g>
   <g id="Poly3DCollection_43">
    <path d="M 150.300668 127.772182 
L 150.306354 123.030568 
L 120.861846 118.796877 
L 120.88187 123.488232 
z
" clip-path="url(#p3d084b075f)" style="fill: #551010; stroke: #3d0000; stroke-width: 0.5"/>
    <path d="M 120.861846 118.796877 
L 103.10075 126.192202 
L 103.136957 130.971291 
L 120.88187 123.488232 
z
" clip-path="url(#p3d084b075f)" style="fill: #931c1c; stroke: #6a0000; stroke-width: 0.5"/>
    <path d="M 150.300668 127.772182 
L 132.945708 135.430233 
L 132.935895 130.598989 
L 150.306354 123.030568 
z
" clip-path="url(#p3d084b075f)" style="fill: #551010; stroke: #3d0000; stroke-width: 0.5"/>
    <path d="M 103.136957 130.971291 
L 103.10075 126.192202 
L 132.935895 130.598989 
L 132.945708 135.430233 
z
" clip-path="url(#p3d084b075f)" style="fill: #931c1c; stroke: #6a0000; stroke-width: 0.5"/>
   </g>
   <g id="Poly3DCollection_44">
    <path d="M 184.257298 199.106905 
L 184.292956 194.424362 
L 154.437284 189.373622 
L 154.428057 194.007252 
z
" clip-path="url(#p3d084b075f)" style="fill: #3d3d3d; stroke: #323232; stroke-width: 0.5"/>
    <path d="M 184.257298 199.106905 
L 167.579026 208.223358 
L 167.600392 203.453626 
L 184.292956 194.424362 
z
" clip-path="url(#p3d084b075f)" style="fill: #3d3d3d; stroke: #323232; stroke-width: 0.5"/>
    <path d="M 137.343393 202.915217 
L 137.3376 198.196212 
L 167.600392 203.453626 
L 167.579026 208.223358 
z
" clip-path="url(#p3d084b075f)" style="fill: #6a6a6a; stroke: #575757; stroke-width: 0.5"/>
   </g>
   <g id="Poly3DCollection_45">
    <path d="M 150.306354 123.030568 
L 150.312051 118.280585 
L 120.841787 114.097335 
L 120.861846 118.796877 
z
" clip-path="url(#p3d084b075f)" style="fill: #551010; stroke: #3d0000; stroke-width: 0.5"/>
    <path d="M 120.841787 114.097335 
L 103.064477 121.404605 
L 103.10075 126.192202 
L 120.861846 118.796877 
z
" clip-path="url(#p3d084b075f)" style="fill: #931c1c; stroke: #6a0000; stroke-width: 0.5"/>
    <path d="M 150.306354 123.030568 
L 132.935895 130.598989 
L 132.926065 125.759044 
L 150.312051 118.280585 
z
" clip-path="url(#p3d084b075f)" style="fill: #551010; stroke: #3d0000; stroke-width: 0.5"/>
    <path d="M 103.10075 126.192202 
L 103.064477 121.404605 
L 132.926065 125.759044 
L 132.935895 130.598989 
z
" clip-path="url(#p3d084b075f)" style="fill: #931c1c; stroke: #6a0000; stroke-width: 0.5"/>
   </g>
   <g id="Poly3DCollection_46">
    <path d="M 184.292956 194.424362 
L 184.328678 189.733546 
L 154.446527 184.731901 
L 154.437284 189.373622 
z
" clip-path="url(#p3d084b075f)" style="fill: #3d3d3d; stroke: #323232; stroke-width: 0.5"/>
    <path d="M 184.292956 194.424362 
L 167.600392 203.453626 
L 167.621797 198.675295 
L 184.328678 189.733546 
z
" clip-path="url(#p3d084b075f)" style="fill: #3d3d3d; stroke: #323232; stroke-width: 0.5"/>
    <path d="M 137.3376 198.196212 
L 137.331797 193.468799 
L 167.621797 198.675295 
L 167.600392 203.453626 
z
" clip-path="url(#p3d084b075f)" style="fill: #6a6a6a; stroke: #575757; stroke-width: 0.5"/>
   </g>
   <g id="Poly3DCollection_47">
    <path d="M 150.312051 118.280585 
L 150.317757 113.52221 
L 120.821692 109.389585 
L 120.841787 114.097335 
z
" clip-path="url(#p3d084b075f)" style="fill: #551010; stroke: #3d0000; stroke-width: 0.5"/>
    <path d="M 120.821692 109.389585 
L 103.028141 116.608478 
L 103.064477 121.404605 
L 120.841787 114.097335 
z
" clip-path="url(#p3d084b075f)" style="fill: #931c1c; stroke: #6a0000; stroke-width: 0.5"/>
    <path d="M 150.312051 118.280585 
L 132.926065 125.759044 
L 132.916216 120.910373 
L 150.317757 113.52221 
z
" clip-path="url(#p3d084b075f)" style="fill: #551010; stroke: #3d0000; stroke-width: 0.5"/>
    <path d="M 103.064477 121.404605 
L 103.028141 116.608478 
L 132.916216 120.910373 
L 132.926065 125.759044 
z
" clip-path="url(#p3d084b075f)" style="fill: #931c1c; stroke: #6a0000; stroke-width: 0.5"/>
   </g>
   <g id="Poly3DCollection_48">
    <path d="M 184.328678 189.733546 
L 184.364462 185.034437 
L 154.455787 180.082065 
L 154.446527 184.731901 
z
" clip-path="url(#p3d084b075f)" style="fill: #3d3d3d; stroke: #323232; stroke-width: 0.5"/>
    <path d="M 184.328678 189.733546 
L 167.621797 198.675295 
L 167.64324 193.888344 
L 184.364462 185.034437 
z
" clip-path="url(#p3d084b075f)" style="fill: #3d3d3d; stroke: #323232; stroke-width: 0.5"/>
    <path d="M 137.331797 193.468799 
L 137.325983 188.732956 
L 167.64324 193.888344 
L 167.621797 198.675295 
z
" clip-path="url(#p3d084b075f)" style="fill: #6a6a6a; stroke: #575757; stroke-width: 0.5"/>
   </g>
   <g id="Poly3DCollection_49">
    <path d="M 150.317757 113.52221 
L 150.323474 108.755421 
L 120.801563 104.673606 
L 120.821692 109.389585 
z
" clip-path="url(#p3d084b075f)" style="fill: #551010; stroke: #3d0000; stroke-width: 0.5"/>
    <path d="M 120.801563 104.673606 
L 102.991739 111.803798 
L 103.028141 116.608478 
L 120.821692 109.389585 
z
" clip-path="url(#p3d084b075f)" style="fill: #931c1c; stroke: #6a0000; stroke-width: 0.5"/>
    <path d="M 150.317757 113.52221 
L 132.916216 120.910373 
L 132.90635 116.052953 
L 150.323474 108.755421 
z
" clip-path="url(#p3d084b075f)" style="fill: #551010; stroke: #3d0000; stroke-width: 0.5"/>
    <path d="M 103.028141 116.608478 
L 102.991739 111.803798 
L 132.90635 116.052953 
L 132.916216 120.910373 
z
" clip-path="url(#p3d084b075f)" style="fill: #931c1c; stroke: #6a0000; stroke-width: 0.5"/>
   </g>
   <g id="Poly3DCollection_50">
    <path d="M 184.364462 185.034437 
L 184.40031 180.327011 
L 154.465062 175.424095 
L 154.455787 180.082065 
z
" clip-path="url(#p3d084b075f)" style="fill: #3d3d3d; stroke: #323232; stroke-width: 0.5"/>
    <path d="M 184.364462 185.034437 
L 167.64324 193.888344 
L 167.664722 189.092748 
L 184.40031 180.327011 
z
" clip-path="url(#p3d084b075f)" style="fill: #3d3d3d; stroke: #323232; stroke-width: 0.5"/>
    <path d="M 137.325983 188.732956 
L 137.320159 183.98866 
L 167.664722 189.092748 
L 167.64324 193.888344 
z
" clip-path="url(#p3d084b075f)" style="fill: #6a6a6a; stroke: #575757; stroke-width: 0.5"/>
   </g>
   <g id="Poly3DCollection_51">
    <path d="M 150.323474 108.755421 
L 150.3292 103.980196 
L 120.781398 99.949376 
L 120.801563 104.673606 
z
" clip-path="url(#p3d084b075f)" style="fill: #551010; stroke: #3d0000; stroke-width: 0.5"/>
    <path d="M 120.781398 99.949376 
L 102.955273 106.990542 
L 102.991739 111.803798 
L 120.801563 104.673606 
z
" clip-path="url(#p3d084b075f)" style="fill: #931c1c; stroke: #6a0000; stroke-width: 0.5"/>
    <path d="M 150.323474 108.755421 
L 132.90635 116.052953 
L 132.896466 111.186761 
L 150.3292 103.980196 
z
" clip-path="url(#p3d084b075f)" style="fill: #551010; stroke: #3d0000; stroke-width: 0.5"/>
    <path d="M 102.991739 111.803798 
L 102.955273 106.990542 
L 132.896466 111.186761 
L 132.90635 116.052953 
z
" clip-path="url(#p3d084b075f)" style="fill: #931c1c; stroke: #6a0000; stroke-width: 0.5"/>
   </g>
   <g id="Poly3DCollection_52">
    <path d="M 184.40031 180.327011 
L 184.436221 175.611247 
L 154.474354 170.757969 
L 154.465062 175.424095 
z
" clip-path="url(#p3d084b075f)" style="fill: #3d3d3d; stroke: #323232; stroke-width: 0.5"/>
    <path d="M 154.474354 170.757969 
L 184.436221 175.611247 
L 167.686243 184.288483 
L 137.314325 179.23589 
z
" clip-path="url(#p3d084b075f)" style="fill: #343434; stroke: #2a2a2a; stroke-width: 0.5"/>
    <path d="M 184.40031 180.327011 
L 167.664722 189.092748 
L 167.686243 184.288483 
L 184.436221 175.611247 
z
" clip-path="url(#p3d084b075f)" style="fill: #3d3d3d; stroke: #323232; stroke-width: 0.5"/>
    <path d="M 137.320159 183.98866 
L 137.314325 179.23589 
L 167.686243 184.288483 
L 167.664722 189.092748 
z
" clip-path="url(#p3d084b075f)" style="fill: #6a6a6a; stroke: #575757; stroke-width: 0.5"/>
   </g>
   <g id="Poly3DCollection_53">
    <path d="M 150.3292 103.980196 
L 150.334937 99.196512 
L 120.761198 95.216873 
L 120.781398 99.949376 
z
" clip-path="url(#p3d084b075f)" style="fill: #551010; stroke: #3d0000; stroke-width: 0.5"/>
    <path d="M 120.761198 95.216873 
L 102.918741 102.168686 
L 102.955273 106.990542 
L 120.781398 99.949376 
z
" clip-path="url(#p3d084b075f)" style="fill: #931c1c; stroke: #6a0000; stroke-width: 0.5"/>
    <path d="M 150.3292 103.980196 
L 132.896466 111.186761 
L 132.886564 106.311773 
L 150.334937 99.196512 
z
" clip-path="url(#p3d084b075f)" style="fill: #551010; stroke: #3d0000; stroke-width: 0.5"/>
    <path d="M 102.955273 106.990542 
L 102.918741 102.168686 
L 132.886564 106.311773 
L 132.896466 111.186761 
z
" clip-path="url(#p3d084b075f)" style="fill: #931c1c; stroke: #6a0000; stroke-width: 0.5"/>
   </g>
   <g id="Poly3DCollection_54">
    <path d="M 150.334937 99.196512 
L 150.340684 94.404346 
L 120.740963 90.476075 
L 120.761198 95.216873 
z
" clip-path="url(#p3d084b075f)" style="fill: #551010; stroke: #3d0000; stroke-width: 0.5"/>
    <path d="M 120.740963 90.476075 
L 102.882144 97.338209 
L 102.918741 102.168686 
L 120.761198 95.216873 
z
" clip-path="url(#p3d084b075f)" style="fill: #931c1c; stroke: #6a0000; stroke-width: 0.5"/>
    <path d="M 150.334937 99.196512 
L 132.886564 106.311773 
L 132.876645 101.427965 
L 150.340684 94.404346 
z
" clip-path="url(#p3d084b075f)" style="fill: #551010; stroke: #3d0000; stroke-width: 0.5"/>
    <path d="M 102.918741 102.168686 
L 102.882144 97.338209 
L 132.876645 101.427965 
L 132.886564 106.311773 
z
" clip-path="url(#p3d084b075f)" style="fill: #931c1c; stroke: #6a0000; stroke-width: 0.5"/>
   </g>
   <g id="Poly3DCollection_55">
    <path d="M 150.340684 94.404346 
L 150.346441 89.603677 
L 120.720692 85.726961 
L 120.740963 90.476075 
z
" clip-path="url(#p3d084b075f)" style="fill: #551010; stroke: #3d0000; stroke-width: 0.5"/>
    <path d="M 120.720692 85.726961 
L 102.845481 92.499086 
L 102.882144 97.338209 
L 120.740963 90.476075 
z
" clip-path="url(#p3d084b075f)" style="fill: #931c1c; stroke: #6a0000; stroke-width: 0.5"/>
    <path d="M 150.340684 94.404346 
L 132.876645 101.427965 
L 132.866707 96.535312 
L 150.346441 89.603677 
z
" clip-path="url(#p3d084b075f)" style="fill: #551010; stroke: #3d0000; stroke-width: 0.5"/>
    <path d="M 102.882144 97.338209 
L 102.845481 92.499086 
L 132.866707 96.535312 
L 132.876645 101.427965 
z
" clip-path="url(#p3d084b075f)" style="fill: #931c1c; stroke: #6a0000; stroke-width: 0.5"/>
   </g>
   <g id="Poly3DCollection_56">
    <path d="M 150.346441 89.603677 
L 150.352208 84.794481 
L 120.700385 80.969508 
L 120.720692 85.726961 
z
" clip-path="url(#p3d084b075f)" style="fill: #551010; stroke: #3d0000; stroke-width: 0.5"/>
    <path d="M 120.700385 80.969508 
L 102.808753 87.651295 
L 102.845481 92.499086 
L 120.720692 85.726961 
z
" clip-path="url(#p3d084b075f)" style="fill: #931c1c; stroke: #6a0000; stroke-width: 0.5"/>
    <path d="M 150.346441 89.603677 
L 132.866707 96.535312 
L 132.856751 91.633792 
L 150.352208 84.794481 
z
" clip-path="url(#p3d084b075f)" style="fill: #551010; stroke: #3d0000; stroke-width: 0.5"/>
    <path d="M 102.845481 92.499086 
L 102.808753 87.651295 
L 132.856751 91.633792 
L 132.866707 96.535312 
z
" clip-path="url(#p3d084b075f)" style="fill: #931c1c; stroke: #6a0000; stroke-width: 0.5"/>
   </g>
   <g id="Poly3DCollection_57">
    <path d="M 150.352208 84.794481 
L 150.357986 79.976736 
L 120.680043 76.203696 
L 120.700385 80.969508 
z
" clip-path="url(#p3d084b075f)" style="fill: #551010; stroke: #3d0000; stroke-width: 0.5"/>
    <path d="M 120.680043 76.203696 
L 102.771959 82.794812 
L 102.808753 87.651295 
L 120.700385 80.969508 
z
" clip-path="url(#p3d084b075f)" style="fill: #931c1c; stroke: #6a0000; stroke-width: 0.5"/>
    <path d="M 150.352208 84.794481 
L 132.856751 91.633792 
L 132.846777 86.723379 
L 150.357986 79.976736 
z
" clip-path="url(#p3d084b075f)" style="fill: #551010; stroke: #3d0000; stroke-width: 0.5"/>
    <path d="M 102.808753 87.651295 
L 102.771959 82.794812 
L 132.846777 86.723379 
L 132.856751 91.633792 
z
" clip-path="url(#p3d084b075f)" style="fill: #931c1c; stroke: #6a0000; stroke-width: 0.5"/>
   </g>
   <g id="Poly3DCollection_58">
    <path d="M 150.357986 79.976736 
L 150.363774 75.150418 
L 120.659665 71.429501 
L 120.680043 76.203696 
z
" clip-path="url(#p3d084b075f)" style="fill: #551010; stroke: #3d0000; stroke-width: 0.5"/>
    <path d="M 120.659665 71.429501 
L 102.735099 77.929614 
L 102.771959 82.794812 
L 120.680043 76.203696 
z
" clip-path="url(#p3d084b075f)" style="fill: #931c1c; stroke: #6a0000; stroke-width: 0.5"/>
    <path d="M 150.357986 79.976736 
L 132.846777 86.723379 
L 132.836785 81.80405 
L 150.363774 75.150418 
z
" clip-path="url(#p3d084b075f)" style="fill: #551010; stroke: #3d0000; stroke-width: 0.5"/>
    <path d="M 102.771959 82.794812 
L 102.735099 77.929614 
L 132.836785 81.80405 
L 132.846777 86.723379 
z
" clip-path="url(#p3d084b075f)" style="fill: #931c1c; stroke: #6a0000; stroke-width: 0.5"/>
   </g>
   <g id="Poly3DCollection_59">
    <path d="M 150.363774 75.150418 
L 150.369572 70.315506 
L 120.639251 66.646902 
L 120.659665 71.429501 
z
" clip-path="url(#p3d084b075f)" style="fill: #551010; stroke: #3d0000; stroke-width: 0.5"/>
    <path d="M 120.639251 66.646902 
L 102.698173 73.055678 
L 102.735099 77.929614 
L 120.659665 71.429501 
z
" clip-path="url(#p3d084b075f)" style="fill: #931c1c; stroke: #6a0000; stroke-width: 0.5"/>
    <path d="M 150.363774 75.150418 
L 132.836785 81.80405 
L 132.826775 76.87578 
L 150.369572 70.315506 
z
" clip-path="url(#p3d084b075f)" style="fill: #551010; stroke: #3d0000; stroke-width: 0.5"/>
    <path d="M 102.735099 77.929614 
L 102.698173 73.055678 
L 132.826775 76.87578 
L 132.836785 81.80405 
z
" clip-path="url(#p3d084b075f)" style="fill: #931c1c; stroke: #6a0000; stroke-width: 0.5"/>
   </g>
   <g id="Poly3DCollection_60">
    <path d="M 150.369572 70.315506 
L 150.375381 65.471975 
L 120.618801 61.855876 
L 120.639251 66.646902 
z
" clip-path="url(#p3d084b075f)" style="fill: #551010; stroke: #3d0000; stroke-width: 0.5"/>
    <path d="M 120.618801 61.855876 
L 102.66118 68.172979 
L 102.698173 73.055678 
L 120.639251 66.646902 
z
" clip-path="url(#p3d084b075f)" style="fill: #931c1c; stroke: #6a0000; stroke-width: 0.5"/>
    <path d="M 150.369572 70.315506 
L 132.826775 76.87578 
L 132.816747 71.938545 
L 150.375381 65.471975 
z
" clip-path="url(#p3d084b075f)" style="fill: #551010; stroke: #3d0000; stroke-width: 0.5"/>
    <path d="M 102.698173 73.055678 
L 102.66118 68.172979 
L 132.816747 71.938545 
L 132.826775 76.87578 
z
" clip-path="url(#p3d084b075f)" style="fill: #931c1c; stroke: #6a0000; stroke-width: 0.5"/>
   </g>
   <g id="Poly3DCollection_61">
    <path d="M 150.375381 65.471975 
L 150.3812 60.619804 
L 120.598315 57.056401 
L 120.618801 61.855876 
z
" clip-path="url(#p3d084b075f)" style="fill: #551010; stroke: #3d0000; stroke-width: 0.5"/>
    <path d="M 120.598315 57.056401 
L 102.624121 63.281494 
L 102.66118 68.172979 
L 120.618801 61.855876 
z
" clip-path="url(#p3d084b075f)" style="fill: #931c1c; stroke: #6a0000; stroke-width: 0.5"/>
    <path d="M 150.375381 65.471975 
L 132.816747 71.938545 
L 132.806701 66.99232 
L 150.3812 60.619804 
z
" clip-path="url(#p3d084b075f)" style="fill: #551010; stroke: #3d0000; stroke-width: 0.5"/>
    <path d="M 102.66118 68.172979 
L 102.624121 63.281494 
L 132.806701 66.99232 
L 132.816747 71.938545 
z
" clip-path="url(#p3d084b075f)" style="fill: #931c1c; stroke: #6a0000; stroke-width: 0.5"/>
   </g>
   <g id="Poly3DCollection_62">
    <path d="M 150.3812 60.619804 
L 150.387029 55.758968 
L 120.577793 52.248454 
L 120.598315 57.056401 
z
" clip-path="url(#p3d084b075f)" style="fill: #551010; stroke: #3d0000; stroke-width: 0.5"/>
    <path d="M 120.577793 52.248454 
L 102.586995 58.3812 
L 102.624121 63.281494 
L 120.598315 57.056401 
z
" clip-path="url(#p3d084b075f)" style="fill: #931c1c; stroke: #6a0000; stroke-width: 0.5"/>
    <path d="M 150.3812 60.619804 
L 132.806701 66.99232 
L 132.796636 62.037081 
L 150.387029 55.758968 
z
" clip-path="url(#p3d084b075f)" style="fill: #551010; stroke: #3d0000; stroke-width: 0.5"/>
    <path d="M 102.624121 63.281494 
L 102.586995 58.3812 
L 132.796636 62.037081 
L 132.806701 66.99232 
z
" clip-path="url(#p3d084b075f)" style="fill: #931c1c; stroke: #6a0000; stroke-width: 0.5"/>
   </g>
   <g id="Poly3DCollection_63">
    <path d="M 150.387029 55.758968 
L 150.392869 50.889445 
L 120.557235 47.432014 
L 120.577793 52.248454 
z
" clip-path="url(#p3d084b075f)" style="fill: #551010; stroke: #3d0000; stroke-width: 0.5"/>
    <path d="M 120.557235 47.432014 
L 102.549802 53.472072 
L 102.586995 58.3812 
L 120.577793 52.248454 
z
" clip-path="url(#p3d084b075f)" style="fill: #931c1c; stroke: #6a0000; stroke-width: 0.5"/>
    <path d="M 150.387029 55.758968 
L 132.796636 62.037081 
L 132.786553 57.072803 
L 150.392869 50.889445 
z
" clip-path="url(#p3d084b075f)" style="fill: #551010; stroke: #3d0000; stroke-width: 0.5"/>
    <path d="M 102.586995 58.3812 
L 102.549802 53.472072 
L 132.786553 57.072803 
L 132.796636 62.037081 
z
" clip-path="url(#p3d084b075f)" style="fill: #931c1c; stroke: #6a0000; stroke-width: 0.5"/>
   </g>
   <g id="Poly3DCollection_64">
    <path d="M 150.392869 50.889445 
L 150.398719 46.011211 
L 120.53664 42.607058 
L 120.557235 47.432014 
z
" clip-path="url(#p3d084b075f)" style="fill: #551010; stroke: #3d0000; stroke-width: 0.5"/>
    <path d="M 120.53664 42.607058 
L 102.512542 48.554087 
L 102.549802 53.472072 
L 120.557235 47.432014 
z
" clip-path="url(#p3d084b075f)" style="fill: #931c1c; stroke: #6a0000; stroke-width: 0.5"/>
    <path d="M 150.392869 50.889445 
L 132.786553 57.072803 
L 132.776451 52.099461 
L 150.398719 46.011211 
z
" clip-path="url(#p3d084b075f)" style="fill: #551010; stroke: #3d0000; stroke-width: 0.5"/>
    <path d="M 102.549802 53.472072 
L 102.512542 48.554087 
L 132.776451 52.099461 
L 132.786553 57.072803 
z
" clip-path="url(#p3d084b075f)" style="fill: #931c1c; stroke: #6a0000; stroke-width: 0.5"/>
   </g>
   <g id="Poly3DCollection_65">
    <path d="M 150.398719 46.011211 
L 150.404579 41.124243 
L 120.516009 37.773563 
L 120.53664 42.607058 
z
" clip-path="url(#p3d084b075f)" style="fill: #551010; stroke: #3d0000; stroke-width: 0.5"/>
    <path d="M 120.516009 37.773563 
L 102.475215 43.62722 
L 102.512542 48.554087 
L 120.53664 42.607058 
z
" clip-path="url(#p3d084b075f)" style="fill: #931c1c; stroke: #6a0000; stroke-width: 0.5"/>
    <path d="M 150.398719 46.011211 
L 132.776451 52.099461 
L 132.766331 47.117031 
L 150.404579 41.124243 
z
" clip-path="url(#p3d084b075f)" style="fill: #551010; stroke: #3d0000; stroke-width: 0.5"/>
    <path d="M 102.512542 48.554087 
L 102.475215 43.62722 
L 132.766331 47.117031 
L 132.776451 52.099461 
z
" clip-path="url(#p3d084b075f)" style="fill: #931c1c; stroke: #6a0000; stroke-width: 0.5"/>
   </g>
   <g id="Poly3DCollection_66">
    <path d="M 150.404579 41.124243 
L 150.41045 36.228518 
L 120.495342 32.931506 
L 120.516009 37.773563 
z
" clip-path="url(#p3d084b075f)" style="fill: #551010; stroke: #3d0000; stroke-width: 0.5"/>
    <path d="M 120.495342 32.931506 
L 102.43782 38.691448 
L 102.475215 43.62722 
L 120.516009 37.773563 
z
" clip-path="url(#p3d084b075f)" style="fill: #931c1c; stroke: #6a0000; stroke-width: 0.5"/>
    <path d="M 150.404579 41.124243 
L 132.766331 47.117031 
L 132.756192 42.125488 
L 150.41045 36.228518 
z
" clip-path="url(#p3d084b075f)" style="fill: #551010; stroke: #3d0000; stroke-width: 0.5"/>
    <path d="M 102.475215 43.62722 
L 102.43782 38.691448 
L 132.756192 42.125488 
L 132.766331 47.117031 
z
" clip-path="url(#p3d084b075f)" style="fill: #931c1c; stroke: #6a0000; stroke-width: 0.5"/>
   </g>
   <g id="Poly3DCollection_67">
    <path d="M 150.41045 36.228518 
L 150.416332 31.324011 
L 120.474637 28.080865 
L 120.495342 32.931506 
z
" clip-path="url(#p3d084b075f)" style="fill: #796600; stroke: #794e00; stroke-width: 0.5"/>
    <path d="M 120.474637 28.080865 
L 102.400357 33.746747 
L 102.43782 38.691448 
L 120.495342 32.931506 
z
" clip-path="url(#p3d084b075f)" style="fill: #d2b100; stroke: #d28800; stroke-width: 0.5"/>
    <path d="M 150.41045 36.228518 
L 132.756192 42.125488 
L 132.746035 37.124806 
L 150.416332 31.324011 
z
" clip-path="url(#p3d084b075f)" style="fill: #796600; stroke: #794e00; stroke-width: 0.5"/>
    <path d="M 102.43782 38.691448 
L 102.400357 33.746747 
L 132.746035 37.124806 
L 132.756192 42.125488 
z
" clip-path="url(#p3d084b075f)" style="fill: #d2b100; stroke: #d28800; stroke-width: 0.5"/>
   </g>
   <g id="Poly3DCollection_68">
    <path d="M 150.416332 31.324011 
L 150.422224 26.4107 
L 120.453896 23.221617 
L 120.474637 28.080865 
z
" clip-path="url(#p3d084b075f)" style="fill: #796600; stroke: #794e00; stroke-width: 0.5"/>
    <path d="M 120.453896 23.221617 
L 102.362827 28.793092 
L 102.400357 33.746747 
L 120.474637 28.080865 
z
" clip-path="url(#p3d084b075f)" style="fill: #d2b100; stroke: #d28800; stroke-width: 0.5"/>
    <path d="M 150.416332 31.324011 
L 132.746035 37.124806 
L 132.73586 32.114961 
L 150.422224 26.4107 
z
" clip-path="url(#p3d084b075f)" style="fill: #796600; stroke: #794e00; stroke-width: 0.5"/>
    <path d="M 102.400357 33.746747 
L 102.362827 28.793092 
L 132.73586 32.114961 
L 132.746035 37.124806 
z
" clip-path="url(#p3d084b075f)" style="fill: #d2b100; stroke: #d28800; stroke-width: 0.5"/>
   </g>
   <g id="Poly3DCollection_69">
    <path d="M 150.422224 26.4107 
L 150.428127 21.48856 
L 120.433119 18.353739 
L 120.453896 23.221617 
z
" clip-path="url(#p3d084b075f)" style="fill: #796600; stroke: #794e00; stroke-width: 0.5"/>
    <path d="M 120.433119 18.353739 
L 102.325229 23.830458 
L 102.362827 28.793092 
L 120.453896 23.221617 
z
" clip-path="url(#p3d084b075f)" style="fill: #d2b100; stroke: #d28800; stroke-width: 0.5"/>
    <path d="M 150.422224 26.4107 
L 132.73586 32.114961 
L 132.725665 27.095926 
L 150.428127 21.48856 
z
" clip-path="url(#p3d084b075f)" style="fill: #796600; stroke: #794e00; stroke-width: 0.5"/>
    <path d="M 102.362827 28.793092 
L 102.325229 23.830458 
L 132.725665 27.095926 
L 132.73586 32.114961 
z
" clip-path="url(#p3d084b075f)" style="fill: #d2b100; stroke: #d28800; stroke-width: 0.5"/>
   </g>
   <g id="Poly3DCollection_70">
    <path d="M 150.428127 21.48856 
L 150.434041 16.557567 
L 120.412304 13.477207 
L 120.433119 18.353739 
z
" clip-path="url(#p3d084b075f)" style="fill: #796600; stroke: #794e00; stroke-width: 0.5"/>
    <path d="M 120.412304 13.477207 
L 102.287562 18.858822 
L 102.325229 23.830458 
L 120.433119 18.353739 
z
" clip-path="url(#p3d084b075f)" style="fill: #d2b100; stroke: #d28800; stroke-width: 0.5"/>
    <path d="M 150.428127 21.48856 
L 132.725665 27.095926 
L 132.715452 22.067678 
L 150.434041 16.557567 
z
" clip-path="url(#p3d084b075f)" style="fill: #796600; stroke: #794e00; stroke-width: 0.5"/>
    <path d="M 102.325229 23.830458 
L 102.287562 18.858822 
L 132.715452 22.067678 
L 132.725665 27.095926 
z
" clip-path="url(#p3d084b075f)" style="fill: #d2b100; stroke: #d28800; stroke-width: 0.5"/>
   </g>
   <g id="Poly3DCollection_71">
    <path d="M 150.434041 16.557567 
L 150.439965 11.617698 
L 120.391452 8.591999 
L 120.412304 13.477207 
z
" clip-path="url(#p3d084b075f)" style="fill: #796600; stroke: #794e00; stroke-width: 0.5"/>
    <path d="M 120.391452 8.591999 
L 102.249827 13.878159 
L 102.287562 18.858822 
L 120.412304 13.477207 
z
" clip-path="url(#p3d084b075f)" style="fill: #d2b100; stroke: #d28800; stroke-width: 0.5"/>
    <path d="M 120.391452 8.591999 
L 150.439965 11.617698 
L 132.70522 17.03019 
L 102.249827 13.878159 
z
" clip-path="url(#p3d084b075f)" style="fill: #675700; stroke: #674200; stroke-width: 0.5"/>
    <path d="M 150.434041 16.557567 
L 132.715452 22.067678 
L 132.70522 17.03019 
L 150.439965 11.617698 
z
" clip-path="url(#p3d084b075f)" style="fill: #796600; stroke: #794e00; stroke-width: 0.5"/>
    <path d="M 102.287562 18.858822 
L 102.249827 13.878159 
L 132.70522 17.03019 
L 132.715452 22.067678 
z
" clip-path="url(#p3d084b075f)" style="fill: #d2b100; stroke: #d28800; stroke-width: 0.5"/>
   </g>
  </g>
 </g>
 <defs>
  <clipPath id="p3d084b075f">
   <rect x="7.2" y="7.2" width="266.112" height="266.112"/>
  </clipPath>
 </defs>
</svg>
