<?xml version="1.0" encoding="utf-8" standalone="no"?>
<!DOCTYPE svg PUBLIC "-//W3C//DTD SVG 1.1//EN"
  "http://www.w3.org/Graphics/SVG/1.1/DTD/svg11.dtd">
<svg xmlns:xlink="http://www.w3.org/1999/xlink" width="435.8125pt" height="181.78625pt" viewBox="0 0 435.8125 181.78625" xmlns="http://www.w3.org/2000/svg" version="1.1">
 <metadata>
  <rdf:RDF xmlns:dc="http://purl.org/dc/elements/1.1/" xmlns:cc="http://creativecommons.org/ns#" xmlns:rdf="http://www.w3.org/1999/02/22-rdf-syntax-ns#">
   <cc:Work>
    <dc:type rdf:resource="http://purl.org/dc/dcmitype/StillImage"/>
    <dc:date>2025-02-19T12:49:17.858366</dc:date>
    <dc:format>image/svg+xml</dc:format>
    <dc:creator>
     <cc:Agent>
      <dc:title>Matplotlib v3.10.0, https://matplotlib.org/</dc:title>
     </cc:Agent>
    </dc:creator>
   </cc:Work>
  </rdf:RDF>
 </metadata>
 <defs>
  <style type="text/css">*{stroke-linejoin: round; stroke-linecap: butt}</style>
 </defs>
 <g id="figure_1">
  <g id="patch_1">
   <path d="M 0 181.78625 
L 435.8125 181.78625 
L 435.8125 0 
L 0 0 
z
" style="fill: #ffffff"/>
  </g>
  <g id="axes_1">
   <g id="patch_2">
    <path d="M 43.465625 147.73 
L 210.865625 147.73 
L 210.865625 9.13 
L 43.465625 9.13 
z
" style="fill: #ffffff"/>
   </g>
   <g id="line2d_1">
    <path d="M 43.465625 147.73 
L 202.894196 21.86998 
" clip-path="url(#p2cf42b0b58)" style="fill: none; stroke-dasharray: 5.55,2.4; stroke-dashoffset: 0; stroke: #009e73; stroke-width: 1.5"/>
   </g>
   <g id="matplotlib.axis_1">
    <g id="xtick_1">
     <g id="line2d_2">
      <path d="M 43.465625 147.73 
L 43.465625 9.13 
" clip-path="url(#p2cf42b0b58)" style="fill: none; stroke-dasharray: 0.8,1.32; stroke-dashoffset: 0; stroke: #b0b0b0; stroke-opacity: 0.5; stroke-width: 0.8"/>
     </g>
     <g id="line2d_3">
      <defs>
       <path id="mea1926a73d" d="M 0 0 
L 0 -3.5 
" style="stroke: #000000; stroke-width: 0.8"/>
      </defs>
      <g>
       <use xlink:href="#mea1926a73d" x="43.465625" y="147.73" style="stroke: #000000; stroke-width: 0.8"/>
      </g>
     </g>
     <g id="text_1">
      <!-- 0 -->
      <g transform="translate(40.284375 158.828438) scale(0.1 -0.1)">
       <defs>
        <path id="DejaVuSerif-30" d="M 2034 219 
Q 2513 219 2750 744 
Q 2988 1269 2988 2328 
Q 2988 3391 2750 3916 
Q 2513 4441 2034 4441 
Q 1556 4441 1318 3916 
Q 1081 3391 1081 2328 
Q 1081 1269 1318 744 
Q 1556 219 2034 219 
z
M 2034 -91 
Q 1275 -91 848 546 
Q 422 1184 422 2328 
Q 422 3475 848 4112 
Q 1275 4750 2034 4750 
Q 2797 4750 3222 4112 
Q 3647 3475 3647 2328 
Q 3647 1184 3222 546 
Q 2797 -91 2034 -91 
z
" transform="scale(0.015625)"/>
       </defs>
       <use xlink:href="#DejaVuSerif-30"/>
      </g>
     </g>
    </g>
    <g id="xtick_2">
     <g id="line2d_4">
      <path d="M 92.824316 147.73 
L 92.824316 9.13 
" clip-path="url(#p2cf42b0b58)" style="fill: none; stroke-dasharray: 0.8,1.32; stroke-dashoffset: 0; stroke: #b0b0b0; stroke-opacity: 0.5; stroke-width: 0.8"/>
     </g>
     <g id="line2d_5">
      <g>
       <use xlink:href="#mea1926a73d" x="92.824316" y="147.73" style="stroke: #000000; stroke-width: 0.8"/>
      </g>
     </g>
     <g id="text_2">
      <!-- 100 -->
      <g transform="translate(83.280566 158.828438) scale(0.1 -0.1)">
       <defs>
        <path id="DejaVuSerif-31" d="M 909 0 
L 909 331 
L 1722 331 
L 1722 4213 
L 781 3603 
L 781 4013 
L 1919 4750 
L 2350 4750 
L 2350 331 
L 3163 331 
L 3163 0 
L 909 0 
z
" transform="scale(0.015625)"/>
       </defs>
       <use xlink:href="#DejaVuSerif-31"/>
       <use xlink:href="#DejaVuSerif-30" transform="translate(63.623047 0)"/>
       <use xlink:href="#DejaVuSerif-30" transform="translate(127.246094 0)"/>
      </g>
     </g>
    </g>
    <g id="xtick_3">
     <g id="line2d_6">
      <path d="M 142.183007 147.73 
L 142.183007 9.13 
" clip-path="url(#p2cf42b0b58)" style="fill: none; stroke-dasharray: 0.8,1.32; stroke-dashoffset: 0; stroke: #b0b0b0; stroke-opacity: 0.5; stroke-width: 0.8"/>
     </g>
     <g id="line2d_7">
      <g>
       <use xlink:href="#mea1926a73d" x="142.183007" y="147.73" style="stroke: #000000; stroke-width: 0.8"/>
      </g>
     </g>
     <g id="text_3">
      <!-- 200 -->
      <g transform="translate(132.639257 158.828438) scale(0.1 -0.1)">
       <defs>
        <path id="DejaVuSerif-32" d="M 819 3553 
L 469 3553 
L 469 4384 
Q 803 4563 1142 4656 
Q 1481 4750 1806 4750 
Q 2534 4750 2956 4397 
Q 3378 4044 3378 3438 
Q 3378 2753 2422 1800 
Q 2347 1728 2309 1691 
L 1131 513 
L 3078 513 
L 3078 1088 
L 3444 1088 
L 3444 0 
L 434 0 
L 434 341 
L 1850 1753 
Q 2319 2222 2519 2614 
Q 2719 3006 2719 3438 
Q 2719 3909 2473 4175 
Q 2228 4441 1797 4441 
Q 1350 4441 1106 4219 
Q 863 3997 819 3553 
z
" transform="scale(0.015625)"/>
       </defs>
       <use xlink:href="#DejaVuSerif-32"/>
       <use xlink:href="#DejaVuSerif-30" transform="translate(63.623047 0)"/>
       <use xlink:href="#DejaVuSerif-30" transform="translate(127.246094 0)"/>
      </g>
     </g>
    </g>
    <g id="xtick_4">
     <g id="line2d_8">
      <path d="M 191.541698 147.73 
L 191.541698 9.13 
" clip-path="url(#p2cf42b0b58)" style="fill: none; stroke-dasharray: 0.8,1.32; stroke-dashoffset: 0; stroke: #b0b0b0; stroke-opacity: 0.5; stroke-width: 0.8"/>
     </g>
     <g id="line2d_9">
      <g>
       <use xlink:href="#mea1926a73d" x="191.541698" y="147.73" style="stroke: #000000; stroke-width: 0.8"/>
      </g>
     </g>
     <g id="text_4">
      <!-- 300 -->
      <g transform="translate(181.997948 158.828438) scale(0.1 -0.1)">
       <defs>
        <path id="DejaVuSerif-33" d="M 622 4469 
Q 988 4606 1323 4678 
Q 1659 4750 1953 4750 
Q 2638 4750 3022 4454 
Q 3406 4159 3406 3634 
Q 3406 3213 3140 2930 
Q 2875 2647 2388 2547 
Q 2963 2466 3280 2130 
Q 3597 1794 3597 1259 
Q 3597 606 3158 257 
Q 2719 -91 1894 -91 
Q 1528 -91 1179 -12 
Q 831 66 488 225 
L 488 1131 
L 838 1131 
Q 869 681 1141 450 
Q 1413 219 1906 219 
Q 2384 219 2661 495 
Q 2938 772 2938 1253 
Q 2938 1803 2653 2086 
Q 2369 2369 1819 2369 
L 1522 2369 
L 1522 2688 
L 1678 2688 
Q 2225 2688 2498 2914 
Q 2772 3141 2772 3597 
Q 2772 4006 2547 4223 
Q 2322 4441 1900 4441 
Q 1478 4441 1245 4241 
Q 1013 4041 972 3647 
L 622 3647 
L 622 4469 
z
" transform="scale(0.015625)"/>
       </defs>
       <use xlink:href="#DejaVuSerif-33"/>
       <use xlink:href="#DejaVuSerif-30" transform="translate(63.623047 0)"/>
       <use xlink:href="#DejaVuSerif-30" transform="translate(127.246094 0)"/>
      </g>
     </g>
    </g>
    <g id="text_5">
     <!-- Default parallel window max. proc. -->
     <g transform="translate(38.159375 172.506563) scale(0.1 -0.1)">
      <defs>
       <path id="DejaVuSerif-44" d="M 1581 331 
L 2163 331 
Q 3072 331 3558 850 
Q 4044 1369 4044 2338 
Q 4044 3306 3559 3818 
Q 3075 4331 2163 4331 
L 1581 4331 
L 1581 331 
z
M 353 0 
L 353 331 
L 947 331 
L 947 4331 
L 353 4331 
L 353 4666 
L 2209 4666 
Q 3416 4666 4089 4050 
Q 4763 3434 4763 2338 
Q 4763 1238 4088 619 
Q 3413 0 2209 0 
L 353 0 
z
" transform="scale(0.015625)"/>
       <path id="DejaVuSerif-65" d="M 3469 1600 
L 991 1600 
L 991 1575 
Q 991 903 1244 561 
Q 1497 219 1991 219 
Q 2369 219 2611 417 
Q 2853 616 2950 1006 
L 3413 1006 
Q 3275 459 2904 184 
Q 2534 -91 1931 -91 
Q 1203 -91 761 389 
Q 319 869 319 1663 
Q 319 2450 753 2931 
Q 1188 3413 1894 3413 
Q 2647 3413 3050 2948 
Q 3453 2484 3469 1600 
z
M 2791 1931 
Q 2772 2513 2545 2808 
Q 2319 3103 1894 3103 
Q 1497 3103 1269 2806 
Q 1041 2509 991 1931 
L 2791 1931 
z
" transform="scale(0.015625)"/>
       <path id="DejaVuSerif-66" d="M 2753 4078 
L 2450 4078 
Q 2447 4313 2317 4434 
Q 2188 4556 1941 4556 
Q 1619 4556 1487 4379 
Q 1356 4203 1356 3750 
L 1356 3322 
L 2284 3322 
L 2284 2988 
L 1356 2988 
L 1356 331 
L 2094 331 
L 2094 0 
L 231 0 
L 231 331 
L 781 331 
L 781 2988 
L 231 2988 
L 231 3322 
L 781 3322 
L 781 3738 
Q 781 4294 1070 4578 
Q 1359 4863 1919 4863 
Q 2128 4863 2337 4825 
Q 2547 4788 2753 4709 
L 2753 4078 
z
" transform="scale(0.015625)"/>
       <path id="DejaVuSerif-61" d="M 2547 1044 
L 2547 1747 
L 1806 1747 
Q 1378 1747 1168 1562 
Q 959 1378 959 997 
Q 959 650 1171 447 
Q 1384 244 1747 244 
Q 2106 244 2326 466 
Q 2547 688 2547 1044 
z
M 3122 2075 
L 3122 331 
L 3634 331 
L 3634 0 
L 2547 0 
L 2547 359 
Q 2356 128 2106 18 
Q 1856 -91 1522 -91 
Q 969 -91 644 203 
Q 319 497 319 997 
Q 319 1513 691 1797 
Q 1063 2081 1741 2081 
L 2547 2081 
L 2547 2309 
Q 2547 2688 2317 2895 
Q 2088 3103 1672 3103 
Q 1328 3103 1125 2947 
Q 922 2791 872 2484 
L 575 2484 
L 575 3156 
Q 875 3284 1158 3348 
Q 1441 3413 1709 3413 
Q 2400 3413 2761 3070 
Q 3122 2728 3122 2075 
z
" transform="scale(0.015625)"/>
       <path id="DejaVuSerif-75" d="M 2266 3322 
L 3341 3322 
L 3341 331 
L 3884 331 
L 3884 0 
L 2766 0 
L 2766 588 
Q 2606 256 2353 82 
Q 2100 -91 1766 -91 
Q 1213 -91 952 223 
Q 691 538 691 1209 
L 691 2988 
L 172 2988 
L 172 3322 
L 1269 3322 
L 1269 1388 
Q 1269 781 1417 556 
Q 1566 331 1947 331 
Q 2347 331 2556 625 
Q 2766 919 2766 1478 
L 2766 2988 
L 2266 2988 
L 2266 3322 
z
" transform="scale(0.015625)"/>
       <path id="DejaVuSerif-6c" d="M 1313 331 
L 1856 331 
L 1856 0 
L 184 0 
L 184 331 
L 738 331 
L 738 4531 
L 184 4531 
L 184 4863 
L 1313 4863 
L 1313 331 
z
" transform="scale(0.015625)"/>
       <path id="DejaVuSerif-74" d="M 691 2988 
L 184 2988 
L 184 3322 
L 691 3322 
L 691 4353 
L 1269 4353 
L 1269 3322 
L 2350 3322 
L 2350 2988 
L 1269 2988 
L 1269 878 
Q 1269 456 1350 337 
Q 1431 219 1650 219 
Q 1875 219 1978 351 
Q 2081 484 2088 781 
L 2522 781 
Q 2497 328 2275 118 
Q 2053 -91 1600 -91 
Q 1103 -91 897 129 
Q 691 350 691 878 
L 691 2988 
z
" transform="scale(0.015625)"/>
       <path id="DejaVuSerif-20" transform="scale(0.015625)"/>
       <path id="DejaVuSerif-70" d="M 1313 1825 
L 1313 1497 
Q 1313 897 1542 583 
Q 1772 269 2209 269 
Q 2650 269 2876 622 
Q 3103 975 3103 1663 
Q 3103 2353 2876 2703 
Q 2650 3053 2209 3053 
Q 1772 3053 1542 2737 
Q 1313 2422 1313 1825 
z
M 738 2988 
L 184 2988 
L 184 3322 
L 1313 3322 
L 1313 2803 
Q 1481 3116 1742 3264 
Q 2003 3413 2388 3413 
Q 3000 3413 3387 2928 
Q 3775 2444 3775 1663 
Q 3775 881 3387 395 
Q 3000 -91 2388 -91 
Q 2003 -91 1742 57 
Q 1481 206 1313 519 
L 1313 -997 
L 1856 -997 
L 1856 -1331 
L 184 -1331 
L 184 -997 
L 738 -997 
L 738 2988 
z
" transform="scale(0.015625)"/>
       <path id="DejaVuSerif-72" d="M 3059 3328 
L 3059 2497 
L 2728 2497 
Q 2713 2744 2591 2866 
Q 2469 2988 2234 2988 
Q 1809 2988 1582 2694 
Q 1356 2400 1356 1850 
L 1356 331 
L 2022 331 
L 2022 0 
L 263 0 
L 263 331 
L 781 331 
L 781 2994 
L 231 2994 
L 231 3322 
L 1356 3322 
L 1356 2731 
Q 1525 3078 1790 3245 
Q 2056 3413 2438 3413 
Q 2578 3413 2733 3391 
Q 2888 3369 3059 3328 
z
" transform="scale(0.015625)"/>
       <path id="DejaVuSerif-77" d="M 3072 3322 
L 3922 728 
L 4672 2988 
L 4191 2988 
L 4191 3322 
L 5394 3322 
L 5394 2988 
L 5025 2988 
L 4038 0 
L 3559 0 
L 2741 2484 
L 1919 0 
L 1459 0 
L 475 2988 
L 103 2988 
L 103 3322 
L 1606 3322 
L 1606 2988 
L 1069 2988 
L 1813 728 
L 2669 3322 
L 3072 3322 
z
" transform="scale(0.015625)"/>
       <path id="DejaVuSerif-69" d="M 622 4353 
Q 622 4497 726 4603 
Q 831 4709 978 4709 
Q 1122 4709 1226 4603 
Q 1331 4497 1331 4353 
Q 1331 4206 1228 4103 
Q 1125 4000 978 4000 
Q 831 4000 726 4103 
Q 622 4206 622 4353 
z
M 1356 331 
L 1900 331 
L 1900 0 
L 231 0 
L 231 331 
L 781 331 
L 781 2988 
L 231 2988 
L 231 3322 
L 1356 3322 
L 1356 331 
z
" transform="scale(0.015625)"/>
       <path id="DejaVuSerif-6e" d="M 263 0 
L 263 331 
L 781 331 
L 781 2988 
L 231 2988 
L 231 3322 
L 1356 3322 
L 1356 2731 
Q 1516 3069 1770 3241 
Q 2025 3413 2363 3413 
Q 2913 3413 3172 3097 
Q 3431 2781 3431 2113 
L 3431 331 
L 3944 331 
L 3944 0 
L 2356 0 
L 2356 331 
L 2853 331 
L 2853 1931 
Q 2853 2541 2703 2767 
Q 2553 2994 2175 2994 
Q 1775 2994 1565 2701 
Q 1356 2409 1356 1850 
L 1356 331 
L 1856 331 
L 1856 0 
L 263 0 
z
" transform="scale(0.015625)"/>
       <path id="DejaVuSerif-64" d="M 3359 331 
L 3909 331 
L 3909 0 
L 2784 0 
L 2784 519 
Q 2616 206 2355 57 
Q 2094 -91 1709 -91 
Q 1097 -91 708 395 
Q 319 881 319 1663 
Q 319 2444 706 2928 
Q 1094 3413 1709 3413 
Q 2094 3413 2355 3264 
Q 2616 3116 2784 2803 
L 2784 4531 
L 2241 4531 
L 2241 4863 
L 3359 4863 
L 3359 331 
z
M 2784 1497 
L 2784 1825 
Q 2784 2422 2554 2737 
Q 2325 3053 1888 3053 
Q 1444 3053 1217 2703 
Q 991 2353 991 1663 
Q 991 975 1217 622 
Q 1444 269 1888 269 
Q 2325 269 2554 583 
Q 2784 897 2784 1497 
z
" transform="scale(0.015625)"/>
       <path id="DejaVuSerif-6f" d="M 1925 219 
Q 2388 219 2623 584 
Q 2859 950 2859 1663 
Q 2859 2375 2623 2739 
Q 2388 3103 1925 3103 
Q 1463 3103 1227 2739 
Q 991 2375 991 1663 
Q 991 950 1228 584 
Q 1466 219 1925 219 
z
M 1925 -91 
Q 1200 -91 759 389 
Q 319 869 319 1663 
Q 319 2456 758 2934 
Q 1197 3413 1925 3413 
Q 2653 3413 3092 2934 
Q 3531 2456 3531 1663 
Q 3531 869 3092 389 
Q 2653 -91 1925 -91 
z
" transform="scale(0.015625)"/>
       <path id="DejaVuSerif-6d" d="M 3316 2675 
Q 3481 3041 3739 3227 
Q 3997 3413 4341 3413 
Q 4863 3413 5119 3089 
Q 5375 2766 5375 2113 
L 5375 331 
L 5894 331 
L 5894 0 
L 4300 0 
L 4300 331 
L 4800 331 
L 4800 2047 
Q 4800 2556 4650 2772 
Q 4500 2988 4153 2988 
Q 3769 2988 3567 2697 
Q 3366 2406 3366 1850 
L 3366 331 
L 3866 331 
L 3866 0 
L 2291 0 
L 2291 331 
L 2791 331 
L 2791 2069 
Q 2791 2566 2641 2777 
Q 2491 2988 2144 2988 
Q 1759 2988 1557 2697 
Q 1356 2406 1356 1850 
L 1356 331 
L 1856 331 
L 1856 0 
L 263 0 
L 263 331 
L 781 331 
L 781 2994 
L 231 2994 
L 231 3322 
L 1356 3322 
L 1356 2731 
Q 1516 3063 1762 3238 
Q 2009 3413 2322 3413 
Q 2709 3413 2968 3220 
Q 3228 3028 3316 2675 
z
" transform="scale(0.015625)"/>
       <path id="DejaVuSerif-78" d="M 1863 2028 
L 2559 2988 
L 2113 2988 
L 2113 3322 
L 3391 3322 
L 3391 2988 
L 2950 2988 
L 2059 1759 
L 3097 331 
L 3531 331 
L 3531 0 
L 1997 0 
L 1997 331 
L 2419 331 
L 1697 1325 
L 972 331 
L 1403 331 
L 1403 0 
L 141 0 
L 141 331 
L 581 331 
L 1497 1594 
L 488 2988 
L 78 2988 
L 78 3322 
L 1563 3322 
L 1563 2988 
L 1166 2988 
L 1863 2028 
z
" transform="scale(0.015625)"/>
       <path id="DejaVuSerif-2e" d="M 603 325 
Q 603 500 722 622 
Q 841 744 1019 744 
Q 1191 744 1312 622 
Q 1434 500 1434 325 
Q 1434 153 1312 31 
Q 1191 -91 1019 -91 
Q 841 -91 722 29 
Q 603 150 603 325 
z
" transform="scale(0.015625)"/>
       <path id="DejaVuSerif-63" d="M 3291 997 
Q 3169 466 2822 187 
Q 2475 -91 1925 -91 
Q 1200 -91 759 389 
Q 319 869 319 1663 
Q 319 2459 759 2936 
Q 1200 3413 1925 3413 
Q 2241 3413 2553 3339 
Q 2866 3266 3181 3116 
L 3181 2266 
L 2847 2266 
Q 2781 2703 2561 2903 
Q 2341 3103 1931 3103 
Q 1466 3103 1228 2742 
Q 991 2381 991 1663 
Q 991 944 1227 581 
Q 1463 219 1931 219 
Q 2303 219 2525 412 
Q 2747 606 2828 997 
L 3291 997 
z
" transform="scale(0.015625)"/>
      </defs>
      <use xlink:href="#DejaVuSerif-44"/>
      <use xlink:href="#DejaVuSerif-65" transform="translate(80.175781 0)"/>
      <use xlink:href="#DejaVuSerif-66" transform="translate(139.355469 0)"/>
      <use xlink:href="#DejaVuSerif-61" transform="translate(176.367188 0)"/>
      <use xlink:href="#DejaVuSerif-75" transform="translate(235.986328 0)"/>
      <use xlink:href="#DejaVuSerif-6c" transform="translate(300.390625 0)"/>
      <use xlink:href="#DejaVuSerif-74" transform="translate(332.373047 0)"/>
      <use xlink:href="#DejaVuSerif-20" transform="translate(372.558594 0)"/>
      <use xlink:href="#DejaVuSerif-70" transform="translate(404.345703 0)"/>
      <use xlink:href="#DejaVuSerif-61" transform="translate(468.359375 0)"/>
      <use xlink:href="#DejaVuSerif-72" transform="translate(527.978516 0)"/>
      <use xlink:href="#DejaVuSerif-61" transform="translate(575.78125 0)"/>
      <use xlink:href="#DejaVuSerif-6c" transform="translate(635.400391 0)"/>
      <use xlink:href="#DejaVuSerif-6c" transform="translate(667.382812 0)"/>
      <use xlink:href="#DejaVuSerif-65" transform="translate(699.365234 0)"/>
      <use xlink:href="#DejaVuSerif-6c" transform="translate(758.544922 0)"/>
      <use xlink:href="#DejaVuSerif-20" transform="translate(790.527344 0)"/>
      <use xlink:href="#DejaVuSerif-77" transform="translate(822.314453 0)"/>
      <use xlink:href="#DejaVuSerif-69" transform="translate(907.910156 0)"/>
      <use xlink:href="#DejaVuSerif-6e" transform="translate(939.892578 0)"/>
      <use xlink:href="#DejaVuSerif-64" transform="translate(1004.296875 0)"/>
      <use xlink:href="#DejaVuSerif-6f" transform="translate(1068.310547 0)"/>
      <use xlink:href="#DejaVuSerif-77" transform="translate(1128.515625 0)"/>
      <use xlink:href="#DejaVuSerif-20" transform="translate(1214.111328 0)"/>
      <use xlink:href="#DejaVuSerif-6d" transform="translate(1245.898438 0)"/>
      <use xlink:href="#DejaVuSerif-61" transform="translate(1340.722656 0)"/>
      <use xlink:href="#DejaVuSerif-78" transform="translate(1400.341797 0)"/>
      <use xlink:href="#DejaVuSerif-2e" transform="translate(1456.738281 0)"/>
      <use xlink:href="#DejaVuSerif-20" transform="translate(1488.525391 0)"/>
      <use xlink:href="#DejaVuSerif-70" transform="translate(1520.3125 0)"/>
      <use xlink:href="#DejaVuSerif-72" transform="translate(1584.326172 0)"/>
      <use xlink:href="#DejaVuSerif-6f" transform="translate(1632.128906 0)"/>
      <use xlink:href="#DejaVuSerif-63" transform="translate(1692.333984 0)"/>
      <use xlink:href="#DejaVuSerif-2e" transform="translate(1748.339844 0)"/>
     </g>
    </g>
   </g>
   <g id="matplotlib.axis_2">
    <g id="ytick_1">
     <g id="line2d_10">
      <path d="M 43.465625 147.73 
L 210.865625 147.73 
" clip-path="url(#p2cf42b0b58)" style="fill: none; stroke-dasharray: 0.8,1.32; stroke-dashoffset: 0; stroke: #b0b0b0; stroke-opacity: 0.5; stroke-width: 0.8"/>
     </g>
     <g id="line2d_11">
      <defs>
       <path id="m1685332dad" d="M 0 0 
L 3.5 0 
" style="stroke: #000000; stroke-width: 0.8"/>
      </defs>
      <g>
       <use xlink:href="#m1685332dad" x="43.465625" y="147.73" style="stroke: #000000; stroke-width: 0.8"/>
      </g>
     </g>
     <g id="text_6">
      <!-- 0 -->
      <g transform="translate(33.603125 151.529219) scale(0.1 -0.1)">
       <use xlink:href="#DejaVuSerif-30"/>
      </g>
     </g>
    </g>
    <g id="ytick_2">
     <g id="line2d_12">
      <path d="M 43.465625 117.174444 
L 210.865625 117.174444 
" clip-path="url(#p2cf42b0b58)" style="fill: none; stroke-dasharray: 0.8,1.32; stroke-dashoffset: 0; stroke: #b0b0b0; stroke-opacity: 0.5; stroke-width: 0.8"/>
     </g>
     <g id="line2d_13">
      <g>
       <use xlink:href="#m1685332dad" x="43.465625" y="117.174444" style="stroke: #000000; stroke-width: 0.8"/>
      </g>
     </g>
     <g id="text_7">
      <!-- 100 -->
      <g transform="translate(20.878125 120.973663) scale(0.1 -0.1)">
       <use xlink:href="#DejaVuSerif-31"/>
       <use xlink:href="#DejaVuSerif-30" transform="translate(63.623047 0)"/>
       <use xlink:href="#DejaVuSerif-30" transform="translate(127.246094 0)"/>
      </g>
     </g>
    </g>
    <g id="ytick_3">
     <g id="line2d_14">
      <path d="M 43.465625 86.618889 
L 210.865625 86.618889 
" clip-path="url(#p2cf42b0b58)" style="fill: none; stroke-dasharray: 0.8,1.32; stroke-dashoffset: 0; stroke: #b0b0b0; stroke-opacity: 0.5; stroke-width: 0.8"/>
     </g>
     <g id="line2d_15">
      <g>
       <use xlink:href="#m1685332dad" x="43.465625" y="86.618889" style="stroke: #000000; stroke-width: 0.8"/>
      </g>
     </g>
     <g id="text_8">
      <!-- 200 -->
      <g transform="translate(20.878125 90.418108) scale(0.1 -0.1)">
       <use xlink:href="#DejaVuSerif-32"/>
       <use xlink:href="#DejaVuSerif-30" transform="translate(63.623047 0)"/>
       <use xlink:href="#DejaVuSerif-30" transform="translate(127.246094 0)"/>
      </g>
     </g>
    </g>
    <g id="ytick_4">
     <g id="line2d_16">
      <path d="M 43.465625 56.063333 
L 210.865625 56.063333 
" clip-path="url(#p2cf42b0b58)" style="fill: none; stroke-dasharray: 0.8,1.32; stroke-dashoffset: 0; stroke: #b0b0b0; stroke-opacity: 0.5; stroke-width: 0.8"/>
     </g>
     <g id="line2d_17">
      <g>
       <use xlink:href="#m1685332dad" x="43.465625" y="56.063333" style="stroke: #000000; stroke-width: 0.8"/>
      </g>
     </g>
     <g id="text_9">
      <!-- 300 -->
      <g transform="translate(20.878125 59.862552) scale(0.1 -0.1)">
       <use xlink:href="#DejaVuSerif-33"/>
       <use xlink:href="#DejaVuSerif-30" transform="translate(63.623047 0)"/>
       <use xlink:href="#DejaVuSerif-30" transform="translate(127.246094 0)"/>
      </g>
     </g>
    </g>
    <g id="ytick_5">
     <g id="line2d_18">
      <path d="M 43.465625 25.507778 
L 210.865625 25.507778 
" clip-path="url(#p2cf42b0b58)" style="fill: none; stroke-dasharray: 0.8,1.32; stroke-dashoffset: 0; stroke: #b0b0b0; stroke-opacity: 0.5; stroke-width: 0.8"/>
     </g>
     <g id="line2d_19">
      <g>
       <use xlink:href="#m1685332dad" x="43.465625" y="25.507778" style="stroke: #000000; stroke-width: 0.8"/>
      </g>
     </g>
     <g id="text_10">
      <!-- 400 -->
      <g transform="translate(20.878125 29.306997) scale(0.1 -0.1)">
       <defs>
        <path id="DejaVuSerif-34" d="M 2234 1581 
L 2234 4063 
L 641 1581 
L 2234 1581 
z
M 3609 0 
L 1484 0 
L 1484 331 
L 2234 331 
L 2234 1247 
L 197 1247 
L 197 1588 
L 2241 4750 
L 2859 4750 
L 2859 1581 
L 3750 1581 
L 3750 1247 
L 2859 1247 
L 2859 331 
L 3609 331 
L 3609 0 
z
" transform="scale(0.015625)"/>
       </defs>
       <use xlink:href="#DejaVuSerif-34"/>
       <use xlink:href="#DejaVuSerif-30" transform="translate(63.623047 0)"/>
       <use xlink:href="#DejaVuSerif-30" transform="translate(127.246094 0)"/>
      </g>
     </g>
    </g>
    <g id="text_11">
     <!-- SWIPER max. proc. -->
     <g transform="translate(14.798437 128.047188) rotate(-90) scale(0.1 -0.1)">
      <defs>
       <path id="DejaVuSerif-53" d="M 594 225 
L 594 1288 
L 953 1284 
Q 969 753 1261 498 
Q 1553 244 2150 244 
Q 2706 244 2998 464 
Q 3291 684 3291 1106 
Q 3291 1444 3114 1625 
Q 2938 1806 2369 1978 
L 1753 2163 
Q 1084 2366 811 2669 
Q 538 2972 538 3500 
Q 538 4094 959 4422 
Q 1381 4750 2144 4750 
Q 2469 4750 2856 4679 
Q 3244 4609 3681 4475 
L 3681 3481 
L 3328 3481 
Q 3275 3975 2998 4195 
Q 2722 4416 2156 4416 
Q 1663 4416 1405 4214 
Q 1147 4013 1147 3628 
Q 1147 3294 1340 3103 
Q 1534 2913 2163 2725 
L 2741 2553 
Q 3375 2363 3645 2067 
Q 3916 1772 3916 1275 
Q 3916 597 3481 253 
Q 3047 -91 2188 -91 
Q 1803 -91 1404 -12 
Q 1006 66 594 225 
z
" transform="scale(0.015625)"/>
       <path id="DejaVuSerif-57" d="M 4878 0 
L 4366 0 
L 3297 3794 
L 2228 0 
L 1716 0 
L 494 4331 
L 31 4331 
L 31 4666 
L 1734 4666 
L 1734 4331 
L 1153 4331 
L 2125 884 
L 3188 4666 
L 3694 4666 
L 4775 844 
L 5753 4331 
L 5216 4331 
L 5216 4666 
L 6559 4666 
L 6559 4331 
L 6100 4331 
L 4878 0 
z
" transform="scale(0.015625)"/>
       <path id="DejaVuSerif-49" d="M 1581 331 
L 2175 331 
L 2175 0 
L 353 0 
L 353 331 
L 947 331 
L 947 4331 
L 353 4331 
L 353 4666 
L 2175 4666 
L 2175 4331 
L 1581 4331 
L 1581 331 
z
" transform="scale(0.015625)"/>
       <path id="DejaVuSerif-50" d="M 1581 2375 
L 2406 2375 
Q 2872 2375 3115 2626 
Q 3359 2878 3359 3353 
Q 3359 3831 3115 4081 
Q 2872 4331 2406 4331 
L 1581 4331 
L 1581 2375 
z
M 353 0 
L 353 331 
L 947 331 
L 947 4331 
L 353 4331 
L 353 4666 
L 2559 4666 
Q 3259 4666 3668 4311 
Q 4078 3956 4078 3353 
Q 4078 2753 3668 2397 
Q 3259 2041 2559 2041 
L 1581 2041 
L 1581 331 
L 2303 331 
L 2303 0 
L 353 0 
z
" transform="scale(0.015625)"/>
       <path id="DejaVuSerif-45" d="M 353 0 
L 353 331 
L 947 331 
L 947 4331 
L 353 4331 
L 353 4666 
L 4109 4666 
L 4109 3628 
L 3725 3628 
L 3725 4281 
L 1581 4281 
L 1581 2719 
L 3109 2719 
L 3109 3303 
L 3494 3303 
L 3494 1753 
L 3109 1753 
L 3109 2338 
L 1581 2338 
L 1581 384 
L 3775 384 
L 3775 1038 
L 4159 1038 
L 4159 0 
L 353 0 
z
" transform="scale(0.015625)"/>
       <path id="DejaVuSerif-52" d="M 3066 2316 
Q 3284 2256 3442 2114 
Q 3600 1972 3725 1716 
L 4403 331 
L 4972 331 
L 4972 0 
L 3872 0 
L 3144 1484 
Q 2934 1916 2759 2042 
Q 2584 2169 2278 2169 
L 1581 2169 
L 1581 331 
L 2241 331 
L 2241 0 
L 353 0 
L 353 331 
L 947 331 
L 947 4331 
L 353 4331 
L 353 4666 
L 2719 4666 
Q 3400 4666 3770 4341 
Q 4141 4016 4141 3419 
Q 4141 2938 3870 2661 
Q 3600 2384 3066 2316 
z
M 1581 2503 
L 2503 2503 
Q 2975 2503 3200 2726 
Q 3425 2950 3425 3419 
Q 3425 3888 3200 4109 
Q 2975 4331 2503 4331 
L 1581 4331 
L 1581 2503 
z
" transform="scale(0.015625)"/>
      </defs>
      <use xlink:href="#DejaVuSerif-53"/>
      <use xlink:href="#DejaVuSerif-57" transform="translate(68.505859 0)"/>
      <use xlink:href="#DejaVuSerif-49" transform="translate(171.289062 0)"/>
      <use xlink:href="#DejaVuSerif-50" transform="translate(210.791016 0)"/>
      <use xlink:href="#DejaVuSerif-45" transform="translate(278.076172 0)"/>
      <use xlink:href="#DejaVuSerif-52" transform="translate(351.074219 0)"/>
      <use xlink:href="#DejaVuSerif-20" transform="translate(426.367188 0)"/>
      <use xlink:href="#DejaVuSerif-6d" transform="translate(458.154297 0)"/>
      <use xlink:href="#DejaVuSerif-61" transform="translate(552.978516 0)"/>
      <use xlink:href="#DejaVuSerif-78" transform="translate(612.597656 0)"/>
      <use xlink:href="#DejaVuSerif-2e" transform="translate(668.994141 0)"/>
      <use xlink:href="#DejaVuSerif-20" transform="translate(700.78125 0)"/>
      <use xlink:href="#DejaVuSerif-70" transform="translate(732.568359 0)"/>
      <use xlink:href="#DejaVuSerif-72" transform="translate(796.582031 0)"/>
      <use xlink:href="#DejaVuSerif-6f" transform="translate(844.384766 0)"/>
      <use xlink:href="#DejaVuSerif-63" transform="translate(904.589844 0)"/>
      <use xlink:href="#DejaVuSerif-2e" transform="translate(960.595703 0)"/>
     </g>
    </g>
   </g>
   <g id="line2d_20">
    <defs>
     <path id="md345ba987b" d="M -3 3 
L 3 3 
L 3 -3 
L -3 -3 
z
" style="stroke: #0072b2; stroke-linejoin: miter"/>
    </defs>
    <g clip-path="url(#p2cf42b0b58)">
     <use xlink:href="#md345ba987b" x="88.842715" y="118.610556" style="fill: #0072b2; stroke: #0072b2; stroke-linejoin: miter"/>
     <use xlink:href="#md345ba987b" x="55.459787" y="139.021667" style="fill: #0072b2; stroke: #0072b2; stroke-linejoin: miter"/>
     <use xlink:href="#md345ba987b" x="49.980972" y="143.421667" style="fill: #0072b2; stroke: #0072b2; stroke-linejoin: miter"/>
     <use xlink:href="#md345ba987b" x="113.456249" y="95.877222" style="fill: #0072b2; stroke: #0072b2; stroke-linejoin: miter"/>
     <use xlink:href="#md345ba987b" x="103.962927" y="101.010556" style="fill: #0072b2; stroke: #0072b2; stroke-linejoin: miter"/>
     <use xlink:href="#md345ba987b" x="161.712595" y="60.860556" style="fill: #0072b2; stroke: #0072b2; stroke-linejoin: miter"/>
     <use xlink:href="#md345ba987b" x="100.672348" y="106.235556" style="fill: #0072b2; stroke: #0072b2; stroke-linejoin: miter"/>
     <use xlink:href="#md345ba987b" x="202.894196" y="48.118889" style="fill: #0072b2; stroke: #0072b2; stroke-linejoin: miter"/>
     <use xlink:href="#md345ba987b" x="71.846872" y="116.257778" style="fill: #0072b2; stroke: #0072b2; stroke-linejoin: miter"/>
     <use xlink:href="#md345ba987b" x="73.574426" y="117.48" style="fill: #0072b2; stroke: #0072b2; stroke-linejoin: miter"/>
     <use xlink:href="#md345ba987b" x="99.981326" y="93.035556" style="fill: #0072b2; stroke: #0072b2; stroke-linejoin: miter"/>
     <use xlink:href="#md345ba987b" x="60.98796" y="130.007778" style="fill: #0072b2; stroke: #0072b2; stroke-linejoin: miter"/>
    </g>
   </g>
   <g id="line2d_21">
    <defs>
     <path id="m3969e81f30" d="M 0 -3 
L -2.85317 -0.927051 
L -1.763356 2.427051 
L 1.763356 2.427051 
L 2.85317 -0.927051 
z
" style="stroke: #cc79a7; stroke-linejoin: miter"/>
    </defs>
    <g clip-path="url(#p2cf42b0b58)">
     <use xlink:href="#m3969e81f30" x="88.842715" y="118.549444" style="fill: #cc79a7; stroke: #cc79a7; stroke-linejoin: miter"/>
     <use xlink:href="#m3969e81f30" x="55.459787" y="138.777222" style="fill: #cc79a7; stroke: #cc79a7; stroke-linejoin: miter"/>
     <use xlink:href="#m3969e81f30" x="49.980972" y="143.207778" style="fill: #cc79a7; stroke: #cc79a7; stroke-linejoin: miter"/>
     <use xlink:href="#m3969e81f30" x="113.456249" y="94.777222" style="fill: #cc79a7; stroke: #cc79a7; stroke-linejoin: miter"/>
     <use xlink:href="#m3969e81f30" x="103.962927" y="101.010556" style="fill: #cc79a7; stroke: #cc79a7; stroke-linejoin: miter"/>
     <use xlink:href="#m3969e81f30" x="161.712595" y="58.568889" style="fill: #cc79a7; stroke: #cc79a7; stroke-linejoin: miter"/>
     <use xlink:href="#m3969e81f30" x="100.672348" y="105.685556" style="fill: #cc79a7; stroke: #cc79a7; stroke-linejoin: miter"/>
     <use xlink:href="#m3969e81f30" x="202.894196" y="45.063333" style="fill: #cc79a7; stroke: #cc79a7; stroke-linejoin: miter"/>
     <use xlink:href="#m3969e81f30" x="71.846872" y="116.257778" style="fill: #cc79a7; stroke: #cc79a7; stroke-linejoin: miter"/>
     <use xlink:href="#m3969e81f30" x="73.574426" y="115.341111" style="fill: #cc79a7; stroke: #cc79a7; stroke-linejoin: miter"/>
     <use xlink:href="#m3969e81f30" x="99.981326" y="94.257778" style="fill: #cc79a7; stroke: #cc79a7; stroke-linejoin: miter"/>
     <use xlink:href="#m3969e81f30" x="60.98796" y="128.785556" style="fill: #cc79a7; stroke: #cc79a7; stroke-linejoin: miter"/>
    </g>
   </g>
   <g id="line2d_22">
    <defs>
     <path id="md58389bd16" d="M 0 -3 
L -2.598076 -1.5 
L -2.598076 1.5 
L -0 3 
L 2.598076 1.5 
L 2.598076 -1.5 
z
" style="stroke: #e69f00; stroke-linejoin: miter"/>
    </defs>
    <g clip-path="url(#p2cf42b0b58)">
     <use xlink:href="#md58389bd16" x="88.842715" y="102.416111" style="fill: #e69f00; stroke: #e69f00; stroke-linejoin: miter"/>
     <use xlink:href="#md58389bd16" x="55.459787" y="137.616111" style="fill: #e69f00; stroke: #e69f00; stroke-linejoin: miter"/>
     <use xlink:href="#md58389bd16" x="49.980972" y="142.657778" style="fill: #e69f00; stroke: #e69f00; stroke-linejoin: miter"/>
     <use xlink:href="#md58389bd16" x="113.456249" y="86.955" style="fill: #e69f00; stroke: #e69f00; stroke-linejoin: miter"/>
     <use xlink:href="#md58389bd16" x="103.962927" y="87.138333" style="fill: #e69f00; stroke: #e69f00; stroke-linejoin: miter"/>
     <use xlink:href="#md58389bd16" x="161.712595" y="42.313333" style="fill: #e69f00; stroke: #e69f00; stroke-linejoin: miter"/>
     <use xlink:href="#md58389bd16" x="100.672348" y="97.068889" style="fill: #e69f00; stroke: #e69f00; stroke-linejoin: miter"/>
     <use xlink:href="#md58389bd16" x="202.894196" y="27.952222" style="fill: #e69f00; stroke: #e69f00; stroke-linejoin: miter"/>
     <use xlink:href="#md58389bd16" x="71.846872" y="113.813333" style="fill: #e69f00; stroke: #e69f00; stroke-linejoin: miter"/>
     <use xlink:href="#md58389bd16" x="73.574426" y="108.618889" style="fill: #e69f00; stroke: #e69f00; stroke-linejoin: miter"/>
     <use xlink:href="#md58389bd16" x="99.981326" y="81.424444" style="fill: #e69f00; stroke: #e69f00; stroke-linejoin: miter"/>
     <use xlink:href="#md58389bd16" x="60.98796" y="127.868889" style="fill: #e69f00; stroke: #e69f00; stroke-linejoin: miter"/>
    </g>
   </g>
   <g id="line2d_23">
    <defs>
     <path id="mf2387a8d6e" d="M -3 3 
L 3 3 
L 3 -3 
L -3 -3 
z
" style="stroke: #00507d; stroke-linejoin: miter"/>
    </defs>
    <g clip-path="url(#p2cf42b0b58)">
     <use xlink:href="#mf2387a8d6e" x="88.842715" y="117.930694" style="fill-opacity: 0; stroke: #00507d; stroke-linejoin: miter"/>
     <use xlink:href="#mf2387a8d6e" x="55.459787" y="138.72375" style="fill-opacity: 0; stroke: #00507d; stroke-linejoin: miter"/>
     <use xlink:href="#mf2387a8d6e" x="49.980972" y="143.139028" style="fill-opacity: 0; stroke: #00507d; stroke-linejoin: miter"/>
     <use xlink:href="#mf2387a8d6e" x="113.456249" y="93.07375" style="fill-opacity: 0; stroke: #00507d; stroke-linejoin: miter"/>
     <use xlink:href="#mf2387a8d6e" x="103.962927" y="100.789028" style="fill-opacity: 0; stroke: #00507d; stroke-linejoin: miter"/>
     <use xlink:href="#mf2387a8d6e" x="161.712595" y="55.131389" style="fill-opacity: 0; stroke: #00507d; stroke-linejoin: miter"/>
     <use xlink:href="#mf2387a8d6e" x="100.672348" y="104.478611" style="fill-opacity: 0; stroke: #00507d; stroke-linejoin: miter"/>
     <use xlink:href="#mf2387a8d6e" x="202.894196" y="40.556389" style="fill-opacity: 0; stroke: #00507d; stroke-linejoin: miter"/>
     <use xlink:href="#mf2387a8d6e" x="71.846872" y="117.403611" style="fill-opacity: 0; stroke: #00507d; stroke-linejoin: miter"/>
     <use xlink:href="#mf2387a8d6e" x="73.574426" y="122.470741" style="fill-opacity: 0; stroke: #00507d; stroke-linejoin: miter"/>
     <use xlink:href="#mf2387a8d6e" x="99.981326" y="88.223056" style="fill-opacity: 0; stroke: #00507d; stroke-linejoin: miter"/>
     <use xlink:href="#mf2387a8d6e" x="60.98796" y="129.855" style="fill-opacity: 0; stroke: #00507d; stroke-linejoin: miter"/>
    </g>
   </g>
   <g id="line2d_24">
    <defs>
     <path id="mc2c2d5dea5" d="M 0 -3 
L -2.85317 -0.927051 
L -1.763356 2.427051 
L 1.763356 2.427051 
L 2.85317 -0.927051 
z
" style="stroke: #8f5575; stroke-linejoin: miter"/>
    </defs>
    <g clip-path="url(#p2cf42b0b58)">
     <use xlink:href="#mc2c2d5dea5" x="88.842715" y="117.854306" style="fill-opacity: 0; stroke: #8f5575; stroke-linejoin: miter"/>
     <use xlink:href="#mc2c2d5dea5" x="55.459787" y="138.58625" style="fill-opacity: 0; stroke: #8f5575; stroke-linejoin: miter"/>
     <use xlink:href="#mc2c2d5dea5" x="49.980972" y="142.963333" style="fill-opacity: 0; stroke: #8f5575; stroke-linejoin: miter"/>
     <use xlink:href="#mc2c2d5dea5" x="113.456249" y="92.011944" style="fill-opacity: 0; stroke: #8f5575; stroke-linejoin: miter"/>
     <use xlink:href="#mc2c2d5dea5" x="103.962927" y="100.674444" style="fill-opacity: 0; stroke: #8f5575; stroke-linejoin: miter"/>
     <use xlink:href="#mc2c2d5dea5" x="161.712595" y="54.237639" style="fill-opacity: 0; stroke: #8f5575; stroke-linejoin: miter"/>
     <use xlink:href="#mc2c2d5dea5" x="100.672348" y="103.982083" style="fill-opacity: 0; stroke: #8f5575; stroke-linejoin: miter"/>
     <use xlink:href="#mc2c2d5dea5" x="202.894196" y="36.889722" style="fill-opacity: 0; stroke: #8f5575; stroke-linejoin: miter"/>
     <use xlink:href="#mc2c2d5dea5" x="71.846872" y="115.646667" style="fill-opacity: 0; stroke: #8f5575; stroke-linejoin: miter"/>
     <use xlink:href="#mc2c2d5dea5" x="73.574426" y="114.577222" style="fill-opacity: 0; stroke: #8f5575; stroke-linejoin: miter"/>
     <use xlink:href="#mc2c2d5dea5" x="99.981326" y="89.674444" style="fill-opacity: 0; stroke: #8f5575; stroke-linejoin: miter"/>
     <use xlink:href="#mc2c2d5dea5" x="60.98796" y="129.1675" style="fill-opacity: 0; stroke: #8f5575; stroke-linejoin: miter"/>
    </g>
   </g>
   <g id="line2d_25">
    <defs>
     <path id="m2866307065" d="M 0 -3 
L -2.598076 -1.5 
L -2.598076 1.5 
L -0 3 
L 2.598076 1.5 
L 2.598076 -1.5 
z
" style="stroke: #a17000; stroke-linejoin: miter"/>
    </defs>
    <g clip-path="url(#p2cf42b0b58)">
     <use xlink:href="#m2866307065" x="88.842715" y="102.882083" style="fill-opacity: 0; stroke: #a17000; stroke-linejoin: miter"/>
     <use xlink:href="#m2866307065" x="55.459787" y="137.027917" style="fill-opacity: 0; stroke: #a17000; stroke-linejoin: miter"/>
     <use xlink:href="#m2866307065" x="49.980972" y="142.245278" style="fill-opacity: 0; stroke: #a17000; stroke-linejoin: miter"/>
     <use xlink:href="#m2866307065" x="113.456249" y="83.655" style="fill-opacity: 0; stroke: #a17000; stroke-linejoin: miter"/>
     <use xlink:href="#m2866307065" x="103.962927" y="87.611944" style="fill-opacity: 0; stroke: #a17000; stroke-linejoin: miter"/>
     <use xlink:href="#m2866307065" x="161.712595" y="34.682083" style="fill-opacity: 0; stroke: #a17000; stroke-linejoin: miter"/>
     <use xlink:href="#m2866307065" x="100.672348" y="94.845972" style="fill-opacity: 0; stroke: #a17000; stroke-linejoin: miter"/>
     <use xlink:href="#m2866307065" x="202.894196" y="15.73" style="fill-opacity: 0; stroke: #a17000; stroke-linejoin: miter"/>
     <use xlink:href="#m2866307065" x="71.846872" y="111.750833" style="fill-opacity: 0; stroke: #a17000; stroke-linejoin: miter"/>
     <use xlink:href="#m2866307065" x="73.574426" y="115.748519" style="fill-opacity: 0; stroke: #a17000; stroke-linejoin: miter"/>
     <use xlink:href="#m2866307065" x="99.981326" y="76.764722" style="fill-opacity: 0; stroke: #a17000; stroke-linejoin: miter"/>
     <use xlink:href="#m2866307065" x="60.98796" y="131.128148" style="fill-opacity: 0; stroke: #a17000; stroke-linejoin: miter"/>
    </g>
   </g>
   <g id="patch_3">
    <path d="M 43.465625 147.73 
L 43.465625 9.13 
" style="fill: none; stroke: #000000; stroke-width: 0.8; stroke-linejoin: miter; stroke-linecap: square"/>
   </g>
   <g id="patch_4">
    <path d="M 210.865625 147.73 
L 210.865625 9.13 
" style="fill: none; stroke: #000000; stroke-width: 0.8; stroke-linejoin: miter; stroke-linecap: square"/>
   </g>
   <g id="patch_5">
    <path d="M 43.465625 147.73 
L 210.865625 147.73 
" style="fill: none; stroke: #000000; stroke-width: 0.8; stroke-linejoin: miter; stroke-linecap: square"/>
   </g>
   <g id="patch_6">
    <path d="M 43.465625 9.13 
L 210.865625 9.13 
" style="fill: none; stroke: #000000; stroke-width: 0.8; stroke-linejoin: miter; stroke-linecap: square"/>
   </g>
   <g id="legend_1">
    <g id="line2d_26">
     <g>
      <use xlink:href="#md345ba987b" x="229.865625" y="15.298438" style="fill: #0072b2; stroke: #0072b2; stroke-linejoin: miter"/>
     </g>
    </g>
    <g id="text_12">
     <!-- SWIPER parallel (applied limit) -->
     <g transform="translate(247.865625 18.798438) scale(0.1 -0.1)">
      <defs>
       <path id="DejaVuSerif-28" d="M 2041 -997 
Q 1281 -656 893 83 
Q 506 822 506 1931 
Q 506 3044 893 3783 
Q 1281 4522 2041 4863 
L 2041 4556 
Q 1559 4225 1350 3623 
Q 1141 3022 1141 1931 
Q 1141 844 1350 242 
Q 1559 -359 2041 -691 
L 2041 -997 
z
" transform="scale(0.015625)"/>
       <path id="DejaVuSerif-29" d="M 453 -997 
L 453 -691 
Q 934 -359 1145 242 
Q 1356 844 1356 1931 
Q 1356 3022 1145 3623 
Q 934 4225 453 4556 
L 453 4863 
Q 1216 4522 1603 3783 
Q 1991 3044 1991 1931 
Q 1991 822 1603 83 
Q 1216 -656 453 -997 
z
" transform="scale(0.015625)"/>
      </defs>
      <use xlink:href="#DejaVuSerif-53"/>
      <use xlink:href="#DejaVuSerif-57" transform="translate(68.505859 0)"/>
      <use xlink:href="#DejaVuSerif-49" transform="translate(171.289062 0)"/>
      <use xlink:href="#DejaVuSerif-50" transform="translate(210.791016 0)"/>
      <use xlink:href="#DejaVuSerif-45" transform="translate(278.076172 0)"/>
      <use xlink:href="#DejaVuSerif-52" transform="translate(351.074219 0)"/>
      <use xlink:href="#DejaVuSerif-20" transform="translate(426.367188 0)"/>
      <use xlink:href="#DejaVuSerif-70" transform="translate(458.154297 0)"/>
      <use xlink:href="#DejaVuSerif-61" transform="translate(522.167969 0)"/>
      <use xlink:href="#DejaVuSerif-72" transform="translate(581.787109 0)"/>
      <use xlink:href="#DejaVuSerif-61" transform="translate(629.589844 0)"/>
      <use xlink:href="#DejaVuSerif-6c" transform="translate(689.208984 0)"/>
      <use xlink:href="#DejaVuSerif-6c" transform="translate(721.191406 0)"/>
      <use xlink:href="#DejaVuSerif-65" transform="translate(753.173828 0)"/>
      <use xlink:href="#DejaVuSerif-6c" transform="translate(812.353516 0)"/>
      <use xlink:href="#DejaVuSerif-20" transform="translate(844.335938 0)"/>
      <use xlink:href="#DejaVuSerif-28" transform="translate(876.123047 0)"/>
      <use xlink:href="#DejaVuSerif-61" transform="translate(915.136719 0)"/>
      <use xlink:href="#DejaVuSerif-70" transform="translate(974.755859 0)"/>
      <use xlink:href="#DejaVuSerif-70" transform="translate(1038.769531 0)"/>
      <use xlink:href="#DejaVuSerif-6c" transform="translate(1102.783203 0)"/>
      <use xlink:href="#DejaVuSerif-69" transform="translate(1134.765625 0)"/>
      <use xlink:href="#DejaVuSerif-65" transform="translate(1166.748047 0)"/>
      <use xlink:href="#DejaVuSerif-64" transform="translate(1225.927734 0)"/>
      <use xlink:href="#DejaVuSerif-20" transform="translate(1289.941406 0)"/>
      <use xlink:href="#DejaVuSerif-6c" transform="translate(1321.728516 0)"/>
      <use xlink:href="#DejaVuSerif-69" transform="translate(1353.710938 0)"/>
      <use xlink:href="#DejaVuSerif-6d" transform="translate(1385.693359 0)"/>
      <use xlink:href="#DejaVuSerif-69" transform="translate(1480.517578 0)"/>
      <use xlink:href="#DejaVuSerif-74" transform="translate(1512.5 0)"/>
      <use xlink:href="#DejaVuSerif-29" transform="translate(1552.685547 0)"/>
     </g>
    </g>
    <g id="line2d_27">
     <g>
      <use xlink:href="#m3969e81f30" x="229.865625" y="29.976563" style="fill: #cc79a7; stroke: #cc79a7; stroke-linejoin: miter"/>
     </g>
    </g>
    <g id="text_13">
     <!-- SWIPER aligned (applied limit) -->
     <g transform="translate(247.865625 33.476563) scale(0.1 -0.1)">
      <defs>
       <path id="DejaVuSerif-67" d="M 3359 2988 
L 3359 72 
Q 3359 -644 2965 -1033 
Q 2572 -1422 1844 -1422 
Q 1516 -1422 1216 -1362 
Q 916 -1303 641 -1184 
L 641 -488 
L 941 -488 
Q 997 -813 1206 -963 
Q 1416 -1113 1806 -1113 
Q 2313 -1113 2548 -827 
Q 2784 -541 2784 72 
L 2784 519 
Q 2616 206 2355 57 
Q 2094 -91 1709 -91 
Q 1097 -91 708 395 
Q 319 881 319 1663 
Q 319 2444 706 2928 
Q 1094 3413 1709 3413 
Q 2094 3413 2355 3264 
Q 2616 3116 2784 2803 
L 2784 3322 
L 3909 3322 
L 3909 2988 
L 3359 2988 
z
M 2784 1825 
Q 2784 2422 2554 2737 
Q 2325 3053 1888 3053 
Q 1444 3053 1217 2703 
Q 991 2353 991 1663 
Q 991 975 1217 622 
Q 1444 269 1888 269 
Q 2325 269 2554 583 
Q 2784 897 2784 1497 
L 2784 1825 
z
" transform="scale(0.015625)"/>
      </defs>
      <use xlink:href="#DejaVuSerif-53"/>
      <use xlink:href="#DejaVuSerif-57" transform="translate(68.505859 0)"/>
      <use xlink:href="#DejaVuSerif-49" transform="translate(171.289062 0)"/>
      <use xlink:href="#DejaVuSerif-50" transform="translate(210.791016 0)"/>
      <use xlink:href="#DejaVuSerif-45" transform="translate(278.076172 0)"/>
      <use xlink:href="#DejaVuSerif-52" transform="translate(351.074219 0)"/>
      <use xlink:href="#DejaVuSerif-20" transform="translate(426.367188 0)"/>
      <use xlink:href="#DejaVuSerif-61" transform="translate(458.154297 0)"/>
      <use xlink:href="#DejaVuSerif-6c" transform="translate(517.773438 0)"/>
      <use xlink:href="#DejaVuSerif-69" transform="translate(549.755859 0)"/>
      <use xlink:href="#DejaVuSerif-67" transform="translate(581.738281 0)"/>
      <use xlink:href="#DejaVuSerif-6e" transform="translate(645.751953 0)"/>
      <use xlink:href="#DejaVuSerif-65" transform="translate(710.15625 0)"/>
      <use xlink:href="#DejaVuSerif-64" transform="translate(769.335938 0)"/>
      <use xlink:href="#DejaVuSerif-20" transform="translate(833.349609 0)"/>
      <use xlink:href="#DejaVuSerif-28" transform="translate(865.136719 0)"/>
      <use xlink:href="#DejaVuSerif-61" transform="translate(904.150391 0)"/>
      <use xlink:href="#DejaVuSerif-70" transform="translate(963.769531 0)"/>
      <use xlink:href="#DejaVuSerif-70" transform="translate(1027.783203 0)"/>
      <use xlink:href="#DejaVuSerif-6c" transform="translate(1091.796875 0)"/>
      <use xlink:href="#DejaVuSerif-69" transform="translate(1123.779297 0)"/>
      <use xlink:href="#DejaVuSerif-65" transform="translate(1155.761719 0)"/>
      <use xlink:href="#DejaVuSerif-64" transform="translate(1214.941406 0)"/>
      <use xlink:href="#DejaVuSerif-20" transform="translate(1278.955078 0)"/>
      <use xlink:href="#DejaVuSerif-6c" transform="translate(1310.742188 0)"/>
      <use xlink:href="#DejaVuSerif-69" transform="translate(1342.724609 0)"/>
      <use xlink:href="#DejaVuSerif-6d" transform="translate(1374.707031 0)"/>
      <use xlink:href="#DejaVuSerif-69" transform="translate(1469.53125 0)"/>
      <use xlink:href="#DejaVuSerif-74" transform="translate(1501.513672 0)"/>
      <use xlink:href="#DejaVuSerif-29" transform="translate(1541.699219 0)"/>
     </g>
    </g>
    <g id="line2d_28">
     <g>
      <use xlink:href="#md58389bd16" x="229.865625" y="44.796875" style="fill: #e69f00; stroke: #e69f00; stroke-linejoin: miter"/>
     </g>
    </g>
    <g id="text_14">
     <!-- SWIPER sliding (applied limit) -->
     <g transform="translate(247.865625 48.296875) scale(0.1 -0.1)">
      <defs>
       <path id="DejaVuSerif-73" d="M 359 184 
L 359 959 
L 691 959 
Q 703 588 923 403 
Q 1144 219 1575 219 
Q 1963 219 2166 364 
Q 2369 509 2369 788 
Q 2369 1006 2220 1140 
Q 2072 1275 1594 1428 
L 1178 1569 
Q 750 1706 558 1912 
Q 366 2119 366 2438 
Q 366 2894 700 3153 
Q 1034 3413 1625 3413 
Q 1888 3413 2178 3344 
Q 2469 3275 2778 3144 
L 2778 2419 
L 2447 2419 
Q 2434 2741 2221 2922 
Q 2009 3103 1644 3103 
Q 1281 3103 1095 2975 
Q 909 2847 909 2591 
Q 909 2381 1050 2254 
Q 1191 2128 1613 1997 
L 2069 1856 
Q 2541 1709 2748 1489 
Q 2956 1269 2956 922 
Q 2956 450 2595 179 
Q 2234 -91 1600 -91 
Q 1278 -91 972 -22 
Q 666 47 359 184 
z
" transform="scale(0.015625)"/>
      </defs>
      <use xlink:href="#DejaVuSerif-53"/>
      <use xlink:href="#DejaVuSerif-57" transform="translate(68.505859 0)"/>
      <use xlink:href="#DejaVuSerif-49" transform="translate(171.289062 0)"/>
      <use xlink:href="#DejaVuSerif-50" transform="translate(210.791016 0)"/>
      <use xlink:href="#DejaVuSerif-45" transform="translate(278.076172 0)"/>
      <use xlink:href="#DejaVuSerif-52" transform="translate(351.074219 0)"/>
      <use xlink:href="#DejaVuSerif-20" transform="translate(426.367188 0)"/>
      <use xlink:href="#DejaVuSerif-73" transform="translate(458.154297 0)"/>
      <use xlink:href="#DejaVuSerif-6c" transform="translate(509.472656 0)"/>
      <use xlink:href="#DejaVuSerif-69" transform="translate(541.455078 0)"/>
      <use xlink:href="#DejaVuSerif-64" transform="translate(573.4375 0)"/>
      <use xlink:href="#DejaVuSerif-69" transform="translate(637.451172 0)"/>
      <use xlink:href="#DejaVuSerif-6e" transform="translate(669.433594 0)"/>
      <use xlink:href="#DejaVuSerif-67" transform="translate(733.837891 0)"/>
      <use xlink:href="#DejaVuSerif-20" transform="translate(797.851562 0)"/>
      <use xlink:href="#DejaVuSerif-28" transform="translate(829.638672 0)"/>
      <use xlink:href="#DejaVuSerif-61" transform="translate(868.652344 0)"/>
      <use xlink:href="#DejaVuSerif-70" transform="translate(928.271484 0)"/>
      <use xlink:href="#DejaVuSerif-70" transform="translate(992.285156 0)"/>
      <use xlink:href="#DejaVuSerif-6c" transform="translate(1056.298828 0)"/>
      <use xlink:href="#DejaVuSerif-69" transform="translate(1088.28125 0)"/>
      <use xlink:href="#DejaVuSerif-65" transform="translate(1120.263672 0)"/>
      <use xlink:href="#DejaVuSerif-64" transform="translate(1179.443359 0)"/>
      <use xlink:href="#DejaVuSerif-20" transform="translate(1243.457031 0)"/>
      <use xlink:href="#DejaVuSerif-6c" transform="translate(1275.244141 0)"/>
      <use xlink:href="#DejaVuSerif-69" transform="translate(1307.226562 0)"/>
      <use xlink:href="#DejaVuSerif-6d" transform="translate(1339.208984 0)"/>
      <use xlink:href="#DejaVuSerif-69" transform="translate(1434.033203 0)"/>
      <use xlink:href="#DejaVuSerif-74" transform="translate(1466.015625 0)"/>
      <use xlink:href="#DejaVuSerif-29" transform="translate(1506.201172 0)"/>
     </g>
    </g>
    <g id="line2d_29">
     <g>
      <use xlink:href="#mf2387a8d6e" x="229.865625" y="59.617188" style="fill-opacity: 0; stroke: #00507d; stroke-linejoin: miter"/>
     </g>
    </g>
    <g id="text_15">
     <!-- SWIPER parallel (unlimited usage) -->
     <g transform="translate(247.865625 63.117188) scale(0.1 -0.1)">
      <use xlink:href="#DejaVuSerif-53"/>
      <use xlink:href="#DejaVuSerif-57" transform="translate(68.505859 0)"/>
      <use xlink:href="#DejaVuSerif-49" transform="translate(171.289062 0)"/>
      <use xlink:href="#DejaVuSerif-50" transform="translate(210.791016 0)"/>
      <use xlink:href="#DejaVuSerif-45" transform="translate(278.076172 0)"/>
      <use xlink:href="#DejaVuSerif-52" transform="translate(351.074219 0)"/>
      <use xlink:href="#DejaVuSerif-20" transform="translate(426.367188 0)"/>
      <use xlink:href="#DejaVuSerif-70" transform="translate(458.154297 0)"/>
      <use xlink:href="#DejaVuSerif-61" transform="translate(522.167969 0)"/>
      <use xlink:href="#DejaVuSerif-72" transform="translate(581.787109 0)"/>
      <use xlink:href="#DejaVuSerif-61" transform="translate(629.589844 0)"/>
      <use xlink:href="#DejaVuSerif-6c" transform="translate(689.208984 0)"/>
      <use xlink:href="#DejaVuSerif-6c" transform="translate(721.191406 0)"/>
      <use xlink:href="#DejaVuSerif-65" transform="translate(753.173828 0)"/>
      <use xlink:href="#DejaVuSerif-6c" transform="translate(812.353516 0)"/>
      <use xlink:href="#DejaVuSerif-20" transform="translate(844.335938 0)"/>
      <use xlink:href="#DejaVuSerif-28" transform="translate(876.123047 0)"/>
      <use xlink:href="#DejaVuSerif-75" transform="translate(915.136719 0)"/>
      <use xlink:href="#DejaVuSerif-6e" transform="translate(979.541016 0)"/>
      <use xlink:href="#DejaVuSerif-6c" transform="translate(1043.945312 0)"/>
      <use xlink:href="#DejaVuSerif-69" transform="translate(1075.927734 0)"/>
      <use xlink:href="#DejaVuSerif-6d" transform="translate(1107.910156 0)"/>
      <use xlink:href="#DejaVuSerif-69" transform="translate(1202.734375 0)"/>
      <use xlink:href="#DejaVuSerif-74" transform="translate(1234.716797 0)"/>
      <use xlink:href="#DejaVuSerif-65" transform="translate(1274.902344 0)"/>
      <use xlink:href="#DejaVuSerif-64" transform="translate(1334.082031 0)"/>
      <use xlink:href="#DejaVuSerif-20" transform="translate(1398.095703 0)"/>
      <use xlink:href="#DejaVuSerif-75" transform="translate(1429.882812 0)"/>
      <use xlink:href="#DejaVuSerif-73" transform="translate(1494.287109 0)"/>
      <use xlink:href="#DejaVuSerif-61" transform="translate(1545.605469 0)"/>
      <use xlink:href="#DejaVuSerif-67" transform="translate(1605.224609 0)"/>
      <use xlink:href="#DejaVuSerif-65" transform="translate(1669.238281 0)"/>
      <use xlink:href="#DejaVuSerif-29" transform="translate(1728.417969 0)"/>
     </g>
    </g>
    <g id="line2d_30">
     <g>
      <use xlink:href="#mc2c2d5dea5" x="229.865625" y="74.4375" style="fill-opacity: 0; stroke: #8f5575; stroke-linejoin: miter"/>
     </g>
    </g>
    <g id="text_16">
     <!-- SWIPER aligned (unlimited usage) -->
     <g transform="translate(247.865625 77.9375) scale(0.1 -0.1)">
      <use xlink:href="#DejaVuSerif-53"/>
      <use xlink:href="#DejaVuSerif-57" transform="translate(68.505859 0)"/>
      <use xlink:href="#DejaVuSerif-49" transform="translate(171.289062 0)"/>
      <use xlink:href="#DejaVuSerif-50" transform="translate(210.791016 0)"/>
      <use xlink:href="#DejaVuSerif-45" transform="translate(278.076172 0)"/>
      <use xlink:href="#DejaVuSerif-52" transform="translate(351.074219 0)"/>
      <use xlink:href="#DejaVuSerif-20" transform="translate(426.367188 0)"/>
      <use xlink:href="#DejaVuSerif-61" transform="translate(458.154297 0)"/>
      <use xlink:href="#DejaVuSerif-6c" transform="translate(517.773438 0)"/>
      <use xlink:href="#DejaVuSerif-69" transform="translate(549.755859 0)"/>
      <use xlink:href="#DejaVuSerif-67" transform="translate(581.738281 0)"/>
      <use xlink:href="#DejaVuSerif-6e" transform="translate(645.751953 0)"/>
      <use xlink:href="#DejaVuSerif-65" transform="translate(710.15625 0)"/>
      <use xlink:href="#DejaVuSerif-64" transform="translate(769.335938 0)"/>
      <use xlink:href="#DejaVuSerif-20" transform="translate(833.349609 0)"/>
      <use xlink:href="#DejaVuSerif-28" transform="translate(865.136719 0)"/>
      <use xlink:href="#DejaVuSerif-75" transform="translate(904.150391 0)"/>
      <use xlink:href="#DejaVuSerif-6e" transform="translate(968.554688 0)"/>
      <use xlink:href="#DejaVuSerif-6c" transform="translate(1032.958984 0)"/>
      <use xlink:href="#DejaVuSerif-69" transform="translate(1064.941406 0)"/>
      <use xlink:href="#DejaVuSerif-6d" transform="translate(1096.923828 0)"/>
      <use xlink:href="#DejaVuSerif-69" transform="translate(1191.748047 0)"/>
      <use xlink:href="#DejaVuSerif-74" transform="translate(1223.730469 0)"/>
      <use xlink:href="#DejaVuSerif-65" transform="translate(1263.916016 0)"/>
      <use xlink:href="#DejaVuSerif-64" transform="translate(1323.095703 0)"/>
      <use xlink:href="#DejaVuSerif-20" transform="translate(1387.109375 0)"/>
      <use xlink:href="#DejaVuSerif-75" transform="translate(1418.896484 0)"/>
      <use xlink:href="#DejaVuSerif-73" transform="translate(1483.300781 0)"/>
      <use xlink:href="#DejaVuSerif-61" transform="translate(1534.619141 0)"/>
      <use xlink:href="#DejaVuSerif-67" transform="translate(1594.238281 0)"/>
      <use xlink:href="#DejaVuSerif-65" transform="translate(1658.251953 0)"/>
      <use xlink:href="#DejaVuSerif-29" transform="translate(1717.431641 0)"/>
     </g>
    </g>
    <g id="line2d_31">
     <g>
      <use xlink:href="#m2866307065" x="229.865625" y="89.257813" style="fill-opacity: 0; stroke: #a17000; stroke-linejoin: miter"/>
     </g>
    </g>
    <g id="text_17">
     <!-- SWIPER sliding (unlimited usage) -->
     <g transform="translate(247.865625 92.757813) scale(0.1 -0.1)">
      <use xlink:href="#DejaVuSerif-53"/>
      <use xlink:href="#DejaVuSerif-57" transform="translate(68.505859 0)"/>
      <use xlink:href="#DejaVuSerif-49" transform="translate(171.289062 0)"/>
      <use xlink:href="#DejaVuSerif-50" transform="translate(210.791016 0)"/>
      <use xlink:href="#DejaVuSerif-45" transform="translate(278.076172 0)"/>
      <use xlink:href="#DejaVuSerif-52" transform="translate(351.074219 0)"/>
      <use xlink:href="#DejaVuSerif-20" transform="translate(426.367188 0)"/>
      <use xlink:href="#DejaVuSerif-73" transform="translate(458.154297 0)"/>
      <use xlink:href="#DejaVuSerif-6c" transform="translate(509.472656 0)"/>
      <use xlink:href="#DejaVuSerif-69" transform="translate(541.455078 0)"/>
      <use xlink:href="#DejaVuSerif-64" transform="translate(573.4375 0)"/>
      <use xlink:href="#DejaVuSerif-69" transform="translate(637.451172 0)"/>
      <use xlink:href="#DejaVuSerif-6e" transform="translate(669.433594 0)"/>
      <use xlink:href="#DejaVuSerif-67" transform="translate(733.837891 0)"/>
      <use xlink:href="#DejaVuSerif-20" transform="translate(797.851562 0)"/>
      <use xlink:href="#DejaVuSerif-28" transform="translate(829.638672 0)"/>
      <use xlink:href="#DejaVuSerif-75" transform="translate(868.652344 0)"/>
      <use xlink:href="#DejaVuSerif-6e" transform="translate(933.056641 0)"/>
      <use xlink:href="#DejaVuSerif-6c" transform="translate(997.460938 0)"/>
      <use xlink:href="#DejaVuSerif-69" transform="translate(1029.443359 0)"/>
      <use xlink:href="#DejaVuSerif-6d" transform="translate(1061.425781 0)"/>
      <use xlink:href="#DejaVuSerif-69" transform="translate(1156.25 0)"/>
      <use xlink:href="#DejaVuSerif-74" transform="translate(1188.232422 0)"/>
      <use xlink:href="#DejaVuSerif-65" transform="translate(1228.417969 0)"/>
      <use xlink:href="#DejaVuSerif-64" transform="translate(1287.597656 0)"/>
      <use xlink:href="#DejaVuSerif-20" transform="translate(1351.611328 0)"/>
      <use xlink:href="#DejaVuSerif-75" transform="translate(1383.398438 0)"/>
      <use xlink:href="#DejaVuSerif-73" transform="translate(1447.802734 0)"/>
      <use xlink:href="#DejaVuSerif-61" transform="translate(1499.121094 0)"/>
      <use xlink:href="#DejaVuSerif-67" transform="translate(1558.740234 0)"/>
      <use xlink:href="#DejaVuSerif-65" transform="translate(1622.753906 0)"/>
      <use xlink:href="#DejaVuSerif-29" transform="translate(1681.933594 0)"/>
     </g>
    </g>
    <g id="line2d_32">
     <path d="M 219.865625 105.579688 
L 229.865625 105.579688 
L 239.865625 105.579688 
" style="fill: none; stroke-dasharray: 5.55,2.4; stroke-dashoffset: 0; stroke: #009e73; stroke-width: 1.5"/>
    </g>
    <g id="text_18">
     <!-- Linear fit: y = 1.28x, $R^2=$0.91 -->
     <g transform="translate(247.865625 109.079688) scale(0.1 -0.1)">
      <defs>
       <path id="DejaVuSerif-4c" d="M 353 0 
L 353 331 
L 947 331 
L 947 4331 
L 353 4331 
L 353 4666 
L 2175 4666 
L 2175 4331 
L 1581 4331 
L 1581 384 
L 3713 384 
L 3713 1166 
L 4097 1166 
L 4097 0 
L 353 0 
z
" transform="scale(0.015625)"/>
       <path id="DejaVuSerif-3a" d="M 666 325 
Q 666 500 786 622 
Q 906 744 1081 744 
Q 1256 744 1376 622 
Q 1497 500 1497 325 
Q 1497 150 1378 29 
Q 1259 -91 1081 -91 
Q 903 -91 784 29 
Q 666 150 666 325 
z
M 666 2363 
Q 666 2538 786 2658 
Q 906 2778 1081 2778 
Q 1259 2778 1378 2659 
Q 1497 2541 1497 2363 
Q 1497 2184 1378 2065 
Q 1259 1947 1081 1947 
Q 906 1947 786 2067 
Q 666 2188 666 2363 
z
" transform="scale(0.015625)"/>
       <path id="DejaVuSerif-79" d="M 1381 -609 
L 1600 -56 
L 359 2988 
L -19 2988 
L -19 3322 
L 1509 3322 
L 1509 2988 
L 978 2988 
L 1913 703 
L 2847 2988 
L 2350 2988 
L 2350 3322 
L 3597 3322 
L 3597 2988 
L 3225 2988 
L 1703 -750 
Q 1547 -1138 1356 -1280 
Q 1166 -1422 819 -1422 
Q 672 -1422 517 -1397 
Q 363 -1372 206 -1325 
L 206 -691 
L 500 -691 
Q 519 -903 608 -995 
Q 697 -1088 884 -1088 
Q 1056 -1088 1161 -992 
Q 1266 -897 1381 -609 
z
" transform="scale(0.015625)"/>
       <path id="DejaVuSerif-3d" d="M 678 2894 
L 4684 2894 
L 4684 2394 
L 678 2394 
L 678 2894 
z
M 678 1619 
L 4684 1619 
L 4684 1119 
L 678 1119 
L 678 1619 
z
" transform="scale(0.015625)"/>
       <path id="DejaVuSerif-38" d="M 2981 1275 
Q 2981 1775 2732 2051 
Q 2484 2328 2034 2328 
Q 1584 2328 1336 2051 
Q 1088 1775 1088 1275 
Q 1088 772 1336 495 
Q 1584 219 2034 219 
Q 2484 219 2732 495 
Q 2981 772 2981 1275 
z
M 2853 3541 
Q 2853 3966 2637 4203 
Q 2422 4441 2034 4441 
Q 1650 4441 1433 4203 
Q 1216 3966 1216 3541 
Q 1216 3113 1433 2875 
Q 1650 2638 2034 2638 
Q 2422 2638 2637 2875 
Q 2853 3113 2853 3541 
z
M 2516 2484 
Q 3047 2413 3344 2092 
Q 3641 1772 3641 1275 
Q 3641 619 3225 264 
Q 2809 -91 2034 -91 
Q 1263 -91 845 264 
Q 428 619 428 1275 
Q 428 1772 725 2092 
Q 1022 2413 1556 2484 
Q 1084 2569 832 2842 
Q 581 3116 581 3541 
Q 581 4103 968 4426 
Q 1356 4750 2034 4750 
Q 2713 4750 3100 4426 
Q 3488 4103 3488 3541 
Q 3488 3116 3236 2842 
Q 2984 2569 2516 2484 
z
" transform="scale(0.015625)"/>
       <path id="DejaVuSerif-2c" d="M 231 -622 
Q 525 -406 662 -114 
Q 800 178 800 594 
L 800 709 
L 1416 709 
Q 1391 175 1164 -208 
Q 938 -591 481 -872 
L 231 -622 
z
" transform="scale(0.015625)"/>
       <path id="DejaVuSans-Oblique-52" d="M 1613 4147 
L 1294 2491 
L 2106 2491 
Q 2584 2491 2879 2755 
Q 3175 3019 3175 3444 
Q 3175 3784 2976 3965 
Q 2778 4147 2406 4147 
L 1613 4147 
z
M 2772 2241 
Q 2972 2194 3105 2009 
Q 3238 1825 3413 1275 
L 3809 0 
L 3144 0 
L 2778 1197 
Q 2638 1659 2453 1815 
Q 2269 1972 1888 1972 
L 1191 1972 
L 806 0 
L 172 0 
L 1081 4666 
L 2503 4666 
Q 3150 4666 3495 4373 
Q 3841 4081 3841 3531 
Q 3841 3044 3547 2687 
Q 3253 2331 2772 2241 
z
" transform="scale(0.015625)"/>
       <path id="DejaVuSans-32" d="M 1228 531 
L 3431 531 
L 3431 0 
L 469 0 
L 469 531 
Q 828 903 1448 1529 
Q 2069 2156 2228 2338 
Q 2531 2678 2651 2914 
Q 2772 3150 2772 3378 
Q 2772 3750 2511 3984 
Q 2250 4219 1831 4219 
Q 1534 4219 1204 4116 
Q 875 4013 500 3803 
L 500 4441 
Q 881 4594 1212 4672 
Q 1544 4750 1819 4750 
Q 2544 4750 2975 4387 
Q 3406 4025 3406 3419 
Q 3406 3131 3298 2873 
Q 3191 2616 2906 2266 
Q 2828 2175 2409 1742 
Q 1991 1309 1228 531 
z
" transform="scale(0.015625)"/>
       <path id="DejaVuSans-3d" d="M 678 2906 
L 4684 2906 
L 4684 2381 
L 678 2381 
L 678 2906 
z
M 678 1631 
L 4684 1631 
L 4684 1100 
L 678 1100 
L 678 1631 
z
" transform="scale(0.015625)"/>
       <path id="DejaVuSerif-39" d="M 2994 2091 
Q 2784 1856 2512 1740 
Q 2241 1625 1900 1625 
Q 1206 1625 804 2044 
Q 403 2463 403 3188 
Q 403 3897 839 4323 
Q 1275 4750 2003 4750 
Q 2794 4750 3217 4161 
Q 3641 3572 3641 2478 
Q 3641 1253 3137 581 
Q 2634 -91 1722 -91 
Q 1475 -91 1203 -44 
Q 931 3 647 97 
L 647 872 
L 997 872 
Q 1038 556 1241 387 
Q 1444 219 1784 219 
Q 2391 219 2687 676 
Q 2984 1134 2994 2091 
z
M 1978 4441 
Q 1534 4441 1298 4117 
Q 1063 3794 1063 3188 
Q 1063 2581 1298 2256 
Q 1534 1931 1978 1931 
Q 2422 1931 2658 2245 
Q 2894 2559 2894 3150 
Q 2894 3772 2656 4106 
Q 2419 4441 1978 4441 
z
" transform="scale(0.015625)"/>
      </defs>
      <use xlink:href="#DejaVuSerif-4c" transform="translate(0 0.765625)"/>
      <use xlink:href="#DejaVuSerif-69" transform="translate(66.40625 0.765625)"/>
      <use xlink:href="#DejaVuSerif-6e" transform="translate(98.388672 0.765625)"/>
      <use xlink:href="#DejaVuSerif-65" transform="translate(162.792969 0.765625)"/>
      <use xlink:href="#DejaVuSerif-61" transform="translate(221.972656 0.765625)"/>
      <use xlink:href="#DejaVuSerif-72" transform="translate(281.591797 0.765625)"/>
      <use xlink:href="#DejaVuSerif-20" transform="translate(329.394531 0.765625)"/>
      <use xlink:href="#DejaVuSerif-66" transform="translate(361.181641 0.765625)"/>
      <use xlink:href="#DejaVuSerif-69" transform="translate(398.193359 0.765625)"/>
      <use xlink:href="#DejaVuSerif-74" transform="translate(430.175781 0.765625)"/>
      <use xlink:href="#DejaVuSerif-3a" transform="translate(470.361328 0.765625)"/>
      <use xlink:href="#DejaVuSerif-20" transform="translate(504.052734 0.765625)"/>
      <use xlink:href="#DejaVuSerif-79" transform="translate(535.839844 0.765625)"/>
      <use xlink:href="#DejaVuSerif-20" transform="translate(592.333984 0.765625)"/>
      <use xlink:href="#DejaVuSerif-3d" transform="translate(624.121094 0.765625)"/>
      <use xlink:href="#DejaVuSerif-20" transform="translate(707.910156 0.765625)"/>
      <use xlink:href="#DejaVuSerif-31" transform="translate(739.697266 0.765625)"/>
      <use xlink:href="#DejaVuSerif-2e" transform="translate(803.320312 0.765625)"/>
      <use xlink:href="#DejaVuSerif-32" transform="translate(832.482422 0.765625)"/>
      <use xlink:href="#DejaVuSerif-38" transform="translate(896.105469 0.765625)"/>
      <use xlink:href="#DejaVuSerif-78" transform="translate(959.728516 0.765625)"/>
      <use xlink:href="#DejaVuSerif-2c" transform="translate(1016.125 0.765625)"/>
      <use xlink:href="#DejaVuSerif-20" transform="translate(1047.912109 0.765625)"/>
      <use xlink:href="#DejaVuSans-Oblique-52" transform="translate(1079.699219 0.765625)"/>
      <use xlink:href="#DejaVuSans-32" transform="translate(1156.198411 39.046875) scale(0.7)"/>
      <use xlink:href="#DejaVuSans-3d" transform="translate(1222.951341 0.765625)"/>
      <use xlink:href="#DejaVuSerif-30" transform="translate(1326.222826 0.765625)"/>
      <use xlink:href="#DejaVuSerif-2e" transform="translate(1389.845872 0.765625)"/>
      <use xlink:href="#DejaVuSerif-39" transform="translate(1421.632982 0.765625)"/>
      <use xlink:href="#DejaVuSerif-31" transform="translate(1485.256029 0.765625)"/>
     </g>
    </g>
   </g>
  </g>
 </g>
 <defs>
  <clipPath id="p2cf42b0b58">
   <rect x="43.465625" y="9.13" width="167.4" height="138.6"/>
  </clipPath>
 </defs>
</svg>
