<?xml version="1.0" encoding="utf-8" standalone="no"?>
<!DOCTYPE svg PUBLIC "-//W3C//DTD SVG 1.1//EN"
  "http://www.w3.org/Graphics/SVG/1.1/DTD/svg11.dtd">
<svg xmlns:xlink="http://www.w3.org/1999/xlink" width="184.145232pt" height="83.56425pt" viewBox="0 0 184.145232 83.56425" xmlns="http://www.w3.org/2000/svg" version="1.1">
 <metadata>
  <rdf:RDF xmlns:dc="http://purl.org/dc/elements/1.1/" xmlns:cc="http://creativecommons.org/ns#" xmlns:rdf="http://www.w3.org/1999/02/22-rdf-syntax-ns#">
   <cc:Work>
    <dc:type rdf:resource="http://purl.org/dc/dcmitype/StillImage"/>
    <dc:date>2025-02-19T12:49:17.981914</dc:date>
    <dc:format>image/svg+xml</dc:format>
    <dc:creator>
     <cc:Agent>
      <dc:title>Matplotlib v3.10.0, https://matplotlib.org/</dc:title>
     </cc:Agent>
    </dc:creator>
   </cc:Work>
  </rdf:RDF>
 </metadata>
 <defs>
  <style type="text/css">*{stroke-linejoin: round; stroke-linecap: butt}</style>
 </defs>
 <g id="figure_1">
  <g id="patch_1">
   <path d="M 0 83.56425 
L 184.145232 83.56425 
L 184.145232 0 
L 0 0 
z
" style="fill: #ffffff"/>
  </g>
  <g id="axes_1">
   <g id="patch_2">
    <path d="M 7.2 46.008 
L 174.6 46.008 
L 174.6 7.2 
L 7.2 7.2 
z
" style="fill: #ffffff"/>
   </g>
   <g id="matplotlib.axis_1">
    <g id="xtick_1">
     <g id="line2d_1">
      <defs>
       <path id="mead0510138" d="M 0 0 
L 0 3.5 
" style="stroke: #000000; stroke-width: 0.8"/>
      </defs>
      <g>
       <use xlink:href="#mead0510138" x="28.157832" y="46.008" style="stroke: #000000; stroke-width: 0.8"/>
      </g>
     </g>
     <g id="text_1">
      <!-- 0.06 -->
      <g transform="translate(17.02502 60.606437) scale(0.1 -0.1)">
       <defs>
        <path id="DejaVuSerif-30" d="M 2034 219 
Q 2513 219 2750 744 
Q 2988 1269 2988 2328 
Q 2988 3391 2750 3916 
Q 2513 4441 2034 4441 
Q 1556 4441 1318 3916 
Q 1081 3391 1081 2328 
Q 1081 1269 1318 744 
Q 1556 219 2034 219 
z
M 2034 -91 
Q 1275 -91 848 546 
Q 422 1184 422 2328 
Q 422 3475 848 4112 
Q 1275 4750 2034 4750 
Q 2797 4750 3222 4112 
Q 3647 3475 3647 2328 
Q 3647 1184 3222 546 
Q 2797 -91 2034 -91 
z
" transform="scale(0.015625)"/>
        <path id="DejaVuSerif-2e" d="M 603 325 
Q 603 500 722 622 
Q 841 744 1019 744 
Q 1191 744 1312 622 
Q 1434 500 1434 325 
Q 1434 153 1312 31 
Q 1191 -91 1019 -91 
Q 841 -91 722 29 
Q 603 150 603 325 
z
" transform="scale(0.015625)"/>
        <path id="DejaVuSerif-36" d="M 2094 219 
Q 2534 219 2771 542 
Q 3009 866 3009 1472 
Q 3009 2078 2771 2401 
Q 2534 2725 2094 2725 
Q 1647 2725 1412 2412 
Q 1178 2100 1178 1509 
Q 1178 888 1415 553 
Q 1653 219 2094 219 
z
M 1075 2569 
Q 1288 2803 1556 2918 
Q 1825 3034 2163 3034 
Q 2859 3034 3264 2615 
Q 3669 2197 3669 1472 
Q 3669 763 3233 336 
Q 2797 -91 2069 -91 
Q 1278 -91 853 498 
Q 428 1088 428 2181 
Q 428 3406 931 4078 
Q 1434 4750 2350 4750 
Q 2597 4750 2869 4703 
Q 3141 4656 3425 4563 
L 3425 3794 
L 3072 3794 
Q 3034 4109 2831 4275 
Q 2628 4441 2284 4441 
Q 1678 4441 1381 3981 
Q 1084 3522 1075 2569 
z
" transform="scale(0.015625)"/>
       </defs>
       <use xlink:href="#DejaVuSerif-30"/>
       <use xlink:href="#DejaVuSerif-2e" transform="translate(63.623047 0)"/>
       <use xlink:href="#DejaVuSerif-30" transform="translate(95.410156 0)"/>
       <use xlink:href="#DejaVuSerif-36" transform="translate(159.033203 0)"/>
      </g>
     </g>
    </g>
    <g id="xtick_2">
     <g id="line2d_2">
      <g>
       <use xlink:href="#mead0510138" x="62.571479" y="46.008" style="stroke: #000000; stroke-width: 0.8"/>
      </g>
     </g>
     <g id="text_2">
      <!-- 0.08 -->
      <g transform="translate(51.438667 60.606437) scale(0.1 -0.1)">
       <defs>
        <path id="DejaVuSerif-38" d="M 2981 1275 
Q 2981 1775 2732 2051 
Q 2484 2328 2034 2328 
Q 1584 2328 1336 2051 
Q 1088 1775 1088 1275 
Q 1088 772 1336 495 
Q 1584 219 2034 219 
Q 2484 219 2732 495 
Q 2981 772 2981 1275 
z
M 2853 3541 
Q 2853 3966 2637 4203 
Q 2422 4441 2034 4441 
Q 1650 4441 1433 4203 
Q 1216 3966 1216 3541 
Q 1216 3113 1433 2875 
Q 1650 2638 2034 2638 
Q 2422 2638 2637 2875 
Q 2853 3113 2853 3541 
z
M 2516 2484 
Q 3047 2413 3344 2092 
Q 3641 1772 3641 1275 
Q 3641 619 3225 264 
Q 2809 -91 2034 -91 
Q 1263 -91 845 264 
Q 428 619 428 1275 
Q 428 1772 725 2092 
Q 1022 2413 1556 2484 
Q 1084 2569 832 2842 
Q 581 3116 581 3541 
Q 581 4103 968 4426 
Q 1356 4750 2034 4750 
Q 2713 4750 3100 4426 
Q 3488 4103 3488 3541 
Q 3488 3116 3236 2842 
Q 2984 2569 2516 2484 
z
" transform="scale(0.015625)"/>
       </defs>
       <use xlink:href="#DejaVuSerif-30"/>
       <use xlink:href="#DejaVuSerif-2e" transform="translate(63.623047 0)"/>
       <use xlink:href="#DejaVuSerif-30" transform="translate(95.410156 0)"/>
       <use xlink:href="#DejaVuSerif-38" transform="translate(159.033203 0)"/>
      </g>
     </g>
    </g>
    <g id="xtick_3">
     <g id="line2d_3">
      <g>
       <use xlink:href="#mead0510138" x="96.985126" y="46.008" style="stroke: #000000; stroke-width: 0.8"/>
      </g>
     </g>
     <g id="text_3">
      <!-- 0.10 -->
      <g transform="translate(85.852314 60.606437) scale(0.1 -0.1)">
       <defs>
        <path id="DejaVuSerif-31" d="M 909 0 
L 909 331 
L 1722 331 
L 1722 4213 
L 781 3603 
L 781 4013 
L 1919 4750 
L 2350 4750 
L 2350 331 
L 3163 331 
L 3163 0 
L 909 0 
z
" transform="scale(0.015625)"/>
       </defs>
       <use xlink:href="#DejaVuSerif-30"/>
       <use xlink:href="#DejaVuSerif-2e" transform="translate(63.623047 0)"/>
       <use xlink:href="#DejaVuSerif-31" transform="translate(95.410156 0)"/>
       <use xlink:href="#DejaVuSerif-30" transform="translate(159.033203 0)"/>
      </g>
     </g>
    </g>
    <g id="xtick_4">
     <g id="line2d_4">
      <g>
       <use xlink:href="#mead0510138" x="131.398773" y="46.008" style="stroke: #000000; stroke-width: 0.8"/>
      </g>
     </g>
     <g id="text_4">
      <!-- 0.12 -->
      <g transform="translate(120.26596 60.606437) scale(0.1 -0.1)">
       <defs>
        <path id="DejaVuSerif-32" d="M 819 3553 
L 469 3553 
L 469 4384 
Q 803 4563 1142 4656 
Q 1481 4750 1806 4750 
Q 2534 4750 2956 4397 
Q 3378 4044 3378 3438 
Q 3378 2753 2422 1800 
Q 2347 1728 2309 1691 
L 1131 513 
L 3078 513 
L 3078 1088 
L 3444 1088 
L 3444 0 
L 434 0 
L 434 341 
L 1850 1753 
Q 2319 2222 2519 2614 
Q 2719 3006 2719 3438 
Q 2719 3909 2473 4175 
Q 2228 4441 1797 4441 
Q 1350 4441 1106 4219 
Q 863 3997 819 3553 
z
" transform="scale(0.015625)"/>
       </defs>
       <use xlink:href="#DejaVuSerif-30"/>
       <use xlink:href="#DejaVuSerif-2e" transform="translate(63.623047 0)"/>
       <use xlink:href="#DejaVuSerif-31" transform="translate(95.410156 0)"/>
       <use xlink:href="#DejaVuSerif-32" transform="translate(159.033203 0)"/>
      </g>
     </g>
    </g>
    <g id="xtick_5">
     <g id="line2d_5">
      <g>
       <use xlink:href="#mead0510138" x="165.81242" y="46.008" style="stroke: #000000; stroke-width: 0.8"/>
      </g>
     </g>
     <g id="text_5">
      <!-- 0.14 -->
      <g transform="translate(154.679607 60.606437) scale(0.1 -0.1)">
       <defs>
        <path id="DejaVuSerif-34" d="M 2234 1581 
L 2234 4063 
L 641 1581 
L 2234 1581 
z
M 3609 0 
L 1484 0 
L 1484 331 
L 2234 331 
L 2234 1247 
L 197 1247 
L 197 1588 
L 2241 4750 
L 2859 4750 
L 2859 1581 
L 3750 1581 
L 3750 1247 
L 2859 1247 
L 2859 331 
L 3609 331 
L 3609 0 
z
" transform="scale(0.015625)"/>
       </defs>
       <use xlink:href="#DejaVuSerif-30"/>
       <use xlink:href="#DejaVuSerif-2e" transform="translate(63.623047 0)"/>
       <use xlink:href="#DejaVuSerif-31" transform="translate(95.410156 0)"/>
       <use xlink:href="#DejaVuSerif-34" transform="translate(159.033203 0)"/>
      </g>
     </g>
    </g>
    <g id="text_6">
     <!-- Wasted decode fraction -->
     <g transform="translate(31.3125 74.284562) scale(0.1 -0.1)">
      <defs>
       <path id="DejaVuSerif-57" d="M 4878 0 
L 4366 0 
L 3297 3794 
L 2228 0 
L 1716 0 
L 494 4331 
L 31 4331 
L 31 4666 
L 1734 4666 
L 1734 4331 
L 1153 4331 
L 2125 884 
L 3188 4666 
L 3694 4666 
L 4775 844 
L 5753 4331 
L 5216 4331 
L 5216 4666 
L 6559 4666 
L 6559 4331 
L 6100 4331 
L 4878 0 
z
" transform="scale(0.015625)"/>
       <path id="DejaVuSerif-61" d="M 2547 1044 
L 2547 1747 
L 1806 1747 
Q 1378 1747 1168 1562 
Q 959 1378 959 997 
Q 959 650 1171 447 
Q 1384 244 1747 244 
Q 2106 244 2326 466 
Q 2547 688 2547 1044 
z
M 3122 2075 
L 3122 331 
L 3634 331 
L 3634 0 
L 2547 0 
L 2547 359 
Q 2356 128 2106 18 
Q 1856 -91 1522 -91 
Q 969 -91 644 203 
Q 319 497 319 997 
Q 319 1513 691 1797 
Q 1063 2081 1741 2081 
L 2547 2081 
L 2547 2309 
Q 2547 2688 2317 2895 
Q 2088 3103 1672 3103 
Q 1328 3103 1125 2947 
Q 922 2791 872 2484 
L 575 2484 
L 575 3156 
Q 875 3284 1158 3348 
Q 1441 3413 1709 3413 
Q 2400 3413 2761 3070 
Q 3122 2728 3122 2075 
z
" transform="scale(0.015625)"/>
       <path id="DejaVuSerif-73" d="M 359 184 
L 359 959 
L 691 959 
Q 703 588 923 403 
Q 1144 219 1575 219 
Q 1963 219 2166 364 
Q 2369 509 2369 788 
Q 2369 1006 2220 1140 
Q 2072 1275 1594 1428 
L 1178 1569 
Q 750 1706 558 1912 
Q 366 2119 366 2438 
Q 366 2894 700 3153 
Q 1034 3413 1625 3413 
Q 1888 3413 2178 3344 
Q 2469 3275 2778 3144 
L 2778 2419 
L 2447 2419 
Q 2434 2741 2221 2922 
Q 2009 3103 1644 3103 
Q 1281 3103 1095 2975 
Q 909 2847 909 2591 
Q 909 2381 1050 2254 
Q 1191 2128 1613 1997 
L 2069 1856 
Q 2541 1709 2748 1489 
Q 2956 1269 2956 922 
Q 2956 450 2595 179 
Q 2234 -91 1600 -91 
Q 1278 -91 972 -22 
Q 666 47 359 184 
z
" transform="scale(0.015625)"/>
       <path id="DejaVuSerif-74" d="M 691 2988 
L 184 2988 
L 184 3322 
L 691 3322 
L 691 4353 
L 1269 4353 
L 1269 3322 
L 2350 3322 
L 2350 2988 
L 1269 2988 
L 1269 878 
Q 1269 456 1350 337 
Q 1431 219 1650 219 
Q 1875 219 1978 351 
Q 2081 484 2088 781 
L 2522 781 
Q 2497 328 2275 118 
Q 2053 -91 1600 -91 
Q 1103 -91 897 129 
Q 691 350 691 878 
L 691 2988 
z
" transform="scale(0.015625)"/>
       <path id="DejaVuSerif-65" d="M 3469 1600 
L 991 1600 
L 991 1575 
Q 991 903 1244 561 
Q 1497 219 1991 219 
Q 2369 219 2611 417 
Q 2853 616 2950 1006 
L 3413 1006 
Q 3275 459 2904 184 
Q 2534 -91 1931 -91 
Q 1203 -91 761 389 
Q 319 869 319 1663 
Q 319 2450 753 2931 
Q 1188 3413 1894 3413 
Q 2647 3413 3050 2948 
Q 3453 2484 3469 1600 
z
M 2791 1931 
Q 2772 2513 2545 2808 
Q 2319 3103 1894 3103 
Q 1497 3103 1269 2806 
Q 1041 2509 991 1931 
L 2791 1931 
z
" transform="scale(0.015625)"/>
       <path id="DejaVuSerif-64" d="M 3359 331 
L 3909 331 
L 3909 0 
L 2784 0 
L 2784 519 
Q 2616 206 2355 57 
Q 2094 -91 1709 -91 
Q 1097 -91 708 395 
Q 319 881 319 1663 
Q 319 2444 706 2928 
Q 1094 3413 1709 3413 
Q 2094 3413 2355 3264 
Q 2616 3116 2784 2803 
L 2784 4531 
L 2241 4531 
L 2241 4863 
L 3359 4863 
L 3359 331 
z
M 2784 1497 
L 2784 1825 
Q 2784 2422 2554 2737 
Q 2325 3053 1888 3053 
Q 1444 3053 1217 2703 
Q 991 2353 991 1663 
Q 991 975 1217 622 
Q 1444 269 1888 269 
Q 2325 269 2554 583 
Q 2784 897 2784 1497 
z
" transform="scale(0.015625)"/>
       <path id="DejaVuSerif-20" transform="scale(0.015625)"/>
       <path id="DejaVuSerif-63" d="M 3291 997 
Q 3169 466 2822 187 
Q 2475 -91 1925 -91 
Q 1200 -91 759 389 
Q 319 869 319 1663 
Q 319 2459 759 2936 
Q 1200 3413 1925 3413 
Q 2241 3413 2553 3339 
Q 2866 3266 3181 3116 
L 3181 2266 
L 2847 2266 
Q 2781 2703 2561 2903 
Q 2341 3103 1931 3103 
Q 1466 3103 1228 2742 
Q 991 2381 991 1663 
Q 991 944 1227 581 
Q 1463 219 1931 219 
Q 2303 219 2525 412 
Q 2747 606 2828 997 
L 3291 997 
z
" transform="scale(0.015625)"/>
       <path id="DejaVuSerif-6f" d="M 1925 219 
Q 2388 219 2623 584 
Q 2859 950 2859 1663 
Q 2859 2375 2623 2739 
Q 2388 3103 1925 3103 
Q 1463 3103 1227 2739 
Q 991 2375 991 1663 
Q 991 950 1228 584 
Q 1466 219 1925 219 
z
M 1925 -91 
Q 1200 -91 759 389 
Q 319 869 319 1663 
Q 319 2456 758 2934 
Q 1197 3413 1925 3413 
Q 2653 3413 3092 2934 
Q 3531 2456 3531 1663 
Q 3531 869 3092 389 
Q 2653 -91 1925 -91 
z
" transform="scale(0.015625)"/>
       <path id="DejaVuSerif-66" d="M 2753 4078 
L 2450 4078 
Q 2447 4313 2317 4434 
Q 2188 4556 1941 4556 
Q 1619 4556 1487 4379 
Q 1356 4203 1356 3750 
L 1356 3322 
L 2284 3322 
L 2284 2988 
L 1356 2988 
L 1356 331 
L 2094 331 
L 2094 0 
L 231 0 
L 231 331 
L 781 331 
L 781 2988 
L 231 2988 
L 231 3322 
L 781 3322 
L 781 3738 
Q 781 4294 1070 4578 
Q 1359 4863 1919 4863 
Q 2128 4863 2337 4825 
Q 2547 4788 2753 4709 
L 2753 4078 
z
" transform="scale(0.015625)"/>
       <path id="DejaVuSerif-72" d="M 3059 3328 
L 3059 2497 
L 2728 2497 
Q 2713 2744 2591 2866 
Q 2469 2988 2234 2988 
Q 1809 2988 1582 2694 
Q 1356 2400 1356 1850 
L 1356 331 
L 2022 331 
L 2022 0 
L 263 0 
L 263 331 
L 781 331 
L 781 2994 
L 231 2994 
L 231 3322 
L 1356 3322 
L 1356 2731 
Q 1525 3078 1790 3245 
Q 2056 3413 2438 3413 
Q 2578 3413 2733 3391 
Q 2888 3369 3059 3328 
z
" transform="scale(0.015625)"/>
       <path id="DejaVuSerif-69" d="M 622 4353 
Q 622 4497 726 4603 
Q 831 4709 978 4709 
Q 1122 4709 1226 4603 
Q 1331 4497 1331 4353 
Q 1331 4206 1228 4103 
Q 1125 4000 978 4000 
Q 831 4000 726 4103 
Q 622 4206 622 4353 
z
M 1356 331 
L 1900 331 
L 1900 0 
L 231 0 
L 231 331 
L 781 331 
L 781 2988 
L 231 2988 
L 231 3322 
L 1356 3322 
L 1356 331 
z
" transform="scale(0.015625)"/>
       <path id="DejaVuSerif-6e" d="M 263 0 
L 263 331 
L 781 331 
L 781 2988 
L 231 2988 
L 231 3322 
L 1356 3322 
L 1356 2731 
Q 1516 3069 1770 3241 
Q 2025 3413 2363 3413 
Q 2913 3413 3172 3097 
Q 3431 2781 3431 2113 
L 3431 331 
L 3944 331 
L 3944 0 
L 2356 0 
L 2356 331 
L 2853 331 
L 2853 1931 
Q 2853 2541 2703 2767 
Q 2553 2994 2175 2994 
Q 1775 2994 1565 2701 
Q 1356 2409 1356 1850 
L 1356 331 
L 1856 331 
L 1856 0 
L 263 0 
z
" transform="scale(0.015625)"/>
      </defs>
      <use xlink:href="#DejaVuSerif-57"/>
      <use xlink:href="#DejaVuSerif-61" transform="translate(94.033203 0)"/>
      <use xlink:href="#DejaVuSerif-73" transform="translate(153.652344 0)"/>
      <use xlink:href="#DejaVuSerif-74" transform="translate(204.970703 0)"/>
      <use xlink:href="#DejaVuSerif-65" transform="translate(245.15625 0)"/>
      <use xlink:href="#DejaVuSerif-64" transform="translate(304.335938 0)"/>
      <use xlink:href="#DejaVuSerif-20" transform="translate(368.349609 0)"/>
      <use xlink:href="#DejaVuSerif-64" transform="translate(400.136719 0)"/>
      <use xlink:href="#DejaVuSerif-65" transform="translate(464.150391 0)"/>
      <use xlink:href="#DejaVuSerif-63" transform="translate(523.330078 0)"/>
      <use xlink:href="#DejaVuSerif-6f" transform="translate(579.335938 0)"/>
      <use xlink:href="#DejaVuSerif-64" transform="translate(639.541016 0)"/>
      <use xlink:href="#DejaVuSerif-65" transform="translate(703.554688 0)"/>
      <use xlink:href="#DejaVuSerif-20" transform="translate(762.734375 0)"/>
      <use xlink:href="#DejaVuSerif-66" transform="translate(794.521484 0)"/>
      <use xlink:href="#DejaVuSerif-72" transform="translate(831.533203 0)"/>
      <use xlink:href="#DejaVuSerif-61" transform="translate(879.335938 0)"/>
      <use xlink:href="#DejaVuSerif-63" transform="translate(938.955078 0)"/>
      <use xlink:href="#DejaVuSerif-74" transform="translate(994.960938 0)"/>
      <use xlink:href="#DejaVuSerif-69" transform="translate(1035.146484 0)"/>
      <use xlink:href="#DejaVuSerif-6f" transform="translate(1067.128906 0)"/>
      <use xlink:href="#DejaVuSerif-6e" transform="translate(1127.333984 0)"/>
     </g>
    </g>
   </g>
   <g id="matplotlib.axis_2"/>
   <g id="patch_3">
    <path d="M 7.2 46.008 
L 7.2 7.2 
" style="fill: none; stroke: #000000; stroke-width: 0.8; stroke-linejoin: miter; stroke-linecap: square"/>
   </g>
   <g id="patch_4">
    <path d="M 174.6 46.008 
L 174.6 7.2 
" style="fill: none; stroke: #000000; stroke-width: 0.8; stroke-linejoin: miter; stroke-linecap: square"/>
   </g>
   <g id="patch_5">
    <path d="M 7.2 46.008 
L 174.6 46.008 
" style="fill: none; stroke: #000000; stroke-width: 0.8; stroke-linejoin: miter; stroke-linecap: square"/>
   </g>
   <g id="patch_6">
    <path d="M 7.2 7.2 
L 174.6 7.2 
" style="fill: none; stroke: #000000; stroke-width: 0.8; stroke-linejoin: miter; stroke-linecap: square"/>
   </g>
   <g id="patch_7">
    <path d="M 14.809091 46.008 
L 18.711189 46.008 
L 18.711189 44.920941 
L 14.809091 44.920941 
z
" clip-path="url(#p10b41b8c41)" style="fill: #e69f00; opacity: 0.5"/>
   </g>
   <g id="patch_8">
    <path d="M 18.711189 46.008 
L 22.613287 46.008 
L 22.613287 46.008 
L 18.711189 46.008 
z
" clip-path="url(#p10b41b8c41)" style="fill: #e69f00; opacity: 0.5"/>
   </g>
   <g id="patch_9">
    <path d="M 22.613287 46.008 
L 26.515385 46.008 
L 26.515385 46.008 
L 22.613287 46.008 
z
" clip-path="url(#p10b41b8c41)" style="fill: #e69f00; opacity: 0.5"/>
   </g>
   <g id="patch_10">
    <path d="M 26.515385 46.008 
L 30.417483 46.008 
L 30.417483 46.008 
L 26.515385 46.008 
z
" clip-path="url(#p10b41b8c41)" style="fill: #e69f00; opacity: 0.5"/>
   </g>
   <g id="patch_11">
    <path d="M 30.417483 46.008 
L 34.31958 46.008 
L 34.31958 44.920941 
L 30.417483 44.920941 
z
" clip-path="url(#p10b41b8c41)" style="fill: #e69f00; opacity: 0.5"/>
   </g>
   <g id="patch_12">
    <path d="M 34.31958 46.008 
L 38.221678 46.008 
L 38.221678 44.920941 
L 34.31958 44.920941 
z
" clip-path="url(#p10b41b8c41)" style="fill: #e69f00; opacity: 0.5"/>
   </g>
   <g id="patch_13">
    <path d="M 38.221678 46.008 
L 42.123776 46.008 
L 42.123776 46.008 
L 38.221678 46.008 
z
" clip-path="url(#p10b41b8c41)" style="fill: #e69f00; opacity: 0.5"/>
   </g>
   <g id="patch_14">
    <path d="M 42.123776 46.008 
L 46.025874 46.008 
L 46.025874 46.008 
L 42.123776 46.008 
z
" clip-path="url(#p10b41b8c41)" style="fill: #e69f00; opacity: 0.5"/>
   </g>
   <g id="patch_15">
    <path d="M 46.025874 46.008 
L 49.927972 46.008 
L 49.927972 46.008 
L 46.025874 46.008 
z
" clip-path="url(#p10b41b8c41)" style="fill: #e69f00; opacity: 0.5"/>
   </g>
   <g id="patch_16">
    <path d="M 49.927972 46.008 
L 53.83007 46.008 
L 53.83007 44.920941 
L 49.927972 44.920941 
z
" clip-path="url(#p10b41b8c41)" style="fill: #e69f00; opacity: 0.5"/>
   </g>
   <g id="patch_17">
    <path d="M 53.83007 46.008 
L 57.732168 46.008 
L 57.732168 46.008 
L 53.83007 46.008 
z
" clip-path="url(#p10b41b8c41)" style="fill: #e69f00; opacity: 0.5"/>
   </g>
   <g id="patch_18">
    <path d="M 57.732168 46.008 
L 61.634266 46.008 
L 61.634266 43.833882 
L 57.732168 43.833882 
z
" clip-path="url(#p10b41b8c41)" style="fill: #e69f00; opacity: 0.5"/>
   </g>
   <g id="patch_19">
    <path d="M 61.634266 46.008 
L 65.536364 46.008 
L 65.536364 44.920941 
L 61.634266 44.920941 
z
" clip-path="url(#p10b41b8c41)" style="fill: #e69f00; opacity: 0.5"/>
   </g>
   <g id="patch_20">
    <path d="M 65.536364 46.008 
L 69.438462 46.008 
L 69.438462 42.746824 
L 65.536364 42.746824 
z
" clip-path="url(#p10b41b8c41)" style="fill: #e69f00; opacity: 0.5"/>
   </g>
   <g id="patch_21">
    <path d="M 69.438462 46.008 
L 73.340559 46.008 
L 73.340559 38.398588 
L 69.438462 38.398588 
z
" clip-path="url(#p10b41b8c41)" style="fill: #e69f00; opacity: 0.5"/>
   </g>
   <g id="patch_22">
    <path d="M 73.340559 46.008 
L 77.242657 46.008 
L 77.242657 10.135059 
L 73.340559 10.135059 
z
" clip-path="url(#p10b41b8c41)" style="fill: #e69f00; opacity: 0.5"/>
   </g>
   <g id="patch_23">
    <path d="M 77.242657 46.008 
L 81.144755 46.008 
L 81.144755 27.528 
L 77.242657 27.528 
z
" clip-path="url(#p10b41b8c41)" style="fill: #e69f00; opacity: 0.5"/>
   </g>
   <g id="patch_24">
    <path d="M 81.144755 46.008 
L 85.046853 46.008 
L 85.046853 14.483294 
L 81.144755 14.483294 
z
" clip-path="url(#p10b41b8c41)" style="fill: #e69f00; opacity: 0.5"/>
   </g>
   <g id="patch_25">
    <path d="M 85.046853 46.008 
L 88.948951 46.008 
L 88.948951 32.963294 
L 85.046853 32.963294 
z
" clip-path="url(#p10b41b8c41)" style="fill: #e69f00; opacity: 0.5"/>
   </g>
   <g id="patch_26">
    <path d="M 88.948951 46.008 
L 92.851049 46.008 
L 92.851049 30.789176 
L 88.948951 30.789176 
z
" clip-path="url(#p10b41b8c41)" style="fill: #e69f00; opacity: 0.5"/>
   </g>
   <g id="patch_27">
    <path d="M 92.851049 46.008 
L 96.753147 46.008 
L 96.753147 38.398588 
L 92.851049 38.398588 
z
" clip-path="url(#p10b41b8c41)" style="fill: #e69f00; opacity: 0.5"/>
   </g>
   <g id="patch_28">
    <path d="M 96.753147 46.008 
L 100.655245 46.008 
L 100.655245 37.311529 
L 96.753147 37.311529 
z
" clip-path="url(#p10b41b8c41)" style="fill: #e69f00; opacity: 0.5"/>
   </g>
   <g id="patch_29">
    <path d="M 100.655245 46.008 
L 104.557343 46.008 
L 104.557343 42.746824 
L 100.655245 42.746824 
z
" clip-path="url(#p10b41b8c41)" style="fill: #e69f00; opacity: 0.5"/>
   </g>
   <g id="patch_30">
    <path d="M 104.557343 46.008 
L 108.459441 46.008 
L 108.459441 46.008 
L 104.557343 46.008 
z
" clip-path="url(#p10b41b8c41)" style="fill: #e69f00; opacity: 0.5"/>
   </g>
   <g id="patch_31">
    <path d="M 108.459441 46.008 
L 112.361538 46.008 
L 112.361538 46.008 
L 108.459441 46.008 
z
" clip-path="url(#p10b41b8c41)" style="fill: #e69f00; opacity: 0.5"/>
   </g>
   <g id="patch_32">
    <path d="M 112.361538 46.008 
L 116.263636 46.008 
L 116.263636 43.833882 
L 112.361538 43.833882 
z
" clip-path="url(#p10b41b8c41)" style="fill: #e69f00; opacity: 0.5"/>
   </g>
   <g id="patch_33">
    <path d="M 116.263636 46.008 
L 120.165734 46.008 
L 120.165734 44.920941 
L 116.263636 44.920941 
z
" clip-path="url(#p10b41b8c41)" style="fill: #e69f00; opacity: 0.5"/>
   </g>
   <g id="patch_34">
    <path d="M 120.165734 46.008 
L 124.067832 46.008 
L 124.067832 44.920941 
L 120.165734 44.920941 
z
" clip-path="url(#p10b41b8c41)" style="fill: #e69f00; opacity: 0.5"/>
   </g>
   <g id="patch_35">
    <path d="M 124.067832 46.008 
L 127.96993 46.008 
L 127.96993 46.008 
L 124.067832 46.008 
z
" clip-path="url(#p10b41b8c41)" style="fill: #e69f00; opacity: 0.5"/>
   </g>
   <g id="patch_36">
    <path d="M 127.96993 46.008 
L 131.872028 46.008 
L 131.872028 46.008 
L 127.96993 46.008 
z
" clip-path="url(#p10b41b8c41)" style="fill: #e69f00; opacity: 0.5"/>
   </g>
   <g id="patch_37">
    <path d="M 131.872028 46.008 
L 135.774126 46.008 
L 135.774126 46.008 
L 131.872028 46.008 
z
" clip-path="url(#p10b41b8c41)" style="fill: #e69f00; opacity: 0.5"/>
   </g>
   <g id="patch_38">
    <path d="M 135.774126 46.008 
L 139.676224 46.008 
L 139.676224 46.008 
L 135.774126 46.008 
z
" clip-path="url(#p10b41b8c41)" style="fill: #e69f00; opacity: 0.5"/>
   </g>
   <g id="patch_39">
    <path d="M 139.676224 46.008 
L 143.578322 46.008 
L 143.578322 46.008 
L 139.676224 46.008 
z
" clip-path="url(#p10b41b8c41)" style="fill: #e69f00; opacity: 0.5"/>
   </g>
   <g id="patch_40">
    <path d="M 143.578322 46.008 
L 147.48042 46.008 
L 147.48042 46.008 
L 143.578322 46.008 
z
" clip-path="url(#p10b41b8c41)" style="fill: #e69f00; opacity: 0.5"/>
   </g>
   <g id="patch_41">
    <path d="M 147.48042 46.008 
L 151.382517 46.008 
L 151.382517 46.008 
L 147.48042 46.008 
z
" clip-path="url(#p10b41b8c41)" style="fill: #e69f00; opacity: 0.5"/>
   </g>
   <g id="patch_42">
    <path d="M 151.382517 46.008 
L 155.284615 46.008 
L 155.284615 46.008 
L 151.382517 46.008 
z
" clip-path="url(#p10b41b8c41)" style="fill: #e69f00; opacity: 0.5"/>
   </g>
   <g id="patch_43">
    <path d="M 155.284615 46.008 
L 159.186713 46.008 
L 159.186713 46.008 
L 155.284615 46.008 
z
" clip-path="url(#p10b41b8c41)" style="fill: #e69f00; opacity: 0.5"/>
   </g>
   <g id="patch_44">
    <path d="M 159.186713 46.008 
L 163.088811 46.008 
L 163.088811 46.008 
L 159.186713 46.008 
z
" clip-path="url(#p10b41b8c41)" style="fill: #e69f00; opacity: 0.5"/>
   </g>
   <g id="patch_45">
    <path d="M 163.088811 46.008 
L 166.990909 46.008 
L 166.990909 43.833882 
L 163.088811 43.833882 
z
" clip-path="url(#p10b41b8c41)" style="fill: #e69f00; opacity: 0.5"/>
   </g>
   <g id="patch_46">
    <path d="M 14.809091 46.008 
L 14.809091 44.920941 
L 18.711189 44.920941 
L 18.711189 46.008 
L 22.613287 46.008 
L 22.613287 46.008 
L 26.515385 46.008 
L 26.515385 46.008 
L 30.417483 46.008 
L 30.417483 44.920941 
L 34.31958 44.920941 
L 34.31958 44.920941 
L 38.221678 44.920941 
L 38.221678 46.008 
L 42.123776 46.008 
L 42.123776 46.008 
L 46.025874 46.008 
L 46.025874 46.008 
L 49.927972 46.008 
L 49.927972 44.920941 
L 53.83007 44.920941 
L 53.83007 46.008 
L 57.732168 46.008 
L 57.732168 43.833882 
L 61.634266 43.833882 
L 61.634266 44.920941 
L 65.536364 44.920941 
L 65.536364 42.746824 
L 69.438462 42.746824 
L 69.438462 38.398588 
L 73.340559 38.398588 
L 73.340559 10.135059 
L 77.242657 10.135059 
L 77.242657 27.528 
L 81.144755 27.528 
L 81.144755 14.483294 
L 85.046853 14.483294 
L 85.046853 32.963294 
L 88.948951 32.963294 
L 88.948951 30.789176 
L 92.851049 30.789176 
L 92.851049 38.398588 
L 96.753147 38.398588 
L 96.753147 37.311529 
L 100.655245 37.311529 
L 100.655245 42.746824 
L 104.557343 42.746824 
L 104.557343 46.008 
L 108.459441 46.008 
L 108.459441 46.008 
L 112.361538 46.008 
L 112.361538 43.833882 
L 116.263636 43.833882 
L 116.263636 44.920941 
L 120.165734 44.920941 
L 120.165734 44.920941 
L 124.067832 44.920941 
L 124.067832 46.008 
L 127.96993 46.008 
L 127.96993 46.008 
L 131.872028 46.008 
L 131.872028 46.008 
L 135.774126 46.008 
L 135.774126 46.008 
L 139.676224 46.008 
L 139.676224 46.008 
L 143.578322 46.008 
L 143.578322 46.008 
L 147.48042 46.008 
L 147.48042 46.008 
L 151.382517 46.008 
L 151.382517 46.008 
L 155.284615 46.008 
L 155.284615 46.008 
L 159.186713 46.008 
L 159.186713 46.008 
L 163.088811 46.008 
L 163.088811 43.833882 
L 166.990909 43.833882 
L 166.990909 46.008 
" clip-path="url(#p10b41b8c41)" style="fill: none; stroke: #e69f00; stroke-linejoin: miter"/>
   </g>
   <g id="patch_47">
    <path d="M 14.809091 46.008 
L 18.711189 46.008 
L 18.711189 44.920941 
L 14.809091 44.920941 
z
" clip-path="url(#p10b41b8c41)" style="fill: #0072b2; opacity: 0.5"/>
   </g>
   <g id="patch_48">
    <path d="M 18.711189 46.008 
L 22.613287 46.008 
L 22.613287 44.920941 
L 18.711189 44.920941 
z
" clip-path="url(#p10b41b8c41)" style="fill: #0072b2; opacity: 0.5"/>
   </g>
   <g id="patch_49">
    <path d="M 22.613287 46.008 
L 26.515385 46.008 
L 26.515385 43.833882 
L 22.613287 43.833882 
z
" clip-path="url(#p10b41b8c41)" style="fill: #0072b2; opacity: 0.5"/>
   </g>
   <g id="patch_50">
    <path d="M 26.515385 46.008 
L 30.417483 46.008 
L 30.417483 42.746824 
L 26.515385 42.746824 
z
" clip-path="url(#p10b41b8c41)" style="fill: #0072b2; opacity: 0.5"/>
   </g>
   <g id="patch_51">
    <path d="M 30.417483 46.008 
L 34.31958 46.008 
L 34.31958 42.746824 
L 30.417483 42.746824 
z
" clip-path="url(#p10b41b8c41)" style="fill: #0072b2; opacity: 0.5"/>
   </g>
   <g id="patch_52">
    <path d="M 34.31958 46.008 
L 38.221678 46.008 
L 38.221678 44.920941 
L 34.31958 44.920941 
z
" clip-path="url(#p10b41b8c41)" style="fill: #0072b2; opacity: 0.5"/>
   </g>
   <g id="patch_53">
    <path d="M 38.221678 46.008 
L 42.123776 46.008 
L 42.123776 43.833882 
L 38.221678 43.833882 
z
" clip-path="url(#p10b41b8c41)" style="fill: #0072b2; opacity: 0.5"/>
   </g>
   <g id="patch_54">
    <path d="M 42.123776 46.008 
L 46.025874 46.008 
L 46.025874 22.092706 
L 42.123776 22.092706 
z
" clip-path="url(#p10b41b8c41)" style="fill: #0072b2; opacity: 0.5"/>
   </g>
   <g id="patch_55">
    <path d="M 46.025874 46.008 
L 49.927972 46.008 
L 49.927972 9.048 
L 46.025874 9.048 
z
" clip-path="url(#p10b41b8c41)" style="fill: #0072b2; opacity: 0.5"/>
   </g>
   <g id="patch_56">
    <path d="M 49.927972 46.008 
L 53.83007 46.008 
L 53.83007 17.744471 
L 49.927972 17.744471 
z
" clip-path="url(#p10b41b8c41)" style="fill: #0072b2; opacity: 0.5"/>
   </g>
   <g id="patch_57">
    <path d="M 53.83007 46.008 
L 57.732168 46.008 
L 57.732168 22.092706 
L 53.83007 22.092706 
z
" clip-path="url(#p10b41b8c41)" style="fill: #0072b2; opacity: 0.5"/>
   </g>
   <g id="patch_58">
    <path d="M 57.732168 46.008 
L 61.634266 46.008 
L 61.634266 34.050353 
L 57.732168 34.050353 
z
" clip-path="url(#p10b41b8c41)" style="fill: #0072b2; opacity: 0.5"/>
   </g>
   <g id="patch_59">
    <path d="M 61.634266 46.008 
L 65.536364 46.008 
L 65.536364 40.572706 
L 61.634266 40.572706 
z
" clip-path="url(#p10b41b8c41)" style="fill: #0072b2; opacity: 0.5"/>
   </g>
   <g id="patch_60">
    <path d="M 65.536364 46.008 
L 69.438462 46.008 
L 69.438462 41.659765 
L 65.536364 41.659765 
z
" clip-path="url(#p10b41b8c41)" style="fill: #0072b2; opacity: 0.5"/>
   </g>
   <g id="patch_61">
    <path d="M 69.438462 46.008 
L 73.340559 46.008 
L 73.340559 43.833882 
L 69.438462 43.833882 
z
" clip-path="url(#p10b41b8c41)" style="fill: #0072b2; opacity: 0.5"/>
   </g>
   <g id="patch_62">
    <path d="M 73.340559 46.008 
L 77.242657 46.008 
L 77.242657 44.920941 
L 73.340559 44.920941 
z
" clip-path="url(#p10b41b8c41)" style="fill: #0072b2; opacity: 0.5"/>
   </g>
   <g id="patch_63">
    <path d="M 77.242657 46.008 
L 81.144755 46.008 
L 81.144755 44.920941 
L 77.242657 44.920941 
z
" clip-path="url(#p10b41b8c41)" style="fill: #0072b2; opacity: 0.5"/>
   </g>
   <g id="patch_64">
    <path d="M 81.144755 46.008 
L 85.046853 46.008 
L 85.046853 44.920941 
L 81.144755 44.920941 
z
" clip-path="url(#p10b41b8c41)" style="fill: #0072b2; opacity: 0.5"/>
   </g>
   <g id="patch_65">
    <path d="M 85.046853 46.008 
L 88.948951 46.008 
L 88.948951 44.920941 
L 85.046853 44.920941 
z
" clip-path="url(#p10b41b8c41)" style="fill: #0072b2; opacity: 0.5"/>
   </g>
   <g id="patch_66">
    <path d="M 88.948951 46.008 
L 92.851049 46.008 
L 92.851049 46.008 
L 88.948951 46.008 
z
" clip-path="url(#p10b41b8c41)" style="fill: #0072b2; opacity: 0.5"/>
   </g>
   <g id="patch_67">
    <path d="M 92.851049 46.008 
L 96.753147 46.008 
L 96.753147 44.920941 
L 92.851049 44.920941 
z
" clip-path="url(#p10b41b8c41)" style="fill: #0072b2; opacity: 0.5"/>
   </g>
   <g id="patch_68">
    <path d="M 96.753147 46.008 
L 100.655245 46.008 
L 100.655245 46.008 
L 96.753147 46.008 
z
" clip-path="url(#p10b41b8c41)" style="fill: #0072b2; opacity: 0.5"/>
   </g>
   <g id="patch_69">
    <path d="M 100.655245 46.008 
L 104.557343 46.008 
L 104.557343 44.920941 
L 100.655245 44.920941 
z
" clip-path="url(#p10b41b8c41)" style="fill: #0072b2; opacity: 0.5"/>
   </g>
   <g id="patch_70">
    <path d="M 104.557343 46.008 
L 108.459441 46.008 
L 108.459441 46.008 
L 104.557343 46.008 
z
" clip-path="url(#p10b41b8c41)" style="fill: #0072b2; opacity: 0.5"/>
   </g>
   <g id="patch_71">
    <path d="M 108.459441 46.008 
L 112.361538 46.008 
L 112.361538 46.008 
L 108.459441 46.008 
z
" clip-path="url(#p10b41b8c41)" style="fill: #0072b2; opacity: 0.5"/>
   </g>
   <g id="patch_72">
    <path d="M 112.361538 46.008 
L 116.263636 46.008 
L 116.263636 46.008 
L 112.361538 46.008 
z
" clip-path="url(#p10b41b8c41)" style="fill: #0072b2; opacity: 0.5"/>
   </g>
   <g id="patch_73">
    <path d="M 116.263636 46.008 
L 120.165734 46.008 
L 120.165734 46.008 
L 116.263636 46.008 
z
" clip-path="url(#p10b41b8c41)" style="fill: #0072b2; opacity: 0.5"/>
   </g>
   <g id="patch_74">
    <path d="M 120.165734 46.008 
L 124.067832 46.008 
L 124.067832 44.920941 
L 120.165734 44.920941 
z
" clip-path="url(#p10b41b8c41)" style="fill: #0072b2; opacity: 0.5"/>
   </g>
   <g id="patch_75">
    <path d="M 124.067832 46.008 
L 127.96993 46.008 
L 127.96993 46.008 
L 124.067832 46.008 
z
" clip-path="url(#p10b41b8c41)" style="fill: #0072b2; opacity: 0.5"/>
   </g>
   <g id="patch_76">
    <path d="M 127.96993 46.008 
L 131.872028 46.008 
L 131.872028 46.008 
L 127.96993 46.008 
z
" clip-path="url(#p10b41b8c41)" style="fill: #0072b2; opacity: 0.5"/>
   </g>
   <g id="patch_77">
    <path d="M 131.872028 46.008 
L 135.774126 46.008 
L 135.774126 46.008 
L 131.872028 46.008 
z
" clip-path="url(#p10b41b8c41)" style="fill: #0072b2; opacity: 0.5"/>
   </g>
   <g id="patch_78">
    <path d="M 135.774126 46.008 
L 139.676224 46.008 
L 139.676224 46.008 
L 135.774126 46.008 
z
" clip-path="url(#p10b41b8c41)" style="fill: #0072b2; opacity: 0.5"/>
   </g>
   <g id="patch_79">
    <path d="M 139.676224 46.008 
L 143.578322 46.008 
L 143.578322 46.008 
L 139.676224 46.008 
z
" clip-path="url(#p10b41b8c41)" style="fill: #0072b2; opacity: 0.5"/>
   </g>
   <g id="patch_80">
    <path d="M 143.578322 46.008 
L 147.48042 46.008 
L 147.48042 46.008 
L 143.578322 46.008 
z
" clip-path="url(#p10b41b8c41)" style="fill: #0072b2; opacity: 0.5"/>
   </g>
   <g id="patch_81">
    <path d="M 147.48042 46.008 
L 151.382517 46.008 
L 151.382517 46.008 
L 147.48042 46.008 
z
" clip-path="url(#p10b41b8c41)" style="fill: #0072b2; opacity: 0.5"/>
   </g>
   <g id="patch_82">
    <path d="M 151.382517 46.008 
L 155.284615 46.008 
L 155.284615 46.008 
L 151.382517 46.008 
z
" clip-path="url(#p10b41b8c41)" style="fill: #0072b2; opacity: 0.5"/>
   </g>
   <g id="patch_83">
    <path d="M 155.284615 46.008 
L 159.186713 46.008 
L 159.186713 46.008 
L 155.284615 46.008 
z
" clip-path="url(#p10b41b8c41)" style="fill: #0072b2; opacity: 0.5"/>
   </g>
   <g id="patch_84">
    <path d="M 159.186713 46.008 
L 163.088811 46.008 
L 163.088811 46.008 
L 159.186713 46.008 
z
" clip-path="url(#p10b41b8c41)" style="fill: #0072b2; opacity: 0.5"/>
   </g>
   <g id="patch_85">
    <path d="M 163.088811 46.008 
L 166.990909 46.008 
L 166.990909 46.008 
L 163.088811 46.008 
z
" clip-path="url(#p10b41b8c41)" style="fill: #0072b2; opacity: 0.5"/>
   </g>
   <g id="patch_86">
    <path d="M 14.809091 46.008 
L 14.809091 44.920941 
L 18.711189 44.920941 
L 18.711189 44.920941 
L 22.613287 44.920941 
L 22.613287 43.833882 
L 26.515385 43.833882 
L 26.515385 42.746824 
L 30.417483 42.746824 
L 30.417483 42.746824 
L 34.31958 42.746824 
L 34.31958 44.920941 
L 38.221678 44.920941 
L 38.221678 43.833882 
L 42.123776 43.833882 
L 42.123776 22.092706 
L 46.025874 22.092706 
L 46.025874 9.048 
L 49.927972 9.048 
L 49.927972 17.744471 
L 53.83007 17.744471 
L 53.83007 22.092706 
L 57.732168 22.092706 
L 57.732168 34.050353 
L 61.634266 34.050353 
L 61.634266 40.572706 
L 65.536364 40.572706 
L 65.536364 41.659765 
L 69.438462 41.659765 
L 69.438462 43.833882 
L 73.340559 43.833882 
L 73.340559 44.920941 
L 77.242657 44.920941 
L 77.242657 44.920941 
L 81.144755 44.920941 
L 81.144755 44.920941 
L 85.046853 44.920941 
L 85.046853 44.920941 
L 88.948951 44.920941 
L 88.948951 46.008 
L 92.851049 46.008 
L 92.851049 44.920941 
L 96.753147 44.920941 
L 96.753147 46.008 
L 100.655245 46.008 
L 100.655245 44.920941 
L 104.557343 44.920941 
L 104.557343 46.008 
L 108.459441 46.008 
L 108.459441 46.008 
L 112.361538 46.008 
L 112.361538 46.008 
L 116.263636 46.008 
L 116.263636 46.008 
L 120.165734 46.008 
L 120.165734 44.920941 
L 124.067832 44.920941 
L 124.067832 46.008 
L 127.96993 46.008 
L 127.96993 46.008 
L 131.872028 46.008 
L 131.872028 46.008 
L 135.774126 46.008 
L 135.774126 46.008 
L 139.676224 46.008 
L 139.676224 46.008 
L 143.578322 46.008 
L 143.578322 46.008 
L 147.48042 46.008 
L 147.48042 46.008 
L 151.382517 46.008 
L 151.382517 46.008 
L 155.284615 46.008 
L 155.284615 46.008 
L 159.186713 46.008 
L 159.186713 46.008 
L 163.088811 46.008 
L 163.088811 46.008 
L 166.990909 46.008 
L 166.990909 46.008 
" clip-path="url(#p10b41b8c41)" style="fill: none; stroke: #0072b2; stroke-linejoin: miter"/>
   </g>
   <g id="patch_87">
    <path d="M 14.809091 46.008 
L 18.711189 46.008 
L 18.711189 46.008 
L 14.809091 46.008 
z
" clip-path="url(#p10b41b8c41)" style="fill: #cc79a7; opacity: 0.5"/>
   </g>
   <g id="patch_88">
    <path d="M 18.711189 46.008 
L 22.613287 46.008 
L 22.613287 46.008 
L 18.711189 46.008 
z
" clip-path="url(#p10b41b8c41)" style="fill: #cc79a7; opacity: 0.5"/>
   </g>
   <g id="patch_89">
    <path d="M 22.613287 46.008 
L 26.515385 46.008 
L 26.515385 46.008 
L 22.613287 46.008 
z
" clip-path="url(#p10b41b8c41)" style="fill: #cc79a7; opacity: 0.5"/>
   </g>
   <g id="patch_90">
    <path d="M 26.515385 46.008 
L 30.417483 46.008 
L 30.417483 42.746824 
L 26.515385 42.746824 
z
" clip-path="url(#p10b41b8c41)" style="fill: #cc79a7; opacity: 0.5"/>
   </g>
   <g id="patch_91">
    <path d="M 30.417483 46.008 
L 34.31958 46.008 
L 34.31958 42.746824 
L 30.417483 42.746824 
z
" clip-path="url(#p10b41b8c41)" style="fill: #cc79a7; opacity: 0.5"/>
   </g>
   <g id="patch_92">
    <path d="M 34.31958 46.008 
L 38.221678 46.008 
L 38.221678 40.572706 
L 34.31958 40.572706 
z
" clip-path="url(#p10b41b8c41)" style="fill: #cc79a7; opacity: 0.5"/>
   </g>
   <g id="patch_93">
    <path d="M 38.221678 46.008 
L 42.123776 46.008 
L 42.123776 43.833882 
L 38.221678 43.833882 
z
" clip-path="url(#p10b41b8c41)" style="fill: #cc79a7; opacity: 0.5"/>
   </g>
   <g id="patch_94">
    <path d="M 42.123776 46.008 
L 46.025874 46.008 
L 46.025874 31.876235 
L 42.123776 31.876235 
z
" clip-path="url(#p10b41b8c41)" style="fill: #cc79a7; opacity: 0.5"/>
   </g>
   <g id="patch_95">
    <path d="M 46.025874 46.008 
L 49.927972 46.008 
L 49.927972 19.918588 
L 46.025874 19.918588 
z
" clip-path="url(#p10b41b8c41)" style="fill: #cc79a7; opacity: 0.5"/>
   </g>
   <g id="patch_96">
    <path d="M 49.927972 46.008 
L 53.83007 46.008 
L 53.83007 34.050353 
L 49.927972 34.050353 
z
" clip-path="url(#p10b41b8c41)" style="fill: #cc79a7; opacity: 0.5"/>
   </g>
   <g id="patch_97">
    <path d="M 53.83007 46.008 
L 57.732168 46.008 
L 57.732168 19.918588 
L 53.83007 19.918588 
z
" clip-path="url(#p10b41b8c41)" style="fill: #cc79a7; opacity: 0.5"/>
   </g>
   <g id="patch_98">
    <path d="M 57.732168 46.008 
L 61.634266 46.008 
L 61.634266 31.876235 
L 57.732168 31.876235 
z
" clip-path="url(#p10b41b8c41)" style="fill: #cc79a7; opacity: 0.5"/>
   </g>
   <g id="patch_99">
    <path d="M 61.634266 46.008 
L 65.536364 46.008 
L 65.536364 30.789176 
L 61.634266 30.789176 
z
" clip-path="url(#p10b41b8c41)" style="fill: #cc79a7; opacity: 0.5"/>
   </g>
   <g id="patch_100">
    <path d="M 65.536364 46.008 
L 69.438462 46.008 
L 69.438462 29.702118 
L 65.536364 29.702118 
z
" clip-path="url(#p10b41b8c41)" style="fill: #cc79a7; opacity: 0.5"/>
   </g>
   <g id="patch_101">
    <path d="M 69.438462 46.008 
L 73.340559 46.008 
L 73.340559 36.224471 
L 69.438462 36.224471 
z
" clip-path="url(#p10b41b8c41)" style="fill: #cc79a7; opacity: 0.5"/>
   </g>
   <g id="patch_102">
    <path d="M 73.340559 46.008 
L 77.242657 46.008 
L 77.242657 43.833882 
L 73.340559 43.833882 
z
" clip-path="url(#p10b41b8c41)" style="fill: #cc79a7; opacity: 0.5"/>
   </g>
   <g id="patch_103">
    <path d="M 77.242657 46.008 
L 81.144755 46.008 
L 81.144755 46.008 
L 77.242657 46.008 
z
" clip-path="url(#p10b41b8c41)" style="fill: #cc79a7; opacity: 0.5"/>
   </g>
   <g id="patch_104">
    <path d="M 81.144755 46.008 
L 85.046853 46.008 
L 85.046853 44.920941 
L 81.144755 44.920941 
z
" clip-path="url(#p10b41b8c41)" style="fill: #cc79a7; opacity: 0.5"/>
   </g>
   <g id="patch_105">
    <path d="M 85.046853 46.008 
L 88.948951 46.008 
L 88.948951 43.833882 
L 85.046853 43.833882 
z
" clip-path="url(#p10b41b8c41)" style="fill: #cc79a7; opacity: 0.5"/>
   </g>
   <g id="patch_106">
    <path d="M 88.948951 46.008 
L 92.851049 46.008 
L 92.851049 44.920941 
L 88.948951 44.920941 
z
" clip-path="url(#p10b41b8c41)" style="fill: #cc79a7; opacity: 0.5"/>
   </g>
   <g id="patch_107">
    <path d="M 92.851049 46.008 
L 96.753147 46.008 
L 96.753147 46.008 
L 92.851049 46.008 
z
" clip-path="url(#p10b41b8c41)" style="fill: #cc79a7; opacity: 0.5"/>
   </g>
   <g id="patch_108">
    <path d="M 96.753147 46.008 
L 100.655245 46.008 
L 100.655245 46.008 
L 96.753147 46.008 
z
" clip-path="url(#p10b41b8c41)" style="fill: #cc79a7; opacity: 0.5"/>
   </g>
   <g id="patch_109">
    <path d="M 100.655245 46.008 
L 104.557343 46.008 
L 104.557343 44.920941 
L 100.655245 44.920941 
z
" clip-path="url(#p10b41b8c41)" style="fill: #cc79a7; opacity: 0.5"/>
   </g>
   <g id="patch_110">
    <path d="M 104.557343 46.008 
L 108.459441 46.008 
L 108.459441 44.920941 
L 104.557343 44.920941 
z
" clip-path="url(#p10b41b8c41)" style="fill: #cc79a7; opacity: 0.5"/>
   </g>
   <g id="patch_111">
    <path d="M 108.459441 46.008 
L 112.361538 46.008 
L 112.361538 46.008 
L 108.459441 46.008 
z
" clip-path="url(#p10b41b8c41)" style="fill: #cc79a7; opacity: 0.5"/>
   </g>
   <g id="patch_112">
    <path d="M 112.361538 46.008 
L 116.263636 46.008 
L 116.263636 46.008 
L 112.361538 46.008 
z
" clip-path="url(#p10b41b8c41)" style="fill: #cc79a7; opacity: 0.5"/>
   </g>
   <g id="patch_113">
    <path d="M 116.263636 46.008 
L 120.165734 46.008 
L 120.165734 46.008 
L 116.263636 46.008 
z
" clip-path="url(#p10b41b8c41)" style="fill: #cc79a7; opacity: 0.5"/>
   </g>
   <g id="patch_114">
    <path d="M 120.165734 46.008 
L 124.067832 46.008 
L 124.067832 46.008 
L 120.165734 46.008 
z
" clip-path="url(#p10b41b8c41)" style="fill: #cc79a7; opacity: 0.5"/>
   </g>
   <g id="patch_115">
    <path d="M 124.067832 46.008 
L 127.96993 46.008 
L 127.96993 46.008 
L 124.067832 46.008 
z
" clip-path="url(#p10b41b8c41)" style="fill: #cc79a7; opacity: 0.5"/>
   </g>
   <g id="patch_116">
    <path d="M 127.96993 46.008 
L 131.872028 46.008 
L 131.872028 44.920941 
L 127.96993 44.920941 
z
" clip-path="url(#p10b41b8c41)" style="fill: #cc79a7; opacity: 0.5"/>
   </g>
   <g id="patch_117">
    <path d="M 131.872028 46.008 
L 135.774126 46.008 
L 135.774126 46.008 
L 131.872028 46.008 
z
" clip-path="url(#p10b41b8c41)" style="fill: #cc79a7; opacity: 0.5"/>
   </g>
   <g id="patch_118">
    <path d="M 135.774126 46.008 
L 139.676224 46.008 
L 139.676224 46.008 
L 135.774126 46.008 
z
" clip-path="url(#p10b41b8c41)" style="fill: #cc79a7; opacity: 0.5"/>
   </g>
   <g id="patch_119">
    <path d="M 139.676224 46.008 
L 143.578322 46.008 
L 143.578322 44.920941 
L 139.676224 44.920941 
z
" clip-path="url(#p10b41b8c41)" style="fill: #cc79a7; opacity: 0.5"/>
   </g>
   <g id="patch_120">
    <path d="M 143.578322 46.008 
L 147.48042 46.008 
L 147.48042 46.008 
L 143.578322 46.008 
z
" clip-path="url(#p10b41b8c41)" style="fill: #cc79a7; opacity: 0.5"/>
   </g>
   <g id="patch_121">
    <path d="M 147.48042 46.008 
L 151.382517 46.008 
L 151.382517 46.008 
L 147.48042 46.008 
z
" clip-path="url(#p10b41b8c41)" style="fill: #cc79a7; opacity: 0.5"/>
   </g>
   <g id="patch_122">
    <path d="M 151.382517 46.008 
L 155.284615 46.008 
L 155.284615 46.008 
L 151.382517 46.008 
z
" clip-path="url(#p10b41b8c41)" style="fill: #cc79a7; opacity: 0.5"/>
   </g>
   <g id="patch_123">
    <path d="M 155.284615 46.008 
L 159.186713 46.008 
L 159.186713 46.008 
L 155.284615 46.008 
z
" clip-path="url(#p10b41b8c41)" style="fill: #cc79a7; opacity: 0.5"/>
   </g>
   <g id="patch_124">
    <path d="M 159.186713 46.008 
L 163.088811 46.008 
L 163.088811 46.008 
L 159.186713 46.008 
z
" clip-path="url(#p10b41b8c41)" style="fill: #cc79a7; opacity: 0.5"/>
   </g>
   <g id="patch_125">
    <path d="M 163.088811 46.008 
L 166.990909 46.008 
L 166.990909 46.008 
L 163.088811 46.008 
z
" clip-path="url(#p10b41b8c41)" style="fill: #cc79a7; opacity: 0.5"/>
   </g>
   <g id="patch_126">
    <path d="M 14.809091 46.008 
L 14.809091 46.008 
L 18.711189 46.008 
L 18.711189 46.008 
L 22.613287 46.008 
L 22.613287 46.008 
L 26.515385 46.008 
L 26.515385 42.746824 
L 30.417483 42.746824 
L 30.417483 42.746824 
L 34.31958 42.746824 
L 34.31958 40.572706 
L 38.221678 40.572706 
L 38.221678 43.833882 
L 42.123776 43.833882 
L 42.123776 31.876235 
L 46.025874 31.876235 
L 46.025874 19.918588 
L 49.927972 19.918588 
L 49.927972 34.050353 
L 53.83007 34.050353 
L 53.83007 19.918588 
L 57.732168 19.918588 
L 57.732168 31.876235 
L 61.634266 31.876235 
L 61.634266 30.789176 
L 65.536364 30.789176 
L 65.536364 29.702118 
L 69.438462 29.702118 
L 69.438462 36.224471 
L 73.340559 36.224471 
L 73.340559 43.833882 
L 77.242657 43.833882 
L 77.242657 46.008 
L 81.144755 46.008 
L 81.144755 44.920941 
L 85.046853 44.920941 
L 85.046853 43.833882 
L 88.948951 43.833882 
L 88.948951 44.920941 
L 92.851049 44.920941 
L 92.851049 46.008 
L 96.753147 46.008 
L 96.753147 46.008 
L 100.655245 46.008 
L 100.655245 44.920941 
L 104.557343 44.920941 
L 104.557343 44.920941 
L 108.459441 44.920941 
L 108.459441 46.008 
L 112.361538 46.008 
L 112.361538 46.008 
L 116.263636 46.008 
L 116.263636 46.008 
L 120.165734 46.008 
L 120.165734 46.008 
L 124.067832 46.008 
L 124.067832 46.008 
L 127.96993 46.008 
L 127.96993 44.920941 
L 131.872028 44.920941 
L 131.872028 46.008 
L 135.774126 46.008 
L 135.774126 46.008 
L 139.676224 46.008 
L 139.676224 44.920941 
L 143.578322 44.920941 
L 143.578322 46.008 
L 147.48042 46.008 
L 147.48042 46.008 
L 151.382517 46.008 
L 151.382517 46.008 
L 155.284615 46.008 
L 155.284615 46.008 
L 159.186713 46.008 
L 159.186713 46.008 
L 163.088811 46.008 
L 163.088811 46.008 
L 166.990909 46.008 
L 166.990909 46.008 
" clip-path="url(#p10b41b8c41)" style="fill: none; stroke: #cc79a7; stroke-linejoin: miter"/>
   </g>
  </g>
 </g>
 <defs>
  <clipPath id="p10b41b8c41">
   <rect x="7.2" y="7.2" width="167.4" height="38.808"/>
  </clipPath>
 </defs>
</svg>
